<svg xmlns="http://www.w3.org/2000/svg" viewBox="0 0 190 56.46"><defs><style>.cls-1{isolation:isolate;}.cls-2{mix-blend-mode:multiply;}.cls-3{fill:#eab308;fill-rule:evenodd;}</style></defs><g class="cls-1"><g id="Layer_2" data-name="Layer 2"><g id="OBJECTS"><g class="cls-2"><path class="cls-3" d="M119.9,39.64c-.05-.07-.12-.12-.17-.18-.37-.45-.75-.63-1.28-.2a1.11,1.11,0,0,1-1.2,0c-.2-.09-.11-.17,0-.37a.83.83,0,0,0-.13-.82h.34c0-.09-.07-.1-.07-.19.18,0,.11-.14.21-.17.32-.09.34.15.56,0-.07,0,0,.31,0,.15,0-.34.49-.42.8-.35,0-.21.2,0,.27-.12s-.14-.18-.24-.24a.34.34,0,0,1-.1.16c-.22-.07-.36-.24-.58-.31.14,0,.33,0,.32-.12-.5,0-.62.09-1.11.12,0-.16-.16-.12-.18-.24-.2,0-.26.18-.43.23-.23-.22-.79,0-1.14-.27-.22.08-.5.33-.61,0-.18,0-.14.14-.27.17s0-.28-.14-.3c0,.14-.16.07-.26.22-.09-.15-.31-.17-.42-.3a2.63,2.63,0,0,1,.59-.22s-.09,0-.09.07a1.27,1.27,0,0,1,.57.16c.06-.07,0-.19-.08-.25s0,.14,0,.16-.11-.11-.17-.17c.22,0,.44,0,.65,0h0l1.29,0c.08,0,.17-.19.21-.31s-.08-.14-.14-.2-.31-.37-.34-.35c-.71.46-1.23-.14-1.68-.43a2.12,2.12,0,0,0-.41-.23,14.9,14.9,0,0,0,2,0c0,.07-.08.09-.1.16.24,0,.29-.21.54-.24,0,.06,0,.14.07.15s.12,0,.17,0c0-.17-.19-.06-.19-.19.34-.24.77,0,1.21-.23.11.14.38.11.53.21,0-.22-.09-.31.13-.41.12.22.39.43,0,.6.09,0,0,.14.12.14,0-.26.32-.22.6-.24-.06-.22.34-.26.38-.12,0-.11.12-.19.32-.18.24.25-.13.27-.14.36.15,0,.45,0,.5-.08-.34,0,.27-.1,0-.3-.11,0,0,.12-.21.17,0-.19.06-.27.2-.32s.22.37.26.44c.13-.09.39.09.55-.14-.26.15-.66,0-.53-.27.23,0,.09.19.19.19s.5-.19.4.12c.23-.08.19-.2.08-.35.26,0,.24.15.13.24.15-.05.12.09.23.09.12-.16-.11-.28,0-.4s.12.12.18.18.27-.2.55-.18c.14.33.35,0,.58.26,0-.13-.12-.15,0-.2s.07.18.18.18,0-.24.09-.25,0,0,.06,0-.14,0-.1.16c.69-.19.83-.22,1.3.11.07-.22.39-.16.55-.08-.06-.16.08-.16.09-.26-.26.07-.14-.14-.13-.24-.21-.07-.29,0-.51-.07,0,.16-.19.14-.26.22,0-.11-.16-.16-.24-.24,0,.12-.4.19-.44.13s.41,0,.32-.22c-.25.12-.24,0-.07-.14a5.17,5.17,0,0,0-1.28.08c0-.11.12-.22,0-.3-.08.28-.47,0-.73,0,.08,0,.21,0,.22-.07s-.16,0-.24-.13c.09,0,0-.09-.06-.1-.08.16,0,.2-.09.31-.48,0-1.23-.1-1.44-.56.24.14.44-.14.73.05,0-.12.09-.11,0-.25a9.68,9.68,0,0,1-1-.14c.06-.07,0-.12-.07-.14s0,.12-.1.1c.06-.07.05-.12-.07-.14,0,.09-.24.18-.27.07.31-.06.07-.28.22-.4h.16c.09.07.06.23.16.15-.06,0,0-.09,0-.14h.27a.2.2,0,0,0,.17.15.37.37,0,0,1-.07-.14l.32,0s0,0,0,.06a.26.26,0,0,0,.19-.05h.09v0c.07,0,.09,0,.09,0l.43,0a.22.22,0,0,0,.05.11c0-.05.16-.06.21-.09h.08s0,0,0,0,.11,0,.18,0l.38,0h0c-.08,0-.29,0-.27.06.19.15.38,0,.62.11a.17.17,0,0,1,0-.15h.09a.21.21,0,0,0,.32,0c.13.1,0,.17.08.25,0-.14.32-.13.32-.17s-.1,0-.11-.06l.45,0s0,0,0,0,0,0,0,0l.85,0s0,0,0,.09h.11s0-.06,0,0,0,0,0,0a1.15,1.15,0,0,0,.33,0l0,.08a.19.19,0,0,0,.18-.13.64.64,0,0,0,.18-.1.18.18,0,0,0,0,.11,3.41,3.41,0,0,1,.92-.12.19.19,0,0,0,0,.11s.15,0,.17,0,.11-.22.17-.33h-.16a.55.55,0,0,0,0-.13c-.29,0-.42-.22-.61,0l-.1-.22h0a.33.33,0,0,1,.13-.15l0,0a.43.43,0,0,1,0-.05c.17-.07.4.09.68.5a.58.58,0,0,0,.43-.13.12.12,0,0,0,.15-.05.22.22,0,0,1-.08,0,2.6,2.6,0,0,1,.32-.26c.22-.15.46-.29.7-.43l.07,0h0l.13,0c.06-.27.21-.17.41-.43a.89.89,0,0,1-.67.05s0,0,0,.06,0,0,0,0a0,0,0,0,1,.06,0l-.15,0s0,0,0,0a9.14,9.14,0,0,0-1.17-.16l-2.65-.18c0-.07.09-.1.15-.14s-.3-.19-.19-.24.18.08.28,0c0,.07,0,.13,0,.2.42-.29.71-.13,1.17-.08,0-.18.2,0,.27-.12s-.26-.11-.13-.14.33.23.51.07c0,.11,0,.19.13.19,0-.19.25-.05.09-.26.12.1.22,0,.32-.07-.81-.17-1.64.11-2.52-.13,0,.09.09.12,0,.15-.25,0-.39-.15-.62-.06,0,.24.19,0,.18.09-.18.18-.4.08-.66.09a.2.2,0,0,0-.13-.19c.21,0,.28.22.45,0-.15,0-.39-.13-.45,0s-.18-.05-.22,0c.13,0,0,.16,0,.15s-.31.11-.39-.07c.17,0,.42,0,.37-.18-.35,0-.51.05-.67-.06,0,.11,0,.17-.16.17-.2-.27-.61.07-.77.15a.7.7,0,0,0-.28-.23h.48c.06,0,.15-.09.19-.16s0-.16,0-.16h0s0-.05,0-.07-.21,0-.23,0,.26-.1.1-.11a.2.2,0,0,0-.11.13c-.27-.14-.51-.39-.78-.52l.14,0c.17,0-.16-.13,0-.15s.52.13.68.05,0,.15.06.15c.15-.38,1,.05,1.17-.13-.06,0-.15,0-.06,0s.11.24.3.23c0-.12-.22-.21-.08-.25.14.17.07,0,.22-.06.11.1.31.07.29.18.39-.37.89,0,1.23,0,0,.19.25.18.41.23,0-.19-.27-.08-.3-.23a4.81,4.81,0,0,0,1.71-.37c0,.13-.11.11-.1.21.21,0,.11-.2.26-.22.29.2.64.48.91.14-.09,0-.21,0-.23,0,.15,0,.56-.28.78-.05-.05.07,0,.19-.15.21a.27.27,0,0,0-.23-.08c0,.15-.14.14-.15.26.22.06.1-.14.27-.12,0,.14-.08.11,0,.2.07-.12.43-.16.31-.27.17.21.58-.13.79.1,0,.12-.29-.12-.27.12a1.18,1.18,0,0,0,.45,0c0-.23-.11,0-.12-.1s.51-.19.36-.32c-.3.21-.78,0-.82.2-.13-.13-.38-.14-.47-.32a3,3,0,0,0,.5-.08c0,.15.48.47.45.07-.19.05-.25,0-.29-.13.2.11.23-.17.44,0-.05-.22-.48,0-.55,0s.06-.08,0-.16a3.52,3.52,0,0,1-1.75-.18c0,.26.39.14.42.37,0,0-.06.05-.1.06,0-.16-.2-.16-.41-.13,0-.17-.11-.2-.19-.28-.22.34-.73.15-1,.07,0-.07.09-.06.1-.11-.35,0-.56,0-.61.14,0-.1-.33.13-.39,0s.22-.17,0-.21c-.08.16-.35.17-.6.19,0-.11-.07-.21-.19-.23s.14.22,0,.3c-.15-.2-.49,0-.69-.26,0,.13,0,.19-.15.17s.08-.34,0-.21c.06.18-.41.15-.39,0,.45,0,.16-.3.53-.39,0,.05,0,.06.06.1s-.15.07-.09.21c.26,0,.25.13.44,0,.11.1.2.07.13.24.21,0,.09-.25.26-.27s.17.08.34,0c0,0,0,.1,0,.15.28-.11.13,0,.38-.18a.39.39,0,0,1,.31.33c.1,0,0-.27.08-.3.31,0,.44-.12.67,0,0,.08-.15,0-.16.11h.23c0-.16-.12-.15,0-.25-.59.17-1.1-.12-1.62.11a.31.31,0,0,1-.07-.25c-.27.05-.5.1-.16.16a2.25,2.25,0,0,0-.21.12c0-.22-.33-.24-.29-.08,0-.18-.17.11-.17,0s.27-.14.43-.23c-.2-.14-.57.06-.83.1.19-.22-.41,0-.46-.12s.36-.12.15-.21c-.2.17-.47.1-.64.35-.36-.33-.94.36-1.4-.06-.07.16-.36.09-.5,0,0-.11.32,0,.2-.21a.51.51,0,0,0-.37.22c-.11,0-.12-.12-.24-.13s-.26.19-.26.12.08-.06.16-.06-.1-.15-.19-.19,0,.18,0,.2c-.11-.22-.44-.32-.77-.45,0,.25-.33-.07-.26.22.2,0,.5-.16.28,0,.17.11.33-.09.45,0s0,.07,0,.1c-.29,0-.53-.24-.79-.05.07,0,.16,0,.17,0s-.06.05-.1.06-.06-.19-.24-.14c.19.27-.57,0-.53.39-.13-.18-.1,0-.33,0,0-.05,0-.05-.06-.09s.27-.19.09-.26c0,.12-.37,0-.32.17.08,0,.25.09.11.1s-.27-.29-.45-.07c.06,0,.14.07.07.09-.29-.14-.46,0-.74-.05.15-.08.38-.08.43-.23-.24.05-.38,0-.45-.12,0,.18.16.25,0,.3,0-.14-.31,0-.35-.17.12.17-.16.27,0,.3.15-.19,0,.12.12.09s.3-.1.28,0-.39.13-.26.17c0-.12.18,0,.17,0s-.16,0-.34,0,.18.16,0,.2a2.25,2.25,0,0,0-1,0c.18-.13-.31-.18-.14-.29.16.07.47.12.56-.09a1.36,1.36,0,0,1-1,0,1,1,0,0,1,.68.06c0-.27.06-.33.11-.61-.17,0-.38.16-.32.17s.16-.21.22-.06a.28.28,0,0,1-.26.26c-.13-.15-.23,0-.45-.07.07-.2-.15-.09-.18-.18s.14,0,.28,0c-.08-.31-.23,0-.39,0a.26.26,0,0,1,0-.2.26.26,0,0,0-.22.11c.25.06,0,.45-.3.38-.09-.11-.13-.09-.08-.25-.11,0-.12.07-.22.07,0-.19-.23-.13-.25-.29-.2.07-.26,0-.32.17s.21,0,.23.09-.26.2-.33.07.13-.27-.13-.29c.15.25-.08,0-.16.16.1.08.22.14.2.34h-.09l-.31-.12c.1,0,.18-.05.21-.12a.64.64,0,0,0-.49,0l-.15-.09c.05-.06.08-.16.17-.21-.14-.06.09-.16-.07-.2,0,.13-.08.17-.15.21,0-.15-.35-.2-.26-.33-.09,0-.19.08-.3.11l-.07-.05a.2.2,0,0,0-.08,0c.12-.17.46-.17.66-.29,0,.14.12.09.18.14-.09-.12.24-.14,0-.2-.09.19-.17-.08-.29,0,0,.24-.38-.05-.6.14,0-.08,0-.18,0-.2s.22.11.22,0a1,1,0,0,0-.39,0c0,.09,0,.12-.16.11.07.14,0,.18-.09.26,0-.16.11-.22-.08-.25a.89.89,0,0,1-.15.29h0l-.28,0c0-.05.11-.17,0-.18s0,.15-.06.17l-.37,0h0c.29,0,0,0,0-.15s.07,0,.11-.06c-.08.15.25.12.23,0s-.07-.27,0-.3c-.24.1-.4.11-.48.28-.25,0-.49-.05-.41-.27.14,0,.14.1.23.13.22-.14.46-.19.59-.29-.15.09-.17-.21-.07-.2s.42.21.39,0c.12.27.48.14.54.36.19,0,.18-.13.26-.21,0,.12.21.06.29.13-.1.1.06.16.13.24,0-.16.4.07.22-.07a.49.49,0,0,1-.18-.08c.18,0,.22-.09.33-.13s-.25-.06-.19-.29c.1,0,.23,0,.29.09-.14,0,.15.08.12.19.24-.08.28,0,.56,0,0-.26-.25,0-.51-.07,0-.38-.49-.31-.61-.61-.18.06-.14.24-.33.07,0,.09,0,.17,0,.25.18,0,.11-.16.33-.12s.21,0,.23.14c-.15,0-.19.08-.43.13,0-.18-.28,0-.3-.18.1.35.49.16.71.45a1.54,1.54,0,0,1-1-.44c-.1,0,0,.08,0,.11s-.1-.06-.11,0,.3.11.18.13-.36-.06-.46-.17.11-.07.17-.1h.2c.16,0,.32-.17.48-.33a1.33,1.33,0,0,0,.34,0,.18.18,0,0,1,0-.15.13.13,0,0,1-.14-.07s0,0,0,0,0,0,0-.06c.3.14.3.31.46.6.18-.12,0-.19,0-.25.09.13.23-.1.32-.13l.42.06a.65.65,0,0,0,0,.19c0,.22.15.45.45.4s.38-.06.41-.14,0-.23-.16-.36.24,0,.2-.18c-.27.08-.06,0-.06-.15-.14,0-.26.08-.39.12l-.11-.07a.51.51,0,0,0-.13-.16c0,.15-.09-.11-.22,0s.08.12.07.24-.06.05-.1.06-.1-.23-.25-.23.1.12,0,.15-.48.13-.29-.14c-.1,0-.27.07-.23-.08-.15.13-.32-.15-.42.05,0,0,0-.05-.07-.05-.45-.07-.94-.06-1.37-.14a.18.18,0,0,0,0-.14.15.15,0,0,0-.13.12A1.35,1.35,0,0,1,109,24l0,0c-.15,0-.3-.13-.43-.16l-.3-.12c.39-.1.64.11,1.09,0,.06-.23.31-.13.25-.37.08.19.27.3,0,.4.19,0,.39-.16.26-.22s.11-.13-.18-.14a.58.58,0,0,1,.32-.17c.11.09,0,.09,0,.25a1,1,0,0,0,.39,0c.13-.07-.13-.19,0-.26a1.05,1.05,0,0,0,.4.23c.25-.33.74-.15,1.11-.18,0,.12.12.34.18.19a.51.51,0,0,1-.19-.29c.21.08.25.15.45,0,0,.27.28,0,.41.18,0-.08-.09-.26,0-.26h.11c0,.18-.08.25-.08.41.22.06,0-.22.21-.16,0-.15-.09-.13-.07-.25.24,0,.52-.16.78.05,0-.2.22-.11.33-.17s0,.24.18.18c0-.09,0-.11,0-.2s-.13,0-.12-.09c.15-.36.7-.14,1-.12.07,0,.52-.26.34.08.14-.06.35-.11.34.13-.11,0-.16-.12-.34-.08,0,.15-.13.18-.14.31.25-.05-.07.14.18.09s-.17-.25,0-.31.21,0,.23.14,0,.11-.1.16c.11,0,.41.11.45,0s-.26,0-.28-.08.08-.42,0-.11c.21,0,0-.29.32-.22,0,.08-.07.13,0,.15s0-.13.15-.21.15.13.19.19c.18-.16.67.07.37-.23.1,0,.23,0,.29.08-.16.06-.06.08,0,.21a2.14,2.14,0,0,1,.73.05c.06-.12-.16-.18,0-.2s.09-.08.22,0,0,.19.07.2c.23,0,.5-.12.57.06-.08,0-.29,0-.27.07.23.14.37-.15.55,0,0-.06,0-.13,0-.2.22,0,.41-.2.45.12a.26.26,0,0,0-.3.38c.16,0,.36-.06.45,0,.13-.08-.12-.15,0-.21s.68-.22.94-.11c-.06-.1-.29,0-.3-.18.38-.19.86.11,1.12,0-.08-.05-.23,0-.29-.13.26-.08.51.07.9,0,.08,0,0-.09.1-.11a1,1,0,0,1,.65.41c0-.33-.27-.29-.42-.42.27-.14.37.13.61,0,0-.08-.27,0-.24-.14-.45.11-.94.26-1.28,0,.37.08.13,0,.32-.17s.44.18.51.11a.07.07,0,0,1-.06-.09c.16-.13.49.1.44,0a.15.15,0,0,1-.17-.09c.48-.14.76.07,1-.17.06.33.84-.09.91.24a7,7,0,0,0-1.22.08c.1.12-.18.1-.27.17.31.22.72-.08,1-.17,0,.06.08.06.07.15-.21,0-.23.1-.44.08.06.08,0,.26.19.23,0-.09-.07-.1-.07-.19l.44,0c.14.33,0,.32,0,.65-.07,0-.08-.06-.17,0,0,.36-.27.42-.46.59.2.13.19-.2.49-.14,0,.06-.09.12,0,.15,0-.15.27,0,.2-.21a.28.28,0,0,1-.28-.08c.07,0,0-.09.1-.11s.18.07.29.08,0-.1,0-.1c0-.2-.19.06-.18-.19.22-.32,0-.7.51-.59.15.25.38.12.68.06a.23.23,0,0,1,0,.15c.13,0,.61.12.61-.09s-.13.07-.28,0c0-.17-.19-.06-.18-.19.48-.08.55,0,.64.26.52,0,.79.09,1.51.1.07-.12-.15-.18,0-.2s.24-.05.5,0c-.06.08,0,.13.07.15.17-.18.28.16.32-.12.14,0,.17.14.24.23.06-.07,0-.19.1-.26-.23,0-.5-.13-.47-.27-.11.06-.48.17-.56.09.08-.14.47-.2.77-.16,0-.06,0-.13,0-.19.17,0,.23.1.27-.07-.23-.18-.37.36-.77.15.3,0,0-.13.15-.21-.33.05-1.12-.45-.43-.47,0-.17-.11-.18-.24-.19,0,.13,0,.18-.15.16s.09.29,0,.31-.34-.07-.44.08a17,17,0,0,0-3-.05,1,1,0,0,1,.45,0c0-.29.28-.13.32-.17-.16,0,.17-.06,0-.15.43-.06.78,0,1-.22-.44,0,.15-.32-.14-.3-.18.31-.57.27-.88.11,0,.06,0,.15,0,.16-.19-.17.2-.19.31-.27a4.15,4.15,0,0,0-.63-.16c0-.08.07-.17.21-.17s.15.1.39,0a.19.19,0,0,1,0,.15c.16,0,.16-.13.33-.12a2.29,2.29,0,0,0,0,.25,1.08,1.08,0,0,1,.64-.4c-.37-.07-.8-.47-1.09-.28,0-.08-.19-.29-.08-.34.23.1.24.15.5,0,0,.07-.07.08,0,.16.44,0,.21.34.69.3.09-.08.13-.21.26-.27-.14,0,0-.23,0-.25s.21.12.1-.06c.23.11.66,0,.8.2s-.08.15,0,.3a3.56,3.56,0,0,1-1.16.13.21.21,0,0,0,.12.19c0-.1,0-.16.16-.16a.23.23,0,0,1,0,.25c.14,0,.27,0,.29.08l-.23,0c0,.25.45.33.58.26a.24.24,0,0,1-.17-.14c.07,0,.08-.09.15-.11.22,0,.09.17.19.24.11-.14.06.11.12.09s.07-.16.21-.16,0,.18.07.19c.5-.42.9.23,1.5-.15,0,.13.19.14.3.19,0-.19-.16-.28-.21-.44-.24,0-.75.08-.91-.14.12,0,.34-.14.45,0,0-.08,0-.19,0-.21a16.29,16.29,0,0,1,2,0c-.12,0,0-.22-.13-.24a.47.47,0,0,1-.68,0,4.53,4.53,0,0,1-1.32.19c0-.27-.55-.31-.49-.52-.16,0-.44.1-.51,0,.16,0,.15-.17.26-.22a.87.87,0,0,0-.45-.07c0-.13.09-.16-.07-.2a2.23,2.23,0,0,1-1.47-.15c.05-.29.47-.14.65-.24-.21-.09.27,0,.22-.12s-.16-.3,0-.35a.24.24,0,0,1,.19.29c.14,0,.29,0,.27-.17-.31.11-.08-.26-.19-.24a.25.25,0,0,1-.16.16c0-.29-.3,0-.38.08-.19-.14-.77.22-1.07-.08a.64.64,0,0,1,.44-.08.49.49,0,0,1,.42-.38c.12.09,0,.1,0,.2.15,0,.35-.32.49-.08-.09,0-.31.15-.21.17.3-.17.57-.49.86-.51a.34.34,0,0,0-.07-.2c.49-.11,1-.41,1.27-.14.18,0,.52,0,.61-.09-.2,0-.22-.27-.36-.23a.88.88,0,0,0,.42-.33c.07.15.4,0,.52.12s-.27,0-.22.12c.61.3,1.61,0,2.2.25-.11.15-.49-.11-.54.14.22.1.5,0,.79.14.06.19-.07.23-.26.22,0-.29-.76-.09-.54-.46a.73.73,0,0,1-.78,0c-.11,0,0,.2-.21.16,0-.09.06-.1.09-.15-.28.23-1.32.1-1.7.36a.21.21,0,0,0-.13-.19c0,.12-.17.15-.2.27.2-.07.19.09.29.13s.27-.19.33-.08-.16.07-.15.17.11,0,.11,0-.11,0-.1.06c.25,0,.54-.34.71-.1-.21,0-.09.17-.2.21a1.16,1.16,0,0,0-.77.15c.35-.07.3.26.53.32-.21.09-.12-.13-.29-.08,0,.29.15.38.32.48-.15,0-.1.11-.16.16.16.07.46,0,.3.23.17,0,.43-.08.46.07s-.47,0-.43.23c.93-.65,1.41.67,2.31.2-.06.24.14.21.25.28a1.73,1.73,0,0,1-.36.48c-.11-.09-.14,0-.28,0s0-.2-.18-.19a.28.28,0,0,0,.07.2,3.48,3.48,0,0,1-.73,0c-.08.17-.23.18-.14.36.38-.1.54.09.89-.16-.13.11.2.51.3.23-.09,0-.21,0-.23,0s0-.18,0-.2.37-.18.39.07c-.07-.06-.21-.05-.21.07.19,0,0,.09.18.14a.67.67,0,0,1,.72-.05c0,.05,0,.1,0,.15-.26-.09-.37.35-.27.12.42.1.58-.34.63-.5s.07.18.18.19c0-.23.29-.25.42-.38-.09,0-.2-.17-.07-.2.35.08,1-.06,1.29.12,0,.09-.17.17,0,.2,0-.35.48.06.61-.09s-.23-.05-.19-.24c.28,0,.18-.24.37-.28a1.63,1.63,0,0,0,1.17,0c-.11-.16-.3.08-.4-.12.09-.1,0-.31.13-.41.11.06.39-.05.5-.13-.22,0-.29-.11-.08-.2-.46-.07-.72.13-1.22.08,0,.1,0,.17-.09.21s-.27,0-.29-.08.34-.09.31-.27-.65.2-.62-.06l-.28,0c.06.34-.69.21-.5-.07-.27,0-.67.08-.69-.21a1.06,1.06,0,0,0,.88-.11c-.1,0-.11-.13-.28-.08,0,.13-.11.11-.16.16,0-.11-.24,0-.29-.13s-.1-.15-.13-.24c.25-.16.55,0,.79,0,0-.2-.33,0-.35-.18s.15,0,.16-.11-.4.05-.46-.07c.13-.07.37-.06.38-.23a3,3,0,0,1,.52.22c-.13-.18.26-.23.29-.52-.26.2-.63.46-.89.11a1.13,1.13,0,0,1-.89,0,.65.65,0,0,0,.31-.28c-.13-.2-.43.18-.61,0,.06,0,.13,0,.1-.1s-.18.1-.27.17-.29-.23-.14-.35a13.11,13.11,0,0,1,2,.22c-.43.12-.93-.24-1.11.12.25-.15.37.13.49-.08.25.07.3.29.52.17-.19.05-.07-.13,0-.15a1.82,1.82,0,0,0,.4.07c0-.27.52-.16.52-.44-.52.32-1.12,0-1.58-.19-.15.08.11.2,0,.25a.28.28,0,0,1-.18-.14c.15-.26,0-.18-.2-.44.31-.1.2.23.41.23s.34-.27.43-.18-.09.05-.1.11.14.06.23.08,0-.19.09-.21a.47.47,0,0,0,.49.42c0-.08-.1-.12,0-.15s.52.08.69.21c.09-.17.26,0,.44-.13,0,.23.49,0,.52.16,0,0,0-.06.1,0,0-.5-.75-.12-.92-.39.31,0,.19-.12,0-.16.42-.27.93.35,1,0,.14,0,.52.25.46.12-.26-.07,0,0-.08-.25s-.34.13-.45,0,.4-.05.22-.11-.23,0-.38.12c-.09-.05-.11-.18-.19-.23s0,.24-.15.21c-.12-.53-.82-.19-1.15-.43a11.23,11.23,0,0,1,2-.14s-.07-.08,0-.1h.16a.32.32,0,0,0,.08.25c.21-.13.25.1.46.12a4.22,4.22,0,0,1,1.84,0c.28,0,1.23-.13,1.53.19,0-.07,0-.18,0-.2.28.07,1.13.18,1.13.18s-.05-.19,0-.21.14.18.24.24c.27-.33.66.16,1-.07-.09-.24-.26-.06-.23,0s-.23,0-.28-.08c.23,0,0-.07,0-.15a.18.18,0,0,1,.23,0c0-.39-.59,0-.84,0s-.17-.36-.47-.32c0,.1.08.1.12.15-.25.08-.55.2-.73,0,.19-.05,0-.22-.13-.2s-.19.06-.37.18c.13-.24-.34,0-.14-.29-.29,0-.09.15-.26.22-.16-.2,0,0-.22.06,0-.1-.17-.09-.07-.2-.31,0-.48.15-.72,0-.05.07-.08.16-.16.21a1.77,1.77,0,0,0-.78,0c0-.39-.84-.31-1.11-.58,0,.06,0,.14,0,.15s-.14-.29-.29-.13.24,0,.19.24a2.31,2.31,0,0,1-1.11.12c.19.05.31-.19.21-.21s-.21.21-.43.23c.05-.07,0-.19.09-.26-.3,0-.61.1-.83.06,0-.06.05-.08.1-.11.39-.07,1,.13,1.22-.13-.39.1-.91-.13-1.39,0,0-.28-.74.14-.92-.19a3.12,3.12,0,0,1-2-.06.08.08,0,0,0,0-.11.53.53,0,0,0-.32.12c.07,0,.13,0,.12.1-.39,0-.5,0-.73,0,0-.07.07-.13.09-.2-.32.09-.34-.15-.67-.06,0,.14.19.13,0,.25,0-.14-.17-.11-.24-.18-.1.08.12.2-.09.25a3,3,0,0,0-.72.1c0-.19-.35-.16-.2-.33-.34,0-.43-.13-.6.09.07-.16-.13-.19,0-.36-.1,0-.11.07-.21.07s.15.26,0,.3c-.62-.07-1.39-.22-1.79.07a.24.24,0,0,1,0-.2l-.28,0c0,.12,0,.18-.15.16.12-.22-.13-.09-.14-.3.24-.14.47.06.79.1.11-.3.85-.21.95-.06-.25-.31-1.07-.27-1.3-.17a3.87,3.87,0,0,0-1.09-.27c.05.13-.1.1-.15.16s.11.14.08.29c.21.06.09-.14.27-.12-.06.25.24.11.19.34-.26,0-.65-.22-.72.05l-.28,0c.05-.07,0-.19.09-.26-.31,0,.07.27-.25.27-.12-.08-.14-.2-.23,0-.18-.16.1-.28,0-.35,0,.08-.37.1-.39,0s0-.19.1-.2c-.07.25.33,0,.5,0s.08.2.18.24c0-.24.31,0,.39,0-.07-.32-.38-.23-.52-.26s.19,0,.26-.22c-.23.06-.45.21-.56,0,0,.13-.39,0-.26.22.16.05.27-.16.33,0-.2.24-.36,0-.56-.06-.06.17.18,0,.12.19,0,0-.06.05-.1.06-.3,0-.35-.08-.58-.21-.16,0,.09.07.07.14a.3.3,0,0,0-.16.07c-.09,0-.19-.07-.19-.19s.22-.06.15-.21a.5.5,0,0,1-.45,0c-.11.05-.07.21-.26.21s-.12-.12-.23-.13a.73.73,0,0,1-.67,0c0,.1-.18.15-.26.22.28,0,.39-.09.51.07a.38.38,0,0,0-.16.11c.14,0,.17-.09.27-.12,0,.31.35,0,.4.12s-.07.11,0,.21c.31-.15.8-.24,1,0-.08-.29.59-.1.35.13.29,0,.09-.15.26-.22,0,.09.13.12.13.24-.49.29-.82.1-1.3-.11-.34.16-.49.06-.71.15V15.3c0,.14-.62.08-.43.23a.39.39,0,0,1,.51.06c-.35.06-.55-.05-.9,0,.07-.17,0-.14-.13-.24,0,.29-.34.22-.27.07a7.5,7.5,0,0,0-1.62.06.46.46,0,0,0-.62-.06.22.22,0,0,1,0-.15.26.26,0,0,1-.34-.13c-.21.15.23.17.07.24s-.34,0-.4-.17c-.39,0-1.23.19-1.57,0-.33.18-2.21.28-1.51,0a10.56,10.56,0,0,0-1.11.07c.27,0-.11,0,0-.2-.16.06-.19.08-.28,0,0,.23-.39-.06-.5.13,0,0,.07,0,0,0a1.83,1.83,0,0,0-.14-.29c.13-.14.19,0,.38-.13-.11-.16,0-.16.09-.3a2.66,2.66,0,0,1-1.23,0c0,.18.27,0,.29.18l-.27,0a.22.22,0,0,0,.12.19c0-.18.18,0,.21-.16.09,0,.22,0,.19.19-.1,0-.29,0-.22.11.14-.05.25-.09.34,0-.29.19-1,0-1.44.2-.18-.17-1.22-.2-1.17.07-.12-.11-.08-.07-.18-.24.18-.06.61.07.6-.14-.25.06-.62.14-.4-.12-.16,0-.12.16-.27.17,0-.07,0-.14,0-.2s.54,0,.32-.12c-.09.14-.36,0-.45,0s-.7.17-.79-.1c0-.06.06-.08.1-.11.19,0,.46.13.51,0a.19.19,0,0,1,0,.25c.27,0,0-.15.15-.21.08.09.19.19.28,0a2.11,2.11,0,0,0-1.46-.06c-.24-.19-.92.19-1-.33-.15.06-.44,0-.52-.11s-.09.14-.27.11c-.33-.09-.27-.28-.44-.57,0,.28-.43.25-.6.14,0-.06.09-.05.1-.11-.2-.15-.27.28-.44,0s.31-.09.1-.15c-.19.13-.27-.15-.39.07-.1,0-.1-.14-.18-.19-.11.21-1.15.23-1-.13-1,.24-2.52-.2-3.48-.17,0-.09,0-.21.15-.21s.1.23.23,0c-.1,0-.14,0-.13-.15.18-.07.36.13.45,0-.17,0-.55-.06-.68-.06s0,.23-.14.31c.06-.37-.23,0-.35-.18.17-.08,0-.3-.07-.19.13,0,0,.16,0,.15-.24,0-.31-.52-.48-.32,0,.12.25,0,.18.14s-.34,0-.5,0a.5.5,0,0,1-.65.35c.24,0,.1-.1.09-.26a1.54,1.54,0,0,1-.9-.09c.11,0,.55,0,.39-.08-.3.08-.34-.12-.19-.23-.26.11-.27-.09-.5.08,0-.06-.07-.07-.07-.15S97,12,97.17,12a2,2,0,0,0-.48-.37c-.06.13.23.14.07.19s-.2,0-.27.1-.1-.14-.16-.15l-.06,0c-.1,0-.23,0-.3-.07.23-.23.5.16.61-.09-.15,0-.35-.06-.3-.24s.41,0,.44-.08c-.28-.07-.5,0-.58-.31-.08.23-.46,0-.66.2-.1-.1,0-.1-.07-.2-.17.09-.24-.17-.28,0,.13,0,0,.16,0,.15s-.19-.08-.34-.08c0-.15-.11-.14-.08-.29-.49.16-.85-.11-1.28-.12a1.28,1.28,0,0,0-.19-.12c0-.06,0-.12-.07-.11l-.05.06h0l-.24,0h0c-.25-.1-1.08.06-.81-.3-.19.16-.69.29-.67,0-.14,0-.07.15-.07.22l-.12,0a1.47,1.47,0,0,0-.79-.15,3.16,3.16,0,0,1-.66-.29c-.26.19-.51.33-.61,0a7.09,7.09,0,0,1,1.33,0c0-.27-.29-.2-.31-.43a5.65,5.65,0,0,1,3.44-.28c1.27-.18,2.6.11,3.77-.46a17.16,17.16,0,0,1,2.62-.07c-.37-.38-1.27.1-1.7-.24A1.9,1.9,0,0,1,98.29,8a1.31,1.31,0,0,1-.82-.5,2.54,2.54,0,0,1-1.71-.43c-.18,0-.1.14-.27.11,0-.12-.12-.1-.08-.24C95.25,7,95,7,95,6.85c-.33.2-.33-.1-.67.09a.76.76,0,0,0,0-.15,2.63,2.63,0,0,1-.91-.14.65.65,0,0,1,.71-.37s.1-.1.15-.15S94.1,6,94,6c-.75-.07-1.51-.14-2.26-.19a2.11,2.11,0,0,1-2-.91,1.93,1.93,0,0,0-2-.88.47.47,0,0,1-.49-.46c0-.51-.24-.53-.61-.25s-.43.58-.8.44-.91-.34-1-.64c-.19-.58-.45-.85-1-.81a4.47,4.47,0,0,0-1.73.16c-.45.19-1-.53-1.58-.3a.6.6,0,0,0-.21.14.26.26,0,0,0,.09.16,4.45,4.45,0,0,1,.64.37.5.5,0,0,1,.06.45.57.57,0,0,1-.36.28.78.78,0,0,1-.5,0,7.22,7.22,0,0,0-2.37-.66c-.06,0-.12-.11-.18-.17.12-.09.23-.23.36-.25.32-.06.92.09.91-.17,0-.52-.61-.34-1-.36C76,1.78,74,1.7,72,1.57a2.7,2.7,0,0,0-1.19.35c-.54.21-.82-.53-1.35-.5s-.83,0-1.24.1c-.22,0-.35.33-.65.07a1.23,1.23,0,0,0-1.63-.05c-.3.2-.44-.1-.62-.22-.79-.52-1.43.36-2.16.21s-1.46-.94-2.36-.29c-.17.13-.48.06-.72.12-.48.13-.76-.68-1.35-.23-.43.33-1,.08-1.48.06C55.34,1.12,53.48,1,51.61,1a2.7,2.7,0,0,0-1.71.25c-.31.21-.64,0-.86-.3-.34-.45-.7-.72-1.21-.23-1,0-1.91.5-2.93.42C42.11.88,39.31.69,36.52.61c-.74,0-1.24-.79-1.86-.53a4,4,0,0,1-2,.28c-.77-.08-1.36.58-2.19.39a2.26,2.26,0,0,0-2.34.58c-.18.2-.62.2-.94.21a10.55,10.55,0,0,1-2-.09c-.65-.12-1.1.28-1.64.43-.06.19-.1.43-.38.33-.08,0-.11-.2-.15-.33a11.87,11.87,0,0,1-3.53.82.67.67,0,0,0-.44.15.66.66,0,0,0-.14.45c0,.22.15.3.3.21s.59-.37.65.2c0,.08,0,.19.06.24a7.28,7.28,0,0,0,1.92.66c.29-.15.44-.11.44.21,0,.14-.1.4-.19.41-.63.1-.92.3-.39.9a.52.52,0,0,1,0,.47c-.25.39-.42,0-.56-.13a.57.57,0,0,0-.68-.07,1.63,1.63,0,0,0-.81.92c-.16.59-.66.37-1,.43-.55.59-.73.59-1,0-.07-.14-.06-.32-.13-.46s-.58-.24-.66-.08a.44.44,0,0,0,.07.38c.13.19.15.38,0,.39-.82.05-1.21.88-2,1s-.06.54-.13.66a1.22,1.22,0,0,0,0,1.29.4.4,0,0,1-.37.53c-1.34-.07-1.78.6-1.77,1.85,0,.61-.55.84-1.33.37-.47-.27-.7-.1-1,0-.37-.48-.68-.23-1,.09s-.66.22-1-.05-.64,0-.72.38,0,.67-.25.95c-.47.47-1.18.89-1.33,1.46-.22.8.81,1.18,1.14,1.84,0,.08.11.15.12.22a1.31,1.31,0,0,1-.35,1.16c-.25.21-.46.53-.85.41A.58.58,0,0,1,5.68,20c-.06-.32-.13-.61-.47-.72a3,3,0,0,0,.46-.81.92.92,0,0,0-.23-.64c-.06-.08-.35-.08-.46,0A3.42,3.42,0,0,0,3.59,20a.49.49,0,0,0,.27.61c.51.15.77.28.27.76a5.64,5.64,0,0,0-.61.76.32.32,0,0,0,0,.24.66.66,0,0,0,.14.2c.67-.61,1.62-.07,2.32-.56a.38.38,0,0,0,.09-.19.54.54,0,0,1,.22,0c.72.13.66.11.54.47a6,6,0,0,1-1.94,2.26c-.24.22-.54.38-.57.78a2.07,2.07,0,0,1-1.68,1.9,2.07,2.07,0,0,0-.63.36c-.16.14-.46.3-.17.58s.37.41.56.41a8.74,8.74,0,0,0,.94-.25c.62-.06.93.29.77.93-.08.3-.48.6-.43.84s.38.72.33,1.18-.3,1.08.06,1.46-.3.86.07,1.3.11.94.13,1.42c.14,0,.32-.07.38-.16.26-.42.48-.87.72-1.3a3.26,3.26,0,0,1,.29-.36,5.45,5.45,0,0,1,.2.69,4.32,4.32,0,0,1,0,.5c0,.64.1.73.71.76A1.69,1.69,0,0,0,8,35.35c.26-.24.52-.65,1-.26.31.24.79.25,1.13.46.15.09.19.44.19.67a11.89,11.89,0,0,0-.08,2.52,9,9,0,0,0,.73,2.6,2.87,2.87,0,0,1,0,1.21c-.16,0-.32,0-.48,0-.86,0-.86,0-1.07.87-.13.52-.21.55-.58.23A4.16,4.16,0,0,0,8.1,43a.67.67,0,0,0-.63.21,1.36,1.36,0,0,0,.45,1.56,4.22,4.22,0,0,0,2,.24c.42,0,.39-.46.6-.67a1.89,1.89,0,0,1,1.86,0l.07.08c-.05,0-.12,0-.19.11s-.23.43-.32.65c0,.06,0,.16,0,.23.06.23.18.23.37.07s.63-.45.86-.12-.26.49-.43.73-.28.22-.34.36a.66.66,0,0,0,0,.48c.1.28.38.3.62.26s.26-.21.41-.28c.5-.22.73-.1.86.45a2.43,2.43,0,0,1,0,.47c.14.08.34.16.33.24A5.23,5.23,0,0,0,15.15,50c.22.55.41.23.71.16a6.36,6.36,0,0,1,1.24-.08c.41,0,.6.22.57.63-.07.69-.11,1.36.55,1.83l1.62,1.17s.14-.08.22-.12a1.89,1.89,0,0,1,2.12.15c.58.44,1.47.22,1.93,1s1,1.22,1.85.44c1,.15,2-.18,2.92.52a.51.51,0,0,0,.69,0,.76.76,0,0,1,1.13,0c.26.26.43.05.64,0a1.31,1.31,0,0,1,1.76.52c.25.37.47.36.79.07A1.55,1.55,0,0,1,35,55.67c.75,0,1.55.31,2.25-.05a3.75,3.75,0,0,1,2-.17l2.29.07c.34,0,.75.15,1,0,1.22-.64,2.49-.2,3.74-.25.34,0,.77.14,1,0a2.58,2.58,0,0,1,2-.31c.79.13,1.48-.41,2.19-.35a4.85,4.85,0,0,0,2.67-.53,2.19,2.19,0,0,1,2.37.07,2.55,2.55,0,0,0,1.48.24c.46,0,.86-.68,1.37-.21s.89-.18,1.38-.09a15.17,15.17,0,0,0,2,.1,17.39,17.39,0,0,1,2.29.13c.73.14,1.24-.47,1.93-.39s1.36.08,2,.12,1.31.27,1.75,0c.73-.42,1.23.16,1.83.14,1.42,0,2.86.51,4.24-.21,1.1.06,2.21.06,3.3.19.69.08,1.37.61,2-.24.22-.32.63-.13,1-.12.59,0,1.19.08,1.78.1s1,.71,1.59.12a3.35,3.35,0,0,0,1.67-.4c.08,0,.22,0,.25,0,.48.69,1.21-.25,1.54.14.48.58,1-.19,1.56.34a1.5,1.5,0,0,0,1.68,0c.82-.47,1.86,0,2.64-.6a5.49,5.49,0,0,1,2.2.38,1.73,1.73,0,0,0,2.3-.29,1.26,1.26,0,0,1,1.16-.31c1.28.08,2.55.12,3.82.2.51,0,.72-.2.9-.66a.51.51,0,0,1,.85-.09c.34.32.65.5,1.1.18.19-.13.6-.28.66-.21.77.84,1.53-.33,2.3,0,.33.17.66-.12.88-.37a1.51,1.51,0,0,1,1.37-.45c2,.12,3.91.18,5.85.31a5.31,5.31,0,0,0,1.69-.36c.77-.21.35-.48.21-.83a.5.5,0,0,1,.47-.7c.82-.07,1.69.27,2.46-.33.1-.07.43.16.66.24a2.16,2.16,0,0,0,.68.22c.24,0,.21-.14.15-.34-.18-.59.07-.94.58-.94.46.69.84-.16,1.31-.07a13,13,0,0,0,1.77.09c1,0,2,.12,3.06.14.21,0,.58-.15.61-.29.1-.53.51-.59.89-.72.06,0,.14-.13.12-.16s-.11-.17-.17-.17c-1.1-.09-2.2-.12-3.28-.27-.54-.07-.95.36-1.38.26a5.92,5.92,0,0,1-1.29-.72,1.88,1.88,0,0,0-.7-.2c-.68-.06-1.36-.09-2-.13a13.32,13.32,0,0,1-2.28-.19c-.44-.1-.78-.58-1.26-.06-.08.08-.33,0-.49,0a.84.84,0,0,1-.47-.13c-.67-.71-1.18-.34-1.71.19-.14.14-.48.4-.51,0,0-.59-.47-.87-.76-1.26-.15-.2-.16-.31,0-.38a1,1,0,0,1,.23-.06c.25,0,.57,0,.74.09a1.69,1.69,0,0,0,2.1.16,1.12,1.12,0,0,1,1.19.14,2.57,2.57,0,0,0,2.41.24,4.9,4.9,0,0,1,1.73-.19c1.27.07,2.54.14,3.81.19,1,.05,2,.07,3,.1.07,0,.14-.1.21-.15-.11-.09-.21-.24-.34-.27s-.52,0-.75-.1-.39-1.09-.07-1.35l.09-.08s0,.08.09.14c.7.49.64,0,.69-.45a1.61,1.61,0,0,0,0-.22,4.33,4.33,0,0,0-1.57-.61c-1.42,0-2.84-.17-4.26-.26q18.86-.67,37.66-2.32l-43.84.19A2.21,2.21,0,0,1,119.9,39.64Zm5-5.65c0-.12.19,0,.22,0s-.15.08,0,.1-.23.07-.32.12C124.61,34,125.05,34.06,124.88,34Zm-1.37-.31.33,0a.84.84,0,0,1-.3.32C123.34,34,123.49,33.79,123.51,33.68Zm-.61,0c-.08.17.16,0,.33,0s-.06.13.07.15-.31,0-.27.12c-.15,0-.12-.1-.23-.09s.07.08,0,.16a.24.24,0,0,0-.17,0,.24.24,0,0,0,0-.21c-.21.13-.07.19-.38.08,0-.13.18-.11.33-.12a.38.38,0,0,0-.18-.09C122.52,33.49,122.64,33.79,122.9,33.67Zm-.85-.09c.11,0,.15,0,.23,0s-.1,0-.17.07,0,.23-.21.16c0-.05,0-.1,0-.15S122.06,33.67,122.05,33.58ZM127.52,28c0,.18-.15.08,0,.26h-.11c0-.05,0-.05-.06-.05S127.36,28,127.52,28Zm-.85-.14c-.1.25-.64.17-.78.1C126,27.77,126.57,27.9,126.67,27.89Zm-1.07-.08c0,.13-.18.11-.33.12C125.21,27.76,125.49,27.85,125.6,27.81Zm-3-.3c0,.19-.15,0-.32.12C122.22,27.46,122.5,27.55,122.61,27.51Zm-9.69-2.87c0,.05,0,.09,0,.12l-.09-.08Zm15-2c-.19,0-.32,0-.3-.18a.59.59,0,0,0,.34,0A.18.18,0,0,0,127.92,22.68Zm-.16-.59c.06.23.1.15.35.17,0,.11,0,.14,0,.21-.21-.09-.24,0-.56,0,.14-.14.18-.07,0-.25C127.55,22,127.6,22.17,127.76,22.09Zm-1,.11c.12,0,.13.13.19.19.15-.09.23,0,.44-.08.06.17-.07.18-.16.11,0,.21.36,0,.3.23-.2,0-.28-.07-.45-.07,0,0,.1,0,.1-.11C127.07,22.42,126.68,22.39,126.81,22.2Zm.09.3c.24.07.07.31.46.27,0,0,0,.09-.1.1-.27,0-.24-.29-.52-.26C126.74,22.54,126.9,22.58,126.9,22.5Zm-.3-.18c-.13.22-.68.09-.89.06C125.89,22.07,126.22,22.37,126.6,22.32Zm-1.12,0c0,.19,0,0,.17,0-.08.3-.27,0-.38.18C125.17,22.48,125.35,22.29,125.48,22.29Zm-.28,0a.49.49,0,0,1-.49.18C124.81,22.21,125,22.39,125.2,22.31Zm3.67-3.67c-.22-.08.26.05,0-.05.08-.06.27.06.4,0s-.1.05-.17.07,0,.1-.1.1S129.06,18.63,128.87,18.64Zm.26.49c0,.06,0,.09.07.1-.3.15,0-.33.21-.17C129.43,19.17,129.21,19.1,129.13,19.13Zm.53.22c-.07,0-.06.15,0,.15-.26.08-.09-.08-.25-.24.08.07.27,0,.35.08S129.66,19.4,129.66,19.35Zm.22-.67c0-.21.23,0,.44-.08C130.37,18.78,129.94,18.72,129.88,18.68Zm.15-.16a1.63,1.63,0,0,1-.46-.22c0-.17.23-.07.28,0,.25-.28.63-.07.94-.17.06.22.2,0,.35.18C130.92,18.51,130.3,18.25,130,18.52Zm1.28-.19c0-.13.06-.2.2-.21a.28.28,0,0,1,.08.24A.35.35,0,0,1,131.31,18.33Zm1.79,0a.36.36,0,0,1-.46-.17C132.81,18.33,133,18.1,133.1,18.36Zm2.06-1.5c.13.11,0,.2,0,.35-.25,0-.15-.09-.44,0-.11-.17.18,0,.15-.16s-.36.09-.29-.13C134.83,16.88,135,17,135.16,16.86Zm4.46-.85c0,.12-.2.13-.33.17C139.25,16,139.49,16,139.62,16Zm-2.14-.11c-.16.13-.27,0-.44,0,0-.06,0-.13,0-.2A.54.54,0,0,1,137.48,15.9Zm-3,1.16a.54.54,0,0,0-.34,0C134.11,16.86,134.49,16.78,134.45,17.06Zm-.48-1c.07.15-.35.15-.32.12C133.58,16,133.86,16.13,134,16.09Zm-.92-.39c-.07.16-.39.08-.51,0C132.53,15.39,133,15.6,133.05,15.7Zm-.44,4.85c-.13.13-.07.17,0,.36-.29,0-.36-.16-.5.08-.23-.08-.5-.56-.1-.59C131.92,20.65,132.46,20.4,132.61,20.55Zm-.32-.48c0,.12-.26,0-.16.16a.46.46,0,0,0-.28,0C131.76,19.9,132.17,20,132.29,20.07Zm-.15-1.8c0,.12-.27,0-.39.08C131.75,18.14,132.05,18.17,132.14,18.27ZM130.52,17l.78,0c0,.27.16.16.35.13s-.32,0-.1.21c-.2,0-.27-.17-.45-.07,0-.05,0-.1,0-.15-.18,0-.28.12-.5,0-.06,0,0,.07-.05.1C130.37,17.15,130.58,17.06,130.52,17Zm-.33.08c.08-.2.1.1.18.09s-.27.13-.43.18C129.82,17.1,130.39,17.17,130.19,17.05Zm-1.35-.11c.06.17,0,.21-.09.3s-.29-.09-.3-.28Zm-.5,0c-.14.23.2.11.15.39a3.07,3.07,0,0,0-1.21-.32C127.59,16.84,128.06,17.13,128.34,17Zm-1.49.91c0-.1.16-.13.33-.13C127.19,17.91,126.9,17.91,126.85,17.88Zm.34-.68c-.2-.05-.1-.09-.34,0C126.8,17,127.23,17.05,127.19,17.2Zm-13.08,5.5c0-.11,0-.16.15-.16-.36,0-.23.1-.66.15,0-.09-.08-.1-.07-.2.27.07.5-.19.77-.1C114.31,22.55,114.29,22.69,114.11,22.7Zm.32-.07c-.13,0-.08-.31.09-.26S114.38,22.48,114.43,22.63Zm4.2-2.64c0-.22.2-.15.33-.13C119,20,118.75,20,118.63,20Zm1.07.07c0-.22.25-.15.38-.12C120.14,20.13,119.83,20,119.7,20.06Zm1-.21c.13.06.07.32.31.28,0,.22-.26,0-.34,0S120.7,20,120.69,19.85Zm.36.33c.09-.09.26-.23.39-.13A.58.58,0,0,1,121.05,20.18Zm.37,1.68c0,.18-.56.14-.62,0A4.21,4.21,0,0,1,121.42,21.86Zm-.56-2c.2-.09.12.13.29.08C121.18,20.06,120.82,20.09,120.86,19.84Zm.68,2.77c-.11,0-.14-.15-.14-.3h-.11c-.08,0,0,.06,0,.15s-.11-.14-.29-.08c0-.06.11,0,.11-.11s-.18.14-.39.08a.7.7,0,0,1,.77-.15C121.36,22.4,121.63,22.48,121.54,22.61Zm.53-.34c.24.05.31,0,.61,0C122.56,22.38,122.13,22.57,122.07,22.27Zm2.66-.93c-.18.11-.42.17-.47.38.22-.07.27-.26.59-.24,0,.07-.07.13-.09.2s-.13-.08-.28,0c.22.22-.51.29-.72.1,0-.18.16,0,.33-.07s0-.15.1-.16-.24,0-.34,0,0-.2-.18-.19c0-.11.24,0,.28,0,.11-.21.38-.17.48-.29S124.54,21.34,124.73,21.34Zm.51-3.26a4.39,4.39,0,0,0,.74.05c-.06.39-.69.34-1,.32C125,18.24,125.16,18.21,125.24,18.08Zm-.32.18c0,.06,0,.13,0,.2-.22.06-.19-.14-.24-.24A.3.3,0,0,0,124.92,18.26Zm-.18,1.87a.24.24,0,0,1-.09.26C124.37,20.42,124.44,20,124.74,20.13Zm-.9-4.82c.07-.14.31,0,.29.13C123.92,15.52,124,15.31,123.84,15.31ZM123.2,21c.14-.26.66-.16.63-.45a1.91,1.91,0,0,0,.51.12.43.43,0,0,1,.49-.19c-.19.33-.54.33-.78.66a.57.57,0,0,0-.39,0c-.09-.07.22-.23.43-.23-.23-.24-.69.11-.94.16-.05-.15,0-.2-.08-.25S123.31,21,123.2,21Zm.31.38c-.2-.2-.87.18-1,0,.26-.23.77-.06,1-.21C123.41,21.32,123.5,21.28,123.51,21.42ZM123,21.1c-.33,0-.35-.26,0-.15C123,21,123,21.05,123,21.1ZM122.88,20c.09.06-.21,0-.38.08C122.46,19.78,122.78,19.89,122.88,20Zm-.37.93c.14,0,.24.38,0,.31C122.61,21.07,122.41,21,122.51,20.88Zm.29.79c.17.43.56-.07.69.25.05,0,.05-.05.11-.06s-.18,0-.13-.19c.32,0,.2.39.52.22-.5.28-1.17-.07-1.77.17,0,0-.07,0-.12,0,.1-.16.22-.15.2-.31s.11.06.12.14S122.59,21.66,122.8,21.67Zm-.38-1.89c0,.16-.35.14-.34,0A.59.59,0,0,1,122.42,19.78Zm-.36,1.78c.08.17-.16.09-.27.12A.17.17,0,0,1,122.06,21.56Zm-.1.82c-.13,0-.16-.2-.4-.13C121.57,21.94,122,22.15,122,22.38Zm-9.08-3.72c0-.06,0-.13,0-.2C113.07,18.41,113.09,18.69,112.88,18.66Zm-.08-.19c-.12-.11-.18.05-.39,0,.09-.1,0-.06,0-.2C112.6,18.28,112.78,18.29,112.8,18.47Zm-1.13.48a.24.24,0,0,0,.34,0c0-.08-.11-.1-.23-.08.2-.14.54-.07.88-.11-.06.07,0,.08,0,.15a.18.18,0,0,1,.29,0c.25-.23,1.35.05,1.18-.53a1.62,1.62,0,0,0,1-.22c.08.08.23.09.3.18.08-.23.68-.22,1-.07.14,0,.12-.12.21-.16.52,0,1.15.09,1.63.09,0,.19.34.28.63.16.2.1,1,.25,1.22,0,.23,0,0,.07.08.19a1.56,1.56,0,0,1,.83-.05c-.26.21.3.33.53.36-.2.16-.51,0-.68-.1s-.1.17-.26.17c0,0,0-.06,0-.11a5.66,5.66,0,0,1-2.18.1c-.16.08-.49,0-.54.19a4.4,4.4,0,0,0,1.62-.06.18.18,0,0,0,0,.15c0,.07.55-.16.46.17.19-.28.38,0,.48-.33.25,0,.51-.06.52.17-.18,0-.23-.1-.34,0a.78.78,0,0,1,.41.22s0-.23.09-.31.36.17.52.27c-.12.11-.33.15-.42.28s-.11-.06-.12-.14c-.34.16-.34.07-.78.1.06.2.16.19,0,.4-.28-.07-.22-.19-.43-.37.17-.05.12.13.29.08s-.06-.09.05-.11c-.29-.23-.46.22-.78.06-.05-.08.25-.1.22,0,.17-.18-.53-.11-.2-.34-.1,0-.11.07-.21.07a.2.2,0,0,1,.06.14c-.19,0-.42-.09-.43.13-.14-.11-.19-.06-.4,0-.06-.19.29-.06.33-.17-.17-.14-.31,0-.46-.12-.06.16.18,0,.13.19-.2,0-.26-.13-.46-.12-.1-.17.19,0,.15-.16s-.18.1-.28,0c-.13,0,.2.13,0,.25-.18-.12-.15-.22-.46-.12a.28.28,0,0,0,0-.21c-.19,0-.07.19-.2.22-.51-.39-1.08,0-1.64-.19,0,.14-.48.15-.45-.07-.16.13-.1.15-.38.17-.2-.38-1.22.08-1.63-.14,0-.14.07-.18.15-.11s-.06,0-.06-.1c-.14.19-.74.38-.94.12-.27.19-.54,0-.89.06C111.53,19.05,111.66,19.05,111.67,19Zm-2.12-4c-.09,0-.11,0-.12-.1-.16,0-.11.2-.27.07C109.2,14.81,109.54,14.77,109.55,15ZM109,23.45c0,.07,0,.13,0,.2l-.33,0C108.67,23.53,108.78,23.47,109,23.45ZM5.13,19.27c0,.12-.08.25-.16.3s-.26,0-.16-.16a.56.56,0,0,1,.32-.14.19.19,0,0,1,0-.07l0,.05ZM6,21.85a.07.07,0,0,1,0-.05c-.12-.05-.27-.08-.32-.16s.06-.27.18-.17a.28.28,0,0,1,.09.17c0,.05,0,.11,0,.16l.05,0Zm3.23,8.06s.12-.09.18-.14.16.16.14.18C9.45,30.18,9.33,30.16,9.26,29.91Zm1.91,13c-.09-.07-.11-.23-.14-.36h0l0,0,0,0c.12.06.27.09.32.19S11.29,43,11.17,43Zm1.12-3.13s.1-.1.15-.16.16.16.14.19C12.47,40.09,12.35,40.08,12.29,39.82ZM32,53.92c-.81,0-1.62-.08-2.42-.13-.06,0-.11-.11-.17-.17.1-.09.2-.26.31-.26.41,0,.81,0,1.22.06v0c.32,0,.65,0,1,.07.11,0,.19.18.28.27C32.14,53.83,32.07,53.92,32,53.92Zm1.12,0L33,53.84l.18-.21.14.17Zm94.78-5.61s.12,0,.15,0,.07.22-.11.29c0,0-.1-.1-.11-.16S127.89,48.37,127.91,48.32Zm2.86-3.43.14.16-.16.13-.15-.08ZM119.92,29.5h0l0,0S119.92,29.49,119.92,29.5Zm-2.19.6a.47.47,0,0,0-.33,0,.35.35,0,0,1,.08-.26,1.16,1.16,0,0,1,.25.21S117.74,30.09,117.73,30.1Zm-1.3.49c-.13.14-.47.09-.76.2,0-.14.37-.05.31-.27C116.11,30.56,116.32,30.53,116.43,30.59Zm.58-.87s0,.05,0,.08a.43.43,0,0,1-.17,0Zm.31.16c0,.28-.33.07-.6.14C116.87,29.86,117,30,117.32,29.88Zm-1.45.65c-.12.06-.48.31-.5,0A1.22,1.22,0,0,1,115.87,30.53Zm1.91.12c.32,0,.57,0,.53.32C118,30.81,118.15,30.78,117.78,30.65Zm.6.54c0-.07-.12-.14,0-.18,0,.15.44.12.45.07s0,0,0-.1c-.52.19-.65-.41-.14-.34a.28.28,0,0,0,.08.2c.11,0,.39.05.32-.13-.43.11-.16-.24-.48-.37-.06,0,0,.22-.14.27-.13-.13,0-.29-.09-.35s-.07.21-.14.31-.39-.16-.13-.24a.32.32,0,0,1-.29-.08.08.08,0,0,0,.06-.05h0c.06.08.36.05.46,0l.06,0a5.66,5.66,0,0,1,.75.05s-.09-.08,0-.08a.6.6,0,0,1,.2,0,2.11,2.11,0,0,1,.23.19.47.47,0,0,0-.24,0c.11.11.37.08.47.22-.41,0-.56-.25-.81-.25,0,.26.3.31.49.42.1.29-.47.1-.59.39a1.43,1.43,0,0,0,.81-.36.58.58,0,0,0,.27.17.67.67,0,0,1-.07.18l-.45,0c.09,0-.07.08-.13.15Zm1.43,0h0Zm.68-1.66c0-.07.08-.09.1-.15-.18,0-.47.07-.59,0l0,0h.87C120.87,29.55,120.71,29.45,120.49,29.56Zm-1.88-1.09-.18-.08a.39.39,0,0,1,.23,0S118.62,28.46,118.61,28.47ZM77.91,12.25l-.14.05a.26.26,0,0,1,.12-.07Zm23.16,6.4h.23a.25.25,0,0,1-.21.21A1.5,1.5,0,0,0,101.07,18.65Zm7,7.39-.21-.08a.67.67,0,0,1,.25,0A.1.1,0,0,1,108.07,26Zm-1.51-1.27a.28.28,0,0,1,.19-.17l.16.1A.53.53,0,0,0,106.56,24.77Zm2,1.32h-.15s0-.12-.14-.12.17-.08.27-.12S108.52,25.93,108.57,26.09Zm-1.45-1.26s0,0,0,0l0,0ZM83.33,7.21l-.15-.06.17-.2.15.14ZM115.6,38.14a.66.66,0,0,0,.42.14,1.78,1.78,0,0,1-.61,0A.27.27,0,0,0,115.6,38.14Zm3.61-3.67c-.14,0-.09-.19-.24-.18C119.07,34.12,119.37,34.36,119.21,34.47Zm.78,0c-.18,0-.46,0-.51-.11.47,0,.32-.17.54-.24C120.06,34.22,119.93,34.25,120,34.42Zm6.23-2.48c0,.06-.23,0-.32.06l.11-.13C126.07,31.91,126.21,31.86,126.22,31.94Zm2.64-1.23a.31.31,0,0,1-.21.06l0-.1C128.73,30.63,128.81,30.57,128.86,30.71Zm-4.27-.87c0,.06,0,.09.07.1s-.11,0-.11.1C124.39,30.05,124.4,29.82,124.59,29.84Zm-.27.12a.75.75,0,0,0-.08.14l-.27,0C124.05,29.93,124.14,29.86,124.32,30Zm-.45.11-.72,0C123.32,29.79,123.88,29.77,123.87,30.07Zm-.84-.23c-.07,0-.16,0-.17.07.21-.05.16,0,.15.11l-.45,0c0-.06,0-.08,0-.12C122.73,30,122.86,29.66,123,29.84Zm-.47-.22c0,.05-.06.05-.11.06s0,.09.07.1-.19,0-.23,0S122.46,29.66,122.56,29.62Zm-1.29-.11a.35.35,0,0,1-.26-.11h.25C121.28,29.46,121.33,29.49,121.27,29.51ZM120,28.64a.45.45,0,0,1,.45-.22A.89.89,0,0,0,120,28.64Zm.39-1.33a.38.38,0,0,1,.28-.07c0,.09-.06.11,0,.2s.22-.32.43-.18c-.26.07,0,.26-.27.17.07.17.35.11.42.27s-.24,0-.33.08c0-.15-.14-.15-.14-.3a.6.6,0,0,1-.37.28C120.35,27.49,120.68,27.51,120.41,27.31Zm-.26.16c0-.06.13,0,.21-.06a1.13,1.13,0,0,0-.08.36c-.2.06-.19-.1-.29-.13S120.34,27.54,120.15,27.47Zm-.25,1a.34.34,0,0,1,0,.21l-.08,0a.26.26,0,0,0-.26.06,1.4,1.4,0,0,1-.29,0,1.23,1.23,0,0,1,.49-.15c0-.08-.08-.26,0-.26S119.88,28.44,119.9,28.5Zm-.22-1.25c0,.05,0,.11,0,.15l-.16,0c.06-.15,0-.06-.12-.05C119.41,27.26,119.54,27.26,119.68,27.25Zm.19.29c0,.13-.21.06-.15.21-.11,0,0-.22-.23-.13.22.12,0,.18-.11,0C119.47,27.44,119.7,27.46,119.87,27.54Zm-.82.86c.17,0,.15-.09.33-.07,0,.09-.09.14,0,.15s-.19,0-.22,0,0,.1.08.29h-.06a.39.39,0,0,1-.15-.06l-.05,0C119.09,28.66,119.06,28.52,119.05,28.4Zm-.12.26a1.64,1.64,0,0,0-.22-.14c.06,0,.09.06.18,0s-.21,0-.18-.18.15.06.28,0S118.91,28.59,118.93,28.66Zm0-1.21c0,.19-.23.1-.26.22-.19,0,0-.11-.13-.19-.08.09-.32.06-.5.08C118.37,27.26,118.68,27.42,119,27.45Zm-.2.32c-.21.18-.55-.12-.78.05C118.13,27.57,118.54,27.78,118.77,27.77ZM117,27.44c0-.18.27,0,.31-.22.07,0,.27.33.29.08l.23.08c-.05.2-.39.17-.54.29.06-.19-.28-.15-.62-.16a.24.24,0,0,0,0-.15C116.84,27.3,116.85,27.42,117,27.44Zm-.25-.29c0,.17-.21.15-.26.27-.12-.07,0-.12-.07-.24C116.5,27.28,116.53,27.14,116.71,27.15Zm-.36.38c-.08,0-.16,0-.16.06C116,27.51,116.36,27.23,116.35,27.53Zm-2.08-.16c.09.11-.18.16-.17.06s0,.05,0,.08h-.15a.28.28,0,0,1,0-.11Zm-1.1-.43c0,.08,0,.09,0,.15-.15.05-.12-.09-.23-.08S113.09,27,113.17,26.94Zm-.15.26a2.2,2.2,0,0,1,.8.15.68.68,0,0,1,0,.15l-.11,0,0,0a.14.14,0,0,0-.22,0v0l-.5-.08A.31.31,0,0,0,113,27.2Zm-1.66-.49-.11,0-.27-.19A.32.32,0,0,1,111.36,26.71Zm-.88-.5s0,0,.06,0h-.08S110.46,26.22,110.48,26.21ZM109.29,26a.42.42,0,0,0,0,.1h-.19C109.06,26.05,109.13,26,109.29,26Zm-.43-.47c0-.12.24-.05.28,0S109,25.62,108.86,25.57Zm.44-.42h.21a.14.14,0,0,1,0,.13C109.38,25.33,109.36,25.22,109.3,25.15Zm.36,0,.06,0h.16C109.83,25.21,109.75,25.26,109.66,25.16Zm-2.07-1.59c0-.07,0-.14.14-.14a.46.46,0,0,1,0,.16Zm1,.06c-.17-.08-.45,0-.42-.33C108.31,23.51,108.56,23.28,108.59,23.63Zm-.25-9.14c0,.2-.32.11-.28,0S108.18,14.55,108.34,14.49Zm-.52.54c-.15,0-.38,0-.35-.23C107.66,14.81,107.82,14.84,107.82,15Zm-2.92-.2a.29.29,0,0,1-.27.11C104.53,14.74,104.83,14.77,104.9,14.83Zm-5.36-2c0-.1-.09-.09-.18-.08.23,0,.56,0,.64.25a2.77,2.77,0,0,0-.79-.09C99.2,12.81,99.46,12.81,99.54,12.87ZM96,11.46c0,.13-.1.13-.21.16C95.68,11.45,95.84,11.37,96,11.46ZM92.58,6.4h0l.17.18-.08.07h0c0-.09-.07-.1-.08-.19h0l0-.06Zm-1,0h0l0,0ZM86,7.18c0,.06-.08.13-.12.18a2.13,2.13,0,0,1-.33.34.79.79,0,0,1-.38.09c-.14,0-.16-.52,0-.63a1.21,1.21,0,0,1,.2-.09L85.61,7h0ZM82.92,3.37c.14-.05.28-.08.42-.12h0l.29.2.07,0-.09.08-.1,0c-.22.08-.45.15-.6-.11A.15.15,0,0,1,82.92,3.37Zm-6-.93.21.38h0L77,3.2c-.1-.07-.3-.16-.29-.19A5.94,5.94,0,0,1,76.93,2.44ZM74.8,2.38c.06,0,.12,0,.15,0s.09.21-.1.27c0,0-.1-.09-.12-.16S74.78,2.41,74.8,2.38ZM44.85,54.09c-.24-.11-.23-.23,0-.3,0,0,.1.1.16.16S44.88,54.11,44.85,54.09Z"/><path class="cls-3" d="M4.27,35.55s0,0,0,0h0Z"/><path class="cls-3" d="M1,30a.49.49,0,0,0-.36-.08c-.26.49-.13,1.14-.62,1.54.12.08.23.23.36.24.73.1,1-.06,1-.74C1.58,30.59,1.27,30.29,1,30Z"/><path class="cls-3" d="M125.19.16S125.07,0,125,0a14.16,14.16,0,0,0-1.46,0c-.08,0-.14.19-.2.33.55,0,1.1.06,1.65.07C125.06.44,125.15.27,125.19.16Z"/><path class="cls-3" d="M123.35.37h-.08a.14.14,0,0,1,0,.06h.07Z"/><path class="cls-3" d="M129.1,31.37a4.25,4.25,0,0,0,.93-.09s.07-.12.05-.15l0-.05c.06-.07.17.05.31,0-.09-.16-.35-.14-.37-.38,0,.1-.15.08-.1.21s.1,0,.12.08a.24.24,0,0,0-.09-.06l-1.17-.08A.45.45,0,0,0,129.1,31.37Z"/><path class="cls-3" d="M4.24,35.56h0l0,0Z"/><path class="cls-3" d="M3.74,36a.39.39,0,0,0,.33.53,1.35,1.35,0,0,0,.47-.09L4.4,36c-.05-.14-.11-.28-.16-.41A.46.46,0,0,0,3.74,36Z"/><path class="cls-3" d="M132.63,43.35l0,0v0l0,0Z"/><path class="cls-3" d="M133.57,43.6a.53.53,0,0,0,0-.25.43.43,0,0,0-.49-.43.42.42,0,0,0-.46.43,4.32,4.32,0,0,1,.58.36C133.37,43.84,133.49,43.82,133.57,43.6Z"/><path class="cls-3" d="M122.63.81c.32,0,.57,0,.62-.39a3.42,3.42,0,0,0-.64,0c-.07,0-.13.17-.16.27S122.56.81,122.63.81Z"/><path class="cls-3" d="M122.05,38.6a1.58,1.58,0,0,0,.49-.1c-.1-.1-.18-.25-.29-.27a1.39,1.39,0,0,0-.46.11C121.88,38.43,122,38.58,122.05,38.6Z"/><path class="cls-3" d="M135.57,48.29s0,.11,0,.15c.15.26.37.19.59.12.07,0,.12-.09.18-.14l-.35-.25A2.77,2.77,0,0,0,135.57,48.29Z"/><path class="cls-3" d="M13.4,48c0,.11.11.29.2.31.34.06.59-.06.64-.42a4.93,4.93,0,0,0-.67,0C13.51,47.86,13.39,48,13.4,48Z"/><path class="cls-3" d="M14.24,47.89h.06v0l0,0A.14.14,0,0,0,14.24,47.89Z"/><path class="cls-3" d="M21.43,1.49s-.11-.11-.17-.17-.17.11-.17.13C21.17,1.71,21.3,1.72,21.43,1.49Z"/><path class="cls-3" d="M23.21,1.5c-.06,0-.1.2-.15.32l.46,0C23.51,1.65,23.49,1.45,23.21,1.5Z"/><path class="cls-3" d="M95.26,6.21s-.09-.11-.14-.17-.18.11-.17.14C95,6.42,95.14,6.44,95.26,6.21Z"/><path class="cls-3" d="M18.24,3.88c-.06-.06-.11-.17-.17-.18s-.13.09-.2.14S18,4,18,4Z"/><path class="cls-3" d="M18.57,7.69a.14.14,0,0,0,0,.06h0l0,0Z"/><path class="cls-3" d="M18.24,7.52c.06.09.2.12.33.17,0-.13-.05-.28-.14-.34S18.16,7.38,18.24,7.52Z"/><path class="cls-3" d="M12.1,12.72S12,12.6,12,12.54s-.19.11-.18.14C11.85,12.93,12,13,12.1,12.72Z"/><path class="cls-3" d="M3.11,23.63c.19-.07.23-.19.1-.3s-.1,0-.15,0-.08.11-.07.14S3.09,23.64,3.11,23.63Z"/><path class="cls-3" d="M127.09,31.81h.06l0,0h0A.08.08,0,0,0,127.09,31.81Z"/><path class="cls-3" d="M2.42,26.66c.06,0,.13-.09.2-.14l-.15-.2c-.07.05-.17.1-.19.16S2.37,26.65,2.42,26.66Z"/><path class="cls-3" d="M118.73,38.3l.14.07.16-.12-.14-.15Z"/><path class="cls-3" d="M189.55,26.08c.11,0,.41.11.45,0C189.89,26.08,189.59,26,189.55,26.08Z"/><path class="cls-3" d="M187.17,25.63c0,.16.23.09.29.19a.27.27,0,0,1,0-.16C187.37,25.67,187.33,25.59,187.17,25.63Z"/><path class="cls-3" d="M186.21,25.55c.2,0,.49.17.62.06C186.67,25.57,186.38,25.39,186.21,25.55Z"/><path class="cls-3" d="M185.81,25.52c.15,0,.12.1.23.09S185.83,25.31,185.81,25.52Z"/><path class="cls-3" d="M184.51,25.36c.35,0,1,.21,1.18.07C185.31,25.43,184.86,25.22,184.51,25.36Z"/><path class="cls-3" d="M178.59,30.13c.19,0,.53,0,.55-.14C178.93,30.12,178.67,29.92,178.59,30.13Z"/><path class="cls-3" d="M179,29.2c-.11,0-.45-.08-.61,0C178.75,29.21,178.83,29.41,179,29.2Z"/><path class="cls-3" d="M178.42,30.09a2.21,2.21,0,0,0-.89.16C177.74,30.21,178.36,30.33,178.42,30.09Z"/><path class="cls-3" d="M175.87,29.06c.27-.07.93.13,1.23,0C176.72,29.11,176.08,28.68,175.87,29.06Z"/><path class="cls-3" d="M174.05,11.79c-.13,0-.13-.19-.34-.13C173.73,11.77,174,11.88,174.05,11.79Z"/><path class="cls-3" d="M173.57,11.32c0,.37-.34,0-.51,0,0,.35.49.11.54.37C173.56,11.56,173.82,11.41,173.57,11.32Z"/><path class="cls-3" d="M173.67,30.87c.1.12.55,0,.5,0C173.94,30.83,173.8,30.79,173.67,30.87Z"/><path class="cls-3" d="M171.52,29.9a1.39,1.39,0,0,1-.72.05c0,.21,0,.25.14.34.16-.22.71-.09,1-.26C171.72,30.06,171.54,30.06,171.52,29.9Z"/><path class="cls-3" d="M170.49,23.54a.3.3,0,0,0,.3.23C170.79,23.59,170.58,23.63,170.49,23.54Z"/><path class="cls-3" d="M169,29.92c0,.14.18.13.24.24,0-.07.07-.1,0-.21A.41.41,0,0,0,169,29.92Z"/><path class="cls-3" d="M168.35,30.12c.23,0,.61,0,.6-.19C168.78,30,168.43,29.82,168.35,30.12Z"/><path class="cls-3" d="M167.07,23.42c.39-.05.63-.06.77-.21C167.53,23.32,167,23,167.07,23.42Z"/><path class="cls-3" d="M167.16,21.8c-.06-.05-.4-.08-.44,0C166.89,21.76,167.07,22,167.16,21.8Z"/><path class="cls-3" d="M165.59,31.26c-.08.23.31.16.29,0A.51.51,0,0,1,165.59,31.26Z"/><path class="cls-3" d="M164.61,30.17a.34.34,0,0,0,.38-.08C164.88,30.13,164.62,30.05,164.61,30.17Z"/><path class="cls-3" d="M159.4,11.72c1.06-.14,1.9.1,3-.06.09.08.65.16.62,0-.2-.05-.28-.22-.52-.21-.81.1-2.29,0-3.19.06C159.33,11.6,159.47,11.6,159.4,11.72Z"/><path class="cls-3" d="M163.53,23.25a.08.08,0,0,1-.06-.09c-.08,0-.21,0-.22.06.4,0-.11.09,0,.25A.46.46,0,0,0,163.53,23.25Z"/><path class="cls-3" d="M163.71,31.48c.13,0,.24-.06.27-.16-.19,0-.17.09-.27.11s0-.18-.13-.19-.08.06-.17.06C163.42,31.46,163.57,31.47,163.71,31.48Z"/><path class="cls-3" d="M158.43,31.19c.25,0,.34,0,.49-.09a4.82,4.82,0,0,0,2.93.21c.07.1.25.1.35.18.33-.17,1.1.15,1.1-.18a17.61,17.61,0,0,1-1.9,0c-.3,0-.65.14-.79-.05.08,0,.12.06.23,0-.07-.32-.42,0-.51-.12.19,0,.06-.14.27-.07,0-.13-.13-.12-.23-.13s-.43.12-.5,0c-.09.1,0,.06,0,.2.16,0,.56,0,.35.13-.12-.24-.48,0-.63-.11a.21.21,0,0,0,.1-.21c-.21,0-.17,0-.27.17-.16-.07.1-.23-.12-.19s.05.15-.27.11C159.13,30.94,158.46,31,158.43,31.19Z"/><path class="cls-3" d="M156.7,23.11a20.39,20.39,0,0,0,3,.25c.08-.08.08-.22.2-.27-.09.28.48,0,.25.29a.94.94,0,0,0,.66-.1c-.28.06-.12-.12-.07-.2a.29.29,0,0,1-.23,0c-.12.08,0,.21-.09.26-.21-.06-.18-.17-.36-.33-.19.11-.25,0-.45,0,0,.28-.4,0-.54.19,0-.07-.08-.07-.07-.15a.9.9,0,0,1-.56,0,.34.34,0,0,1-.1.16c-.67-.24-1.29-.07-1.75-.24a.31.31,0,0,0,0,.1S156.65,23.11,156.7,23.11Z"/><path class="cls-3" d="M159,11.74c.09,0,.23,0,.27-.12C159.16,11.51,159,11.54,159,11.74Z"/><path class="cls-3" d="M159.85,22.6c0,.12.09.18.23.18,0-.09,0-.11.11-.06s0-.1,0-.15A.43.43,0,0,1,159.85,22.6Z"/><path class="cls-3" d="M159,22.8c.05-.21-.46-.17-.45,0C158.73,22.73,158.79,22.83,159,22.8Z"/><path class="cls-3" d="M156.53,23.07a.4.4,0,0,1-.41-.22C155.94,23,156.51,23.26,156.53,23.07Z"/><path class="cls-3" d="M156.1,24.61c.2-.05.41.17.56,0C156.48,24.64,156.22,24.46,156.1,24.61Z"/><path class="cls-3" d="M155.32,12.44c0,.16-.13,0-.23,0C155,12.72,155.52,12.53,155.32,12.44Z"/><path class="cls-3" d="M157,36.06c.12,0,.17.11.35.08,0,0,0-.1,0-.15S157,35.89,157,36.06Z"/><path class="cls-3" d="M155.5,23.54c.16,0,.29,0,.33-.12C155.72,23.46,155.44,23.36,155.5,23.54Z"/><path class="cls-3" d="M153.67,23c.1.28.38.06.63.16C154.3,22.76,153.92,23.09,153.67,23Z"/><path class="cls-3" d="M154,21.48c-.05,0-.36-.08-.39,0S154,21.59,154,21.48Z"/><path class="cls-3" d="M153.07,22.45s0-.1,0-.11,0,.06.12.05-.13-.13-.24-.14S152.9,22.41,153.07,22.45Z"/><path class="cls-3" d="M152.51,23.19a1,1,0,0,1,.78-.05c0-.23-.26-.16-.41-.23-.13.24-.47-.19-.84,0C152.1,23.09,152.68,22.88,152.51,23.19Z"/><path class="cls-3" d="M152.25,24.06c.17,0,.33-.06.31-.22C152.39,24,152.27,23.84,152.25,24.06Z"/><path class="cls-3" d="M152.45,23.09c-.16,0-.35-.16-.45,0C152.15,23.08,152.36,23.25,152.45,23.09Z"/><path class="cls-3" d="M151.7,21.43c-.09-.07-.31-.15-.28.07C151.5,21.47,151.71,21.54,151.7,21.43Z"/><path class="cls-3" d="M151,14c-.2,0-.44-.13-.5.09C150.62,14,150.92,14.11,151,14Z"/><path class="cls-3" d="M151.19,22.72c.09,0,.27,0,.32-.12S151.12,22.54,151.19,22.72Z"/><path class="cls-3" d="M150.41,14c-.2.09-.12-.13-.29-.08S150.43,14.22,150.41,14Z"/><path class="cls-3" d="M148.12,14c.22,0,.68.11,1.07.13.2,0,.57.06.6-.14-.06,0-.13,0-.12-.09-.17,0,0,.18-.27.12,0-.06.09-.12,0-.15C149.09,14.05,148.52,13.87,148.12,14Z"/><path class="cls-3" d="M150.37,21.62c-.12,0-.17-.11-.34-.07S150.33,21.73,150.37,21.62Z"/><path class="cls-3" d="M150.7,27.68c-.23.06-.29-.05-.5,0,0,.12,0,.32.18.19C150.23,27.78,150.7,27.8,150.7,27.68Z"/><path class="cls-3" d="M149.76,21.66c.1,0,.18,0,.21-.11s-.25-.05-.33,0A.19.19,0,0,1,149.76,21.66Z"/><path class="cls-3" d="M148.86,11.42a2.36,2.36,0,0,0-1.34,0C148,11.35,148.64,11.6,148.86,11.42Z"/><path class="cls-3" d="M149.31,23.76c-.1.12.16.2.2.33a.26.26,0,0,1,0-.25C149.38,23.91,149.4,23.77,149.31,23.76Z"/><path class="cls-3" d="M149.1,21.81c-.2-.06-.33,0-.21.16S149.06,21.89,149.1,21.81Z"/><path class="cls-3" d="M149,23.83c.17,0-.07.08,0,.15s.16.09.24.14a.39.39,0,0,1,0-.31C149.11,23.87,149,23.68,149,23.83Z"/><path class="cls-3" d="M148.9,24.79a.26.26,0,0,1,0,.2.43.43,0,0,0,.32-.12C149,24.92,149,24.8,148.9,24.79Z"/><path class="cls-3" d="M148,25c-.16-.08,0-.22-.14-.34,0,.11-.37.11-.21.16C147.87,24.7,147.77,25.23,148,25Z"/><path class="cls-3" d="M147.87,24.56a.21.21,0,0,0-.24-.24C147.7,24.41,147.72,24.55,147.87,24.56Z"/><path class="cls-3" d="M147.06,16.77c0-.14-.15-.14-.29-.13S146.9,16.79,147.06,16.77Z"/><path class="cls-3" d="M147.09,24.56c0,.1-.07.1-.1.16.22,0,.62,0,.66-.15A3.43,3.43,0,0,1,147.09,24.56Z"/><path class="cls-3" d="M147.3,23.09c-.19.08-.37-.12-.44,0C147,23.13,147.26,23.36,147.3,23.09Z"/><path class="cls-3" d="M146.08,11.61c.47,0-.19-.14-.23,0C146,11.72,146,11.62,146.08,11.61Z"/><path class="cls-3" d="M145.21,22.87a.76.76,0,0,0,0-.15c-.17,0-.23-.1-.27.07C145.1,22.74,145.05,22.92,145.21,22.87Z"/><path class="cls-3" d="M144.19,23.35c0,.09.07.1.07.19.2-.19.79.06.83-.15a8.81,8.81,0,0,1-1.19-.13C143.93,23.52,144,23.53,144.19,23.35Z"/><path class="cls-3" d="M143.86,23.42c0-.23-.35-.18-.58-.21C143.37,23.39,143.66,23.36,143.86,23.42Z"/><path class="cls-3" d="M143.74,32.78c0,.19.71,0,.56,0A3.32,3.32,0,0,1,143.74,32.78Z"/><path class="cls-3" d="M142.19,22.17c.07,0,.07.08.07.15.17-.19.45-.07.54-.24C142.62,22.13,142.28,22.05,142.19,22.17Z"/><path class="cls-3" d="M142.55,25.11c.27,0,.23-.35,0-.35,0,.14.09.13.08.25S142.52,25,142.55,25.11Z"/><path class="cls-3" d="M141.6,19.1c.1,0,.47.13.44-.08C141.91,19.05,141.64,19,141.6,19.1Z"/><path class="cls-3" d="M142.29,22.62c-.19.05-.36-.21-.51,0,.23-.09,0,.26.19.24C142,22.69,142.22,22.73,142.29,22.62Z"/><path class="cls-3" d="M142.94,31.93c-.23,0-.39-.07-.62-.06C142.37,32,143,32.06,142.94,31.93Z"/><path class="cls-3" d="M141.24,19.47c-.1.18-.3.09-.37.23a1.91,1.91,0,0,0,.65-.2C141.37,19.55,141.38,19.44,141.24,19.47Z"/><path class="cls-3" d="M141.2,22.39a.79.79,0,0,0,.56,0C141.68,22.35,141.36,22.26,141.2,22.39Z"/><path class="cls-3" d="M141.47,22.87s0,.06.06.05c-.06-.16.18-.08.15-.21-.24-.13-.3,0-.56,0,0,0,0-.1-.06-.1a.28.28,0,0,1,0,.21c.23,0,.25-.12.44-.14,0,.08-.09.09-.1.16Z"/><path class="cls-3" d="M141,23.21c.29,0,.52.13.73-.05C141.53,23.15,141.14,23.07,141,23.21Z"/><path class="cls-3" d="M142,30.93a.76.76,0,0,0,0-.15c-.16,0-.31.19-.14.27C141.79,31,141.85,30.92,142,30.93Z"/><path class="cls-3" d="M141.56,31.51s0-.05-.06,0c-.08.18-.1-.14-.28,0,.09.12-.14.22,0,.25s.24-.15.33-.08A.38.38,0,0,0,141.56,31.51Z"/><path class="cls-3" d="M139.94,17.25a.29.29,0,0,0,.08.24c.06,0,.16,0,.16-.06C140,17.47,140.14,17.18,139.94,17.25Z"/><path class="cls-3" d="M140.61,24.74c-.13.12.1.25,0,.36C140.85,25.11,140.68,24.84,140.61,24.74Z"/><path class="cls-3" d="M140.18,22.16c-.25,0-.41.05-.37.27.08,0,.21,0,.22-.06C139.73,22.21,140.18,22.3,140.18,22.16Z"/><path class="cls-3" d="M140.59,38.67c.39,0,.75,0,1,.08C141.42,38.56,140.78,38.61,140.59,38.67Z"/><path class="cls-3" d="M138.74,10.09a.14.14,0,0,0,.15-.11c-.18,0-.08-.2-.29-.13C138.57,10,138.76,9.93,138.74,10.09Z"/><path class="cls-3" d="M139.22,24.79c-.16.17.17.09.24.18s-.06.05-.11.06-.2-.19-.4-.18c.14.28.55.28.8.2C139.64,24.89,139.37,24.9,139.22,24.79Z"/><path class="cls-3" d="M139,19.07a.32.32,0,0,1-.23,0,1.13,1.13,0,0,0,.36.33C139.18,19.2,139,19.26,139,19.07Z"/><path class="cls-3" d="M139.05,24.75c.11,0,.37,0,.38-.08h-.16c0-.11-.11-.23-.12-.09s.06,0,.06.05A.14.14,0,0,0,139.05,24.75Z"/><path class="cls-3" d="M139.72,31.54c-.15,0-.4-.12-.5,0C139.39,31.56,139.7,31.72,139.72,31.54Z"/><path class="cls-3" d="M138.73,24.92a.85.85,0,0,0-.5.08c.07,0,.07.08.07.15C138.59,25.19,138.59,25,138.73,24.92Z"/><path class="cls-3" d="M137.16,13.41c0-.06.07-.07.05-.15s-.12-.06-.18-.09S137.05,13.38,137.16,13.41Z"/><path class="cls-3" d="M138.21,30.13c0-.17-.33-.26-.35-.08S138.13,30.07,138.21,30.13Z"/><path class="cls-3" d="M137,21c.11,0,.36.22.39,0a.08.08,0,0,1-.06-.1C137.17,21.12,137.18,20.87,137,21Z"/><path class="cls-3" d="M137.62,25c-.15,0-.21,0-.18-.14-.22.19-.34-.23-.51-.06C137,25,137.53,25.19,137.62,25Z"/><path class="cls-3" d="M136.12,15.69c.14,0,.36.05.44-.08C136.45,15.49,136.14,15.5,136.12,15.69Z"/><path class="cls-3" d="M136.3,17.19v.1s0,.06.06.05c0-.17.27.13.21-.12C136.43,17.27,136.43,17.16,136.3,17.19Z"/><path class="cls-3" d="M136.9,24.44c-.1-.05-.64-.05-.49.13,0-.12.24,0,.22,0a.83.83,0,0,0-.21.16c.11,0,.39.09.44-.08C136.53,24.65,137,24.62,136.9,24.44Z"/><path class="cls-3" d="M136.23,23.78c.22-.06.44,0,.44-.13-.21.05-.41-.06-.3-.18C136,23.52,136.46,23.65,136.23,23.78Z"/><path class="cls-3" d="M136,17.56c-.21.09-.23-.3-.4-.07.12,0,.18,0,.18.14S136.18,17.61,136,17.56Z"/><path class="cls-3" d="M136,18.37c0-.07.09-.06.1-.11s-.36-.17-.39,0C135.89,18.23,135.93,18.31,136,18.37Z"/><path class="cls-3" d="M135.45,23.18a1,1,0,0,1,.57.06c0-.06,0-.14-.07-.15-.06.14-.19-.11-.34-.07C135.71,23.19,135.42,23.06,135.45,23.18Z"/><path class="cls-3" d="M135.5,19.05l-.27,0c.06.16-.14.12-.15.21s.11.14.28.08a.13.13,0,0,0,0-.2C135.43,19.15,135.54,19.16,135.5,19.05Z"/><path class="cls-3" d="M136.19,30.77a2.47,2.47,0,0,0-.89.06c-.14,0,.12-.22-.13-.19,0,.11-.27.26-.16.06-.2-.07,0,.17-.15.16-.14-.22-.24.12-.35-.08,0,.1,0,.12,0,.21.43,0,.74-.14,1,0C135.62,30.86,136.08,31,136.19,30.77Z"/><path class="cls-3" d="M135.42,24.79c.14,0,.18.08.22-.07-.15,0-.1-.18-.24-.18A2.11,2.11,0,0,0,135.42,24.79Z"/><path class="cls-3" d="M134.83,26.54c.21-.07.19.09.3.13s.06-.11.09-.16S134.86,26.43,134.83,26.54Z"/><path class="cls-3" d="M134.87,29.7c.2,0,.47,0,.54-.24C135.32,29.61,134.91,29.51,134.87,29.7Z"/><path class="cls-3" d="M135.08,27.48c-.17,0-.16-.13-.29-.14a.25.25,0,0,1,0,.16C134.88,27.44,135,27.63,135.08,27.48Z"/><path class="cls-3" d="M134.51,24c.11,0,.06.19.23.13S134.56,23.81,134.51,24Z"/><path class="cls-3" d="M135.37,31.73c-.13.06-.27-.14-.33,0s.07,0,.06.1Q135.31,31.85,135.37,31.73Z"/><path class="cls-3" d="M135.27,31.13c-.17,0-.28.07-.32.18s.05.16.18.13S135.28,31.28,135.27,31.13Z"/><path class="cls-3" d="M134.06,17.19h-.22c0,.1,0,.22.18.19s-.09-.12,0-.15S134.08,17.23,134.06,17.19Z"/><path class="cls-3" d="M134.3,24.81c.08.16-.08.13-.09.21s.23,0,.33-.07C134.36,25,134.41,24.83,134.3,24.81Z"/><path class="cls-3" d="M134.43,27c.14-.05,0,.24.13.19,0-.08.15,0,.15-.11C134.54,27.19,134.53,26.83,134.43,27Z"/><path class="cls-3" d="M133.64,29.73c.17.15.34-.11.56-.08,0,.06,0,.14.06.14,0-.2.44,0,.49-.18C134.43,29.55,133.86,29.49,133.64,29.73Z"/><path class="cls-3" d="M133.79,24.7c0,.14.34.18.4.07C134,24.77,134,24.7,133.79,24.7Z"/><path class="cls-3" d="M134,23.53c-.21,0-.26-.05-.33.12C133.81,23.61,134.09,23.7,134,23.53Z"/><path class="cls-3" d="M134.41,28.12c-.12,0-.17-.11-.35-.07C134.11,28.16,134.39,28.3,134.41,28.12Z"/><path class="cls-3" d="M134,30.67a.55.55,0,0,0,.38-.13C134.21,30.48,134,30.5,134,30.67Z"/><path class="cls-3" d="M132.6,12.36c-.18,0-.26.08-.26.22C132.47,12.54,132.62,12.52,132.6,12.36Z"/><path class="cls-3" d="M132.59,23.67c-.05.18.42.09.44,0C132.85,23.61,132.8,23.72,132.59,23.67Z"/><path class="cls-3" d="M133.47,31c-.06-.14.07-.13,0-.25A.13.13,0,1,0,133.47,31Z"/><path class="cls-3" d="M133.71,38c-.2.07-.17-.11-.34-.07C133.35,38.17,133.67,38.15,133.71,38Z"/><path class="cls-3" d="M132.65,29.85c0-.07.08-.09.1-.16-.28.09-.39.08-.61.15C132.33,29.82,132.43,29.9,132.65,29.85Z"/><path class="cls-3" d="M132.43,31.32a1,1,0,0,0,.32-.17C132.59,31.16,132.39,31.15,132.43,31.32Z"/><path class="cls-3" d="M131.9,22.16c-.2,0-.26-.12-.4-.17C131.44,22.21,131.78,22.3,131.9,22.16Z"/><path class="cls-3" d="M132.12,28.23c0-.15-.43-.2-.56-.06C131.77,28.12,132,28.37,132.12,28.23Z"/><path class="cls-3" d="M131.68,29.67c.15,0,.3,0,.45,0C132.1,29.45,131.65,29.45,131.68,29.67Z"/><path class="cls-3" d="M131.76,30.67c0,.11-.16.12-.2.21.27-.05.6-.06.64-.29C132,30.56,131.9,30.87,131.76,30.67Z"/><path class="cls-3" d="M132.19,37.88c-.07.18.44.2.39,0A1.21,1.21,0,0,1,132.19,37.88Z"/><path class="cls-3" d="M131.32,31.4c.05.13-.1.11-.09.21.26-.1.42,0,.6-.2C131.68,31.29,131.48,31.54,131.32,31.4Z"/><path class="cls-3" d="M131.17,31c0-.12.24-.07.27-.17s-.07,0-.07-.1c-.27.11,0,0-.23-.08-.13.14,0,.24-.26.17C130.88,30.93,131.11,30.86,131.17,31Z"/><path class="cls-3" d="M130.49,20.65c-.17,0-.35.16-.21.21s.27,0,.1-.16C130.43,20.69,130.49,20.7,130.49,20.65Z"/><path class="cls-3" d="M130.45,21.55c-.18,0-.24-.14-.45-.12C130,21.57,130.4,21.63,130.45,21.55Z"/><path class="cls-3" d="M130.33,24.83c-.06.16.48.13.39,0S130.46,24.93,130.33,24.83Z"/><path class="cls-3" d="M129.46,15c0,.21-.15,0-.15.17a.88.88,0,0,0,.44-.13C129.61,15.05,129.62,14.93,129.46,15Z"/><path class="cls-3" d="M130.73,27.62c-.18-.06-.3,0-.44.13.09,0,.06.15.23.08,0-.06,0-.14,0-.15S130.73,27.68,130.73,27.62Z"/><path class="cls-3" d="M130.45,31.05c.18,0,.21-.12.34,0,0-.09.05-.11,0-.2-.19.09-.26-.2-.34,0l.18.14C130.54,30.93,130.46,31,130.45,31.05Z"/><path class="cls-3" d="M129.41,21.07c0,.15.13.19.19.29s.23,0,.27-.12C129.67,21.23,129.65,21,129.41,21.07Z"/><path class="cls-3" d="M130,22.34c-.17.08-.4.1-.55.19C129.57,22.56,130,22.57,130,22.34Z"/><path class="cls-3" d="M129.44,22.83c.19,0,.4,0,.57.16,0-.14-.1-.09,0-.2-.15,0-.37-.19-.46-.07C129.76,22.78,129.38,22.74,129.44,22.83Z"/><path class="cls-3" d="M129.29,20.38a1.22,1.22,0,0,0,.38-.18C129.55,20.12,129.21,20.16,129.29,20.38Z"/><path class="cls-3" d="M129.16,17.42c.09,0,.14.18.08.24C129.57,17.68,129.24,17.26,129.16,17.42Z"/><path class="cls-3" d="M130.3,30.61c-.05,0-.13-.21-.17,0,.11,0,.09.2.29.13,0-.07,0-.18-.07-.19S130.36,30.61,130.3,30.61Z"/><path class="cls-3" d="M129.35,23.09c.09,0,.33,0,.33-.08S129.36,22.82,129.35,23.09Z"/><path class="cls-3" d="M130.08,31.23a.31.31,0,0,0,.07.25c.07,0,.16,0,.16-.06S130.18,31.27,130.08,31.23Z"/><path class="cls-3" d="M129.11,21.54c0,.13.25.2.29.09C129.28,21.54,129.29,21.45,129.11,21.54Z"/><path class="cls-3" d="M130.07,30.43c-.1,0-.34,0-.33.07s.06.18.18.19C129.84,30.51,130.12,30.6,130.07,30.43Z"/><path class="cls-3" d="M129.64,29.3c-.06.26.45.09.22,0C129.86,29.41,129.67,29.31,129.64,29.3Z"/><path class="cls-3" d="M128.65,20.07c.18,0,.34-.09.38-.23C128.86,19.89,128.69,19.92,128.65,20.07Z"/><path class="cls-3" d="M129.66,30.91c.11,0,.14-.43,0-.25,0,0,.06,0,.06,0s-.16,0-.17.06S129.58,30.9,129.66,30.91Z"/><path class="cls-3" d="M129.32,29.52c0-.06,0-.11-.12-.09.1.23.14.18-.09.31a.43.43,0,0,1,.35.12c.06-.15,0-.2.08-.35A.17.17,0,0,0,129.32,29.52Z"/><path class="cls-3" d="M129.42,30.77a.26.26,0,0,1,0-.2c-.1,0-.12-.05-.22,0S129.32,30.73,129.42,30.77Z"/><path class="cls-3" d="M128.79,25.79a2.92,2.92,0,0,0-.14.31C128.82,26.12,128.89,25.82,128.79,25.79Z"/><path class="cls-3" d="M128.43,21.49c-.14,0-.33-.06-.38.07C128.24,21.51,128.39,21.69,128.43,21.49Z"/><path class="cls-3" d="M127.23,9.56c-.12,0-.37,0-.39.07S127.21,9.73,127.23,9.56Z"/><path class="cls-3" d="M128.87,34.28c.15,0,.18.14.35.12C129.2,34.29,129,34.15,128.87,34.28Z"/><path class="cls-3" d="M128.62,31.23c0,.14-.23.1-.2.26a.52.52,0,0,0,.32-.17C128.67,31.32,128.68,31.24,128.62,31.23Z"/><path class="cls-3" d="M127.09,12.63a1.27,1.27,0,0,0-.44.13C126.77,12.84,127.1,12.79,127.09,12.63Z"/><path class="cls-3" d="M128.27,34.37c.22,0,.23-.11.33,0,0,0,0-.06.05-.06v-.1C128.43,34.28,128.29,34.14,128.27,34.37Z"/><path class="cls-3" d="M125.12,12.46c-.26.18-.86,0-.88.16a6.8,6.8,0,0,0,2.47.19,1.69,1.69,0,0,0-1.58-.15C124.94,12.58,125.32,12.53,125.12,12.46Z"/><path class="cls-3" d="M127.64,24.06c-.23.07-.16-.16-.3-.19C127.15,24,127.64,24.29,127.64,24.06Z"/><path class="cls-3" d="M127.44,26.43c0,.2-.43-.08-.55.09.3.05.58.08.79.1A.21.21,0,0,0,127.44,26.43Z"/><path class="cls-3" d="M128,34.39c.29,0,.19-.28,0-.36,0,.16-.2.19-.43.18,0,.18.28,0,.3.19.06-.08,0-.23.2-.22S128,34.29,128,34.39Z"/><path class="cls-3" d="M127,21.44s-.28-.1-.28,0,0,.06,0,.1A.31.31,0,0,0,127,21.44Z"/><path class="cls-3" d="M127.27,27.1c-.13,0,0-.24-.23-.19.08.22-.22.15-.32.22s0,.1,0,.25C126.87,27.1,127.15,27.19,127.27,27.1Z"/><path class="cls-3" d="M127,26.81c-.24.09-.33,0-.56,0,0,.16.22.2.46.17C126.94,26.9,127,26.88,127,26.81Z"/><path class="cls-3" d="M126,21.2c0,.07.29-.08.34.08s-.12.16-.14.26C126.74,21.55,126.15,20.79,126,21.2Z"/><path class="cls-3" d="M125.65,13.48l-.28,0C125.34,13.71,125.68,13.65,125.65,13.48Z"/><path class="cls-3" d="M126.54,24.93c-.22,0-.24.1-.32.18C126.37,25.22,126.48,25,126.54,24.93Z"/><path class="cls-3" d="M126.54,28.4c-.07,0,0,.23.08.25s.15,0,.16-.11-.16,0-.17,0S126.69,28.39,126.54,28.4Z"/><path class="cls-3" d="M126.33,23.74c-.13-.1-.19.06-.39,0S126.43,23.92,126.33,23.74Z"/><path class="cls-3" d="M126.21,27.07c.06-.16.32.1.32-.13C126.41,26.87,126,27,126.21,27.07Z"/><path class="cls-3" d="M126,23.06c.1.14,0,.47.15.49C126.08,23.5,126.3,23,126,23.06Z"/><path class="cls-3" d="M126.86,32.2c-.19.08-.28-.21-.4,0,.11,0,.12,0,.07.09S126.86,32.31,126.86,32.2Z"/><path class="cls-3" d="M126.13,24.11c.06-.16-.25-.2-.28-.08S126,24.12,126.13,24.11Z"/><path class="cls-3" d="M126.91,33.51c-.22,0-.41,0-.49.13C126.67,33.57,126.77,33.67,126.91,33.51Z"/><path class="cls-3" d="M126.67,34c0-.15.18-.16.25-.27C126.69,33.65,126.54,33.9,126.67,34Z"/><path class="cls-3" d="M125,14.73a.76.76,0,0,0,0-.15l-.22,0C124.78,14.73,124.92,14.72,125,14.73Z"/><path class="cls-3" d="M126,33.77c-.24,0,.13-.22.22-.07a.18.18,0,0,1,0-.15c-.1-.08-.18.06-.39,0,0,.23-.37.15-.48.28s0,.19.07.2C125.44,33.82,125.87,33.92,126,33.77Z"/><path class="cls-3" d="M126.25,34.35c-.23.22-.5,0-.65.25C125.82,34.52,126.22,34.58,126.25,34.35Z"/><path class="cls-3" d="M125.26,26.43c-.14.05-.32-.13-.39,0C125,26.38,125.23,26.7,125.26,26.43Z"/><path class="cls-3" d="M124.23,21.42c0-.12.29.07.27-.17S124,21.33,124.23,21.42Z"/><path class="cls-3" d="M124.73,24.1c-.13-.06-.1,0-.28,0a.22.22,0,0,1,0,.15A.43.43,0,0,0,124.73,24.1Z"/><path class="cls-3" d="M124.51,26.78a.26.26,0,0,0-.22.11,2,2,0,0,1,.29.14.25.25,0,0,1,0-.16C124.56,26.87,124.49,26.87,124.51,26.78Z"/><path class="cls-3" d="M124.79,32.29c0,.15.15.18.25.23C125,32.36,125,32.29,124.79,32.29Z"/><path class="cls-3" d="M124.33,34.78c.23-.12.5,0,.6-.14C124.66,34.71,124.36,34.5,124.33,34.78Z"/><path class="cls-3" d="M123.43,23.84c-.1-.07-.35-.3-.4-.08.14,0,.2,0,.18.14S123.41,23.91,123.43,23.84Z"/><path class="cls-3" d="M123.33,32.84c.22-.08.69.07.66-.09C123.7,32.82,123.45,32.63,123.33,32.84Z"/><path class="cls-3" d="M123,29.14a.52.52,0,0,0,.32-.22C123.17,28.94,123,29,123,29.14Z"/><path class="cls-3" d="M121.41,9.54c-.15,0-.32,0-.4,0C121,9.73,121.33,9.65,121.41,9.54Z"/><path class="cls-3" d="M123.2,32.6a.78.78,0,0,0-.38.12C122.89,32.77,123.17,32.72,123.2,32.6Z"/><path class="cls-3" d="M121.1,15.25c.07,0,.29,0,.27-.07-.17,0-.27,0-.18-.14-.08,0-.29,0-.27.07S121.1,15.14,121.1,15.25Z"/><path class="cls-3" d="M122,23.83h-.23a.39.39,0,0,1,0,.31C121.91,24.08,121.93,23.93,122,23.83Z"/><path class="cls-3" d="M122,28.91c.08.06.4.07.38-.08C122.25,29,122.09,28.78,122,28.91Z"/><path class="cls-3" d="M121.63,25.16A.54.54,0,0,0,122,25C121.86,25.06,121.63,25,121.63,25.16Z"/><path class="cls-3" d="M121.63,25.82c-.15-.15-.11-.5-.33-.58a.26.26,0,0,1,0,.2c.23,0,0,.16.07.24A2,2,0,0,1,121.63,25.82Z"/><path class="cls-3" d="M119.81,14.63c0-.15.26,0,.29,0,0-.14.08-.11,0-.2a.38.38,0,0,1-.33,0v.1S119.77,14.64,119.81,14.63Z"/><path class="cls-3" d="M121.27,32.28c.14,0,.27,0,.27-.12-.17,0-.22-.06-.34-.08A.26.26,0,0,0,121.27,32.28Z"/><path class="cls-3" d="M120.47,25.29c.07.19.29-.05.32-.17-.28.05-.43.26-.55,0-.08.14,0,.4-.13.51h.11A.68.68,0,0,1,120.47,25.29Z"/><path class="cls-3" d="M120.86,26.62c0-.15-.25-.2-.29-.08C120.68,26.56,120.69,26.68,120.86,26.62Z"/><path class="cls-3" d="M121.54,34.87c-.13,0-.28-.18-.27.07C121.34,34.91,121.56,35,121.54,34.87Z"/><path class="cls-3" d="M120.59,24.08c-.24,0-.35,0-.43.13C120.25,24.31,120.62,24.22,120.59,24.08Z"/><path class="cls-3" d="M121.58,37.38a.22.22,0,0,1,0-.15c-.18.07-.56,0-.43.18C121.24,37.27,121.48,37.39,121.58,37.38Z"/><path class="cls-3" d="M120.18,23.8c0,.07-.07.1,0,.21l.28,0A.21.21,0,0,0,120.18,23.8Z"/><path class="cls-3" d="M119.06,9.55a.68.68,0,0,0-.49.14C118.85,9.64,119,9.7,119.06,9.55Z"/><path class="cls-3" d="M120,24.12a2,2,0,0,1,.1-.21c-.16.05-.15-.06-.29,0s.19,0,.13.19-.2,0-.22.07Z"/><path class="cls-3" d="M120.14,26.07c-.08.07-.35,0-.32.17C120,26.23,120.16,26.22,120.14,26.07Z"/><path class="cls-3" d="M120.07,26.52c0,.08-.13.06-.22.07a.24.24,0,0,1,0,.2C119.89,26.73,120.24,26.63,120.07,26.52Z"/><path class="cls-3" d="M119,23.43c0,.07-.07.1,0,.2s.23,0,.27-.12C119.15,23.52,119.18,23.38,119,23.43Z"/><path class="cls-3" d="M119.32,26.27a.22.22,0,0,1,0-.15c-.15.05-.15-.06-.28,0A.24.24,0,0,0,119.32,26.27Z"/><path class="cls-3" d="M118.62,25.26a.86.86,0,0,0,.19.29c0-.07.13-.05.22-.06s0-.19.09-.26l-.22,0c0,.08.09.12,0,.15h-.11C118.9,25.31,118.79,25.23,118.62,25.26Z"/><path class="cls-3" d="M117.88,14.91c.11,0,.15.1.29.08C118.14,14.87,117.9,14.73,117.88,14.91Z"/><path class="cls-3" d="M118.84,23.79c0-.09,0-.11,0-.2-.21,0-.26.09-.4,0C118.51,23.73,118.68,23.75,118.84,23.79Z"/><path class="cls-3" d="M119.8,36.14c-.23,0-.16.22,0,.26C119.73,36.28,119.86,36.28,119.8,36.14Z"/><path class="cls-3" d="M117.76,14.77c-.16.18-.23-.08-.33.12a2.38,2.38,0,0,0,.4.07C117.83,14.87,117.76,14.86,117.76,14.77Z"/><path class="cls-3" d="M116.77,9.6c.19.08.25,0,.5,0C117.22,9.49,116.81,9.52,116.77,9.6Z"/><path class="cls-3" d="M118.5,25.78c.06.15-.18.08-.15.21C118.55,26,118.73,25.82,118.5,25.78Z"/><path class="cls-3" d="M118,23.5c.16,0,.19-.33,0-.3C118.06,23.35,117.92,23.35,118,23.5Z"/><path class="cls-3" d="M117,14.92c.1,0,.33,0,.33-.08S117,14.78,117,14.92Z"/><path class="cls-3" d="M117.05,23.86c.24-.13.72.17,1,0-.18-.12-.61,0-.74-.15C117.12,23.7,117.09,23.79,117.05,23.86Z"/><path class="cls-3" d="M117.84,23.26s.07,0,0-.06-.15-.06-.28,0C117.71,23.31,117.77,23.49,117.84,23.26Z"/><path class="cls-3" d="M116.85,23.42c.13,0,.17.08.34,0,0-.12,0-.24-.14-.24s0,.14,0,.15S116.85,23.36,116.85,23.42Z"/><path class="cls-3" d="M116.61,23.94c.11,0,.24,0,.21-.16S116.6,23.81,116.61,23.94Z"/><path class="cls-3" d="M115.61,10.49a.28.28,0,0,1,0-.16c-.14,0-.17.11-.28,0C115.37,10.48,115.47,10.51,115.61,10.49Z"/><path class="cls-3" d="M116.7,23.68c0-.06,0-.13,0-.2l-.28,0C116.38,23.69,116.51,23.72,116.7,23.68Z"/><path class="cls-3" d="M117.22,34.66c0,.16.27.25.28.08C117.33,34.79,117.38,34.61,117.22,34.66Z"/><path class="cls-3" d="M116.64,25.6c0-.22-.27-.12-.46-.12C116.23,25.74,116.42,25.51,116.64,25.6Z"/><path class="cls-3" d="M116.3,23.51c-.13-.05-.2-.15-.35-.18C116,23.47,116.19,23.65,116.3,23.51Z"/><path class="cls-3" d="M115,10a.22.22,0,0,1,0-.16c-.16,0-.28,0-.33.13A.38.38,0,0,1,115,10Z"/><path class="cls-3" d="M116,26.3c0,.15-.13,0-.23,0s.25.3,0,.4c.14,0,.06.19.23.14C115.9,26.65,116.1,26.45,116,26.3Z"/><path class="cls-3" d="M115.53,23a.29.29,0,0,0,0-.25c-.21,0-.07.19-.26.16,0-.12-.1-.15-.19-.18,0,.13-.31,0-.21.16.16-.07.21,0,.29.08a.26.26,0,0,0-.15.16C115.27,23.06,115.28,22.91,115.53,23Z"/><path class="cls-3" d="M115.34,25.44s.39.1.33-.08C115.54,25.47,115.43,25.3,115.34,25.44Z"/><path class="cls-3" d="M115.29,26.19c-.09-.22.18-.17.19-.31-.34,0-.56-.17-.72.05.18,0,.24.07.45,0C115.25,26,115.17,26.21,115.29,26.19Z"/><path class="cls-3" d="M114.84,24.11s.49.11.44-.08C115.14,24.16,115,24,114.84,24.11Z"/><path class="cls-3" d="M115.57,27.53c0-.21-.17-.22-.31-.28C115.25,27.46,115.43,27.47,115.57,27.53Z"/><path class="cls-3" d="M114.25,19a.29.29,0,0,0,.27-.11s0-.33-.18-.14C114.53,18.84,114.29,19,114.25,19Z"/><path class="cls-3" d="M113.91,24.38c-.16.05-.15-.07-.29,0S114,24.57,113.91,24.38Z"/><path class="cls-3" d="M113.61,24.85a2,2,0,0,0-.22-.59c0,.16-.19.16-.19.31C113.48,24.38,113.43,24.78,113.61,24.85Z"/><path class="cls-3" d="M111.78,5.37a.27.27,0,0,0-.08-.25c-.18,0-.26.08-.26.22C111.61,5.29,111.61,5.41,111.78,5.37Z"/><path class="cls-3" d="M113.43,26c-.08-.06-.22-.06-.22.06s0,.14.12.14S113.43,26.12,113.43,26Z"/><path class="cls-3" d="M113.09,25.29c.14,0,.21-.09.2-.22C113.12,25.06,113.05,25.13,113.09,25.29Z"/><path class="cls-3" d="M112.77,25.56c.1-.06.3,0,.27-.17s-.25,0-.39,0C112.59,25.53,112.83,25.39,112.77,25.56Z"/><path class="cls-3" d="M112.54,25.47c0,.06-.08.06-.16.06C112.36,25.82,112.78,25.58,112.54,25.47Z"/><path class="cls-3" d="M112.21,24.09a.44.44,0,0,0-.33.12C111.93,24.25,112.22,24.24,112.21,24.09Z"/><path class="cls-3" d="M111.92,23.3c0,.18-.29-.16-.34,0,.07,0,.07.07.07.14.18-.14.35,0,.24.19C112.08,23.71,112,23.31,111.92,23.3Z"/><path class="cls-3" d="M112,25.06c-.09-.06-.33-.25-.39,0,.32,0,.09.15.08.25C111.87,25.27,111.91,25.14,112,25.06Z"/><path class="cls-3" d="M111.29,23.9c.16,0,.13-.15.21-.22a.23.23,0,0,1-.17,0C111.39,23.78,111.26,23.78,111.29,23.9Z"/><path class="cls-3" d="M110.28,23.76c.09-.05.3,0,.26-.16S110.24,23.61,110.28,23.76Z"/><path class="cls-3" d="M110.22,25.83c0-.13.27.16.28-.07C110.31,25.75,110.08,25.63,110.22,25.83Z"/><path class="cls-3" d="M109.14,14c-.07,0-.11-.14-.29-.08C108.83,14.08,109.13,14.13,109.14,14Z"/><path class="cls-3" d="M109.71,25.76c-.14.18.31.17.15.4C110.19,26.11,109.82,25.84,109.71,25.76Z"/><path class="cls-3" d="M109.1,23.79c0,.16.19.09.3.13C109.41,23.77,109.26,23.77,109.1,23.79Z"/><path class="cls-3" d="M107.89,13.12c-.18.08-.35,0-.44.08A.3.3,0,0,0,107.89,13.12Z"/><path class="cls-3" d="M105.68,13.47s.07,0,.06,0-.11,0-.11.06l.28,0C106,13.42,105.71,13.34,105.68,13.47Z"/><path class="cls-3" d="M102.79,9.59c-.2-.08-.57,0-.69-.16,0,.1,0,.12,0,.21C102.35,9.46,102.67,9.83,102.79,9.59Z"/><path class="cls-3" d="M99.85,12c.22,0,.49,0,.38-.18,0,.2-.21-.2-.28,0a.08.08,0,0,1,.06.1C100,11.9,99.86,11.89,99.85,12Z"/><path class="cls-3" d="M97.07,11.43c0-.12.1-.22-.08-.25,0,0,0,.07,0,.11s-.21,0-.22.06S96.93,11.45,97.07,11.43Z"/><path class="cls-3" d="M92.88,10.11c.13,0,.4,0,.44-.09C93.2,10,92.92,9.91,92.88,10.11Z"/><path class="cls-3" d="M182.16,31.45c.07,0,.07.08.07.15-.26-.07-.28-.05-.1.1a2.79,2.79,0,0,0-.75.46c.73-.16.88-.76,1.51-.66C182.6,31.45,182.39,31.34,182.16,31.45Z"/><path class="cls-3" d="M171.25,23.94c-.14,0-.06-.19-.23-.14,0,0,0,.1-.05.11s-.14-.05-.16.06C171.05,23.88,171.16,24,171.25,23.94Z"/><path class="cls-3" d="M169.65,30.28c.07-.09.54-.11.37-.23C169.9,30.1,169.74,30.11,169.65,30.28Z"/><path class="cls-3" d="M166.8,23.48c0-.08-.09-.12-.12,0s.27.18.34,0c-.07,0-.06-.08-.12-.09A.14.14,0,0,1,166.8,23.48Z"/><path class="cls-3" d="M162.69,23.16a2.88,2.88,0,0,1-.44.13c0,.15.19.09.29.13C162.47,23.24,162.65,23.25,162.69,23.16Z"/><path class="cls-3" d="M155.14,23.16c.16,0,.38-.07.4.08s-.19,0-.22.11c.19,0,.32-.13.21-.21.11,0,.11.06.17.09s.05-.27-.07-.25C155.52,23.19,155.2,22.94,155.14,23.16Z"/><path class="cls-3" d="M153.93,31.59s0,.1-.05.1-.07,0-.11,0c0,.18.29.05.34,0S154.05,31.55,153.93,31.59Z"/><path class="cls-3" d="M150.55,24.48c.27,0-.06.33.19.34C150.78,24.63,150.64,24.35,150.55,24.48Z"/><path class="cls-3" d="M150.05,27.88c0-.1.14-.08.09-.21-.15.14-.74-.14-.71.15C149.74,27.84,149.86,27.75,150.05,27.88Z"/><path class="cls-3" d="M148.89,24c-.06-.18-.17-.16,0-.31-.11,0-.27-.05-.3-.18s.06,0,0-.05-.1.18-.21.22c-.28-.11-.68-.08-.91-.24,0,.16.15.09.18.19s-.07,0,0,0c-.15,0-.14-.22-.3-.23,0,.21-.21,0-.27.12.14.07.41,0,.46.17-.12,0-.34-.08-.44.08a.3.3,0,0,1,.29.08c-.17.08-.35-.1-.39,0,.42.11,1.35.52,1.66.54-.09-.07-.31,0-.29-.18.23.05.15,0,.1-.16.13,0,.12.17.29.13C148.62,24.1,148.72,23.91,148.89,24Z"/><path class="cls-3" d="M147.94,22c.13-.28.62-.27.68-.6-.13.07-.24-.13-.28,0C148.66,21.61,147.75,21.83,147.94,22Z"/><path class="cls-3" d="M148.37,23.11c0-.09.23-.21,0-.3-.11.31-.82.19-1,.07,0,.18-.2-.1-.17.06C147.61,23.28,148.22,23,148.37,23.11Z"/><path class="cls-3" d="M146.78,16.74c-.08,0-.21,0-.24-.14.14,0,.19.09.22-.06-.15-.1-.3.07-.38.17C146.57,16.64,146.69,16.89,146.78,16.74Z"/><path class="cls-3" d="M146.88,22.71c0,.32.46,0,.27-.07C147.17,22.75,147,22.68,146.88,22.71Z"/><path class="cls-3" d="M145.44,23.61a1,1,0,0,1,1,.19c0-.13.06-.2.2-.22a.28.28,0,0,0,.07.2c.14,0,.21-.09.21-.22-.54-.11-1,0-1.52-.15C145.57,23.56,145.34,23.56,145.44,23.61Z"/><path class="cls-3" d="M142.76,17.46c0-.12-.17,0-.18-.14s.25-.09.32-.17c-.09,0-.05-.11,0-.15-.63.2-1,0-1.38.29.07,0,.16,0,.17,0a.45.45,0,0,1-.34-.08c0-.15.16-.4.07-.45,0,.2-.36.45-.59.24-.06.16.18,0,.13.19-.08,0-.12-.06-.23,0s.06-.08,0-.15-.14-.06-.23-.08c0,.29.39.14.32.48.55.27,1.37-.11,2,.12.13-.08,0-.11.1-.16.11.16.21,0,.4.07,0-.12.07-.16.15-.21s.15,0,.12.19-.26,0-.27.12.32.14.34,0a.25.25,0,0,1,0-.35,1,1,0,0,0-.94.16S142.82,17.45,142.76,17.46Z"/><path class="cls-3" d="M111.86,26.72c0-.24.07-.07.22-.06,0-.11,0-.16.16-.16a.79.79,0,0,0,.29.13c-.06-.17-.26-.21-.37-.33.06.17-.1.17-.14.26s-.14-.14-.24-.18c0,.13,0,.21-.15.21C111.68,26.66,111.73,26.74,111.86,26.72Z"/><path class="cls-3" d="M129.05,22.8a.41.41,0,0,1,.28,0c0-.07,0-.19.09-.26-.21.05-.23-.09-.3-.18s-.16.07-.28.07C129.09,22.51,129.26,22.62,129.05,22.8Z"/><path class="cls-3" d="M128.84,22.47h0Z"/><path class="cls-3" d="M122.51,22.94c-.14,0-.19.08-.28,0-.08.05-.07.17-.09.26C122.41,23.2,122.4,23,122.51,22.94Z"/><path class="cls-3" d="M127.25,29.51h0Z"/><path class="cls-3" d="M127.33,29.81c.11-.17.61,0,.7-.3.11.08,0,.15.08.24.19-.3.59-.09.92-.31-.45.13-1.1-.18-1.49.15l-.29-.07C127.37,29.57,127.15,29.75,127.33,29.81Z"/><path class="cls-3" d="M128.39,21.64a.85.85,0,0,1-.19.42,1.56,1.56,0,0,1,.59-.34A.48.48,0,0,1,128.39,21.64Z"/><path class="cls-3" d="M143.23,23.21c-.1,0-.15-.13-.34-.08C142.85,23.29,143.26,23.24,143.23,23.21Z"/><path class="cls-3" d="M143,24.93c0,.12.11.1.07.25s-.28,0-.21.11a.58.58,0,0,0,.32-.17c-.18,0,.05-.14,0-.2Z"/><path class="cls-3" d="M142.26,18.26v0S142.28,18.27,142.26,18.26Z"/><path class="cls-3" d="M142.25,18.15c-.33-.13-.43,0-.68-.16.07.16.59.21.69.27Z"/><path class="cls-3" d="M139.29,10.05c.18,0,.1-.14.27-.12.06.24.32.09.41.23-.14-.22.17,0,.34,0-.31-.31-.91-.15-1.31-.26C139,10.15,139.23,9.84,139.29,10.05Z"/><path class="cls-3" d="M140.63,17.5c-.23.05-.13-.26-.4-.17C140.31,17.41,140.52,17.63,140.63,17.5Z"/><path class="cls-3" d="M140.82,23.17c.06-.22-.22-.09-.19-.29s.26,0,.33-.07c-.19.05-.23-.33-.3-.23a.24.24,0,0,1-.14.31.31.31,0,0,0-.34,0c.1.08.47,0,.3.23C140.65,23.06,140.62,23.24,140.82,23.17Z"/><path class="cls-3" d="M140.68,31.62c.13-.15.46.17.39,0a.25.25,0,0,1-.13-.19C140.86,31.49,140.58,31.6,140.68,31.62Z"/><path class="cls-3" d="M139.83,22.73c-.27,0-.35,0-.56,0,0-.07,0-.19-.07-.2-.12.15-.59.2-.62-.1a5.51,5.51,0,0,1,.78-.06c0-.1.17-.26-.08-.24a.31.31,0,0,1-.26.22,1.55,1.55,0,0,0-1,0c.12.08.07,0,.23,0a.19.19,0,0,0,.07.14c-.2.11-.5.15-.76.3s-.16-.26-.53-.26c0,.3-.33.25-.65.24,0-.05,0-.1,0-.15-.21.14-.34-.06-.6.19a.19.19,0,0,0-.07-.14c.12-.15,1-.26.89,0a1.27,1.27,0,0,1,1.11-.18c-.06-.09.15-.18,0-.2a.86.86,0,0,1-.72,0c-.09.27-.6.18-.73,0,.14,0,.27,0,.27-.12-.32-.15-.44-.2-.72,0,.19,0,.36-.18.5,0a.31.31,0,0,1-.16.16c-.14-.12-.18-.07-.39,0,0-.22-.23-.12-.3-.23-.13.11.11.21-.09.26s-.4.14-.62-.06c.08-.08.23-.11.26-.22-.2,0-.12.19-.32.17,0-.13-.13-.12-.24-.13-.26.18-.76.06-1,.32-.06-.1-.26-.06-.34-.13.12,0,.21,0,.21-.12-.3.2-.82,0-.76.31-.22,0-.39-.28-.57-.12,0,0,.11,0,.12.05s-.12.06-.22.06c-.08-.22-.56.09-.74-.15.09.2-.23.1-.26.22.35.1.77.15,1.14.22a3.27,3.27,0,0,1-1,.12c0-.09.3-.22,0-.2-.16.32-.59,0-.82.2.25.05.62,0,.63.26,0-.25.2,0,.29,0,0-.3.47-.07.76-.2,0,.21.16.1.4,0-.05.25.24.15.3.29.29-.56,1-.07,1.23,0-.1,0,.09-.14.1-.2s.21.35.35.17c-.06-.05-.21,0-.18-.14.19,0,.39,0,.45.07,0-.07.07-.16.21-.16s.29.1.29.18c-.07-.08.41.05.22-.06-.63-.32,1.2-.31,1.07.08.15,0,.13-.22.32-.23s.35.11.41.28c.32,0,.49-.18.68,0,.09-.09,0-.14-.08-.25.14-.06.29-.16.39,0-.13.07-.31.15-.09.26.09-.13.58,0,.61,0s0-.16,0-.25.22-.15.32-.23a.88.88,0,0,1,.23.14c-.08.09-.24.12-.31.22.19-.11.3.08.5,0s-.16-.18,0-.2.32.13.51.06C139.84,22.87,139.84,22.8,139.83,22.73Zm-7.78-.13c-.07-.29.29-.1.44-.13C132.39,22.64,132.23,22.48,132.05,22.6Zm.51.07c.11-.12.28,0,.39,0S132.51,22.88,132.56,22.67Zm.77-.1c.13-.1.46,0,.73,0A.69.69,0,0,1,133.33,22.57Zm1.82.28c-.17,0-.09-.17-.29-.08,0-.27.36-.22.54-.29C135.46,22.71,135,22.57,135.15,22.85Zm2.08.16c0-.18.39-.27.44-.13S137.36,23,137.23,23Z"/><path class="cls-3" d="M138.75,18.38c0,.12-.31,0-.27.17l.28,0C138.73,18.45,138.83,18.4,138.75,18.38Z"/><path class="cls-3" d="M139,28.62c0-.21.32-.1.32-.27-.27.2-.72,0-.87.41-.2.06-.32-.24-.45-.07.07,0,.07.07.07.14.25-.06.06.08.17.09a.44.44,0,0,1,.1-.16c0,.13.29.12.4,0-.14,0-.2,0-.18-.14A1.12,1.12,0,0,1,139,28.62Z"/><path class="cls-3" d="M137.13,17c-.15-.18-.11-.26-.31-.33,0,.16.12.15,0,.25.22-.07.16.17.29.18H137a1.23,1.23,0,0,0,0,.2c.27-.08.51.15.62.06-.09-.15-.4-.06-.52-.16a.56.56,0,0,1,.89-.06c-.16.05-.15-.06-.28,0,.05.17.67.19.66,0-.39,0-.52-.22-.75-.35,0,.06,0,.14-.05.15,0-.25-.19,0-.29-.18.14.07.15-.18,0-.15s-.16.12-.2.21c.14,0,.11.1.18.14C137.18,16.92,137.18,17,137.13,17Z"/><path class="cls-3" d="M138.24,17a1.07,1.07,0,0,0-.35-.23C137.84,16.94,138.2,17,138.24,17Z"/><path class="cls-3" d="M137.11,10c0-.12-.11-.1-.08-.25C136.55,9.78,136.86,9.81,137.11,10Z"/><path class="cls-3" d="M137.66,22.18c.1,0,.33,0,.33-.08-.22-.35-.7,0-1,0,.2.24.52-.18.78,0C137.81,22.23,137.59,22,137.66,22.18Z"/><path class="cls-3" d="M138.16,24.15c-.55,0-.14,0,0,.2C138.17,24.29,138.17,24.22,138.16,24.15Z"/><path class="cls-3" d="M137.78,21.56c-.1.11-.36-.09-.56-.06C137.22,21.57,137.87,21.76,137.78,21.56Z"/><path class="cls-3" d="M137.45,20.23a1.25,1.25,0,0,0-.89.06C136.79,20.27,137.74,20.6,137.45,20.23Z"/><path class="cls-3" d="M137.28,28.43c.25,0,.23,0,.45,0,0-.09.07-.1.1-.15s-.05-.17-.18-.14c0,.29-.51,0-.76.2,0,.26-.82.3-1.06.12a2,2,0,0,0,.5-.08c-.09,0,0-.14-.12-.14s-.38,0-.32.17c-.12-.14-.29,0-.4-.08.08.15-.17.28-.21.17s.11,0,.1-.06c-.6-.29-1.27.21-1.8-.18-.14.07.07.24,0,.25-.28-.26-.8.13-1.19-.17,0,.06,0,.14-.05.16-.07-.14-.57-.07-.55,0,.55.13,1.19,0,1.68,0,0,.13.11.15,0,.25a.73.73,0,0,1,.72-.1c0-.14.12-.15.26-.17s-.06.08,0,.16a.24.24,0,0,0,.16-.06s0,.06,0,.1.29.12.33,0a.51.51,0,0,1-.18-.09c.11,0,.12-.06.22-.07-.06.2.16.09.13.25a.49.49,0,0,1,.56-.09c0-.11,0-.19.09-.21-.13.24.41.18.51.07a.22.22,0,0,1,0,.15,1.7,1.7,0,0,1,1,.09c-.05-.23.34-.17.49-.14a.34.34,0,0,1-.1.16c.08-.15-.25-.12-.22,0,.3,0,.21.16.3.24.14-.29.19-.17.07-.51-.17,0-.65.13-.57-.06C137.16,28.64,137.2,28.41,137.28,28.43Z"/><path class="cls-3" d="M131.76,28.55Z"/><path class="cls-3" d="M130.86,28.51c.29,0,.4.06.55-.08l.19.08c-.14-.07-.24-.17-.15-.34-.21.22-.29-.07-.45,0C131.27,28.27,130.84,28.35,130.86,28.51Z"/><path class="cls-3" d="M136.26,20.71c-.21.15.36-.09.31-.27C136.36,20.45,136.37,20.63,136.26,20.71Z"/><path class="cls-3" d="M135.78,25.07a2.6,2.6,0,0,1,1,0c0-.07.17-.2,0-.2-.19.17-.48,0-.73-.11,0,.13.11.11.07.25A.24.24,0,0,0,135.78,25.07Z"/><path class="cls-3" d="M135.5,17.6c-.05-.29-.57,0-.67.09.1,0,.46.23.35.13s-.21-.07-.24-.19C135.21,17.71,135.24,17.51,135.5,17.6Z"/><path class="cls-3" d="M135.22,29.88c.11,0,.12.06.18.09.07-.28.56,0,.71-.15-.26,0-.5,0-.62-.11C135.47,30,135.3,29.63,135.22,29.88Z"/><path class="cls-3" d="M135.66,29.75c.05-.05.16,0,.33-.07,0-.07,0-.14,0-.2s-.38,0-.38.12C135.79,29.6,135.49,29.78,135.66,29.75Z"/><path class="cls-3" d="M135.33,24.39c-.21,0-.1.18-.21.22s-.23-.26-.34-.08c.13,0,.07.14.18.14s.28.06.33-.12C135.12,24.53,135.36,24.46,135.33,24.39Z"/><path class="cls-3" d="M134.36,18.73h-.17c.05.13.22.14.3.23C134.52,18.81,134.33,18.88,134.36,18.73Z"/><path class="cls-3" d="M133.24,24.18c-.1,0-.12.07-.22.07.1.27.22.27.21.49.26,0,.31-.11.45,0,0-.36.61,0,.72-.15-.11-.13-.46,0-.47-.22s.18.08.22-.07c-.29,0-.65-.05-.83.11C133.35,24.28,133.23,24.3,133.24,24.18Zm.59.31c-.1.13-.29,0-.38.13C133.26,24.49,133.7,24.41,133.83,24.49Z"/><path class="cls-3" d="M131.51,13.29c0,.06,0,.14.06.15,0-.22.22,0,.23,0a3.18,3.18,0,0,1,1.06,0c-.08-.12.11-.25,0-.25s-.11.06-.15.11c0-.31-.2-.23-.21-.44,0,.23-.63-.05-.54.19-.11,0-.05-.17-.13-.19-.46,0-1,.23-1.39,0,.09.18.12.08,0,.2C130.71,13.08,131.17,13.56,131.51,13.29Z"/><path class="cls-3" d="M133.07,29.52c.09.22-.34-.06-.38.13a1,1,0,0,0,.83-.11C133.31,29.59,133.25,29.5,133.07,29.52Z"/><path class="cls-3" d="M130.8,24.45c-.13.32.63.16.85.14a.34.34,0,0,1,0,.1c-.18,0-.16.09-.27.12s-.15-.1-.28-.08.24.06.34.13.15-.17.32-.18c.14.21.35,0,.58.17,0-.11,0-.17.15-.17s.05.06.06.1a.14.14,0,0,0-.15.11c.24-.05.38,0,.45.12-.1-.17.19,0,.16-.16s-.42.08-.35-.18c.07,0,.11.07.22,0,0-.22,0-.25.08-.41-.25,0-.17.18-.37.18,0-.18.17-.27-.09-.3,0,.2-.08.3-.3.32.12-.24-.4-.06-.52-.11s.1-.17-.07-.2c0,.13-.31,0-.21.17.11,0,.17-.17.22,0A1.15,1.15,0,0,1,130.8,24.45Z"/><path class="cls-3" d="M132.22,31.49c-.09-.19.15-.11.09-.26s-.4,0-.16.11c-.11,0-.37-.23-.38,0,.25-.08.45.07.23.18.08.14.52-.1.52.12.14-.16.26-.12.43-.18C132.76,31.34,132.42,31.65,132.22,31.49Z"/><path class="cls-3" d="M131.61,26.1a1.08,1.08,0,0,1-.5,0c.14.08.06.33.13.25C131.24,26.11,131.7,26.26,131.61,26.1Z"/><path class="cls-3" d="M132,39c-.51.15-.79-.22-1.12-.07A1.21,1.21,0,0,0,132,39Z"/><path class="cls-3" d="M131.29,31.75c-.28.13-.36,0-.51-.16.09.19,0,.51.11.64C130.9,32,131.21,32,131.29,31.75Z"/><path class="cls-3" d="M125.53,24.3c-.08,0-.28.08-.28,0s0-.13-.06-.05,0,.13,0,.2C125.3,24.34,125.46,24.46,125.53,24.3Z"/><path class="cls-3" d="M130.22,24.89c0-.34.21-.17.43-.28,0-.1-.07-.11-.07-.2l-.34,0c0,.2-.4.09-.44.08s.07-.1,0-.2-.11.1-.27.07c-.06.16.18,0,.13.19-.17,0-.14.08-.28.07a.84.84,0,0,0-.91-.14c.17.32,1.35.08,1,.34C129.76,24.93,130.09,24.75,130.22,24.89Z"/><path class="cls-3" d="M128.26,24.16c0,.33-.18,0-.32.13,0-.08,0-.13-.07-.15s-.16.07-.15.16.24,0,.23.14a.29.29,0,0,1,.22-.07c0,.08,0,.09,0,.16s.07,0,.11,0-.36.05-.29-.13a3.39,3.39,0,0,1-1.59-.25c.09-.19.46.06.45,0s0-.11,0-.15c-.3,0-.44-.06-.61.09.07,0,.13,0,.12.1-.19.07-.24,0-.33.07.23.4-.59.22-.77.15s-.15.13-.33.12a.27.27,0,0,0-.4-.17c0,.24.33,0,.35.23-.22,0-.34-.18-.5,0,.11-.11,0-.16-.08-.25-.44.15-.69,0-1,.17,0-.09.15-.07.1-.2-.77.11-1.56,0-2.34.2,0-.19-.46,0-.24-.23-.19.3-.57-.05-.88.21.06,0,0,.06,0,.05s.1-.11.1-.2-.33,0-.33.07.13,0,.12.09a2.33,2.33,0,0,1-1-.19.28.28,0,0,1,.34,0c0-.09-.07-.1-.07-.2-.5.16-.65.45-1.25.44-.06.2.17.11.18.24.17,0,.18-.14.32-.17.39.21,1.09,0,1.45-.05,0,.08-.17.05-.09.21.16,0,.18-.11.27-.17.08.25.67,0,.8.2-.2,0-.22.3,0,.25-.18-.38.85-.38,1.14-.38,0-.13.47,0,.55-.14.06,0,0,.18.18.14-.08-.17.37-.17.53-.29,0,.07.08.07.07.15-.16,0-.3,0-.27.17a1.58,1.58,0,0,1,.9,0c-.17,0-.32.16-.21.22.05-.14.24,0,.34,0s0-.12,0-.18a.82.82,0,0,0,.44-.05c0,.16,0,.1,0,.25.13,0,.15-.1.32-.07,0,.18.11.21.3.18a.93.93,0,0,1-.25-.29c.09,0,.25-.08.34,0-.24.24.13,0,0,.25.28.05.53.13.8.2,0-.19-.3,0-.25-.24l.34,0c0,.12,0,.19.12.19-.08-.47,1-.1,1.25-.48,0,.07-.07.13-.09.21s.11.06.17.08-.11-.14,0-.2.14,0,.06.1c.24,0,.09-.25.32-.23,0,.32.3,0,.35.18.12-.21.27,0,.5,0,.07-.22-.29,0-.29-.13s.05-.09.1-.11S128.4,24.22,128.26,24.16Zm-2.81.5c.06-.18.32-.21.34,0C125.61,24.62,125.57,24.71,125.45,24.66Zm.78,0c0-.31.29-.12.6-.19C126.77,24.63,126.39,24.55,126.23,24.65Z"/><path class="cls-3" d="M129.17,24.35a1,1,0,0,0-.68-.2c.18,0-.06.1-.05.15s.07,0,.07.1c.23,0,.05-.2.15-.21S129,24.32,129.17,24.35Z"/><path class="cls-3" d="M130.84,32.39c.16.13.47-.18.38-.13S130.9,32.23,130.84,32.39Z"/><path class="cls-3" d="M130.41,27.09c.17,0,.43-.24.2-.22C130.72,27.08,130.3,26.88,130.41,27.09Z"/><path class="cls-3" d="M130.64,27.17c-.08,0-.3,0-.28.07.27-.08.22.17.41.17C130.8,27.26,130.61,27.33,130.64,27.17Z"/><path class="cls-3" d="M130.84,30.37c.28,0,0,.16,0,.26C131.2,30.71,131,30.14,130.84,30.37Z"/><path class="cls-3" d="M130.88,31.43c-.2,0,.12-.2-.08-.2a.38.38,0,0,1,0,.1c-.08,0-.21,0-.22.07S131,31.52,130.88,31.43Z"/><path class="cls-3" d="M131.41,37.88a.51.51,0,0,1-.18-.09l-.39,0C130.76,37.86,131.56,37.94,131.41,37.88Z"/><path class="cls-3" d="M128.62,30.47h0Z"/><path class="cls-3" d="M128.37,24.06c.12-.15.25,0,.38-.13C128.61,23.83,128.38,23.92,128.37,24.06Z"/><path class="cls-3" d="M128.16,18.14c-.28-.29-.67.14,0,0Z"/><path class="cls-3" d="M129,31.6c-.21.21-.66.16-.69.4C128.58,31.87,128.93,31.82,129,31.6Z"/><path class="cls-3" d="M127.71,18.82c-.15.15-.6.07-.71.25C127.32,19.1,127.7,19,127.71,18.82Z"/><path class="cls-3" d="M127.51,21.8a.35.35,0,0,1,0-.3c-.27-.05,0,.29-.25.27,0,0,0-.05-.06,0C127.33,22,127.35,21.72,127.51,21.8Z"/><path class="cls-3" d="M127.67,27.12c0-.12.24-.06.26-.17-.24,0-.37.12-.62-.06C127.36,27,127.58,27,127.67,27.12Z"/><path class="cls-3" d="M128.13,32a.2.2,0,0,1,0-.16c-.21,0-.34.05-.38.18C128,32,128,31.89,128.13,32Z"/><path class="cls-3" d="M128.09,32.27c-.07-.05-.21,0-.28-.08s-.07.1-.1.16.16,0,.27-.07.17.29.24.13A.14.14,0,0,1,128.09,32.27Z"/><path class="cls-3" d="M127.26,21.47c-.21.08,0-.23-.24-.14,0,.16.07.18.08.3s-.31-.1-.33.07.27,0,.35.08C127,21.57,127.32,21.66,127.26,21.47Z"/><path class="cls-3" d="M127.05,20.27a.43.43,0,0,0-.45,0c.07,0,0,.06,0,.1C126.75,20.22,127,20.4,127.05,20.27Z"/><path class="cls-3" d="M127.23,25.84c-.32,0-.52.09-.67,0,.13.09.29.44.52.26C126.86,26,127.2,25.92,127.23,25.84Z"/><path class="cls-3" d="M127.06,28.57s0-.1-.06-.1a.76.76,0,0,0,0,.15c.09-.05.27,0,.32-.12s-.12-.05-.22,0S127.11,28.56,127.06,28.57Z"/><path class="cls-3" d="M127.55,31.8c0,.09-.09.12-.21.12a.22.22,0,0,1,0-.16c-.24,0-.12.13,0,.21S127.72,31.86,127.55,31.8Z"/><path class="cls-3" d="M125.75,14c-.18,0-.24.13-.38.17.19,0-.29.17,0,.26,0-.15.34-.41.21-.12C125.74,14.33,125.65,14.1,125.75,14Z"/><path class="cls-3" d="M127.3,34.18c-.24.07-.65,0-.83.16a1.27,1.27,0,0,1,.67,0C127,34.17,127.33,34.3,127.3,34.18Z"/><path class="cls-3" d="M125.49,23.14c0,.09-.09.24,0,.35,0-.13,0-.21.15-.21,0,0-.12.2,0,.2,0-.09.07-.1.1-.15C125.63,23.33,125.7,23.09,125.49,23.14Z"/><path class="cls-3" d="M125.51,24.05c0,.06,0,.14.07.14s0-.09,0-.1a.15.15,0,0,0,.17.09c0-.13-.16-.43-.24-.19C125.78,24,125.66,24.12,125.51,24.05Z"/><path class="cls-3" d="M126,27c-.33.09-.3-.2-.52-.22s.08.12,0,.16-.37-.16-.56-.07c.07,0,0,.06,0,.1C125.31,27,125.79,27.1,126,27Z"/><path class="cls-3" d="M126.54,33.83c-.26.07-.38,0-.55.09C126.25,33.88,126.43,34.1,126.54,33.83Z"/><path class="cls-3" d="M126.34,34.05c-.22.11-.28-.22-.4,0a.51.51,0,0,1,.18.09c0,.06-.09.12,0,.15S126.29,34.14,126.34,34.05Z"/><path class="cls-3" d="M125.24,24.12c0-.12.16-.13.2-.22a2.38,2.38,0,0,0-.32.12c0-.08,0-.25-.13-.19A.37.37,0,0,0,125.24,24.12Z"/><path class="cls-3" d="M124.75,22.89c0,.07-.1.05-.11.11s.21,0,.23.08-.27.16-.15.17.31,0,.27-.17C124.84,23.08,124.89,22.89,124.75,22.89Z"/><path class="cls-3" d="M124.84,23.39s.06-.05,0-.05-.07,0-.17,0c.15.2.1.18,0,.35.23,0,.25,0,.38-.12C124.94,23.54,124.84,23.51,124.84,23.39Z"/><path class="cls-3" d="M125.74,32.88c-.24,0-.27.16-.37.28C125.59,33.14,125.56,32.93,125.74,32.88Z"/><path class="cls-3" d="M125.41,33.71c.12-.07.36,0,.38-.18a8.19,8.19,0,0,0-1.46-.05c0,.06,0,.12-.1.1a2.32,2.32,0,0,0,.73.06c-.06,0-.14-.08-.06-.1S125.22,33.67,125.41,33.71Z"/><path class="cls-3" d="M125.43,36c.62.09.46-.16,0,0Z"/><path class="cls-3" d="M125.14,32.42a.39.39,0,0,0,.44-.08C125.35,32.49,125.22,32.22,125.14,32.42Z"/><path class="cls-3" d="M124.5,24c0-.2.21.05.27-.11-.11,0-.08-.14-.23-.09C124.62,23.88,124.29,23.9,124.5,24Z"/><path class="cls-3" d="M124,24.25c0-.13.21-.05.15-.21s-.07,0-.22,0a.2.2,0,0,0,.07.15S124,24.24,124,24.25Z"/><path class="cls-3" d="M123.93,25.86a.25.25,0,0,0-.36-.22A2.54,2.54,0,0,1,124,26c0-.07,0-.19.09-.26C124,25.74,124,25.83,123.93,25.86Z"/><path class="cls-3" d="M121,14.8a.86.86,0,0,0,.37-.27c-.12.06-.36,0-.38.17S121,14.76,121,14.8Z"/><path class="cls-3" d="M122.55,32.84s-.32-.09-.34,0,.21.34.25.28C122.21,32.92,122.63,32.85,122.55,32.84Z"/><path class="cls-3" d="M120.89,14.76c-.12.05.06-.26-.07-.1s0,.06,0,.05-.06-.08-.12-.09S120.82,14.9,120.89,14.76Z"/><path class="cls-3" d="M121.27,24.13c.2-.12.18,0,.29.13-.06-.15.07-.16.09-.25C121.47,24,121.31,24,121.27,24.13Z"/><path class="cls-3" d="M122.23,32.41c0-.32-.34-.23-.52-.26,0,.12-.21.12-.15.31.12-.27.45,0,.21-.22A.45.45,0,0,1,122.23,32.41Z"/><path class="cls-3" d="M122,34.84c-.18,0-.37-.06-.24-.19-.13.11-.26,0-.33.08C121.67,34.72,121.83,35,122,34.84Z"/><path class="cls-3" d="M122,35.85c-.07.21-.06.49-.23.62C122.05,36.51,122,35.77,122,35.85Z"/><path class="cls-3" d="M119.1,14.83c-.1.3-.48-.15-.6.14a9.28,9.28,0,0,0,1.47.15C119.72,14.86,119.32,15.09,119.1,14.83Z"/><path class="cls-3" d="M120.86,36.12c0-.2.33-.15.36-.32C121.06,35.84,120.71,36,120.86,36.12Z"/><path class="cls-3" d="M119.9,25.13c0-.34.35.05.37-.18a1.15,1.15,0,0,0-.77.15C119.72,25.06,119.73,25.05,119.9,25.13Z"/><path class="cls-3" d="M119.06,26.54c.26-.19.67,0,1-.16C119.79,26.44,119.22,26.24,119.06,26.54Z"/><path class="cls-3" d="M118.35,23.37s.05-.06.11-.06.13.29.18.14S118.2,23.17,118.35,23.37Z"/><path class="cls-3" d="M118.18,24c.08-.14.32.12.39,0l-.35-.13C118.33,24,118,24,118.18,24Z"/><path class="cls-3" d="M117.26,9.37a7.37,7.37,0,0,0-1.19-.12c0,.16-.33.06-.26.27C116.08,9.18,116.84,9.55,117.26,9.37Z"/><path class="cls-3" d="M118.54,25.67s-.06,0-.06,0,0-.06-.06-.05-.08.06-.16.06c.08-.17,0-.18-.13-.19,0-.11,0-.3.21-.27-.13-.19-.4-.24-.59-.36,0,.23.33.2.37.43-.23,0,0,.28-.2.26s0-.21-.24-.18.13.16-.05.15c-.09-.16-.12.12-.27.07s-.15-.18,0-.2.12.06.18.09a.24.24,0,0,1,0-.2c-.21,0-.6,0-.77.25.15.11.1-.08.28-.07.17.2.09.28-.16.16,0,.21.31.16.4,0a.14.14,0,0,0,.12.15c0-.06,0-.14,0-.16a.16.16,0,0,1,.18.09,1.66,1.66,0,0,0-.26.27c.09.08.36-.16.26-.22.14,0,.17-.09.27-.12,0,.19.25-.05.13.15C118.2,25.61,118.42,25.82,118.54,25.67Z"/><path class="cls-3" d="M118,25.91c0,.17.12.31.31.33C118.16,26.12,118.11,26,118,25.91Z"/><path class="cls-3" d="M117.85,24c-.15,0-.24.18-.1.21,0-.25.18,0,.23,0C118,24.1,117.82,24.17,117.85,24Z"/><path class="cls-3" d="M113.53,26c.27,0,.79-.13.92.24.15-.19.26-.18.39,0a.61.61,0,0,0-.37-.48c.1,0,0-.16.15-.16a1.28,1.28,0,0,0,.29.13.26.26,0,0,1,0-.2c-.16,0-.14.08-.27.07s.08-.09.1-.16c-.21,0-.21.12-.38.13a.27.27,0,0,1,0-.13,2.79,2.79,0,0,0,.5,0c.2,0,.25-.15.16-.28a.24.24,0,0,1,.23,0c-.07-.13-.2-.12-.32-.11l-.47-.39h0a.87.87,0,0,1,.46.12c0-.06,0-.14,0-.15.6.23,1.48.06,2.1.31,0,.06-.08.06-.16.06a.22.22,0,0,0,.12.2,1.9,1.9,0,0,0,.24-.52c.28,0,0,.16.24.18s0-.24,0-.4c-.19.17-.44,0-.55.19.06.05.21,0,.18.14a.6.6,0,0,1-.36-.28,1,1,0,0,1-.55,0c-.12-.1,0-.1,0-.21-.24,0-.09.25-.32.23,0-.1,0-.17-.13-.2.07.35-.42-.21-.49.09.07.06.27,0,.29.13-.32,0-.45-.12-.64-.21,0,.06,0,.14,0,.15-.21-.2-.52.05-1-.08,0,.24-.15.11-.33.12,0,.16.11.14.08.3.24-.1.1,0,.24.18-.35.09-.5.33-.74.51.26,0,.54-.18.73,0h0c-.2,0-.37.2-.55,0,0,.28-.34.2-.48.33.19.26.51-.3.73,0C113.57,25.86,113.51,25.88,113.53,26Zm.27-.23a.13.13,0,0,0,.2.05.26.26,0,0,0,.07-.1h.05c0,.21-.47.32-.44,0Z"/><path class="cls-3" d="M117.53,24.23c0-.06-.21.05-.18-.19.08,0,.21,0,.1-.05a.26.26,0,0,0-.16.06c0,.16.14.18,0,.3C117.41,24.33,117.6,24.38,117.53,24.23Z"/><path class="cls-3" d="M116.59,14.89c-.19-.16-.32-.08-.52-.26.22.33-.29-.16-.26.22A2.17,2.17,0,0,0,116.59,14.89Z"/><path class="cls-3" d="M116.77,23.13c-.08.18-.12-.12-.23-.09a.47.47,0,0,0,.24.29S116.91,23.13,116.77,23.13Z"/><path class="cls-3" d="M115.92,19c-.14,0-.2,0-.18-.14s.67,0,.49-.18a4,4,0,0,0-1,.32c-.08-.11.13-.2,0-.2a.16.16,0,0,1-.16.11C115.11,19.18,115.63,19,115.92,19Z"/><path class="cls-3" d="M116.64,26.35c.11,0,.12-.06.22-.06s-.19-.37-.25-.29.16.13.19.24S116.61,26.25,116.64,26.35Z"/><path class="cls-3" d="M114.84,14.61a.15.15,0,0,1,.12.14c.13,0,.16-.09.33-.07s.11,0,.18.19c0-.14.22.11.22-.07-.1,0,0-.16-.18-.13s0,.09-.05.1,0-.19-.07-.2c-.08.14-.41-.13-.44.08C115,14.57,114.86,14.52,114.84,14.61Z"/><path class="cls-3" d="M116.21,25.18c-.25,0-.47-.08-.49.18a.81.81,0,0,1,.45,0s0-.06-.07-.1S116.21,25.22,116.21,25.18Z"/><path class="cls-3" d="M115.78,26.06c-.06.14-.13-.15-.29-.08,0,.17.21.14.3.23C115.76,26.12,115.86,26.08,115.78,26.06Z"/><path class="cls-3" d="M114.92,23.1c0-.25-.17,0-.23-.13s.15-.07.15-.17c-.33,0-.12.29-.19.37C114.78,23.18,114.76,23.07,114.92,23.1Z"/><path class="cls-3" d="M113.51,14.85c-.05-.32.45,0,.43-.23-.16,0-.19,0-.12-.09-.31,0-.29-.07-.32.12-.26,0-.14-.11-.3-.18,0,.08-.17.35-.09.26S113.42,14.76,113.51,14.85Z"/><path class="cls-3" d="M113.05,24.18c-.12-.31-.27-.06-.51-.11,0,.12.12.16.19.23,0-.22.23,0,.33,0s-.27-.14-.07-.24C113,24.12,113,24.18,113.05,24.18Z"/><path class="cls-3" d="M112.78,26.31c.11-.18.34,0,.32-.22-.13,0-.22.11-.34,0C112.85,26.22,112.64,26.31,112.78,26.31Z"/><path class="cls-3" d="M112.65,26.12c0-.14.19-.2.2-.37l-.23,0c0,.07.09.25,0,.25s-.4-.09-.45,0C112.34,26.16,112.58,26,112.65,26.12Z"/><path class="cls-3" d="M111.84,23.71c.18.15.08.25.36.28,0-.07.07-.1,0-.21S112,23.85,111.84,23.71Z"/><path class="cls-3" d="M111.75,26c0-.06.23-.36.14-.31s-.26,0-.28,0-.07.1-.1.15.16-.08.23.09S111.66,26,111.75,26Z"/><path class="cls-3" d="M110.65,24.19c.37,0,.33,0,.49-.13C111.14,24,110.56,24.16,110.65,24.19Z"/><path class="cls-3" d="M110.92,23.47c0,.06-.06,0-.11,0a.23.23,0,0,0,.09.34C110.88,23.73,111,23.51,110.92,23.47Z"/><path class="cls-3" d="M107,13.78c-.24,0-.28,0-.4-.12.22,0,0-.31.2-.32a.22.22,0,0,1-.17,0c0,.19-.13.38,0,.6C106.76,13.85,106.94,13.87,107,13.78Z"/><path class="cls-3" d="M100.64,12.05a.28.28,0,0,0,.22-.12c-.21.09-.25-.28-.4-.07.08,0,.21,0,.23.13S100.63,12,100.64,12.05Z"/><path class="cls-3" d="M97.56,9.29c.13-.25.23-.09.45,0,0-.14.19-.22.27-.07.16-.34-.3-.06-.62-.11.1-.12,0-.05-.07-.15-.45.07-1.06.17-1.33.19.39.17,1.1-.29,1.3.12C97.53,9.24,97.5,9.28,97.56,9.29Z"/><path class="cls-3" d="M155,23.17c0-.09.07-.1.1-.15-.22,0,.08-.37-.3-.28,0,.15.16.08.13.24-.19.05-.22-.06-.39,0s-.2.22,0,.26C154.55,23,154.82,23.19,155,23.17Z"/><path class="cls-3" d="M135.36,10.57c0,.2.3.45.41.22a1.59,1.59,0,0,0,1.55.4c.32.12.8.4,1.13.18.05.17.43,0,.57.11,0-.06,0-.12.1-.11.79.28,1.56.07,2.37.29,0-.26.4-.06.49-.18-.22,0-.33-.17-.52-.22,0,.06,0,.14,0,.16s-.18-.07-.19-.19.28,0,.21-.22c-.94.48-1.66-.64-2.54-.23a.14.14,0,0,0-.12-.14c-.18.28-.57-.18-.72.1,0-.26-.43-.11-.56-.07-.39-.32-.95,0-1.42-.25-.05.07-.18.08-.21.16,0-.22-.19-.15-.06,0a.36.36,0,0,0-.22.06c0-.16.1-.16,0-.25s-.12.25-.16,0c-.16,0-.32.18-.2.27S135.31,10.6,135.36,10.57Z"/><path class="cls-3" d="M134.48,31.09a.32.32,0,0,1,0-.3h-.28c-.09.14.08.18,0,.26S134,31,134,30.87c-.17.06-.4.06-.43.23C133.93,31,134.13,31.23,134.48,31.09Z"/><path class="cls-3" d="M132.77,28c-.36,0-.24-.14-.52-.21,0,.22.09.27.15.39.07,0,.29,0,.27-.07s-.07,0,0-.05S132.78,28,132.77,28Z"/><path class="cls-3" d="M129.47,28.66c.19,0,.08-.19.21-.22.16.2.37,0,.49-.08a.15.15,0,0,1,.12.09c0,.08-.27,0-.21.17a1.62,1.62,0,0,1,.73,0c-.27-.2.1-.29,0-.45-.08.17-.27-.29-.39-.08.12.08-.21.21-.38.13-.13.08.07.18,0,.2s-.29-.08-.19-.18C129.62,28.34,129.47,28.44,129.47,28.66Z"/><path class="cls-3" d="M130.74,29.83c-.06,0-.2-.13-.06-.15.24.16.63-.11.88-.11-.3,0-.75-.09-.94.07-.09-.13-.19-.09-.34,0a.24.24,0,0,1,0-.2c-.22.11-.51.16-.59.39,0-.08,0-.18-.12-.15C129.73,30.05,130.36,29.79,130.74,29.83Z"/></g></g></g></g></svg>
