<svg xmlns="http://www.w3.org/2000/svg" viewBox="0 0 2400 300"><defs><style>.cls-1{fill:#023436;}</style></defs><g id="Layer_2" data-name="Layer 2"><g id="svg2"><path id="path2987" class="cls-1" d="M626.09,298.42c0-.88-.58-1.42-1.28-1.22s-2.17-.61-3.25-1.82a6.39,6.39,0,0,0-4.17-2.19c-1.76,0-1.9-.18-.68-.87s1.15-.93-.17-1.14-1.29-.51.28-1.4,1.59-1.19.33-1.39c-.91-.14-1.66-.53-1.66-.86s.59-.44,1.31-.23,1,0,.52-.58-.1-1,.73-1c1.1,0,1.13-.34.09-1.24s-1-1.24.67-1.24,1.77-.16.43-.83c-1.72-.86-5-.09-4.61,1.06.11.3-.5.67-1.35.81-1,.18-1.29-.2-.79-1.1s.23-1.22-.43-1a12,12,0,0,1-3.85-.13c-2.11-.36-1.49-.55,3-.9,3.51-.28,5.63-.78,5.63-1.33s1.16-.87,2.57-.87a9.37,9.37,0,0,0,4.39-1.21c1.79-1.19,8.54-2.82,10.72-2.59.62.07,4.5-.28,8.62-.76s11.21-1.08,15.77-1.32,8.62-.69,9-1a9.24,9.24,0,0,1,3.64-.57,76,76,0,0,0,10.86-1.84,79.57,79.57,0,0,1,10.19-1.85,6.55,6.55,0,0,0,3.06-.63c.45-.34.14-.62-.68-.62-1.84,0-1.18-2.77.68-2.83.72,0,3.93-.39,7.13-.82a47.56,47.56,0,0,1,9-.4,35.23,35.23,0,0,0,7.44-.22c2.32-.34,7.54-.91,11.6-1.29C742,260,748,259.13,748,258.55s-68-.18-84.8.52c-8.86.37-12.25.27-15.9-.47-2.55-.52-4.93-1-5.3-1s-2.4-.43-4.53-.84a21.44,21.44,0,0,0-6-.37c-1.15.21-18.79.49-39.19.61s-39.79.5-43.07.84-13.1.94-21.84,1.33-17,1-18.41,1.36a45.16,45.16,0,0,1-9,.34c-3.56-.16-6.8,0-7.19.25a2.52,2.52,0,0,1-1.95.18c-.68-.19-1.23-.06-1.23.3s-.45.6-1,.53c-2.2-.27-13.58.86-13.58,1.35s-10,1.61-13.79,1.38a11.93,11.93,0,0,0-5,1.1,13.77,13.77,0,0,1-4.76,1.32c-1.24,0-5.84.14-10.21.21s-10.34.46-13.25.85-7.56.87-10.31,1.06-4.68.6-4.29.89c1.24.94-1.71,1.18-24.73,2.06-1.22,0-2.12.34-2,.67s-.95.75-2.41.95a43.35,43.35,0,0,0-6,1.43c-2.41.76-7.43,1.17-17.89,1.46-8,.22-15.92.37-17.61.33a34.84,34.84,0,0,0-7.13.92c-2.31.56-4.42.74-4.89.42-1.14-.8-5.8-1.56-4.78-.78s-.21.77-3.74-.13c-7.12-1.8-40.83-.43-44.35,1.81-1.08.69-1.2,1.16-.33,1.29s1.37.46,1.37.77-.83.39-1.85.21a4.24,4.24,0,0,0-2.73.33c-1.28,1,6.66.83,10.94-.19a77.34,77.34,0,0,1,9.54-1.31l8.29-.66c1.27-.11,2.31.16,2.31.61s1.65.75,5.64.6c4.35-.16,5.09-.06,3.28.43-1.29.35-2.05.86-1.68,1.14.78.6-6.63,1.19-21,1.69-8,.28-10.68.17-11.57-.49s-1.16-.64-1.18-.07c0,1.14-8,.95-10.84-.25-1.34-.57-2.43-.77-2.43-.44s-4.3.41-10.93.16c-6-.24-15.4-.58-20.87-.77s-11.89-.67-14.29-1.06A37.1,37.1,0,0,0,212,281c-1.81.17-3.67,0-4.13-.33s-.17-.44.9-.13,1.41.25.88-.15c-1-.75-7.31-1.44-14.79-1.6-4.41-.09-5.33-.34-5.45-1.44s.79-1.38,8.62-1.81c4.81-.26,10.24-.41,12.06-.34l3.32.14-3.52-.9c-6.1-1.55-12-2.2-23.65-2.6-6.19-.21-15.13-.84-19.87-1.39-10.9-1.28-48.7-1.38-50.35-.13a3.41,3.41,0,0,1-2.59.33c-2.21-.64-26.59-.86-25.77-.23s.58.59-16.75.84c-12.23.17-17.4.39-35.72,1.46-8.35.5-13.23.21-18-1-2-.53-1.56-.83,3.25-2.25,3.88-1.14,8.63-1.82,15.79-2.24,12.22-.72,23.88-1.63,32.28-2.52,5-.53,6-.85,5.5-1.8a2.37,2.37,0,0,0-2.5-.81c-1,.18-1.86,0-1.86-.36s1-.69,2.32-.69c2,0,2-.1.33-.61-1.25-.38-1.39-.6-.37-.61s1.27-.43.85-.94.79-1.26,4.35-2l5.11-1.06-12.94-.37c-7.12-.21-16.52-.35-20.87-.31s-7.93,0-7.93,0,1.2-.72,2.65-1.5,2.65-1.24,2.65-1,1.35,0,3-.5a91.13,91.13,0,0,1,12.8-1.62c5.41-.39,12.19-1.1,15.08-1.58a75.82,75.82,0,0,1,10-.89c7.38,0,26-2.29,20.6-2.5-.67,0-2.41-.18-3.87-.33l-4.27-.45c-3-.31-3.22-.92-.42-1.33a30.63,30.63,0,0,0,6.25-1.92,19.86,19.86,0,0,1,6.42-1.5,11.26,11.26,0,0,0,4.47-.85c1.24-.7.15-.92-6.13-1.25-4.2-.23-9.43-.55-11.62-.71-5.2-.39-25.9-.34-27.32.07-1.92.56-17.07.82-17.07.3,0-.28.9-.85,2-1.27s2-1.06,2-1.42-.39-.46-.87-.24a4.27,4.27,0,0,1-2.65-.28c-1-.38-1.78-.43-1.78-.1s-.89.59-2,.59c-3.18,0-2.31-.66,2.07-1.56,4.91-1,4.21-1.45-3.72-2.25-7.23-.74-8.61-1.89-3.42-2.87,5.36-1,30.57-2.32,45-2.34,6.75,0,13.86-.2,15.79-.43l3.52-.41-3.78-1.45a22.56,22.56,0,0,0-6-1.46c-3.14,0-4.1-1-2.41-2.49s13.3-4.34,17.93-4.34c2,0,3.08-.27,2.62-.62a7.17,7.17,0,0,0-3.25-.62c-2.25,0-4.74-1.55-4.25-2.64s-20.52.14-22.28,1.31c-1.35.9-35.18,3.25-38.51,2.68l-3.16-.55,3.08-.77c1.69-.42,12.7-1.52,24.46-2.44,21.52-1.67,26.76-2.86,12.66-2.86-4.34,0-8.32-.35-9.62-.85-1.84-.71-4.39-.73-15.12-.12-19.74,1.13-31.21,1.9-33.9,2.29-1.79.26-2.32.07-2-.68.48-1.1,4.58-2.39,11-3.46,5.53-.92,2.09-1.74-5-1.18-3.07.25-8.26.64-11.54.88l-6,.44,5-2.23a37.13,37.13,0,0,0,5-2.45,79.29,79.29,0,0,0-8.21-.65c-10.69-.57-16.4-2-16.33-4,0-1.07,8.61-2.51,16.59-2.78,3.28-.12,10.74-.65,16.57-1.19s14.77-1.11,19.87-1.26,12.86-.58,17.23-.93c27.15-2.23,33.26-2.78,34.43-3.09.72-.2-1.37-.66-4.64-1s-5.94-1-5.94-1.49c0-1,13.35-3.31,25.47-4.32,5.9-.49,10.26-1.22,11.69-2,1.28-.66,5.71-1.49,10.1-1.9,10-.91,9.69-1.78-1.13-3.65-2.32-.4-4-1.05-3.62-1.44.75-.9,6.89-2.27,10.17-2.27,1.35,0,2.09-.28,1.64-.62s-5.25-.62-10.68-.62c-8.93,0-12.52-.63-8.2-1.44,3.86-.73-15.48-.34-25,.51-11.89,1.05-18.36.61-18.36-1.25,0-.86,3.46-2,13-4.23,9-2.12,12.47-3.22,11.27-3.59-2.29-.69,0-1.4,8.85-2.77,12.55-1.93,22.5-5.18,21.19-6.91-.89-1.18,4-1.82,24.2-3.19,10-.67,20.09-1.66,22.34-2.18a78.25,78.25,0,0,1,10.58-1.32c9.85-.55,28.68-2.78,31.63-3.74a27.13,27.13,0,0,1,6.63-.89,45.86,45.86,0,0,0,6.66-.58c2.11-.42,1.57-.55-2.65-.62-11.3-.2-17.29-.72-18.79-1.63a7.28,7.28,0,0,0-4.63-.56c-2.65.34-2.76.3-.74-.29a15.38,15.38,0,0,1,4.64-.51,13.53,13.53,0,0,0,4.07-.35,11.35,11.35,0,0,1,5.05.3,9.51,9.51,0,0,0,5.78.08c1.59-.46,2.8-.51,3.31-.12s4.19.62,8.34.63a58.43,58.43,0,0,1,10.85.9c4,1.06,5.3,1.14,5.3.31,0-.34-.93-.62-2.06-.62s-1.74-.24-1.34-.54-.52-.71-2.05-.89-2.52-.71-2.2-1.16c.58-.82,6.52-1.31,24.88-2,16.59-.65,21.2-1,21.2-1.61,0-.32-.9-.58-2-.58s-2-.55-2-1.24c0-.9.89-1.23,3.32-1.23,3.81,0,4.46-1,.94-1.39-1.3-.16-8-.14-14.91,0-20.08.53-28.11.36-32.31-.71a17.05,17.05,0,0,0-4.73-.73c-.47.13-.61-.54-.3-1.5.65-2.09-1.21-2.42-14.82-2.59-8.14-.11-8.77-.2-5.94-.89,4.66-1.12,21.73-2.74,31.91-3,5.21-.14,10.13-.65,11.89-1.23,3.77-1.23,6-1.25,8.58-.06,1.15.54,4.34.92,7.52.92,9.83,0,46.47-1.77,51.44-2.45,4.65-.63,4.79-.74,3.81-2.77-.62-1.28-.48-2.36.35-2.75s.9-.9-.13-1.48c-3.17-1.79.86-2.16,20.2-1.85,15,.23,19.71.1,22.76-.63,3.22-.76,17.77-1.82,27.69-2,1.45,0,5.63-.3,9.27-.61l6.63-.55-6-.45c-3.28-.25-13.11-.31-21.86-.14s-21.26.28-27.82.24-19.38.37-28.49.92c-18,1.1-36.61,1.87-44.62,1.84-2.79,0-5.44.23-5.9.53a16.19,16.19,0,0,1-5,.62c-2.27,0-4.14.31-4.14.59s-1.34.34-3,.12c-2.33-.3-2.55-.25-1,.26s1.67.65-.33.66c-1.28,0-2.32.32-2.32.7s-1.26.31-3.27-.31c-3.62-1.11-5.21-1.28-4.11-.45.4.3-.46.69-1.91.87s-2.64,0-2.64-.39-2.09-.72-5-.72c-3.15,0-4.85.27-4.65.75s-1.22.65-4.58.45c-5.52-.33-11-1.77-11-2.92,0-.48-.48-.42-1.31.17-1,.72-1.28.54-1.3-.81,0-2.23,2.16-4.14,4.74-4.14,1.11,0,1.65-.28,1.2-.62s.26-.64,1.58-.67a34.35,34.35,0,0,0,10.09-1.36c2.65-.81,8.87-.5,8.87.44,0,.17-.8.17-1.78,0a6.43,6.43,0,0,0-3.64.76c-1.61.93-1.61,1,0,.55,1.45-.41,1.67-.27.95.6-.55.68-.25,1.34.77,1.64,2.54.76,4.67.61,2.37-.15-1.5-.5-.73-.58,3.1-.33a28.81,28.81,0,0,0,7.51-.38,5.93,5.93,0,0,1,4.36,0c1.57.6,2.14.54,3-.35.56-.61.93-1.31.82-1.56s.63-.47,1.66-.47a3.48,3.48,0,0,0,2.38-.71c.28-.39,2.26-.79,4.4-.9a14.55,14.55,0,0,0,5.36-1.14,3.28,3.28,0,0,1,2.56-.49c.59.25.7,0,.24-.63-1-1.33,1.51-1.46,2.6-.13.7.85,1.07.84,3.27-.09s2.49-1,2.51.13.23,1,1.31.25c1.91-1.39,1.64-1.69-1.91-2.11-2.25-.26-3.17-.77-3-1.68.23-1.45,4.85-2.53,10.17-2.38,4.95.14,9.33-.66,9.33-1.7,0-.67,1.32-.87,5-.74,5.34.18,14.32-.52,17.56-1.36,1.6-.42,1.47-.53-.67-.57-1.45,0-5.63-.18-9.27-.34-11.27-.49-26.26-.48-31.66,0-3.71.35-4.9.29-4.24-.21s.21-.57-.94-.36a6.49,6.49,0,0,1-4.24-1.37c-1.71-1.22-1.94-1.77-.79-2s.81-.54-.79-1.13c-2.18-.8-2-.84,1.58-.55,2.19.18,3.23.16,2.32,0-3.35-.74-1.51-1.5,3.65-1.5,3.34,0,5.3.28,5.32.77s.32.55,1.15-.06a1.62,1.62,0,0,1,2-.21c.89.67,2.57.62,6.71-.21a46.13,46.13,0,0,1,6.94-.56c5.49,0,7.28-1.59,1.85-1.59-2.15,0-4.13-.4-4.56-.93s.07-.93,1.78-.93a7.71,7.71,0,0,0,3.6-.77c1.52-1.11,6.92-2.43,8.31-2a2.63,2.63,0,0,0,2-.29c.46-.35,2.48-.63,4.49-.63a106.07,106.07,0,0,0,10.86-1c6.24-.87,6.8-1.07,4.25-1.52-1.61-.28-12.68-.48-24.58-.43s-22.43-.14-23.38-.42a3.41,3.41,0,0,0-2.64.19c-1.06.8-42.25,1.41-43.28.64a4.73,4.73,0,0,0-2.71-.13c-1.39.25-1.57.51-.56.8.81.24-.33.43-2.54.43s-4-.26-4-.59-.91-.24-2,.19a4.85,4.85,0,0,1-3,.34c-.52-.24.54-1,2.35-1.61l3.29-1.17-3.31.3c-2.9.26-3,.22-.66-.29a35.47,35.47,0,0,1,13.78.19c3.59.93,8.08.62,8.08-.55,0-.54,2.62-.78,8.61-.8,5.41,0,8.62.23,8.62.66s.74.22,1.65-.34c1.2-.73,4.79-1.12,12.92-1.41,6.19-.22,15-.79,19.63-1.27s10.26-.9,12.58-.93,7.21-.44,10.85-.91c6.21-.79,5.51-.82-11.26-.5-9.84.18-18.78.34-19.87.34s-14.81.67-30.48,1.47-32.75,1.53-38,1.64-9.2.39-8.86.65-2,.46-5.11.47-11.07.4-17.63.9c-11.25.84-37.71,1.71-34.11,1.12.91-.15,1.32-.53.91-.84s.93-.58,3-.6a43.23,43.23,0,0,0,8.36-1.2c2.55-.65,5.83-1.44,7.28-1.75,4.79-1.05,82.94-7.09,101.37-7.84,5.46-.22,21.26-1,35.11-1.63S370,47,378.52,46.69s18.3-1,21.81-1.5c4.61-.65,6.63-.7,7.29-.2.84.63,14.78.46,31.65-.4,2.55-.13,10.6-.41,17.89-.62,13.07-.38,33-1.66,44.15-2.84a33.37,33.37,0,0,1,7-.25c.69.19,9.92-.26,20.52-1,15.68-1.11,19.84-1.22,22.3-.6s5.66.51,17.49-.58l58.18-5.34c5.83-.53,14.3-1.36,18.82-1.84s10.19-.88,12.59-.88a84.35,84.35,0,0,0,10.32-.89c5.53-.82,16.85-1.74,47-3.81C731,24.87,734.17,24.62,750,23.22c7.29-.64,19.21-1.63,26.5-2.19l17.23-1.33c15.47-1.19,18.41-1.17,21.49.16,1.66.72,3,1.63,3,2s.45.67,1,.63,2.36,0,4,0c2.54.06,2.82.26,1.71,1.23-1.62,1.41-.33,2.18,2.1,1.24,2.73-1.06,2.11-.11-1,1.58a23.73,23.73,0,0,1-8,1.92c-4.45.35-5,.55-3.53,1.35,2.14,1.2.33,1.28,85.24-3.53,5.83-.32,16.26-.73,23.18-.89s19.45-.59,27.83-.95,19.41-.76,24.51-.9,11.63-.53,14.52-.88,14.31-.66,25.4-.68,21-.17,21.92-.32c2.39-.37,33.44-1.13,40.83-1a31,31,0,0,1,8,1c2.5,1.05,8.86,1.16,38.43.64,13.6-.24,26.08-.79,30.18-1.32,5.35-.7,14.22-.89,37.77-.81,16.92.05,45.08-.11,62.57-.37,35.44-.52,33.54-.53,70.22.22,23.75.48,37.44.5,58.3.08,3.64-.07,5.58-.26,4.31-.41s-2.32-.58-2.32-.93,3.72-.53,10.93-.29c6,.2,24,.64,40.08,1s36.6.91,45.71,1.26c36.6,1.4,50.56,1.9,69.56,2.47,47.54,1.41,72.6,2,98.72,2.22,12,.11,26.93.4,33.12.63s15.44.39,20.54.36,15.24.22,22.52.56,30.89.73,52.45.88,41.83.54,45,.88,10.54.75,16.26.93,12.29.48,14.58.66c7.83.6,20.06,1,38,1.26,15.75.23,31.06.77,53.66,1.91,3.65.18,8.72.41,11.27.51l14.57.57,20.54.77c5.83.21,10.89.47,11.26.57s4.05.36,8.2.57,8.41.53,9.47.72,7.22.43,13.67.53c17.71.28,17.69.28,17.69,1.28,0,.51.63.93,1.4.93s1-.33.44-.73-.22-.59,1.36-.31a35.87,35.87,0,0,0,5.23.42c2,0,3,.4,3.13,1.24.23,1.48-.48,1.55-3.14.31s-5.88-1.2-4.95.15c.46.67.32.82-.37.39s-4.49-.56-11.72-.27c-12.43.48-21.82.35-39.08-.56-6.93-.36-15.87-.81-19.88-1s-8-.44-8.83-.57a2.75,2.75,0,0,0-2.32.71c-.57.69-1.83.83-4.85.52-4.75-.49-7.8-.67-20.44-1.24-5.1-.23-9.63-.52-10.06-.65-.93-.26-18.65-.31-42.94-.1-15.4.13-26.26-.23-34.37-1.13-4.57-.5-36.51-.72-36.51-.25,0,.25,4,.65,8.94.9s10.14.55,11.59.69c10.23.94,37.61,2,59.63,2.3a91.34,91.34,0,0,1,10.67.54c1.29.39,41.86,1.87,44,1.61.51-.06,5.41.08,10.88.32,8.45.37,30,1.11,35.44,1.22,2,0,2.19.84.39,1.35-1.29.38-11.28.46-20.31.18-2.76-.09-5.51-.52-6.1-1-.8-.61-3.08-.71-8.89-.4-4.3.23-8.22.53-8.71.67a6,6,0,0,1-2.9-.7c-1.1-.51-2.32-.7-2.71-.4-.74.56-27.49.32-35.24-.32-2.55-.21-7-.44-10-.51a49,49,0,0,1-8.28-.86c-2.34-.59-2.93-.57-2.93.09,0,.49-1.77.89-4.31,1-10.47.39-25.14.36-36.76-.09-8.37-.33-11.94-.29-10.64.12,5.22,1.63-4.58,2.44-19.84,1.63-13.53-.72-16-.76-21.79-.34a60,60,0,0,1-9.4-.1c-5.68-.71-35.17-2-48.31-2.06-6.19-.05-15.14-.27-19.87-.51s-14.28-.56-21.2-.74-23.32-.73-36.44-1.23-32.63-1.09-43.36-1.32c-17.48-.38-19.59-.31-20.35.61s-3,1-15.61,1c-8.11,0-17.44.2-20.72.47l-6,.51,9.94.69c5.46.38,12,.68,14.57.67s13,.41,23.19.94,29.58,1.27,43.06,1.65,25.84.83,27.46,1,15,.57,29.81.9c26.56.6,45.17,1.08,59.33,1.55,4,.13,17.76.52,30.56.87s24.12.75,25.17.9,3.1.49,4.56.74a70.73,70.73,0,0,0,7.74.64c2.8.1,5.79.62,6.63,1.16,1.22.78,4.67,1,16.77,1.14,8.38.09,15.83.33,16.56.54s5.8.55,11.26.75c26.13,1,52.25,1.73,64.26,1.9,7.29.11,22.79.69,34.45,1.28s26.57,1.18,33.13,1.29c45.39.78,81.65,1.77,100.7,2.74,6.56.33,18.05.78,25.54,1s13.94.64,14.33.93-1.28.55-3.69.58-6.07.11-8.12.18a13.24,13.24,0,0,1-4.32-.31c-.32-.24-2.78-.15-5.47.19a98.5,98.5,0,0,1-13.57.23c-4.77-.23-30.14-.52-56.38-.66s-57.53-.42-69.56-.64c-21.43-.39-27.51-.15-13.45.53a64.39,64.39,0,0,1,7.74.65c.94.44-3.9,1.53-7.92,1.78-4.69.3-6.16,1.08-2.16,1.15,1.76,0,11,.31,20.43.63s28.1.74,41.4.94c21.87.33,24.19.47,24.19,1.45,0,1.36,5.33,1.69,37.48,2.27,13,.23,23.88.66,24.26.94s3.3.53,6.49.53c10.89,0,7.84,1.71-5.53,3.1a111.72,111.72,0,0,1-11.27.6c-16.13-.42-11.9.8,6.2,1.79,7.29.39,17.43.85,22.53,1s14.34.57,20.54.91,18.71.8,27.82,1c11.22.28,17,.67,17.89,1.22.73.45,5.46,1,10.6,1.21s9.87.75,10.6,1.16,5.68.95,11,1.18,11,.82,12.65,1.32c1.87.58,7.6,1,15.49,1.19,17,.37,30.37,1.06,31.11,1.62s-10.83,1.43-12.61.91c-.73-.21-1.33-.12-1.33.21s2.09.77,4.64,1c5,.44,6,1.21,2.32,1.88-4.33.78,1.73,2,15.35,3.15,11.44.94,18.67,2.1,13.4,2.15-4.95,0,2.69,1.14,10.65,1.52,4.73.23,9.29.68,10.14,1a69.19,69.19,0,0,0,9.92,1.23c12.8,1,12.66,1.74-.4,2.22-4.88.18-9.34.71-10.69,1.27-1.88.79-4.18.88-12.58.51-17.09-.74-20.47-.6-23,1-1.25.78-2,1.61-1.7,1.85s4.59.63,9.5.87a77.62,77.62,0,0,1,10.25.92,52.69,52.69,0,0,0,7.62.92c9.5.66,7.55,1.53-3.42,1.53-5.35,0-10.17.21-10.72.47s-6.11.46-12.35.46c-7.89,0-11.52.24-11.92.78s1,.77,4.51.78a94.62,94.62,0,0,1,9.72.57c2.55.31,9.69.74,15.85,1s11.89.65,12.71,1a3.7,3.7,0,0,0,2.27.22,10.87,10.87,0,0,1,3.85.15c2.38.4,1,.6-6.19.91a208.15,208.15,0,0,0-23.19,2.17c-3.24.58,1.8,1.22,16.89,2.14,7.47.45,13.59,1,13.59,1.19s3.87.25,8.61.11c6.92-.2,8.61-.08,8.61.65,0,1.12-4.19,3-6.73,3-1.56,0-1.54-.12.1-.61s1.64-.61-.37-.61a4.76,4.76,0,0,0-3.15.95c-.67.82-3.07.91-16.19.64-16.44-.35-20.48.06-17.45,1.77,5.07,2.85,25.76,5.92,40,5.92,8.6,0,13.08.75,13.08,2.19,0,.72-2.12.9-10.26.89-5.65,0-12.66-.31-15.57-.67s-16.65-.78-30.52-.93c-24.53-.28-25.23-.25-25.43,1s1.43,2,4.27,2.27c.73.05,6.45.55,12.7,1.1,20.48,1.8,38.67,2.9,57.28,3.46,17.24.52,23.12,1.22,21.34,2.57a2.62,2.62,0,0,1-2,.2c-.69-.21-1.1,0-.9.45s-.66.78-1.94.73-2,.14-1.67.4-1.38.66-3.86.88c-5.34.47-6.61,1.58-3.87,3.41,1.46,1,1.61,1.55.57,2.14-1.71,1-.59,1.62,2.75,1.62a6,6,0,0,1,2.42.26,5.11,5.11,0,0,0,.88,1.33c.81,1-.08,1-10.93.66-6.49-.23-14-.58-16.78-.78-3.95-.29-5-.17-5,.6,0,.53-1,1.22-2.13,1.52-3,.8-1.21,4.36,2.59,5.08,2.72.51,2.73.54.21.62s-2.65.09,0,.62-1,.74-14.58.89c-5.65.07-9.94.9-9.94,1.94,0,.55-1.37.89-3.64.89-2,0-5,.18-6.65.39-2.83.35-2.87.43-.67,1.21a22.26,22.26,0,0,0,6,.85,75.87,75.87,0,0,1,12.36,2.19,73,73,0,0,0,13.08,2.16c8,0,20.55.79,19.94,1.26-.34.25.4.42,1.64.38s2.46.39,2.72,1c.61,1.36-7.22,3.71-11.25,3.38-1.62-.13-3.15.06-3.42.43-.62.88-16.09,1.13-22.27.36-2.63-.33-16.19-.67-30.15-.76-23.59-.16-30.54.16-21.72,1,2,.19,6.33.62,9.6,1s8.5.64,11.6.66,5.63.3,5.63.64.93.62,2.07.62a24.66,24.66,0,0,1,4.8.68c2.69.68,2.68.69-.42,1.41-5.44,1.27-3.75,2.47,5.38,3.82,4.69.7,8.81,1.67,9.15,2.17a3.85,3.85,0,0,0,1.79,1.26c2,.62-.4,2.53-2.69,2.12-1.16-.21-1.75-.21-1.3,0s-.69,1.09-2.53,1.94c-2.41,1.13-4.9,1.59-9,1.67-3.12.05-5.43.28-5.13.51s-5.17.26-12.15.1c-10.14-.25-13.12-.12-14.9.63-2.47,1-15.48,1.47-22.27.74-2.59-.28-4.48-.2-5,.23a9.4,9.4,0,0,1-4,.68c-4,0-7.32.59-7.32,1.31,0,.3.86.55,1.92.55a5.52,5.52,0,0,1,3.05.94c.69.58,5.87,1.37,13.64,2.07,15.31,1.4,26.58,3.53,25.52,4.82a3.1,3.1,0,0,1-2.63.57c-1-.19-1.55-.09-1.15.22s-.82,1.43-2.73,2.49c-2.56,1.42-4.18,1.83-6.14,1.54-1.47-.22-2.33-.15-1.92.16s-1.32.6-3.86.63-8.79.54-13.91,1.13l-9.3,1.06,3,1.47a14.23,14.23,0,0,0,4.19,1.48,46.93,46.93,0,0,1,5.77,1c4.36,1,4.46,1.07,2.53,2.45-1.27.9-1.52,1.58-.68,1.82s.95.67.48,1a1.63,1.63,0,0,1-2-.2,1.82,1.82,0,0,0-2.15-.21,24.53,24.53,0,0,1-5,1.53l-4,.89,4.19.22c4.54.22,7,1.81,3.68,2.4a6.43,6.43,0,0,1-2.76,0c-.4-.19-2.71.18-5.14.82a69.44,69.44,0,0,1-9.45,1.6,28.69,28.69,0,0,0-6.82,1.27c-2.32,1.09-3.23,1.07-15.54-.41-11.05-1.32-14.16-1.19-18.7.74-2.56,1.09-3.59,1.15-10.51.55-9.08-.78-26.19-.88-25.21-.15.37.29,5,.86,10.34,1.29,13.55,1.08,15.07,1.31,12.85,1.95-3.86,1.12,13.4,3.74,30.28,4.61,4.55.24,8.57.65,8.92.91s-.61,1.23-2.13,2.14c-2.57,1.53-2.62,1.74-.65,2.75a6.41,6.41,0,0,1,2.14,1.45c0,.76-22.44-.34-29.82-1.47-10.6-1.62-32.08-2.8-34.06-1.87-1.05.49-1.06.91,0,1.48,1.39.78,3.51,1.12,21.18,3.33,5.51.69,8.28,1.35,8.28,2,0,.79-1.56.87-9.83.52-6.29-.27-10.13-.19-10.67.22s-.12.64.77.64,1.32.15.94.32c-.89.42-19.65-1.42-21.52-2.11-1.47-.54-20.81-1.93-24.94-1.79-1.28,0-2.32.42-2.32.85a3.11,3.11,0,0,1-.69,1.61c-.65.79,15.53,2.39,43.42,4.3,4.19.29,9.78.94,12.42,1.46a57.38,57.38,0,0,0,8.94.94c6,0,14.62,1.23,13.23,1.88-.64.3-8.71.63-17.93.73s-16.66.22-16.54.28,3.17.64,6.77,1.3c6.27,1.16,6.42,1.24,3.55,2-2.24.57-4.64.59-9.59.09-8.07-.81-9.13-.82-9.13-.09,0,.31,1.78.75,4,1,7.24.74,5.67,1.54-3,1.54a67.7,67.7,0,0,0-12.65,1,21.35,21.35,0,0,1-7.1.53c-3.78-.56-66-.77-65.27-.22,1.55,1.17-15.84,1.16-30.67,0-30-2.37-55.59-3.72-72.07-3.8-9.11-.05-22.83-.47-30.48-.93s-21.28-1.14-30.29-1.49-16.76-.75-17.23-.88-5.31-.42-10.78-.63-12-.52-14.57-.66c-5.31-.3-29.49-.93-47-1.23-12.7-.21-32-.78-45.05-1.33-4.37-.18-21.37-.45-37.76-.59s-35.78-.5-43.07-.77-27.44-.48-44.78-.45c-26.24.05-31.75.21-32.8,1s-1.43.79-2.44.05q-1.2-.86-5.11-.5a14.09,14.09,0,0,1-5.37-.31,21.89,21.89,0,0,0-5.82-.81c-2.41-.07-5.57-.29-7-.49-7.94-1.1-16.21-1.42-19.54-.76-2.68.53-9.36-.09-8.43-.79.34-.26-6-.55-14.19-.64-21.93-.24-24.21-.36-26.69-1.32-2-.78-2.22-.74-1.82.33.3.81-.19,1.13-1.54,1-1.09-.12-3.33-.22-5-.23s-3-.23-3-.49-1-.65-2.13-.86c-1.55-.27-1.92-.11-1.34.59s.28.82-.85.48c-.9-.27-7.31-.58-14.23-.68-14.56-.23-12.39-.22-80.82-.11-28.79.05-56-.12-60.53-.36a75.3,75.3,0,0,0-10.42-.05c-2.26.4-45.54,1.2-58.84,1.09-10.4-.1-22.2,2.76-15.63,3.78,1,.16.3.59-1.66,1.08a19.84,19.84,0,0,0-4,1.33c-1.46,1-12.71,1.62-15.9.82-2-.5-7.35-.68-15.74-.53-7,.13-29.91.38-50.95.56s-39.71.49-41.48.7-9.29.42-16.72.47-14.69.41-16.14.79c-2.61.69-14.9,1.81-17,1.55a61.79,61.79,0,0,0-11.53.2,69,69,0,0,1-7.29.37l-5.3-.22c-1.46-.06-8.31.22-15.24.62s-15.16.72-18.31.71a33.81,33.81,0,0,0-7.29.58,33.19,33.19,0,0,1-5.87,1c-3.52.36-4.3.24-4.3-.61s-1.1-1-9.61-.61c-5.28.24-19.14.5-30.8.58s-24.42.47-28.34.87-7.43.72-7.78.72.1.42,1,.93a17,17,0,0,0,6.13.93,19.75,19.75,0,0,1,4.47.26,4.51,4.51,0,0,0,.81,1.24c1.1,1.34-2.63,1.28-5.57-.1-1.67-.78-2.46-.86-2.86-.3a1.73,1.73,0,0,1-1.76.42c-.67-.19-1.22-.13-1.22.15s-1.34.53-3,.58-10.73.39-20.2.77-28.56.82-42.4.95-26.67.4-28.49.59c-6.17.63-40.11,2.1-58.3,2.52-33.7.78-59.25,3-64.52,5.69a17.77,17.77,0,0,1-6.64,1.53c-17.14.26-40.95,1.1-51.4,1.8-4.38.3-12,.71-17,.92s-12.09.65-15.75,1-6.87.59-7.13.59-.49-.71-.49-1.58Zm0-5.64c0-.68-.58-.73-2.6-.22-1.55.39-2.29,1-1.83,1.58.59.72,1.19.78,2.6.23,1-.39,1.83-1.11,1.83-1.59Zm223.26-9.21c5.19-.87,5.06-.88-6-.58-25.22.69-33.12,1-33.12,1.47,0,.81,33.51.05,39.08-.89Zm-615.46-7.48a4.34,4.34,0,0,0-2-.24c-1.1,0-2,.27-2,.6s.89.44,2,.24A4.6,4.6,0,0,0,233.89,276.09ZM330,274c.46-.35-.63-.62-2.5-.62a10.3,10.3,0,0,0-4.13.62c-.46.35.62.62,2.49.62A10.32,10.32,0,0,0,330,274ZM267,270.82c0-.63-1.59-.69-4.53-.17-3.33.6-2.43,1.34,1.22,1C265.53,271.5,267,271.13,267,270.82Zm749.73-.1c4.52-.58,5.14-.81,2.91-1.06-3.53-.39-45.69.44-68.28,1.34-6.14.25,41.27.85,51,.65,4.74-.1,11.2-.51,14.36-.93Zm45.93-1.9c1.46-.16-1.23-.27-6-.24-11.31.06-15.78.63-8.62,1.09a54.16,54.16,0,0,0,8.62-.11C1058.54,269.31,1061.22,269,1062.68,268.82ZM217.11,269c2.73,0,2.71-.07-.35-.64-3.62-.68-6.72-.34-6.72.73,0,.38,1,.53,2.1.32a38.49,38.49,0,0,1,5-.41Zm865.47-.7c.36-.16-2-.35-5.24-.4s-6.29.21-6.8.59.92.6,5.24.4a50.7,50.7,0,0,0,6.8-.59ZM2118.7,261c.51-.38-1.61-.59-5.55-.55-5.66.07-5.93.13-2.4.55C2116.55,261.68,2117.79,261.68,2118.7,261ZM76.47,251.9a5.33,5.33,0,0,0-2.54,0c-.44.2.34.35,1.74.32s1.85-.18.8-.37Zm15.65-.82c2.66-.4,2.79-.5.66-.51a31.7,31.7,0,0,0-5.3.51C84.11,251.76,87.59,251.76,92.12,251.08Zm17.78.24c1.15-.2,2.09-.87,2.09-1.48,0-1-.83-1.07-5.63-.79-6.09.36-10.06,1.41-5.31,1.41a8.54,8.54,0,0,1,3.66.62c.94.71,2.23.77,5.19.24Zm2152.56-10.77c0-.34-1-.61-2.31-.61-2,0-2,.1-.34.61C2262.31,241.31,2262.46,241.31,2262.46,240.55ZM142.72,215.36a5.33,5.33,0,0,0-2.54,0c-.44.21.34.35,1.74.33s1.85-.18.8-.38Zm-10.85-1.81c0-1-3.69-1.12-8.53-.26-5.27.94-4,1.6,2.57,1.35C129.91,214.49,131.87,214.14,131.87,213.55Zm24.61.45c-1.32-1-6.06-1.25-6.06-.33,0,.53,1.36.88,3.39.88C155.67,214.55,156.88,214.3,156.48,214Zm-10-.69c1.48-.45.72-.61-3-.61-2.73,0-5,.27-5,.61C138.49,214.1,143.83,214.1,146.44,213.31Zm2208.77-72.45c0-.34-.59-.62-1.32-.62s-1.33.28-1.33.62.6.62,1.33.62S2355.21,141.2,2355.21,140.86Zm9.61-11.56a10.81,10.81,0,0,0-3.31,0c-.91.17-.17.31,1.65.31s2.57-.14,1.66-.31Zm-19.88-7.46a39.52,39.52,0,0,0-6,0c-1.64.15-.3.27,3,.27S2346.58,122,2344.94,121.84Zm-61.28-5c0-.26-4.92-.81-10.93-1.21s-12.36-.93-14.12-1.17c-2-.26-2.88-.19-2.38.19s6.06,1,12.47,1.4,12.25.87,13,1l1.65.25c.18,0,.33-.17.33-.44Zm-1932.5-5.71c2.36-.47,2.26-.53-.92-.57a11,11,0,0,0-4.38.57C344.88,111.87,347.47,111.87,351.16,111.13Zm1923.23-3.63c0-.29-6-.85-13.3-1.23-16.47-.88-19.43-.9-17.75-.11.71.33,7.84.85,15.84,1.15s14.69.59,14.88.64.33-.15.33-.45ZM276.82,100.09c.37-.28-.19-.52-1.25-.52s-1.93.24-1.93.52.56.52,1.25.52A3.83,3.83,0,0,0,276.82,100.09Zm177.27-1.15a5.46,5.46,0,0,0-2.54,0c-.44.21.34.35,1.74.33s1.86-.18.8-.38Zm-205.62-.81c0-.34-1-.62-2.32-.61-2,0-2,.1-.33.61C248.32,98.88,248.47,98.88,248.47,98.13Zm5.3-1c0-.15-.6-.27-1.33-.27s-1.32.3-1.32.66.59.48,1.32.27,1.33-.51,1.33-.66Zm75.52-4.31c1.83-.24,7.49-.66,12.59-.95s11.36-.81,13.91-1.17,4.64-.63,4.64-.6c0,.24,9.08-1.09,13.58-2,6.84-1.35,7.27-2.4,1-2.4-3.24,0-4.64-.28-4.64-.93,0-1,5.93-1.32,15.77-1,4.29.15,16.53-.92,19.33-1.68,2.09-.57-4.6-1.21-13.32-1.28a82.53,82.53,0,0,0-16.48,1.49,102.22,102.22,0,0,1-11.18,1.56c-2.18,0-2.34.12-.81.57a6.68,6.68,0,0,0,3,.27c.58-.17,1.06,0,1.06.28,0,.55-2.9.94-13,1.76-2.43.19-4.73.74-5.13,1.22-.58.71-1.09.73-2.79.08s-2-.63-1.3.19,0,1-2.07.87a55.38,55.38,0,0,0-7.25.46c-3.05.39-5,.33-6.29-.18C328.8,89,328,89,328,89.3c0,.68-10.1,2.64-13.63,2.64-1.25,0-2.27.38-2.27.84,0,.63,1.78.81,6.95.68,3.83-.1,8.45-.37,10.27-.61ZM383.8,70.39a6.4,6.4,0,0,0-3.14.39c-1,.46-.46.54,1.74.27C384.19,70.83,384.79,70.55,383.8,70.39Zm1600.41-2.45c0-.26-1.81-.52-4-.6s-3.68.13-3.23.47c.92.7,7.26.81,7.25.13ZM387.59,64l3.32-.05-3.1-.58c-3.49-.65-9.49-.15-9.49.8,0,.34,1.33.46,3,.25s4.47-.39,6.29-.42Zm1586,.13c0-.28-.89-.51-2-.51s-2,.23-2,.51.89.52,2,.52S1973.61,64.46,1973.61,64.17Zm5.55.1a5.34,5.34,0,0,0-2.54,0c-.44.2.35.35,1.74.32,1.55,0,1.86-.18.8-.37ZM410.37,63a5.33,5.33,0,0,0-2.54,0c-.44.2.34.35,1.74.32s1.85-.17.8-.37Zm-148.65-.82c0-.34-.6-.62-1.33-.62s-1.32.28-1.32.62.6.62,1.32.62S261.72,62.55,261.72,62.21Zm34.45-1.62c0-.7-2.49-.09-3.2.78s-.51.89,1.18.23A6.47,6.47,0,0,0,296.17,60.59Zm13.25.07c0-.51-.24-.92-.52-.92a2.44,2.44,0,0,0-1.29.92c-.41.52-.18.93.53.93S309.42,61.18,309.42,60.66ZM2044.09,39.5a5.33,5.33,0,0,0-2.54,0c-.44.2.34.35,1.74.32s1.85-.18.8-.37ZM824.12,27c.42-.32.22-.74-.44-.93a2,2,0,0,0-2,.58c-.82,1,1.17,1.29,2.41.35ZM195.21,292.73c-.77-.43-.87-.79-.23-.8s0-.32-1.33-.69c-3.49-.95-.39-1.76,6.46-1.69,3.58,0,4.44.18,2.65.45-2.53.38-4.41,2-2.32,1.94,3.89,0,6.7-.84,6.09-1.75s-.43-.89,1.23.06c2.27,1.28,12.35,1.52,13.22.31.44-.62,1-.61,2.62,0,2.58,1,4.1,3.41,1.91,3-.86-.15-1.36-.64-1.12-1.1s-.31-.52-2,.2c-2,.83-4.8,1-14.11.91-7.4-.07-12.16-.4-13-.89ZM177,291.36c-1.77-.51-.92-1.89,1.16-1.89,1.51,0,2.84,1.75,1.6,2.11A6.29,6.29,0,0,1,177,291.36Zm28-5c-1.46-1.1-1.31-1.25,1.34-1.33,1.64-.06,3.89-.14,5-.2,3.53-.18,4.2.39,1.87,1.59C210.29,288,207.13,287.94,205.05,286.38Zm802.64-4.61c0-.15.6-.45,1.33-.66s1.32-.08,1.32.28-.59.65-1.32.65S1007.69,281.92,1007.69,281.77Zm15.55-.42a3.69,3.69,0,0,1,2.37-.43c.41.19-.32.54-1.63.77C1022.09,282,1021.94,282,1023.24,281.35Zm-711.17-1.71c0-.3.92-.9,2-1.33a3.9,3.9,0,0,1,3.64-.05c1.23.57,1.14.87-.39,1.32-2.5.74-5.29.77-5.29.06ZM1808,274c0-.34.86-.62,1.91-.62a5.61,5.61,0,0,1,2.73.62c.45.34-.41.62-1.91.62S1808,274.33,1808,274Zm-22.52-.65c0-.71,3.55-.78,4.46-.09.36.27-.5.53-1.91.58s-2.55-.18-2.55-.49Zm-1314-1c-1.19-1.46.62-1.67,5.2-.61,2.39.55,3.75,1,3,1.09C474.1,273.21,472.08,273.09,471.46,272.34Zm1145.73-1.44a.6.6,0,0,1,.58-.62,3,3,0,0,1,1.41.62c.45.34.19.62-.59.62S1617.19,271.24,1617.19,270.9Zm-19.1-.54c-.57-.43-.68-.95-.24-1.16,1.18-.55,2.47.27,1.83,1.16-.44.63-.76.63-1.59,0Zm4.86.13c-2.72-.51-1.88-1.36,1-1,1.46.18,2.65.57,2.65.87C1606.59,270.94,1605.56,271,1603,270.49Zm635.22-3.1c-1.52-.71-1-1.45,1.11-1.45,1.09,0,2,.42,2,.93,0,1-1.56,1.23-3.09.52ZM593.8,263.59c-.36-.27.52-.53,1.94-.58s2.24.17,1.82.49A3.68,3.68,0,0,1,593.8,263.59Zm11.94-1.06a4.61,4.61,0,0,1,2.94-1c1.2,0,4.86-.17,8.14-.33,4.3-.2,5.41-.1,4,.35-1.64.52-1.66.63-.11.64,1,0,1.51.18,1.05.39a62.69,62.69,0,0,1-8.78.62C606.32,263.42,605.11,263.3,605.74,262.53ZM65,261c-1-.74,1.52-1.47,3.28-1,1.48.42.51,1.54-1.35,1.54A3.72,3.72,0,0,1,65,261Zm12.53-16.1c0-.33.59-.76,1.31-1s1,0,.52.59C78.49,245.62,77.54,245.82,77.54,244.93Zm9.72-.32c0-.5.51-.76,1.13-.58s.78.58.36.9C87.68,245.74,87.26,245.65,87.26,244.61Zm2309-80.84c-1.09-.33-1.39-.6-.66-.6a14.5,14.5,0,0,1,3.31.6c1.09.33,1.39.6.66.6A14.41,14.41,0,0,1,2396.29,163.77Zm-2177-46c0-.27,1.19-.49,2.65-.49s2.65.27,2.65.59-1.19.53-2.65.48S219.32,118.08,219.32,117.81Zm55.49-9.09-3.11-1.18,7.93-.49c4.36-.27,11.06-.51,14.88-.53s7-.22,7-.45c0-.49,7.89.47,9.12,1.11.45.23-1,.25-3.27,0a26.36,26.36,0,0,0-7.95.59,60.15,60.15,0,0,1-10.82,1c-3.83,0-7,.28-7,.56,0,.88-3.6.52-6.78-.68Zm-16.71.18a5.34,5.34,0,0,1,2.54-.05c1.06.2.75.35-.8.38-1.39,0-2.18-.12-1.74-.33ZM234,100.35c-.06-.66.25-1,.69-.82s.49.74.11,1.19S234.06,101.07,234,100.35Zm36.19-5.21c.37-.28-.55-1-2-1.59-2.67-1.07-2.58-1.12,5.48-2.9,9.72-2.15,10.61-2.19,10.61-.57,0,.76-.89,1.24-2.31,1.25-1.88,0-2,.11-.45.56a13.81,13.81,0,0,0,4.31.34c1.33-.12,2.43.06,2.43.41s-1.94.58-4.31.52-5.5-.08-7,0c-2.21.06-2.32.17-.67.67s1.65.61-.33.61c-1.27,0-2.32.29-2.32.63s-.93.62-2.06.62-1.76-.23-1.39-.51Zm16.94-5c-1.33-.39-1.28-.65.25-1.24,2.14-.83,3.85-.11,2.37,1A3.37,3.37,0,0,1,287.13,90.15ZM241.18,64.07c-.45-.34.08-.62,1.17-.62a5.84,5.84,0,0,1,2.81.62c.45.34-.08.62-1.17.62A5.81,5.81,0,0,1,241.18,64.07Zm27.14-2.77c1.91-1.08,2.67-1.19,2.67-.39,0,.3-1,.73-2.17.94-1.82.33-1.9.24-.5-.55Zm1872.62-10c1.55-.72,10-1.29,11.75-.78,1,.29,1.19.56.46.6C2146,51.5,2140.33,51.59,2140.94,51.3Zm-8.05-.76c-1.1-.33-.27-.51,2.32-.51,2.22,0,4,.24,4,.52,0,.66-4.11.65-6.35,0Zm-34.06-.79c-5.68-.59-19.45-1-45.17-1.4-8.81-.13-17.3-.55-18.86-.94s-7.63-.64-14.78-.54c-6.58.1-12,.11-12,0a62.87,62.87,0,0,1,8.63-2c.44,0,.44.28,0,.62s.87.62,3.23.62,4-.28,4-.62.64-.62,1.41-.62,1,.35.41.78c-.74.57-.5.61.91.14a16.52,16.52,0,0,1,4.56-.55c1.46,0,5.82.11,9.69.16s6.75.3,6.42.56,3,.42,7.54.37a66.91,66.91,0,0,1,10.47.49c1.55.38,2.32.35,2.32-.1s.72-.47,1.6-.22a117.47,117.47,0,0,0,12.92.63c6.22.1,11.32.2,11.32.24s3,.17,6.62.28,6.78.26,7,.34a27.31,27.31,0,0,0,4,.54c1.06.11-5.16,1.91-6.29,1.82-.36,0-3.05-.3-6-.6Zm-53.67-3.1c0-.29-1.15-.54-2.57-.54a8,8,0,0,0-3.29.54c-.39.3.77.55,2.58.55S2045.16,47,2045.16,46.65ZM2116,44.86a2.67,2.67,0,0,0-2.07-.27c-.68.2-1.23.08-1.23-.26,0-1.2,2.14-1.22,3.72,0,.88.66,1.33,1.2,1,1.2a3,3,0,0,1-1.43-.63Zm-28.37-2.41a6.82,6.82,0,0,0-3.15-.9,54.6,54.6,0,0,1-7.07.49c-6.14.2-13.76-1.07-11.83-2,1.54-.72,10.7-.55,12.69.24s5.78.83,7.45.05c1.41-.66,8.16-.51,9.1.19,1.27,1-.62,3.09-2.75,3.09a13.14,13.14,0,0,1-4.44-1.18Zm13.68.47c-.56-.43-.37-.55.49-.3a3,3,0,0,0,2.27-.21c1.24-.94,2.89-.77,2.89.3s-4.28,1.25-5.65.21ZM552.25,38.31a5.34,5.34,0,0,1,2.54-.05c1.06.2.74.34-.8.37s-2.18-.12-1.74-.32ZM819.54,20.72a.61.61,0,0,1,.59-.62,3,3,0,0,1,1.4.62c.45.34.19.62-.58.62S819.54,21.06,819.54,20.72Zm30.9.07c-2.14-.74-1.63-1.79.73-1.51,1.5.19,2.46-.07,2.6-.68s.32-1.39.44-1.9,1.32-1,2.65-1,2.88-.13,3.43-.2l5-.63c4.87-.61,7.51-1.52,6.54-2.26-.4-.3.45-.55,1.89-.55a5.61,5.61,0,0,1,3.29.78c.47.54,1,.57,1.77.11a11.51,11.51,0,0,1,8.14-.74c1.71.65,1.88.63.94-.1s-.58-.78,1.18-.46a28.11,28.11,0,0,0,4.1.41,3.45,3.45,0,0,1,2.59,1.18c.51.75,1.65,1.07,3.18.88,3.38-.41,3-1.94-.38-1.65-2.69.23-2.7.22-.11-.35a43.76,43.76,0,0,1,7.13-.63c2.47,0,8.14-.32,12.59-.65C929.65,10,958.69,8.44,971.92,8c6.19-.21,13.94-.48,17.22-.62,6.91-.28,20.55-.73,38.43-1.27,6.92-.21,16.46-.53,21.2-.72,11.38-.45,29.3-.49,31.8-.06,1.09.19,4.52.55,7.62.81s5.63.68,5.63.93-1.48,1.15-3.28,2c-2.67,1.25-4.51,1.52-9.94,1.47-4,0-6.49.19-6.22.57s5,.65,10.65.68c8.81,0,14.68.84,12.67,1.73-.89.39-18.46.78-18.46.41,0-.19-4-.25-8.94-.14s-12.37-.06-16.55-.37a57.71,57.71,0,0,0-8.23-.27,43.26,43.26,0,0,1-6.31.42c-3.12.07-7.33.35-9.34.61a13.3,13.3,0,0,1-5.35-.17c-.92-.36-7.44-.72-14.49-.8-8.72-.1-12.54-.36-12-.81s-.16-.28-1.39.19c-1.55.58-3.93.72-7.64.45-3.54-.27-5.11-.19-4.55.23.93.71.76.72-11.25.87-4.73.06-10,.33-11.59.6s-3,.26-3,0-1.49-.51-3.32-.51-3.31.21-3.31.47-.93.46-2.06.46-1.76-.24-1.38-.52c.92-.7-12.69.32-13.68,1-1.81,1.29-26.6,2.59-26.6,1.4,0-.36-.63-.66-1.41-.66s-1.06.26-.64.58c1.2.9-1.85,1.46-3.82.69-1.32-.51-1.94-.48-2.44.13s-2.61.76-6.12.67c-3-.08-5.45.11-5.45.43,0,1-6.8.35-8.13-.8a3.18,3.18,0,0,0-2.56-.75c-.7.21-1,.6-.6.88s-.19.67-1.26.86a4.35,4.35,0,0,1-2.73-.25c-.49-.37-2.19-.24-4.35.32-4.08,1.06-16.75,2.19-18.37,1.64Zm-19-2.82c0-1.08.79-1.24,1.93-.39.42.32.15.76-.59,1S831.47,18.5,831.47,18Zm5-1.07a6.4,6.4,0,0,1,3.14-.38c1,.15.39.44-1.4.65-2.21.27-2.72.19-1.74-.27Zm456.44-1.57c-1.64-.15-3-.48-3-.74,0-.76,5.76-.34,6.32.45.29.4.32.69.08.64s-1.78-.2-3.42-.35Zm-27.5-1.42c3.65-.73,5.74-.73,3.32,0a15.68,15.68,0,0,1-4,.57C1263.43,14.46,1263.66,14.26,1265.4,13.91Zm8,.06c-.41-.31.45-.42,1.91-.24,3.09.38,3.48.8.74.8A5.56,5.56,0,0,1,1273.43,14Zm-170.57-1.4c-2.09-1-1.14-1.05,15.23-1.1,9.61,0,18.79-.17,20.42-.31a8.21,8.21,0,0,1,3.64.25c.38.29,2.51.46,4.74.39,6-.2,6.06.71,0,1-2.85.13-4.9,0-4.55-.24,1.09-.82-.95-.52-3,.45-2.25,1.06-7.85,1.25-9.09.31-.54-.41-1.69-.4-3.42,0-2.93.73-5.69.23-4.34-.79.59-.44.26-.48-1-.12a66.14,66.14,0,0,1-9.15.87c-5.74.26-7.76.11-9.51-.71Zm106.23.72a.6.6,0,0,1,.59-.62,3,3,0,0,1,1.4.62c.45.34.19.62-.59.62S1209.09,13.63,1209.09,13.29Zm-53-1.24c-1.19-.36-1.36-.6-.41-.61a4.76,4.76,0,0,1,2.4.61C1159.1,12.82,1158.64,12.82,1156.09,12.05ZM1673.61,12c.69-.52-4.36-1.13-5.38-.65-1.43.66-7.31.79-7.31.15,0-.39-3.77-.48-10.27-.25-8,.28-11.31.13-14.91-.65-2.55-.56-3.63-.88-2.4-.73a4.17,4.17,0,0,0,2.65-.25,4.67,4.67,0,0,1,2.4-.74,8.43,8.43,0,0,0,3-.82c.54-.34,1,0,1,.74,0,1.28.21,1.3,3.66.46,3.27-.8,3.83-.78,5.48.19s1.79,1,1,0c-.61-.83-.07-1.08,2.41-1.08a9,9,0,0,1,4.55,1.08c.75.61,1.37.74,1.39.31.05-.81,4-1.11,4-.31,0,.26,4.51.45,10,.43s10.31.19,10.68.47a9,9,0,0,0,3.49.5c2.27,0,2.51.15,1.18.77-1.65.78-17.65,1.14-16.65.38Zm21.76,0c0-.28.44-.53,1-.56s2.9-.16,5.23-.3c5.24-.32,7.11.74,2.07,1.18S1695.37,12.57,1695.37,12ZM1600,9.89c0-.34-2.24-.62-5-.62s-5.41.28-6,.62-1,.41-1,0c0-.78-8-1-8-.19,0,.31-.54.41-1.2.22-1.27-.36-12.92-.95-25.3-1.27-4-.1-7.29-.25-7.29-.33,0-.41-17.43-.42-18.55,0-2,.74-15.23,1.25-15.23.59,0-.31-.9-.57-2-.57s-2,.27-2,.6-9.33.48-24.84.3c-13.67-.16-26.29-.29-28-.29a71.78,71.78,0,0,1-7.62-.56c-2.66-.34-4.42-.35-4.42,0,0,.57-4.64.48-5.9-.11-.36-.17-6.39-.21-13.39-.09-8.45.15-13.38,0-14.62-.51-1.46-.56-1.87-.53-1.89.13s-.38.61-1,.2-8.13-.68-18.86-.72c-9.84,0-39.65-.24-66.25-.43s-60.74-.4-75.86-.44-27.5-.26-27.5-.47-3.28-.39-7.28-.39-7.29.21-7.29.47-.63.46-1.4.46-1-.28-.59-.62-.11-.62-1.24-.62-2.07-.28-2.07-.62-.63-.62-1.4-.62-1,.28-.59.62-1,.62-3.56.61c-3.32,0-3.9-.15-2.4-.61s1.53-.6.24-.61-1.3-.22.23-.94a13.51,13.51,0,0,1,4.74-.92c1.51,0,2.74-.3,2.74-.67s1.15-.49,2.82-.24c1.89.28,2.52.19,1.91-.27s-.56-.68-.13-.68a3.21,3.21,0,0,1,1.79,1.27l1,1.28,3.5-1.29c2.39-.88,3.78-1.06,4.41-.59a1.48,1.48,0,0,0,2-.14c.91-.68,10-.84,48.53-.82,26.08,0,58.15.2,71.27.42s34.88.56,48.36.76c48.68.71,61.22,1,62.31,1.29,2.44.7,13.12,1.32,14.73.86a3.52,3.52,0,0,1,2.76.24c.76.55,1.36.51,2.33-.19.72-.51,1.31-.65,1.33-.31s8.21.6,22.21.55c22.13-.08,59.95.92,60,1.58,0,.2,4.62.32,10.27.28,9.67-.06,32,.78,35.92,1.37,1.46.21,1.48.44.14,1.2s-1.32.89.18.66c1-.15,3.51-.44,5.55-.65,2.27-.23,3.4-.67,2.93-1.13s-.07-.32.78.21c1.24.78,2.95.88,8.9.5a47.64,47.64,0,0,1,9.68.12,33.91,33.91,0,0,0,6,.66c3.44.08,3.48.11.54.37-2.48.22-2.78.41-1.33.83,2,.61.33.69-18.33.81-6.51.05-10.93-.17-10.93-.54Zm-385.1-5.57a2,2,0,0,0-1.94-.59c-1.87.54-1.39,1.51.76,1.51C1214.87,5.24,1215.34,4.88,1214.87,4.32ZM1137.6,6.43c1.36-1.19,1.28-1.32-.6-1s-2,.2-.6-1L1138,3.1l1.32,1.38c1.51,1.58,4.25,1.81,5.37.45.42-.51.28-.93-.3-.93a1,1,0,0,1-1.07-.93c0-.76,1.2-.87,6.41-.54,4.37.27,6.4.17,6.4-.3s2.1-.7,4.72-.7c3.09,0,4.4.23,3.81.68s-.09.48,1.88,0c2.31-.57,2.65-.53,2,.25a2.9,2.9,0,0,1-2,.94c-.65,0-1.18.28-1.18.62,0,1.29,2.39.55,4-1.24,1.84-2.07,1.89-2.09,5.21-1.26,1.68.42,2.2,1.08,1.74,2.2-.36.88-.13,1.51.51,1.41a2.47,2.47,0,0,1,1.82.43c.39.36-2.76.65-7.71.71-7.66.09-8.5,0-9.82-1.38s-6.32-2.11-6.32-.83c0,.36.59.49,1.31.28s1,0,.55.54a3.24,3.24,0,0,1-2.85.55c-1.36-.25-1.77-.13-1.16.33,1.06.8-3.34,1.4-8.45,1.14a26,26,0,0,0-5.73.38c-2.17.5-2.26.41-.84-.83Zm36.24-2.32c.38-.29-.16-.52-1.19-.52s-1.56.23-1.18.52a1.63,1.63,0,0,0,2.37,0Zm-54.09,2.44c-.4-.3.46-.69,1.91-.87,1.76-.22,2.37-.65,1.83-1.31s-.25-1,.44-1c1.82,0,1.52,2-.43,2.94S1120.73,7.29,1119.75,6.55Zm8.12-1.72a1.09,1.09,0,0,1,2.12,0c.37.45-.11.82-1.06.82S1127.5,5.28,1127.87,4.83ZM1133,3.09a20.15,20.15,0,0,1,5.48-.92c3.16,0,5.17.91,3.19,1.48a1.7,1.7,0,0,1-1.74-.35c-.38-.54-1.21-.54-3.34,0-4.07,1-6.63.88-3.59-.2ZM1115.38,3a5.33,5.33,0,0,1,2.54,0c1,.2.74.35-.81.38-1.39,0-2.17-.12-1.73-.33Zm69.86-.25c-1.7-.51-1.65-.6.33-.6,1.28,0,2.32.26,2.32.6,0,.76-.15.76-2.65,0Zm-7.11-.94c-.64-.77-.3-.82,1.84-.29,3.07.77,3.36,1.23.78,1.23A3.82,3.82,0,0,1,1178.13,1.82Z"/></g></g></svg>