<svg id="Layer_1" data-name="Layer 1" xmlns="http://www.w3.org/2000/svg" xmlns:xlink="http://www.w3.org/1999/xlink" viewBox="0 0 512 512"><defs><style>.cls-1{fill:#007bff;}.cls-2{fill:url(#linear-gradient);}.cls-3{fill:url(#linear-gradient-2);}.cls-4{font-size:32px;}.cls-4,.cls-5{fill:#fff;font-family:PatuaOne-Regular, Patua One;}.cls-5{font-size:30.91px;}</style><linearGradient id="linear-gradient" x1="191" y1="240.88" x2="285.25" y2="240.88" gradientUnits="userSpaceOnUse"><stop offset="0" stop-color="#0061ff"/><stop offset="1" stop-color="#60efff"/></linearGradient><linearGradient id="linear-gradient-2" x1="267.34" y1="238.19" x2="307.02" y2="323.68" gradientUnits="userSpaceOnUse"><stop offset="0" stop-color="#f5c900"/><stop offset="1" stop-color="#00ff87"/></linearGradient></defs><path class="cls-1" d="M256,96A160,160,0,1,0,416,256,160,160,0,0,0,256,96Zm0,270A110,110,0,1,1,366,256,110,110,0,0,1,256,366Z"/><path class="cls-2" d="M268.94,284.42c6.06-5.45,12.93-12.93,13.23-13.22a11.72,11.72,0,0,0-17.23-15.88c-.07.07-6.4,6.95-11.61,11.66-8.77,7.85-22.79,6.5-29.88.36a25.33,25.33,0,0,1-9-17.55,23.27,23.27,0,0,1,6.05-17c9-10,26.21-26.45,26.39-26.62a11.71,11.71,0,0,0-16.17-17c-.72.7-17.94,17.21-27.55,27.83a46.51,46.51,0,0,0-12.07,34.21,48.46,48.46,0,0,0,17.06,33.85,45.73,45.73,0,0,0,30,10.78h0A46.18,46.18,0,0,0,268.94,284.42Z"/><path class="cls-3" d="M273.22,326.08a11.72,11.72,0,0,0,8.07-3.24c.73-.71,17.94-17.22,27.56-27.83a46.51,46.51,0,0,0,12.06-34.22,48.48,48.48,0,0,0-17.06-33.86c-16.87-14.61-44.14-14.31-60.79.65C237,233,230.13,240.5,229.85,240.81a11.71,11.71,0,1,0,17.22,15.87c.06-.07,6.39-7,11.61-11.64,8.77-7.88,22.78-6.51,29.88-.37a25.2,25.2,0,0,1,9,17.53,23.18,23.18,0,0,1-6.05,17.05c-9,10-26.21,26.46-26.39,26.63a11.73,11.73,0,0,0,8.1,20.2Z"/><text class="cls-4" transform="translate(154.77 185.65) rotate(-49.91)">E</text><text class="cls-4" transform="translate(166.61 171.61) rotate(-41.15)">X</text><text class="cls-4" transform="matrix(0.85, -0.53, 0.53, 0.85, 181.87, 158.42)">T</text><text class="cls-4" transform="matrix(0.92, -0.39, 0.39, 0.92, 198.41, 148.07)">R</text><text class="cls-4" transform="translate(217.92 139.96) rotate(-12.9)">A</text><text class="cls-4" transform="matrix(0.99, -0.1, 0.1, 0.99, 239.37, 135.54)"> </text><text class="cls-4" transform="matrix(1, -0.03, 0.03, 1, 248.07, 134.7)"> </text><text class="cls-4" transform="translate(256.83 134.45) rotate(2)"> </text><text class="cls-4" transform="translate(265.35 134.47) rotate(8.64)">P</text><text class="cls-4" transform="matrix(0.95, 0.3, -0.3, 0.95, 283.69, 137.14)">A</text><text class="cls-4" transform="matrix(0.91, 0.42, -0.42, 0.91, 304.39, 144.1)">I</text><text class="cls-4" transform="matrix(0.84, 0.54, -0.54, 0.84, 314.83, 148.65)">N</text><text class="cls-4" transform="translate(333.74 161.18) rotate(42.57)">T</text><text class="cls-4" transform="matrix(0.63, 0.78, -0.78, 0.63, 348.07, 174.52)">S</text><text class="cls-5" transform="translate(114.76 272.4) rotate(84.79) scale(1.08 1)">P</text><text class="cls-5" transform="translate(117.37 296.75) rotate(73.23) scale(1.08 1)">R</text><text class="cls-5" transform="matrix(0.51, 0.95, -0.88, 0.47, 124.95, 320.54)">O</text><text class="cls-5" transform="translate(137.48 342.92) rotate(50.46) scale(1.08 1)">D</text><text class="cls-5" transform="translate(153.92 362.23) rotate(39.88) scale(1.08 1)">U</text><text class="cls-5" transform="translate(173.4 377.95) rotate(30.18) scale(1.08 1)">C</text><text class="cls-5" transform="matrix(1.01, 0.39, -0.36, 0.93, 193.24, 389.15)">T</text><text class="cls-5" transform="matrix(1.06, 0.23, -0.22, 0.98, 214.71, 397.11)">S</text><text class="cls-5" transform="matrix(1.08, 0.12, -0.11, 0.99, 235.42, 401.26)"> </text><text class="cls-5" transform="matrix(1.08, 0.05, -0.05, 1, 245.63, 402.33)"> </text><text class="cls-5" transform="matrix(1.08, -0.02, 0.02, 1, 255.85, 402.71)"> </text><text class="cls-5" transform="translate(267.06 403.06) rotate(-9.62) scale(1.08 1)">M</text><text class="cls-5" transform="translate(300.94 396.45) rotate(-21.24) scale(1.08 1)">A</text><text class="cls-5" transform="matrix(0.92, -0.57, 0.52, 0.85, 324.64, 386.91)">N</text><text class="cls-5" transform="translate(346.9 372.63) rotate(-41.25) scale(1.08 1)">F</text><text class="cls-5" transform="matrix(0.74, -0.79, 0.73, 0.68, 360.93, 359.9)">.</text><text class="cls-5" transform="matrix(0.67, -0.85, 0.79, 0.62, 368.23, 351.83)"> </text><text class="cls-5" transform="matrix(0.6, -0.9, 0.83, 0.56, 374.57, 343.61)"> </text><text class="cls-5" transform="translate(380.24 334.9) rotate(-60.89) scale(1.08 1)"> </text><text class="cls-5" transform="matrix(0.41, -1, 0.93, 0.38, 385.59, 325.47)">L</text><text class="cls-5" transform="translate(392.37 308.8) rotate(-76.78) scale(1.08 1)">T</text><text class="cls-5" transform="matrix(0.03, -1.08, 1, 0.03, 397.43, 285.89)">D</text></svg>