<svg xmlns="http://www.w3.org/2000/svg" viewBox="0 0 200 56.27"><defs><style>.cls-1{isolation:isolate;}.cls-2{mix-blend-mode:multiply;}.cls-3{fill:#06b6d4;}</style></defs><g class="cls-1"><g id="Layer_1" data-name="Layer 1"><g class="cls-2"><path class="cls-3" d="M41.11,6.66s0,0,0,.06h0Z"/><path class="cls-3" d="M86.31,2.63s0,0,0,0h0Z"/><path class="cls-3" d="M39.78,6.67v0h0Z"/><path class="cls-3" d="M149,4.91h0v0Z"/><path class="cls-3" d="M121.22,2.19s0,0,0,0h0Z"/><path class="cls-3" d="M17.44,12.48h0v0Z"/><path class="cls-3" d="M197.4,41.59a3.47,3.47,0,0,0-1.33,0c-.74.34-1.59.29-2.28.67-.53.29-1.12.24-1.66.53-.75.4-1.21,0-1.6-1a.91.91,0,0,0-1.22-.52c-.2.08-.39.26-.59.26-1.56,0-3.13.05-4.69,0-.57,0-1-.63-1.66-.46-.19-.3-.36-.62-.57-.9s-.53-.51-.74-.33c-1,.79-2.24,0-3.2.7-.05,0-.34-.23-.49-.38s.07-.37.18-.52a1,1,0,0,1,.79-.34c.44,0,.88,0,1.32-.1.15,0,.13-.16,0-.32s-.15-.36.11-.46.37-.1.37-.15c0-.28-.23-.24-.42-.26a3.82,3.82,0,0,1-1.91-.41,2.16,2.16,0,0,0-2.67-.15c-.15.11-.43.05-.65.06h-2.24a2.34,2.34,0,0,1-1.68-.41c-.82.06-1.49-.57-2.35-.49s-1.78,0-2.68,0c-1,.65-2.15.33-3.25.41a1.57,1.57,0,0,1-1.58-.55,1,1,0,0,0-1-.33c-.28,0-.56,0-.84,0a.37.37,0,0,1,.39-.38c3.35,0,6.7,0,10.06,0a1.13,1.13,0,0,1,.62.19c.32.25.52.09.73-.13s.49-.5.9-.17c.14.11.42.08.64.09,1.24.09,2.52-.18,3.7.42,1.49,0,3,0,4.47,0a1.12,1.12,0,0,0,.64-.13,1.86,1.86,0,0,1,1.27-.3c.81,0,1.46-.19,1.68-1.09,0-.13.18-.23.27-.35s.14-.19.71,0c.22.06.43.13.61,0s.48-.17.73.07.09.47-.07.71a.54.54,0,0,0-.06.41c.14.32.36.14.5,0a.57.57,0,0,1,.61-.07l1.65.07c.29-.22.53-.06.81.07a.7.7,0,0,0,.82-.46c.08-.3,0-.59-.4-.64a.4.4,0,0,1-.21-.07.43.43,0,0,1-.15-.15s.08-.13.12-.13c.59-.06,1.17-.09,1.75-.15.25,0,.4-.5.74-.18.49.45,1.17,0,1.68.35.12.08.28.24.36.21.46-.21.9-.45,1.35-.69.33.37.6.08.94,0a5.6,5.6,0,0,1,1.1-.07c.11,0,.2-.15.3-.23-.05,0-.1-.12-.17-.14-.63-.2-1.34.1-1.94-.27s-1.31-.13-1.95-.25c-.15,0-.35,0-.44-.05-.72-.6-1.57-.35-2.37-.36-2.6,0-5.21,0-7.82-.06-.17,0-.44,0-.23-.39a2.12,2.12,0,0,0,.25-.82c0-.36.18-.54.53-.55.6,0,1.2,0,1.79,0,.11,0,.31-.17.31-.24a1.71,1.71,0,0,0-.21-.57s-.12-.05-.19-.06c-.18-.59-.69-.47-1.06-.35s-.59.37-.92,0a1.76,1.76,0,0,0-.7-.51c-.45-.19-.45-.27,0-.45a4.16,4.16,0,0,0,.71-.5l1.17-.7a1.33,1.33,0,0,1,1.27.07c.25.13.63.29.82.18a11.17,11.17,0,0,1,2.1-.54c.08,0,.14-.26.13-.38S189.07,26,189,26c-.43-.07-.87-.08-1.31-.15-.14,0-.13-.18,0-.33s.16-.27,0-.34c-.57-.34-1.36.21-1.85-.46l-.67.6a1.08,1.08,0,0,1-.84.17c-.4,0-.33-.47-.5-.58-.6-.42.21-1.12-.37-1.52-.11-.08,0-.43,0-.65,0-.06.07-.13.12-.18s.2,0,.28.14.06.35.15.39c.31.16.3-.14.35-.31.1-.35.4-.42.69-.43.82,0,1.64,0,2.46,0,.25,0,.43-.32.41-.66s-.07-.59-.45-.65a.45.45,0,0,1-.4-.44c0-.29.12-.48.59-.43.78.07,1.66-.34,2.33.38a4.85,4.85,0,0,0,3-.44.5.5,0,0,0,.23-.56.4.4,0,0,0-.29-.26,1.86,1.86,0,0,1-1.23-.39c-.39-.29-.91.58-1.35-.05-.75.25-1.59.25-2.29.54-1.31.57-2.61.28-3.92.22-.09,0-.22-.35-.25-.55s-.08-.45.16-.6l1.58-.36c.31.41.78-.43,1.08.13l1.4-.41c.06,0,.11-.09.16-.14s-.11-.13-.17-.15a1.56,1.56,0,0,0-.42-.08c-.43,0-.75,0-.38-.59.16-.25-.21-.27-.38-.27-2.16,0-4.33,0-6.49,0h-1.78c-.6,0-.53-.26-.27-.66.06-.09-.2-.36-.25-.56a1.31,1.31,0,0,0-1.48-1,10,10,0,0,1-1.34,0c-1-.08-2.07.23-3-.39-.1-.06-.4.13-.58.24a.53.53,0,0,1-.61,0c-.24-.14-.18-.38-.09-.58.24-.51.5-1,.75-1.52-.86-.11-.89-.15-.57-1,.15-.38-.11-.32-.26-.41-.5-.28-.51-.31-.32-.79a2.47,2.47,0,0,1,.19-.36c-.14,0-.29-.14-.4-.11s-.52.31-.56.26c-.67-.67-1.21,0-1.79.16-.19,0-.46.32-.53.27-.72-.53-1.74-.11-2.41-.75a1,1,0,0,1,1.06-.92,3.54,3.54,0,0,1,1.71.27c1.06.48,1.44.26,1.91-.66a.41.41,0,0,0-.07-.55c-.26-.28-.54-.56-.93-.25s-.72.46-1,.28a4.31,4.31,0,0,0-2.33-.44c-.08,0-.16-.16-.24-.25s.11-.13.17-.14c.58,0,1.16-.07,1.75-.12,0,0,.1-.09.15-.14s-.12-.13-.18-.13a4.06,4.06,0,0,0-2.57.23c-.06,0-.25,0-.34-.11a.67.67,0,0,0-1,.06c-.28.22-.62.2-.71-.12-.14-.5-.27-.5-.72-.29-.63.29-.68.23-1.17-.44-.19-.27-.33-.15-.49,0-.31.27-.57.72-1.07.24a.43.43,0,0,0-.41,0c-1,.69-2.15.24-3.23.24-.5-.5-.91-.12-1.37.11s-.74-.1-1-.5-.44-.72-.73-.78c-.63-.14-1.31,0-1.89-.43-.09-.07-.38.15-.58.21s-.54.13-.8.19a.46.46,0,0,1-.4.42,4.63,4.63,0,0,1-3.36-.74c-.37-.29-.66-.07-.76.39a.38.38,0,0,1-.49.31,7.35,7.35,0,0,1-1-.43c-.2-.09-.23-.22-.07-.31s.52-.25.77-.38l.77-.39c-.22-.27-.53-.21-.82-.22s-.35-.18-.48-.37c-.44-.64-.61-.67-.84-.14-.41,1-1.27,1.14-2.1,1.38-.16,0-.41-.11-.58-.23s.08-.49.36-.65a3.54,3.54,0,0,0,.39-.19c.13-.1.07-.51-.06-.58a3.81,3.81,0,0,0-2.74-.47c-.09,0-.15.22-.2.34s0,.33.16.36a10.06,10.06,0,0,0,1.09.11c.25,0,.46.11.45.35a.88.88,0,0,1-.25.57,2.87,2.87,0,0,1-2,.85,3.35,3.35,0,0,0-2.12.41c-.07,0-.26-.06-.4-.09a1.39,1.39,0,0,1,.12-.36c.24-.33.19-.89.82-.91.17,0,.34-.27.51-.42a.47.47,0,0,0,.11-.18.87.87,0,0,0-.31-.23c-.56-.21-.9.34-1.38.42,0-.42,0-.88-.63-.84-.15,0-.35,0-.43,0-.4-.4-.73-.37-1,.09-.21.29-.43.3-.71,0s-.52,0-.78.1a1.74,1.74,0,0,1-1.85,0c-.5-.31-1.07-.67-1.72-.23-.06.05-.27-.06-.38-.13a1.63,1.63,0,0,0-1.85,0c-.92.55-2.08-.19-2.93.59a1.51,1.51,0,0,1-.67-.8l-.42,0c-.11,0-1.15,0-1.32,0a2.84,2.84,0,0,1-.65,0c-.21,0-.24-.16-.12-.31.25-.3.24-.48-.21-.51-.64-.06-1.08.42-1.63.57.08.18.28.42.23.54-.14.3-1,.26-1.16,0s0,.08.13-.19.17-.42-.11-.45a11.8,11.8,0,0,0-1.33,0c-.38,0-.75,0-1.12,0s-.86.08-1.28-.22-.72.4-1.17.22c-.07,0-.16,0-.22,0a.48.48,0,0,1-.33-.5c.08-.83.08-.83-.44-.83s-1.15.17-1.52-.07A3.85,3.85,0,0,0,106.41,0a2.21,2.21,0,0,0-1.06.12c-.39.2-.15.68-.21,1a1.25,1.25,0,0,1-.42.76.77.77,0,0,1-.34.12s-.11-.1-.12-.17,0-.3,0-.44c-.08-1.11-.13-1.13-1.1-.64L102,1.31c0,.07,0,.15-.05.19-.56.67-.6.71-1.13.18a1.1,1.1,0,0,0-1.39-.23c-.27.12-.66.18-.77.38-.3.56-.61,1-1.33.89-.07,0-.22.19-.24.31-.06.39-.22.54-.53.23S95.75,2.4,95.1,3c-.18.15-.72.21-.82.09-.5-.58-1-.19-1.34,0a2.37,2.37,0,0,1-2.31.31,5.39,5.39,0,0,0-2.15-.32c-.59,0-1.19,0-1.78,0a.42.42,0,0,1-.38-.41c-.44,0-1-.16-1.28,0a5.43,5.43,0,0,1-2.56.42,3,3,0,0,0-.8.31c-.22.08-.44.15-.61-.06,0,0,.12-.22.16-.35a5.91,5.91,0,0,0,.15-.84c0-.11-.13-.23-.2-.34-.05.06-.12.11-.14.18-.2.9-.81,1.14-1.65,1.06a2.23,2.23,0,0,1-1.28-.28.67.67,0,0,0-.6,0c-.4.26-.91.47-1.23.19-.5-.44-.81.23-1.13.08a1.85,1.85,0,0,0-1.37,0,4.93,4.93,0,0,1-1.53,0c-.21,0-.19-.15,0-.32s.27-.42.22-.57c-.16-.51-.41-.05-.63,0-.63.14-1.36-.1-1.89.47-.64,0-1.31.23-1.94-.19a1.65,1.65,0,0,0-.83-.2c-.67,0-1.34,0-2,0-1,0-2,.64-3,.48-.06,0-.13.06-.19.1s-.07.11-.06.14a.38.38,0,0,0,.16.15c.19,0,.51,0,.45.27s-.31.61-.59.46-.47-.23-.73,0-.31.55-.63.39c-.12,0-.11-.39-.15-.6s0-.18,0-.22-.23-.21-.27-.19c-.32.2-.68.47-1,.11s-.59.33-.89,0-.49-.05-.7.15-.25.67-.32,1a.4.4,0,0,1-.52.27.53.53,0,0,1-.3-.27,1.59,1.59,0,0,1,0-.44c0-.47-.06-.42-.82-.77-.43-.2-.82-.4-1.24-.13a1.7,1.7,0,0,1-2,0c-.53.11-1.08.47-1.57-.12,0-.06-.31,0-.4.07A1.48,1.48,0,0,1,49,3.53H47.24a.65.65,0,0,0-.76.61c0,.19-.17.24-.3.15s-.48-.38-.58.15-.53.85-.48,1.43c0,.3-.34.43-.67.26s-.51-.48-.77-.3a4.73,4.73,0,0,1-1.42.5c-.06,0-.1.09-.14.14l.37.21c.12.07.32.15.32.22,0,.31-.78.75-1,.59a1.24,1.24,0,0,1-.65-.77,3.45,3.45,0,0,1-.73.34.45.45,0,0,1-.61-.36c-.75.33-1.29,1.24-2.3.89-.56.64-1.41.27-2.06.6L33.3,9.29a8.14,8.14,0,0,0-.77.41c-.13.08-.27.09-.34-.08-.38-.86-1.69-.43-2-1.46-.07-.23-.91-.21-1,0-.2.73-.79.7-1.32.86-.09,0-.08.37-.11.57.77.13.86,1.37,1.87,1.15.19,0,.22.13.12.29s-.35.33,0,.5a.42.42,0,0,0,.22,0c.57-.05,1.23.21,1.71-.22.66-.59,1,.39,1.58.21a1.67,1.67,0,0,0,.36-.25c.13-.1.26-.06.3.13s0,.38-.08.4a12,12,0,0,0-2.28.61c-1.73-.15-3.16,1.2-4.9,1-.06,0-.13.08-.2.1-.71.14-1.25,1.19-2.13.39-.32.17-.82.27-.93.52-.41,1-1.42.88-2.16,1.14s-1.61-.17-2.32.4c-.53-.75-1-.08-1.51,0s-1.11-.69-.85-1c.51-.67.33-1.41.41-2.13a.45.45,0,0,1,.41-.39.5.5,0,0,1,.57-.44c.33,0,.69,0,.79-.44.49-.1.43-.48.4-.84a.52.52,0,0,0-.56-.53,1.09,1.09,0,0,0-.95.48c-.21.29-.32.64-.52.93a.64.64,0,0,1-.76.32c-.15-.06-.23-.32-.31-.51s0-.31-.05-.44a.61.61,0,0,0-.32-.25.35.35,0,0,0-.48.29c-.06.53,0,1.08-.81,1a.64.64,0,0,0-.41.13,3.78,3.78,0,0,1-4.14.37c-.19-.11-.56,0-.83.14a1.68,1.68,0,0,0-.52.41.61.61,0,0,1-1,0c-.51-.57-1-.87-1.66-.21a2.67,2.67,0,0,1-1,.48A1.31,1.31,0,0,0,4,14.73c0,.49.16,1-.29,1.48-.17.18.16.33.27.48s.35.16.53,0a1.13,1.13,0,0,0,.41-.76.29.29,0,0,1,.14-.15c.09.06.25.14.26.23.14,1.21.08,1.29-1,1.88-.44.25-.88.51-1.31.79-.11.07-.16.23-.24.35a1.49,1.49,0,0,0,.4.15c.37,0,.74,0,1.11,0s.5,0,.64.9c.12.06.29.1.32.19.08.27,0,.63.16.84.3.42.38.72-.11,1.06A7.18,7.18,0,0,0,4.5,23c.58.79-.06.66-.52.74-.27.05-.5.29-.77.38-.54.17-1,.64-1.62.55-.05,0-.11.09-.17.14.1.08.19.23.28.23,1,0,1.92,0,2.87,0,.07,0,.21.23.18.26-.22.29-.59.54-.67.86a.76.76,0,0,1-1,.64,1.43,1.43,0,0,0-.65.06c-.36.14,0,.31,0,.47s.11.25.17.37a1.69,1.69,0,0,0,.65.36c.66.07.7.49.7,1,.71.11,1.2-.41,1.76-.67a1.12,1.12,0,0,1,1.57.26,1.09,1.09,0,0,0,1,.42c.44,0,.89,0,1.33,0s.56.32.61.72.15.56.43.36c.63-.46,1.52.12,2.07-.55a1.5,1.5,0,0,1,.15.38c0,.26-.15.38-.41.42a1.4,1.4,0,0,0-.38.2c.12.07.23.19.35.21a2.15,2.15,0,0,0,.67,0,1.14,1.14,0,0,1,1.34.78c.1.25.6.07.66-.24s0-.45,0-.66.18-.16.28-.22.11.09.15.15c.47.8,1,.91,1.31.21a1.37,1.37,0,0,1,1.35-.9c.58,0,1.26.23,1.73-.18.67-.57,1.08.26,1.62.16a4.13,4.13,0,0,0,.63-.13c.21-.06.4-.18.6-.23s.43.45.75.19.57-.17.81-.3A5.45,5.45,0,0,1,27,29.07c.37,0,.74,0,1.12,0s.75-.1.79.18-.41.21-.66.27c-.56.13-1,.54-1.67.49s-1.19.47-1.89.42c-.53,0-.61.21-.28.89.15.32,0,.4-.22.43-.36.05-.73,0-1.1.06-.06,0-.12.09-.18.13.09.08.17.21.27.23s.44,0,.66,0c.06,0,.17.12.16.14s-.13.25-.21.26a6.58,6.58,0,0,1-.89,0c-.33,0-.47-.18-.54-.53-.21-1-.5-1.23-1.22-1.25-.52,0-1.05,0-1.57,0l-2,.63c-.51.27-.51.87-.82,1.27-.1.14-.07.28.13.3.37,0,.74,0,1.11.05a.41.41,0,0,1,.36.44,9.09,9.09,0,0,1-2.37.94,11.76,11.76,0,0,1-2.59.41,1.72,1.72,0,0,0-1.28.21c-.44.31-.74-.37-1.2-.22-.27.08-.64,0-.85.13a2.89,2.89,0,0,1-1.72.32,6.67,6.67,0,0,1-1.34,0c-.56-.06-.88.47-1.44.49s-.63.15-.6.91a1,1,0,0,0,1.43,1,1.82,1.82,0,0,1,2,.38.88.88,0,0,0,.56.31c.79,0,1.62.25,2.39-.23a1.11,1.11,0,0,1,1.25.1c.12.07.32.18.4.13.67-.42,1.2,0,1.75.28.32.16.65.32,1,.5.64.35,1.45,0,2.06.49a1.9,1.9,0,0,1,1.69-.29A1.59,1.59,0,0,0,21,38.7c.17-.22.36-.14.54,0a.59.59,0,0,0,.8,0c.23-.19.43-.42.67-.59l.05,0s0,.07.1.11a.19.19,0,0,1,.07.18c-.13.33-.28.64-.43,1a4.71,4.71,0,0,0-.66.49c-.43.43-.24,1-.16,1.48,0,.29.48.22.77.28a1.57,1.57,0,0,1,.57.27c.12.08.28.22.27.34s-.23.26-.44.26-.64,0-.73.34a1.57,1.57,0,0,1-.47.73,1,1,0,0,1-.81.26.55.55,0,0,1-.58-.52c-.06-.26-.25-.29-.45-.1a2.59,2.59,0,0,1-.49.45.9.9,0,0,1-.59.13c-.25-.06-.43-.44-.73-.12s-.76.12-.86.6a1.53,1.53,0,0,1-.21.37c-.1-.17-.19-.35-.29-.53s-.27-.22-.3,0c-.13.73-.67.75-1.16.62-1.71-.44-1.7-.46-3.13,0a1.79,1.79,0,0,1-1.68-.17.91.91,0,0,0-1,0,2.65,2.65,0,0,1-1.24.36.42.42,0,0,0-.24.69c.32.45.39,1.13,1.11,1.22a2.18,2.18,0,0,0,2,.74,15.42,15.42,0,0,1,2.45,0c.85.11,1.45-.68,2.33-.49.63.13.86-.9,1.49-.78s1.17.66,1.82.09c.12-.1.2,0,.36.06a1.86,1.86,0,0,0,1.88,0c.34-.18.28.17.36.33s.2.35.23.34c.54-.23,1.29-.1,1.56-.83l2,0c.43,0,.7.14.74.6.59.39,1.22,1,1.93.65A3.75,3.75,0,0,1,30,47a3.53,3.53,0,0,0,1.51-.15,3.31,3.31,0,0,1,2.14-.28c.71.09,1.3-.59,2.06-.1a2.85,2.85,0,0,0,1.52,0c.61,0,1,.6,1.64.44,0-.17.07-.36.31-.29.07,0,.11.18.16.29a1.28,1.28,0,0,1,.35.18.61.61,0,0,0,1,.07l.66-.59c.4.47.74,0,1.12-.05s1,.65.86,1a.49.49,0,0,1-.33.25c-.21,0-.51.08-.64,0-.45-.41-.76-.27-1.07.14s-.43.35-.7.07a.46.46,0,0,0-.6,0c-.3.17-.11.77-.65.76-.37,0-.74,0-1.11,0H38c-.37.54-.54.54-.89,0l-.44,0a1.12,1.12,0,0,0-.9-.85.46.46,0,0,1-.37.4c-.22,0-.45,0-.66.06a.46.46,0,0,0-.26.3.38.38,0,0,0,.28.5c.2.06.44,0,.65.06s.18.16.27.25c-.32.29-.26.89-.73,1a1.12,1.12,0,0,1-.84-.12,1.29,1.29,0,0,0-1.6,0A3.75,3.75,0,0,1,30,51c-.65-.07-1.41.17-2-.07A2.25,2.25,0,0,0,26,50.76c-.63.33-1.44.26-1.92.93a.64.64,0,0,1-.59.11.54.54,0,0,0-.89.08.86.86,0,0,1-1.16.23,2.36,2.36,0,0,0-2.3.06,1,1,0,0,1-1.23-.08c-.24-.19-.35,0-.54.06a5.6,5.6,0,0,1-.81.19c-.2.62-.9.92-1,1.6,0,.09-.39.18-.58.14s-.53-.24-.81-.32a1.64,1.64,0,0,0-1.48,0,1.25,1.25,0,0,1-1.61,0c-.29-.18-.3.16-.3.35,0,.36-.05.74.48.81a3,3,0,0,1,.83.24c.73.33,1.57.18,2.29.62.26.17.72,0,1.09,0a.86.86,0,0,0,.77-.33c.3-.37.61-.61,1.05-.19.38-.21.78-.39,1.15-.62.15-.09.21-.07.37,0a7.12,7.12,0,0,0,.79.37,11.31,11.31,0,0,0,2.14,1.08c.81.2,1.38-.71,2.19-.8a1.92,1.92,0,0,0,.62-.18c.32-.15.76-.27.9-.54s.25-.43.73-.3c1.15.31,1.36.21,3.53-.62a.67.67,0,0,1,.79.11.53.53,0,0,0,.78,0,1.14,1.14,0,0,1,1-.29,1.09,1.09,0,0,0,1.13-.52c.34-.47.58-.1.89,0a.43.43,0,0,0,.61-.36c.42,0,.88-.17,1.25.17s.83.25,1.27.25a.54.54,0,0,0,.61-.49c0-.13.15-.34.23-.34.74,0,1.48,0,2.21,0,.48.68.87-.11,1.31-.1.18,0,.23-.23.11-.29-.45-.22-.92-.42-1.38-.64a1,1,0,0,1-.17-.14s.08-.13.13-.14c.81-.18,1.63-.36,2.27.36a1.5,1.5,0,0,0,1.42.41h.22c.07,0,.19-.07.19-.1a.64.64,0,0,0-.1-.33,3.49,3.49,0,0,0-.45-.49c-.16-.16-.15-.27.08-.32a2.31,2.31,0,0,1,1.89.33c.08.05.26-.06.4-.1,0-.12,0-.27-.12-.36s-.16-.25,0-.31a.8.8,0,0,1,.62.07c.58.3.61.28,1-.23.13-.19.25-.37.5-.32a3.42,3.42,0,0,1,.4.17,3.3,3.3,0,0,0,2.75-.08c.22-.13.48-.22.61-.08.44.49,1.15.25,1.6.66a.56.56,0,0,0,.8,0c.33-.29.66-.59,1-.91s.4,0,.52.15c.48.48.45.68-.1,1s-.44.3-.14.56c.14.13.27.37.54.14.43-.39.72-1.09,1.35-1.08.94,0,1.87-.27,2.84.21A2,2,0,0,0,63,50a.94.94,0,0,1,.57-.3c.81,0,1.63,0,2.44,0,.37.56.81-.12,1.09,0a1.62,1.62,0,0,0,1.77-.25.76.76,0,0,1,1,0,1.93,1.93,0,0,0,.84.2c.37.05.48.27.47.6a2.26,2.26,0,0,0,0,.45c0,.21.11.41.17.62.35-.15.24-.45.26-.72a3.23,3.23,0,0,1,0-.44.68.68,0,0,1,.18-.37.53.53,0,0,1,.41-.08c.2,0,.23.16.13.3a1.21,1.21,0,0,0-.24.38c0,.22,0,.46.21.57a1.24,1.24,0,0,0,1-.13c.18-.24,0,.08-.11-.19s-.3-.32-.06-.54a3,3,0,0,1,2.19-.86c.42,0,.7.09.75.58,0,.2.17.23.31.11s.31-.25.37-.21c.53.3,1.31.15,1.58,1,.14.42.53.38.79-.07.15-.27.19-.61.47-.11.09.16,0,.53.38.29s1-.28,1.28-.8c.1-.19.12-.49.27-.57.33-.17.47.21.67.37a1,1,0,0,0,.81.29c.75-.15,1.47-.72,2.26-.11.64-.56,1.42-.31,2.14-.31a3.32,3.32,0,0,1,2.36.41c.65-.07,1.32.18,2-.19a1.48,1.48,0,0,1,.62-.18,12.82,12.82,0,0,1,2.23,0c.87.13,1.57-.35,2.36-.41.6-.05,1.2,0,1.79,0l1.57,0a4.93,4.93,0,0,1,1.77.08,1.64,1.64,0,0,0,1.59.06c1.25.75,2.43.09,3.56-.3a5.11,5.11,0,0,1,3.23-.05,4,4,0,0,0,1.06.21c.45,0,1-.15,1.32.07.56.45.94-.07,1.39-.06a2.23,2.23,0,0,1,.45,0,4.17,4.17,0,0,0,3.15.09c.62.51,1.2-.4,1.79-.05a1.27,1.27,0,0,0,1,.07,5.39,5.39,0,0,1,3.05.15,3.09,3.09,0,0,0,2.37,0,3.36,3.36,0,0,1,1.5-.26c1,0,2.08-.29,3,.37a.26.26,0,0,0,.21,0c.7-.62,1.66-.14,2.32-.49a5.1,5.1,0,0,1,2.38-.34c.82,0,1.64,0,2.46,0,.5.7,1.19,0,1.76.25a8.47,8.47,0,0,0,2.19.19,3.41,3.41,0,0,1,.84.19,2,2,0,0,0,1.91,0c.64-.35,1.48,0,2.08-.62a.67.67,0,0,1,.64,0c.58.5,1.26.31,1.91.38,1.09.1,2.24-.26,3.26.42,1.24,0,2.52.27,3.7-.38.65.13.78-.47,1.11-.8a2.07,2.07,0,0,0,1.71.32c.93-.15,1.69.44,2.57.44,1.49,0,3,0,4.48,0a1.19,1.19,0,0,0,1-.41c.25-.29.64-.37.92-.57a1.1,1.1,0,0,1,1.39,0,1,1,0,0,0,1.36-.34,1.13,1.13,0,0,1,1.4-.4,20.92,20.92,0,0,0,2.3.58,5.73,5.73,0,0,0,3.85,0,.58.58,0,0,1,.61,0c.81.6,1.74.17,2.6.28a1.49,1.49,0,0,0,1.26-.28c.3-.25.87-.27,1,0,.37.89.92.85,1.56.45.31-.2.38.07.55.14a1,1,0,0,0,1,0c.23-.18-.45-.45,0-.66.25-.12.65,0,.84-.16.68-.57,1.3-1.22,1.94-1.84a8.78,8.78,0,0,1-.32-1,.54.54,0,0,1,.65-.65,7.27,7.27,0,0,0,2.12.43c.05,0,.12.08.17.13a.16.16,0,0,1-.14.27c-.67,0-.44.9-1,1a3.28,3.28,0,0,1-.06.63c0,.2-.16.21-.32.11s-.35-.34-.52,0a6.61,6.61,0,0,0-.43,1,.38.38,0,0,0,.29.5c.43.09.88.08,1.31.16.28,0,.54.21.82.28a.52.52,0,0,0,.66-.4c0-.37,0-.74,0-1.11s-.22-.65-.65-.73c-.19,0-.23-.22-.1-.3.3-.19.72-.28.91-.55.4-.53.7-.19,1.07,0s.41-.07.38-.31-.38-.3-.05-.53c.87-.61,2-.31,2.91-.87.14-.09.53.27.74.21a4.42,4.42,0,0,0,1.15-.62.66.66,0,0,0,0-1.12A3.43,3.43,0,0,0,197.4,41.59ZM185.64,29.52s0,0,0,0l0,0h-.06c0,.1-.08.2-.13.3a.32.32,0,0,1-.14,0C185.33,29.56,185.48,29.54,185.64,29.52Zm-1.55-12s.08,0,.12.06l0,.14-.25-.09A.53.53,0,0,1,184.09,17.53ZM177,16.18l.14.12-.15.11-.13-.06Zm-.27,1.68h0v0c.21,0,.42,0,.63,0,.61.05,1-.65,1.66-.49a7.25,7.25,0,0,0,1.55.05c.59,0,1.18,0,1.77,0s.8.48.55,1.1a.75.75,0,0,1-.15.16c0-.05-.14-.1-.15-.16-.08-.39-.23-.68-.71-.64a3.57,3.57,0,0,0-.87,0c-.33.13-.59.39-1,.37-1-.05-2.06-.05-3.09-.09-.07,0-.12-.2-.18-.32h0v0c-.21,0-.42,0-.62,0a.29.29,0,0,1-.15-.14c.06-.1.14-.23.23-.25C176.5,17.38,176.71,17.5,176.72,17.86Zm-.85-2.19.31.2-.64.51s-.12-.1-.13-.16a.42.42,0,0,1,0-.22A.43.43,0,0,1,175.87,15.67Zm-8-2.26a2.12,2.12,0,0,1,.34,0l.38.2c-.13.07-.25.15-.38.21a.41.41,0,0,1-.22,0c-.2-.06-.4-.15-.6-.22Zm-2.64.11s.11,0,.14,0,.09.17-.08.24-.09-.08-.12-.13S165.22,13.55,165.24,13.52Zm-.47-4a.6.6,0,0,1,.29-.13.08.08,0,0,1,0-.05l0,0-.05,0c0,.1-.06.23-.13.28S164.69,9.64,164.77,9.53ZM163,13.16s1.55.34,1.56.35a.9.9,0,0,1,0,.16c0,.2-.62.6-.86.57a1,1,0,0,1-.79-.88C162.88,13.29,162.93,13.23,163,13.16Zm-.72.32.13.13-.14.12-.14-.07ZM30.56,10.15c-.08-.05-.11-.22-.16-.33h0c-.21,0-.42,0-.62,0s-.15-.13-.15-.14.15-.22.24-.24c.34-.09.52.07.53.42h0c.12,0,.28.07.33.16A.12.12,0,0,1,30.56,10.15Zm-12,1.14c.08,0,.1.17.14.28h.05l0,0a.43.43,0,0,1,0,0c-.11,0-.24-.06-.29-.13S18.47,11.21,18.59,11.29ZM19.73,23a1.15,1.15,0,0,1,.33-.17c.27,0,.48.13.35.26a.46.46,0,0,1-.35.12c-.12,0-.22-.13-.33-.21Zm-5.21-8.2.2.33c-.05.13-.1.25-.14.37-.09-.06-.27-.13-.26-.17A3.39,3.39,0,0,1,14.52,14.8Zm-1.89.11c.1,0,.26.06.27.12a3.46,3.46,0,0,1,0,.56H13a.14.14,0,0,0,0,.06c.16,0,.3,0,.27.27,0,0-.13,0-.14,0a2.39,2.39,0,0,1-.13-.28h-.07v-.06a.42.42,0,0,1-.4-.53C12.52,15,12.6,14.91,12.63,14.91Zm-2.14.35.14.16-.16.13c-.05-.05-.13-.11-.12-.15S10.44,15.31,10.49,15.26Zm-4,11.88L6.32,27c0-.05.1-.12.14-.12s.08.09.12.13ZM7,24.91c-.23.27-.46.56-.87.5a.39.39,0,0,1-.22-.62,1,1,0,0,1,1-.18c.06,0,.12.08.17.13A1.15,1.15,0,0,1,7,24.91Zm0-1c-.06.15-.18.13-.32,0s-.64-.23-1-.27c-.11,0-.21-.13-.31-.2a1.39,1.39,0,0,1,.36-.19,1.47,1.47,0,0,1,.42,0h0a3.3,3.3,0,0,1,.63,0,.47.47,0,0,1,.27.28A.67.67,0,0,1,7,23.94Zm.31-7a4.72,4.72,0,0,1-.18-.53s.17-.09.27-.14c0,.12.14.24.12.35S7.42,16.79,7.34,16.89Zm4.49,9.48a2.73,2.73,0,0,1-.31.27c-.15.14-.24.13-.31-.07a1.22,1.22,0,0,1,0-.17.36.36,0,0,1,.36-.41,1.06,1.06,0,0,1,.38.07A1,1,0,0,1,11.83,26.37Zm14.93-1.61a.65.65,0,0,1-.56.2c-.33-.2-.55-.35-.92,0a.82.82,0,0,1-1-.05c-.31-.24-.48-.13-.72.09-.51.44-.54.45-1,0s-.57-.3-.66.22a.41.41,0,0,1-.31.26c-.37,0-.74,0-1.11,0a6.07,6.07,0,0,0-2.59.37c-.43.21-1.22.34-1.39-.58,0-.24-.37-.27-.56-.2a2.51,2.51,0,0,0-.77.42,2.85,2.85,0,0,1-1.9.44.68.68,0,0,1-.77-.61,2.62,2.62,0,0,0-.4-.73c-1,0-2.05-.26-3,.36-.22.15-.57-.11-.56-.47,0-.54-.17-.82-.71-.89,0,0-.1-.09-.15-.14s.12-.12.18-.13a3.1,3.1,0,0,1,.86,0,13.53,13.53,0,0,0,2.29,0,2.37,2.37,0,0,1,.88-.05,9,9,0,0,0,1,.28,2.64,2.64,0,0,0,.8-.28.33.33,0,0,1,.22,0c.13.05.33.1.36.2a.46.46,0,0,1-.13.59c-.19.11-.41.16-.58.28s-.06.56.09.57a8.25,8.25,0,0,0,1.31.05c.23,0,.28-.29.27-.53s-.57-.39-.16-.69c.14-.1.4,0,.61,0v0h.05c0-.13.08-.32.14-.33a8.62,8.62,0,0,1,1.52-.09,1.7,1.7,0,0,0,1.23-.37c.16-.13.61,0,.56.13a2.2,2.2,0,0,1-.28.34.87.87,0,0,1-.77.33h-2.4a0,0,0,0,0,0,0h0a1.85,1.85,0,0,0,.06.63c.15.31.49.26.78.26s.52.06.65-.06a2.86,2.86,0,0,1,1.91-.4c.65,0,1.35.12,1.88-.45,1,0,2.07,0,3.09.16a2.36,2.36,0,0,0,.75,0,13.47,13.47,0,0,1,2.2-.13c.07,0,.22.2.2.27A2.39,2.39,0,0,1,26.76,24.76ZM28.47,24c-.25.05-.27-.11-.29-.27l0,0s0,0,0-.05-.24,0-.29-.13,0-.23.16-.16.1.18.13.29h.06v.06a2.71,2.71,0,0,1,.3.13S28.48,24,28.47,24Zm-10,9.85c-.07-.05-.09-.17-.12-.27l-.06,0,0,0,0,.06c.11,0,.23,0,.28.12S18.59,33.92,18.47,33.84Zm2.68,0c-.06,0-.13-.22-.12-.32s.12-.21.19-.31h0c.07.1.17.19.18.3S21.41,33.86,21.15,33.8ZM23,39.67c-.07-.05-.1-.18-.14-.29h-.05l0,0a.43.43,0,0,1,0,.05.7.7,0,0,1,.3.13A.11.11,0,0,1,23,39.67Zm.7,6.42a.25.25,0,0,1,0-.07c-.15,0-.32,0-.27-.28,0,0,.14,0,.15,0s.08.19.12.28h.07Zm.62-6.89c0-.12-.13-.24-.12-.35s.13-.2.25-.36c.05.22.12.4.14.58S24.38,39.15,24.28,39.2ZM27,42l-.14-.16c.05,0,.11-.13.16-.13s.1.1.15.15Zm2.69-13-.15-.14c.06,0,.11-.12.17-.12s.1.09.16.13Zm6.73-3.13s-.1-.09-.14-.14l.15-.15.15.17C36.54,25.76,36.49,25.85,36.44,25.84Zm1.87-.53c-.05.07-.16.09-.26.12s0,.05,0,.07H38a1.55,1.55,0,0,1-.14.29.4.4,0,0,1-.15,0c0-.23.13-.25.29-.26,0,0,0,0,0-.05l.07,0c0-.1,0-.21.11-.25S38.39,25.2,38.31,25.31ZM41.38,25,41,25.3c-.14.11-.27.06-.31-.14a.45.45,0,0,1,.48-.56,1.19,1.19,0,0,1,.2.08C41.54,24.76,41.52,24.88,41.38,25ZM35,52.4c-.06.11-.1.23-.15.34h0l0,0,0,0a3.82,3.82,0,0,0-1.58-.51c-.06,0-.11-.08-.17-.13s.11-.13.17-.13a10.13,10.13,0,0,1,1.74,0C35.38,52,35.1,52.24,35,52.4Zm1.32-3.49a.56.56,0,0,1,.29-.13s0,0,0-.06l0,0,0,0c0,.11-.06.23-.14.28S36.26,49,36.34,48.91Zm1.11,2.77c-.3.19-.64.33-1,.5-.06,0-.22-.12-.22-.19a1.57,1.57,0,0,0-.38-1.23c.11-.06.26-.21.33-.18.45.21.89.45,1.31.7C37.56,51.31,37.52,51.63,37.45,51.68Zm8.86-4.82c-.55.13-1,.67-1.59.53,0,0,0,0,0,0h0c0,.11-.06.23-.14.28s-.23,0-.15-.15.18-.09.29-.13a.11.11,0,0,1,0,0h0c-.06-.33-.31-.4-.6-.47s-.23-.24-.1-.29a9,9,0,0,1,1.37-.57c.4-.11.68.17.92.46S46.46,46.83,46.31,46.86Zm0-41.19c-.11.08-.23,0-.15-.16s.17-.1.29-.14a.43.43,0,0,1,0,0h0c0-.33.24-.42.54-.39a.33.33,0,0,1,.17.1c0,.09-.07.25-.13.26a5.49,5.49,0,0,1-.58,0v0l0,0C46.44,5.48,46.42,5.61,46.34,5.67ZM47.59,24.5c-.14,0-.28,0-.52.07l-.5-.21a4.27,4.27,0,0,1,.61-.18,1,1,0,0,1,.42.05c.06,0,.11.09.17.14S47.66,24.48,47.59,24.5ZM49.7,5.05a1,1,0,0,1-1.2.17c-.08,0-.11-.19-.16-.3h-.06l0-.06c-.16,0-.31,0-.27-.27,0,0,.13,0,.14,0a2.55,2.55,0,0,1,.13.29h.07a.14.14,0,0,1,0,.06,1.68,1.68,0,0,0,1.14-.42.42.42,0,0,1,.4.07C50.08,4.79,49.83,4.93,49.7,5.05Zm1.08.2-.12-.06.13-.2s.11.09.11.14S50.82,5.21,50.78,5.25Zm1.84,0s-.06,0-.07,0c-.21-.11-.2-.21,0-.28l.15.15Zm2.7-.49s-.11.12-.17.12l-1,0s0,0,0,0h0c0,.35-.23.44-.54.39,0,0-.08,0-.12-.09s-.07-.1-.11-.14h0A.6.6,0,0,0,53.4,5a.14.14,0,0,1,.09,0,4,4,0,0,1,.6,0s0,0,0,0h0c0-.32.25-.43.56-.4a5.61,5.61,0,0,1,.59.13S55.34,4.7,55.32,4.72Zm20.5,4.55c-.2-.09-.2-.2,0-.26,0,0,.09.09.13.13S75.85,9.28,75.82,9.27Zm4.51,13.42h0l-.13-.13a.23.23,0,0,1-.08-.14,1,1,0,0,1,.13-.38l.22.27-.12.33Zm2-13a1.61,1.61,0,0,1-.22.44c-.07.08-.27.08-.4.06s-.21-.14-.12-.29.25-.51.38-.76A.75.75,0,0,1,82.09,9c.07.13.15.24.21.37A1.1,1.1,0,0,1,82.31,9.7Zm7,.42-.2-.12s.1-.12.14-.11.08.08.12.12Zm2.81,12.76c0,.08-.15.15-.24.2s-.13-.08-.13-.14a5.43,5.43,0,0,1,0-.57h0a.11.11,0,0,1,0-.05.71.71,0,0,1-.29-.13c-.08-.11,0-.23.16-.15s.09.17.13.28h0v.05A.38.38,0,0,1,92.12,22.88ZM93.19,9.53s.23,0,.31.07a4.62,4.62,0,0,1,.41.46c-.08,0-.13.1-.19.13a.43.43,0,0,1-.63-.29A.56.56,0,0,1,93.19,9.53ZM94,22.76a2.72,2.72,0,0,1-.64,0h0a1.47,1.47,0,0,1-.42,0,.47.47,0,0,1-.23-.25s.06-.12.1-.18a1,1,0,0,1,1.12-.41.45.45,0,0,1,.41.39C94.4,22.62,94.19,22.71,94,22.76Zm1.66-.46c-.09,0-.16-.15-.24-.23a.8.8,0,0,1,.38-.12c.09,0,.18.14.27.23A1.18,1.18,0,0,1,95.67,22.3ZM97.31,9.72l-.06,0-.06,0h0l.13-.19.13.13ZM98,3.49a1,1,0,0,1-.38-.13c.09-.07.17-.21.27-.21a.94.94,0,0,1,.38.14C98.19,3.36,98.1,3.49,98,3.49Zm3.8-.28.14.12-.15.11-.13-.06Zm.44,7.34a.84.84,0,0,1-1,0,.52.52,0,0,1-.06-.51.9.9,0,0,1,1.14,0,.11.11,0,0,1,0,.08s0,.07,0,.1S102.34,10.5,102.25,10.55Zm3.11-6.65c-.19.07-.39.16-.53-.07,0,0,0-.12,0-.13a3.82,3.82,0,0,1,.36-.13h0l.32.2C105.46,3.82,105.42,3.88,105.36,3.9ZM106.53.84c-.24.05-.46-.14-.34-.26a.44.44,0,0,1,.34-.14.4.4,0,0,1,.16.08l.15.13h0C106.74.71,106.64.82,106.53.84Zm3.35.34-.09.05c-.4.14-.86,0-1.21.37-.12.1-.59-.25-.61-.44S108,1,108,1a2.73,2.73,0,0,1,1.87,0,.17.17,0,0,1,.06.06l0,.07A.6.6,0,0,1,109.88,1.18Zm4.85,2.72s-.09-.09-.14-.14.11-.14.16-.13.1.09.15.15S114.79,3.9,114.73,3.9Zm4.46.47a1.59,1.59,0,0,1-.43.06c-.23,0-.45,0-.67,0v0c-.37,0-.74,0-1.09-.1-.09,0-.18-.23-.19-.36s.1-.22.16-.33c.62.62,1.4.31,2.11.38.11,0,.19.15.29.23C119.31,4.29,119.25,4.36,119.19,4.37Zm10.94.74a.76.76,0,0,1-.09.09.15.15,0,0,1-.08,0c-.21-.11-.2-.21,0-.29l.15.15Zm1,.18c-.12,0-.33-.07-.34-.13,0-.27.2-.22.36-.26l.32.22C131.37,5.18,131.26,5.29,131.14,5.29ZM133.35,4a.08.08,0,0,0,0,0l0,0c0,.35,0,.7-.07,1s-.14.2-.31.07c-.47-.36-.51-.48-.12-.81a2.45,2.45,0,0,1,.5-.3V4h0c.07-.56.5-.39.84-.4,0,0,0,0,0,0l0,0h0C134.14,4.16,133.69,4,133.35,4Zm18.27,1.91a.34.34,0,0,1-.43.28c-.23,0-.39-.08-.39-.36a.42.42,0,0,1,.55-.4A.38.38,0,0,1,151.62,5.88Zm7,30.65s-.15,0-.15,0c0-.24.11-.25.26-.27s0,0,0-.05l0,0h-.07A2.49,2.49,0,0,1,158.67,36.53Zm2,9.06a4.68,4.68,0,0,1-.65,0v-.05c-.29,0-.57,0-.86,0a.29.29,0,0,1-.17-.11.86.86,0,0,1,.18-.34c.26-.26.53-.5.93-.22.17.11.38.18.57.28l.35.22C160.87,45.45,160.76,45.57,160.64,45.59Zm4.27-.5c-.22.18-.44.47-.68.48-.8.06-1.6,0-2.4,0-.17,0-.36-.37-.28-.52s.16-.29.25-.3c.51,0,1,0,1.54,0v-.07l1.52.1c.06,0,.15.07.16.12S165,45.05,164.91,45.09Zm1.81,0c-.17.23-.26.52-.41.76s-.38.17-.57.08-.22-.39-.12-.57a1.07,1.07,0,0,1,.81-.63l.23,0C166.87,44.85,166.85,44.93,166.72,45.1Zm6.72-.94a2.47,2.47,0,0,0-.87,1.68c0,.07-.27.18-.36.15a21.11,21.11,0,0,1-3.34-1.37c-.15-.09-.13-.2,0-.33a3.47,3.47,0,0,1,2.35-.9c.76-.17,1.31.61,2.08.48C173.51,43.84,173.57,44,173.44,44.16Z"/><path class="cls-3" d="M4.91,20.12v0h0Z"/><path class="cls-3" d="M35.75,47.87h0s0,0,0-.05Z"/><path class="cls-3" d="M191,46.09l0,0v0Z"/><path class="cls-3" d="M16.5,52.35h0l0,0Z"/><path class="cls-3" d="M2.67,27.73v0l0,0Z"/><path class="cls-3" d="M4,29.07v0H4Z"/><path class="cls-3" d="M102,1.33l0,0s0,0,0,0Z"/><path class="cls-3" d="M171.78,12l0,0h.07Z"/><path class="cls-3" d="M9.31,33.11c.56,0,1-.72,1.58-.14.22-.17.46-.32.67-.51s.35-.13.56,0,.47.16.6.07a8.36,8.36,0,0,0,1-.91s0-.11,0-.16-.32-.16-.39-.12a4.11,4.11,0,0,1-2.55.4c-.38,0-.44-.28-.59-.54a.85.85,0,0,0-.95-.3,6.75,6.75,0,0,1-2.4,1c-.12,0-.22.19-.34.28s-.17.32,0,.46A6,6,0,0,0,9.31,33.11Z"/><path class="cls-3" d="M175.41,11.16l0,0,0,0Z"/><path class="cls-3" d="M178.8,11.65c1.1-.05,2.21,0,3.31-.08.12,0,.24-.13.36-.21a1,1,0,0,0-.17-.14,5.45,5.45,0,0,0-3.91-1c-.45,0-.89,0-1.33,0-.08,0-.16.16-.22.26a.37.37,0,0,0,.16.13l1.29.13c.05,0,.09.09.14.13s-.11.14-.17.14a2.89,2.89,0,0,1-2.29-.33c-.21-.17-.54,0-.56.41a3.74,3.74,0,0,0,.52.28A15.44,15.44,0,0,0,178.8,11.65Z"/><path class="cls-3" d="M178.51,49.66h0l0,0Z"/><path class="cls-3" d="M176.54,49.77a.65.65,0,0,0-.6,0,1.79,1.79,0,0,1-2.06,0,1.69,1.69,0,0,0-.85-.08c-.09,0-.2.18-.26.3a.38.38,0,0,0,.28.49c1.63,0,3.25,0,4.87,0a.71.71,0,0,0,.54-.25,1.25,1.25,0,0,0,0-.62C177.87,50,177.25,50.39,176.54,49.77Z"/><path class="cls-3" d="M36.21,5.26c0-.71-.29-1-.94-.8a3.5,3.5,0,0,0-.56.32.74.74,0,0,1-.62,0c-.42-.13-.61,0-.57.37a3.31,3.31,0,0,0,.78,1.48.46.46,0,0,0,.38-.09,1.49,1.49,0,0,0,.17-.6c0-.31.12-.54.46-.57a.42.42,0,0,0,.58.38A.45.45,0,0,0,36.21,5.26Zm-.84,0,0,.05-.05,0h.08A2.52,2.52,0,0,1,35.49,5s.14,0,.15,0C35.67,5.27,35.52,5.29,35.37,5.31Z"/><path class="cls-3" d="M175.37,11.13s0,0,0,0l0,0Z"/><path class="cls-3" d="M171.83,12l-.05,0,.05.05Z"/><path class="cls-3" d="M173.72,11.88a.91.91,0,0,0,1,0c.3-.17.6-.37.63-.77a.46.46,0,0,1-.41-.35c0-.2,0-.43-.3-.41-.07,0-.11.24-.18.36-.29.5-.54.49-.86,0s-.6-.59-.88-.1c-.15.26-.21.48-.55.56s-.35.5-.35.82C172.44,11.68,173,11.33,173.72,11.88Z"/><path class="cls-3" d="M197.39,25.66a1,1,0,0,0,.56.24,2.91,2.91,0,0,0,.66,0c.33,0,.45-.26.51-.58.11-.6-.55-.85-.55-1.39,0-.19-.16-.17-.32,0-.33.28-.59.66-1.08.72-.2,0-.24.16,0,.44A1.89,1.89,0,0,0,197.39,25.66Z"/><path class="cls-3" d="M5.38,10.33c-.62.37-1.42.27-2,.78-.19.17-.21.38,0,.47l1,.43a1,1,0,0,0,.38-.11c.39-.33.84-.61,1-1.16,0-.07,0-.18,0-.21S5.44,10.29,5.38,10.33Z"/><path class="cls-3" d="M1.86,14.71a.42.42,0,0,0,.29-.5C2.07,14.14,2,14,1.91,14s-.28.36-.55.1a4.51,4.51,0,0,0-.85-.66A.36.36,0,0,0,0,13.7c0,.13,0,.36.06.4a13.69,13.69,0,0,0,1.35.62A.64.64,0,0,0,1.86,14.71Z"/><path class="cls-3" d="M10.9,40.7c0-.06.13-.16.12-.19s-.15-.23-.24-.25a3.75,3.75,0,0,0-.67,0v0a6.59,6.59,0,0,0-.89,0,.45.45,0,0,0-.25.31c0,.12,0,.35.11.38A1.55,1.55,0,0,0,10.9,40.7Z"/><path class="cls-3" d="M20.81,8.55l-.19.1a1.21,1.21,0,0,0-.54.9c0,.24-.52.32-.22.69s.35.58.54.86c0,0,.14,0,.22,0l.26-.22c-.63-.68-.24-1.31.07-2C21,8.84,20.86,8.68,20.81,8.55Z"/><path class="cls-3" d="M38.42,47.85a1,1,0,0,1-.33-.14,1.08,1.08,0,0,0-.76-.31c-.44,0-.52.12-.38.54a5.16,5.16,0,0,1,.17.78H38Z"/><path class="cls-3" d="M149.14,4.07a10.86,10.86,0,0,0-1.71,0c-.06,0-.11.09-.17.13s.11.14.16.15c.56,0,.93.68,1.55.5a3.73,3.73,0,0,0,.16-.35C149.2,4.36,149.51,4.12,149.14,4.07Z"/><path class="cls-3" d="M149,4.87v0l0,0Z"/><path class="cls-3" d="M17.86,14.06a.49.49,0,0,0,.34.07s.1-.1.11-.17a1.13,1.13,0,0,0-.87-1.43C17.39,13.09,17.31,13.67,17.86,14.06Z"/><path class="cls-3" d="M17.44,12.53v0l0,0Z"/><path class="cls-3" d="M1,11.32c-.19.16-.55.26-.4.63a.72.72,0,0,0,.29.31c.47.3.38-.15.45-.36.13-.43.85-.17.86-.73C1.77,11.18,1.33,11,1,11.32Z"/><path class="cls-3" d="M2.18,11.17h0l0,0Z"/><path class="cls-3" d="M186.29,38.52a.53.53,0,0,0-.4,0,4.75,4.75,0,0,0-.68,0,1.43,1.43,0,0,0-.36.2c.12.06.25.18.37.18a1.49,1.49,0,0,1,1,.31.17.17,0,0,0,.3-.12A.71.71,0,0,0,186.29,38.52Z"/><path class="cls-3" d="M193.36,47.61a.42.42,0,0,0,.09.56.47.47,0,0,0,.7-.17c0-.14,0-.28,0-.52L194,47A3.79,3.79,0,0,0,193.36,47.61Z"/><path class="cls-3" d="M.88,28.62v0h0Z"/><path class="cls-3" d="M1.24,28.18c-.2,0-.36.16-.36.41.34,0,.68,0,1,0,.66,0,.68,0,.73-.87C2.16,27.85,1.8,28.29,1.24,28.18Z"/><path class="cls-3" d="M2.63,27.74h0l0,0Z"/><path class="cls-3" d="M9,11.32a.79.79,0,0,0,.5.57.77.77,0,0,0,.59-.48c0-.21-.3-.44-.62-.86C9.31,10.85,9,11.09,9,11.32Z"/><path class="cls-3" d="M183.52,11.54a2.84,2.84,0,0,0,.59-.39c.14-.26.08-.39-.11-.42a1.83,1.83,0,0,0-.66,0,.39.39,0,0,0-.3.5A.35.35,0,0,0,183.52,11.54Z"/><path class="cls-3" d="M191,46v.06l0-.06Z"/><path class="cls-3" d="M190.46,45.23a.4.4,0,0,0-.26.26.39.39,0,0,0,.24.5,2.74,2.74,0,0,0,.58,0,2.13,2.13,0,0,0,0-.57A.41.41,0,0,0,190.46,45.23Z"/><path class="cls-3" d="M12.49,10.29a.42.42,0,1,0,.15.81.38.38,0,0,0,.28-.48C12.87,10.39,12.75,10.23,12.49,10.29Z"/><path class="cls-3" d="M186.17,11.46a2.32,2.32,0,0,0,.09.82s.09,0,.14.06a7.14,7.14,0,0,1,.37-.73c.13-.2.17-.4-.11-.41S186.19,11.34,186.17,11.46Z"/><path class="cls-3" d="M39.34,48a6.43,6.43,0,0,0,0-1H38.9l-.42.88a2.28,2.28,0,0,1,.46.26C39.2,48.31,39.32,48.11,39.34,48Z"/><path class="cls-3" d="M180.9,12.06c-.29,0-.55.19-.42.28a1.65,1.65,0,0,0,.34.13c.35,0,.64,0,.94,0,.07,0,.14-.15.19-.25s-.1-.13-.16-.13A8.81,8.81,0,0,0,180.9,12.06Z"/><path class="cls-3" d="M199.79,24.24c-.08.11-.21.21-.22.32a9.83,9.83,0,0,0,.05,1.09.27.27,0,0,0,.14.16s.13-.06.14-.11a3.54,3.54,0,0,0,.1-.5,4,4,0,0,0,0-.58A3.26,3.26,0,0,0,199.79,24.24Z"/><path class="cls-3" d="M37.17,4.66c-.13.17-.29.32-.44.48l.59.24.6-.23c-.13-.17-.28-.32-.4-.5S37.3,4.48,37.17,4.66Z"/><path class="cls-3" d="M25.5,8.94v0l-.05,0Z"/><path class="cls-3" d="M25.5,8.92a3.7,3.7,0,0,0,.51.29c.38.15.43-.26.63-.41s.11-.27-.1-.28C26.15,8.51,25.64,8.29,25.5,8.92Z"/><path class="cls-3" d="M22.42,10.06s.1.11.16.13a1.07,1.07,0,0,0,1-.63c-.06-.05-.11-.13-.17-.14A1.11,1.11,0,0,0,22.42,10.06Z"/><path class="cls-3" d="M22.74,48.7c.29,0,.41-.12.44-.35a1.15,1.15,0,0,0-.11-.39c-.06,0-.14,0-.18.06s-.22.19-.33.29-.16.25,0,.33Z"/><path class="cls-3" d="M194.21,36.62a.28.28,0,0,0,.15.37c.2.12.6.1.59,0a.71.71,0,0,0-.17-.32.86.86,0,0,0-.34-.26S194.29,36.53,194.21,36.62Z"/><path class="cls-3" d="M12.19,40.55c.1,0,.24-.06.28-.14a1.36,1.36,0,0,0,0-.41.72.72,0,0,0,0-.21,2.67,2.67,0,0,0-.22-.36c-.07.11-.19.22-.21.34a2.22,2.22,0,0,0,0,.63C12.06,40.46,12.16,40.56,12.19,40.55Z"/><path class="cls-3" d="M32.11,47.62s-.09-.09-.14-.14a4.4,4.4,0,0,0-.18.51s.15.11.21.15C32.28,48,32.17,47.81,32.11,47.62Z"/><path class="cls-3" d="M170.77,49c-.08-.08-.16-.21-.24-.21a1.32,1.32,0,0,0-.41.11c.09.08.17.21.26.22A1,1,0,0,0,170.77,49Z"/><path class="cls-3" d="M171.78,49.62l0,0h0v0Z"/><path class="cls-3" d="M172.22,49.08a.25.25,0,0,0-.1-.15c-.1,0-.25.06-.26.12a2.6,2.6,0,0,0,0,.56A.42.42,0,0,0,172.22,49.08Z"/><path class="cls-3" d="M179,49.21c-.34-.08-.49.1-.51.41a4,4,0,0,0,.6,0c.05,0,.15-.12.14-.13S179.13,49.23,179,49.21Z"/><path class="cls-3" d="M178.51,49.63l0,0v0Z"/><path class="cls-3" d="M180,49.46c.12,0,.24.14.35.13s.17-.14.25-.22l-.37-.13Z"/><path class="cls-3" d="M168.13,50a1.35,1.35,0,0,0,.42-.1c-.09-.09-.16-.23-.25-.24a1.1,1.1,0,0,0-.4.13C168,49.88,168.05,50,168.13,50Z"/><path class="cls-3" d="M171.78,49.62a.08.08,0,0,1,0,0h0Z"/><path class="cls-3" d="M171.19,49.69c-.06,0-.1.16-.13.26a.25.25,0,0,0,.16.1c.31,0,.52-.07.55-.39A2.82,2.82,0,0,0,171.19,49.69Z"/><path class="cls-3" d="M47.74,51.27c-.09-.09-.17-.23-.26-.23a1,1,0,0,0-.39.12c.08.08.15.22.24.23A1.35,1.35,0,0,0,47.74,51.27Z"/><path class="cls-3" d="M16.36,51.57c-.09,0-.24.11-.25.19a.41.41,0,0,0,.39.54,5.76,5.76,0,0,0,0-.59C16.49,51.66,16.38,51.56,16.36,51.57Z"/><path class="cls-3" d="M16.5,52.3v.05l.05-.05Z"/><path class="cls-3" d="M99.81.63a2.68,2.68,0,0,0,.52.18s.12-.13.18-.2c-.16-.22-.35-.17-.54-.11A1.83,1.83,0,0,0,99.81.63Z"/><path class="cls-3" d="M102,1.29s0,0,0,0l0,0Z"/><path class="cls-3" d="M101.42.9c-.06,0-.16.08-.15.11s.07.24.13.25a2.66,2.66,0,0,0,.57,0A.43.43,0,0,0,101.42.9Z"/><path class="cls-3" d="M40.6,4.23c-.11-.06-.22-.18-.34-.18a1,1,0,0,0-.37.16c.12.07.23.19.35.19S40.48,4.29,40.6,4.23Z"/><path class="cls-3" d="M44.44,4.28s.09.15.13.14.36-.12.54-.19L44.81,4C44.64,4,44.43,4,44.44,4.28Z"/><path class="cls-3" d="M39.06,5.62a.26.26,0,0,0,.13.14c.19-.06.36-.13.54-.2l-.31-.21C39.24,5.36,39,5.35,39.06,5.62Z"/><path class="cls-3" d="M170.09,8.68a4.56,4.56,0,0,0,.52.18s.1-.16.15-.25l-.35-.13Z"/><path class="cls-3" d="M185.31,11.36c0,.05.09.1.13.15a2.57,2.57,0,0,0,.21-.52s-.17-.12-.23-.16C185.13,11,185.25,11.17,185.31,11.36Z"/><path class="cls-3" d="M196.4,24.64l-.14-.35c-.09.05-.26.12-.25.16a2.51,2.51,0,0,0,.18.5Z"/><path class="cls-3" d="M4.31,31.93c-.16-.25-.36-.16-.55-.09s-.1.08-.16.12a3.46,3.46,0,0,0,.54.19S4.26,32,4.31,31.93Z"/><path class="cls-3" d="M192.91,40c.11.07.21.19.33.2a.44.44,0,0,0,.34-.12c.13-.12-.09-.3-.33-.25A1.2,1.2,0,0,0,192.91,40Z"/><path class="cls-3" d="M73,2c.07.22.18.22.27,0,0,0-.08-.1-.13-.14S73,2,73,2Z"/><path class="cls-3" d="M121.27,2.18h0l0,0Z"/><path class="cls-3" d="M121.56,1.9s-.14,0-.15,0l-.14.3C121.44,2.17,121.6,2.15,121.56,1.9Z"/><path class="cls-3" d="M122.38,2.1l.14-.11-.13-.13-.14.18Z"/><path class="cls-3" d="M86.65,2.35s-.14,0-.15,0-.08.19-.12.28C86.53,2.6,86.69,2.59,86.65,2.35Z"/><path class="cls-3" d="M86.38,2.62h-.07l0,.05A.14.14,0,0,1,86.38,2.62Z"/><path class="cls-3" d="M41.35,4.53c-.05,0-.1.08-.16.13l.16.15.16-.13C41.46,4.62,41.41,4.53,41.35,4.53Z"/><path class="cls-3" d="M44.19,5.09S44.1,5,44.05,5s-.09.08-.14.12l.2.15Z"/><path class="cls-3" d="M153.67,5.26s.1-.09.15-.13-.11-.16-.14-.15C153.45,5.05,153.44,5.16,153.67,5.26Z"/><path class="cls-3" d="M31.19,5.53l-.11-.14L31,5.52l.18.14Z"/><path class="cls-3" d="M156.65,5.56c.08.16.18.19.26.08s0-.08,0-.13-.1-.07-.14-.06S156.64,5.55,156.65,5.56Z"/><path class="cls-3" d="M35.85,6.45c.06.15.15.18.23.08s0-.09,0-.13S36,6.32,36,6.33,35.84,6.43,35.85,6.45Z"/><path class="cls-3" d="M40,6.37c-.08,0-.1.17-.14.28s.24-.05.3-.13S40.08,6.29,40,6.37Z"/><path class="cls-3" d="M39.82,6.65l0,0,0,0S39.82,6.67,39.82,6.65Z"/><path class="cls-3" d="M41.19,6.65h-.08l0,0Z"/><path class="cls-3" d="M41.45,6.39s-.13,0-.14,0-.08.19-.12.28C41.33,6.64,41.47,6.61,41.45,6.39Z"/><path class="cls-3" d="M31.06,8c.18-.09.2-.2.08-.29s-.1,0-.15,0-.08.1-.06.14S31,8,31.06,8Z"/><path class="cls-3" d="M22,8.65l.21.15.07-.14-.14-.15Z"/><path class="cls-3" d="M25.32,9.24c.07-.05.09-.18.12-.28s-.24.06-.29.14S25.2,9.33,25.32,9.24Z"/><path class="cls-3" d="M25.44,9l.06,0-.05,0S25.44,8.93,25.44,9Z"/><path class="cls-3" d="M18.91,9.48s-.07.1-.06.14a.4.4,0,0,0,.12.15c.17-.09.2-.2.08-.29S19,9.48,18.91,9.48Z"/><path class="cls-3" d="M14.45,9.94s-.08.09-.07.11.1.14.12.13c.17-.07.19-.16.08-.23S14.49,9.94,14.45,9.94Z"/><path class="cls-3" d="M2.24,11.13c.16,0,.32,0,.27-.28,0,0-.13,0-.14,0A2.55,2.55,0,0,0,2.24,11.13Z"/><path class="cls-3" d="M2.22,11.17l0,0H2.19Z"/><path class="cls-3" d="M188,11.83s.09.1.13.15l.15-.13C188.2,11.64,188.1,11.63,188,11.83Z"/><path class="cls-3" d="M7.78,12.42s.11-.08.16-.12l-.14-.17-.17.15C7.68,12.33,7.72,12.42,7.78,12.42Z"/><path class="cls-3" d="M3,20.36l-.13-.17c-.06,0-.14.09-.15.15s.08.1.13.15Z"/><path class="cls-3" d="M4.72,20.42c.08,0,.1-.17.14-.28-.11,0-.24.05-.29.13S4.6,20.5,4.72,20.42Z"/><path class="cls-3" d="M4.86,20.14l0,0,0,0A.43.43,0,0,0,4.86,20.14Z"/><path class="cls-3" d="M.83,28.63H.88l0,0Z"/><path class="cls-3" d="M.56,28.9s.13,0,.14,0a2.55,2.55,0,0,0,.13-.29C.67,28.64.52,28.66.56,28.9Z"/><path class="cls-3" d="M4,29.08H4l0,0S4,29.06,4,29.08Z"/><path class="cls-3" d="M3.68,29.35a.39.39,0,0,0,.15,0c0-.1.08-.19.12-.29C3.8,29.09,3.65,29.11,3.68,29.35Z"/><path class="cls-3" d="M182.74,38.78s.09,0,.14-.05V38.6l-.27.06S182.69,38.76,182.74,38.78Z"/><path class="cls-3" d="M21.36,40.44s-.09-.12-.13-.13-.09.08-.14.12l.2.13Z"/><path class="cls-3" d="M33.79,47.05l-.15.2.14.07.14-.13Z"/><path class="cls-3" d="M33,47.64s-.11-.16-.14-.15c-.23.07-.23.18,0,.28C32.88,47.79,33,47.69,33,47.64Z"/><path class="cls-3" d="M35.74,47.81v.06l0,0Z"/><path class="cls-3" d="M35.46,47.53a.39.39,0,0,0,0,.15l.3.13C35.73,47.64,35.71,47.49,35.46,47.53Z"/><path class="cls-3" d="M32.49,48.87s-.09,0-.14,0-.08.1-.07.12.1.15.12.14C32.57,49.05,32.6,49,32.49,48.87Z"/><path class="cls-3" d="M179.54,50.39l.12,0,.13-.11-.12-.13Z"/><path class="cls-3" d="M52.21,50.7s-.1-.07-.13-.06-.15.09-.14.11.18.19.26.08S52.21,50.74,52.21,50.7Z"/><path class="cls-3" d="M160.5,50.68s-.09-.06-.12,0-.14.09-.13.11.16.18.25.07S160.5,50.73,160.5,50.68Z"/><path class="cls-3" d="M10,52.45s-.07.09-.06.12a.49.49,0,0,0,.11.14l.07-.25Z"/><path class="cls-3" d="M12.22,24.25c-.07.05-.1.19-.14.3s.24-.06.3-.14A.11.11,0,0,0,12.22,24.25Z"/><path class="cls-3" d="M12.07,24.6a.43.43,0,0,1,0-.05H12Z"/><path class="cls-3" d="M23,24.23s-.14.1-.13.12.16.19.24.08,0-.09,0-.14S23,24.22,23,24.23Z"/></g></g></g></svg>
