<svg id="Layer_1" data-name="Layer 1" xmlns="http://www.w3.org/2000/svg" xmlns:xlink="http://www.w3.org/1999/xlink" viewBox="0 0 512 512"><defs><style>.cls-1,.cls-5,.cls-6{fill:#fff;}.cls-2{fill:#007bff;}.cls-3{fill:url(#linear-gradient);}.cls-4{fill:url(#linear-gradient-2);}.cls-5{font-size:41.2px;}.cls-5,.cls-6{font-family:PatuaOne-Regular, Patua One;}.cls-6{font-size:39.8px;}</style><linearGradient id="linear-gradient" x1="172.31" y1="236.53" x2="293.66" y2="236.53" gradientUnits="userSpaceOnUse"><stop offset="0" stop-color="#0061ff"/><stop offset="1" stop-color="#60efff"/></linearGradient><linearGradient id="linear-gradient-2" x1="270.61" y1="233.07" x2="321.69" y2="343.14" gradientUnits="userSpaceOnUse"><stop offset="0" stop-color="#f5c900"/><stop offset="1" stop-color="#00ff87"/></linearGradient></defs><circle class="cls-1" cx="256" cy="256" r="256"/><path class="cls-2" d="M256,50C142.23,50,50,142.23,50,256s92.23,206,206,206,206-92.23,206-206S369.77,50,256,50Zm0,347.62A141.62,141.62,0,1,1,397.62,256,141.61,141.61,0,0,1,256,397.62Z"/><path class="cls-3" d="M272.67,292.6c7.79-7,16.64-16.65,17-17a15.08,15.08,0,0,0-22.18-20.45c-.09.1-8.24,9-14.95,15-11.29,10.12-29.33,8.38-38.47.47A32.57,32.57,0,0,1,202.5,248a29.91,29.91,0,0,1,7.78-22c11.66-12.86,33.75-34.05,34-34.26A15.09,15.09,0,0,0,223.44,170c-.93.91-23.1,22.16-35.47,35.84a59.89,59.89,0,0,0-15.55,44.05,62.46,62.46,0,0,0,22,43.58c10.7,9.26,24.62,13.87,38.56,13.87h0C247.37,307.29,261.78,302.36,272.67,292.6Z"/><path class="cls-4" d="M278.17,346.23a15.08,15.08,0,0,0,10.39-4.17c.95-.91,23.1-22.17,35.48-35.84a59.81,59.81,0,0,0,15.53-44.06c-1-16.73-8.81-32.21-22-43.59-21.73-18.8-56.84-18.42-78.27.83-7.81,7-16.64,16.64-17,17a15.08,15.08,0,1,0,22.18,20.44c.07-.09,8.22-9,14.94-15,11.29-10.15,29.33-8.39,38.47-.48A32.49,32.49,0,0,1,309.51,264a29.87,29.87,0,0,1-7.79,21.95c-11.63,12.88-33.74,34.08-34,34.29a15.1,15.1,0,0,0,10.42,26Z"/><text class="cls-5" transform="translate(125.65 165.45) rotate(-49.92)">E</text><text class="cls-5" transform="translate(140.91 147.35) rotate(-41.15)">X</text><text class="cls-5" transform="translate(160.54 130.39) rotate(-32.1)">T</text><text class="cls-5" transform="translate(181.85 117.04) rotate(-22.76)">R</text><text class="cls-5" transform="translate(206.95 106.6) rotate(-12.91)">A</text><text class="cls-5" transform="translate(234.55 100.92) rotate(-5.93)"> </text><text class="cls-5" transform="matrix(1, -0.03, 0.03, 1, 245.76, 99.82)"> </text><text class="cls-5" transform="translate(257.01 99.51) rotate(1.97)"> </text><text class="cls-5" transform="translate(268.01 99.53) rotate(8.63)">P</text><text class="cls-5" transform="translate(291.59 102.95) rotate(17.43)">A</text><text class="cls-5" transform="translate(318.24 111.9) rotate(25.09)">I</text><text class="cls-5" transform="translate(331.69 117.76) rotate(32.93)">N</text><text class="cls-5" transform="translate(356.02 133.87) rotate(42.53)">T</text><text class="cls-5" transform="matrix(0.63, 0.78, -0.78, 0.63, 374.48, 151.02)">S</text><text class="cls-6" transform="translate(74.15 277.11) rotate(84.79) scale(1.08 1)">P</text><text class="cls-6" transform="matrix(0.31, 1.04, -0.96, 0.29, 77.51, 308.43)">R</text><text class="cls-6" transform="matrix(0.51, 0.95, -0.88, 0.47, 87.26, 339.07)">O</text><text class="cls-6" transform="matrix(0.69, 0.83, -0.77, 0.64, 103.4, 367.9)">D</text><text class="cls-6" transform="matrix(0.83, 0.69, -0.64, 0.77, 124.55, 392.75)">U</text><text class="cls-6" transform="translate(149.66 413.01) rotate(30.18) scale(1.08 1)">C</text><text class="cls-6" transform="translate(175.2 427.43) rotate(21.15) scale(1.08 1)">T</text><text class="cls-6" transform="translate(202.84 437.67) rotate(12.54) scale(1.08 1)">S</text><text class="cls-6" transform="translate(229.51 443.02) rotate(6.49) scale(1.08 1)"> </text><text class="cls-6" transform="translate(242.61 444.39) rotate(2.65) scale(1.08 1)"> </text><text class="cls-6" transform="translate(255.81 444.89) rotate(-1.15) scale(1.08 1)"> </text><text class="cls-6" transform="matrix(1.07, -0.18, 0.17, 0.99, 270.24, 445.34)">M</text><text class="cls-6" transform="translate(313.86 436.83) rotate(-21.25) scale(1.08 1)">A</text><text class="cls-6" transform="translate(344.38 424.55) rotate(-31.54) scale(1.08 1)">N</text><text class="cls-6" transform="matrix(0.81, -0.71, 0.66, 0.75, 373.03, 406.16)">F</text><text class="cls-6" transform="matrix(0.74, -0.79, 0.73, 0.68, 391.1, 389.77)">.</text><text class="cls-6" transform="matrix(0.67, -0.85, 0.79, 0.62, 400.5, 379.38)"> </text><text class="cls-6" transform="matrix(0.6, -0.9, 0.83, 0.56, 408.66, 368.8)"> </text><text class="cls-6" transform="translate(415.97 357.59) rotate(-60.89) scale(1.08 1)"> </text><text class="cls-6" transform="translate(422.85 345.44) rotate(-67.89) scale(1.08 1)">L</text><text class="cls-6" transform="matrix(0.25, -1.05, 0.97, 0.23, 431.58, 323.99)">T</text><text class="cls-6" transform="translate(438.09 294.51) rotate(-88.2) scale(1.08 1)">D</text></svg>