<svg xmlns="http://www.w3.org/2000/svg" viewBox="0 0 260 60"><defs><style>.cls-1{isolation:isolate;}.cls-2{mix-blend-mode:multiply;}.cls-3{fill:#f3f4f6;}</style></defs><g class="cls-1"><g id="Layer_2" data-name="Layer 2"><g id="Layer_1-2" data-name="Layer 1"><g class="cls-2"><path class="cls-3" d="M18.2,55.9a1.24,1.24,0,0,0-.95.43c-.26.29-.53.61-.33,1s.48.84.93.88A1.57,1.57,0,0,0,19,57.05C19.19,56.33,18.86,55.89,18.2,55.9Z"/><path class="cls-3" d="M22.21,53.52v0h-.8c-.65,0-1,.71-.66,1.46a1.66,1.66,0,0,0,.16.21c.06-.07.16-.12.18-.21.13-.46.24-.91.82-.89A6.26,6.26,0,0,0,23,54c.09,0,.17-.22.25-.34s-.14-.16-.22-.17C22.74,53.5,22.47,53.52,22.21,53.52Z"/><path class="cls-3" d="M20.76,59.74l.42.26.46-.23c-.14-.1-.29-.26-.43-.26S20.91,59.65,20.76,59.74Z"/><path class="cls-3" d="M2.29,41.34l.19-.17c-.06-.06-.11-.17-.17-.18s-.16.1-.17.16S2.24,41.28,2.29,41.34Z"/><path class="cls-3" d="M12,49.5l.23.19.08-.17-.15-.19Z"/><path class="cls-3" d="M3.71,50.42a.48.48,0,0,0,.47-.52A.46.46,0,0,0,3.71,50.42Z"/><path class="cls-3" d="M4.18,49.9l.07,0,0,0s0,0-.08,0S4.18,49.87,4.18,49.9Z"/><path class="cls-3" d="M3.3,50.85s.15,0,.16,0,.11-.26.16-.39C3.42,50.5,3.25,50.53,3.3,50.85Z"/><path class="cls-3" d="M3.62,50.49H3.7s0,0,0-.06H3.65Z"/><path class="cls-3" d="M1.6,51.37a.28.28,0,0,0,.16.18c.05,0,.12-.1.18-.16l-.16-.22C1.71,51.24,1.61,51.29,1.6,51.37Z"/><path class="cls-3" d="M15.28,53.71l.23.18.09-.16-.15-.19Z"/><path class="cls-3" d="M24.22,54.17c-.28.1-.29.25,0,.38,0,0,.13-.12.19-.19S24.25,54.16,24.22,54.17Z"/><path class="cls-3" d="M25.85,54.17c-.06,0-.13.11-.19.17l.17.21.21-.19C26,54.29,25.92,54.18,25.85,54.17Z"/><path class="cls-3" d="M20.29,56.63c0,.06-.08.13-.07.17s.12.2.14.19c.2-.11.23-.24.1-.35S20.35,56.63,20.29,56.63Z"/><path class="cls-3" d="M24.19,56.56c-.05,0-.18.13-.17.16.09.29.23.3.35,0C24.38,56.72,24.26,56.62,24.19,56.56Z"/><path class="cls-3" d="M200.58,43.4l-2.56.5c1.84,1.27.25,3.17,5.28,4.12,2.13.27,4.49-1.22,4.82-1.44C209.13,45.24,204,44.07,200.58,43.4Z"/><path class="cls-3" d="M209.12,42.15l.36-1.75L208.1,42C208.57,42,208.65,42.17,209.12,42.15Z"/><path class="cls-3" d="M190,43.29l2.67.71c.07.21-1.28.5-.73.68l2.38-.13C193.53,42.44,193.57,43.94,190,43.29Z"/><path class="cls-3" d="M180.32,44.91c.92-1.55,6.11-.55,5.6-2a3.31,3.31,0,0,0-.76-1.4c.3-.66-1.36-1.23-3.47-1.63.29-.36.15-.76-1.1-1.18a4.17,4.17,0,0,0-1.83.31c-.34.13-.61.24-.82.34-.85-.08-1.62-.13-2.21-.15.88-1.57,6.05-.7,5.52-2.16a2.81,2.81,0,0,0-1.09-1.63l-2.6.85c-6.51-.55,2.69-1.94-1.69-3.3a4,4,0,0,0-1.81.36c-2.13.82-1.51,1.2-.26,2-6,.27-4-3.7-7-3.91,0-.15.43-.13.77-.15-.09-.15.44-.19.49-.09.05-.08.16-.14.42-.13.32.17-.16.19-.17.26.19,0,.59,0,.65-.07-.45,0,.35-.07,0-.21-.15,0-.05.09-.27.12-.06-.13.07-.19.25-.22s.3.26.35.3.52.07.72-.1c-.34.11-.87,0-.7-.18s.13.13.25.13.66-.14.53.08c.3-.06.25-.14.1-.25.34,0,.32.1.18.17.19,0,.16.06.3.06s-.15-.2,0-.29.16.09.25.13a2.82,2.82,0,0,1,.71-.13c.18.23.45,0,.77.18,0-.09-.16-.11,0-.15s.1.13.25.13c0-.08,0-.17.11-.18,0,0,0,0,.08,0s-.18,0-.13.12a2.55,2.55,0,0,1,1.71.06c.08-.15.51-.11.72-.06-.08-.11.1-.12.12-.19-.35.05-.19-.09-.18-.17-.27,0-.38,0-.67,0,0,.11-.24.1-.34.16s-.21-.12-.32-.17-.52.14-.57.1.53,0,.41-.16c-.32.08-.32,0-.09-.1a11,11,0,0,0-1.68.07c-.05-.08.15-.16,0-.22-.09.2-.61,0-1,0,.11,0,.27,0,.29,0s-.21,0-.32-.1c.12,0,0-.06-.08-.07s0,.14-.11.22c-.63,0-1.62-.05-1.91-.38.32.1.58-.11,1,0-.05-.08.12-.08,0-.18-.46,0-.76,0-1.27-.09.07-.05.06-.09-.09-.1,0,0,0,.09-.14.08.08-.06.07-.09-.09-.11.05.07-.31.13-.36.06.43,0,0-.23.32-.3s.22.2.39.12c-.1,0,0-.11-.17-.13.11,0,.36-.16.5-.06-.14.08,0,.19.19.21-.19-.12-.11-.22,0-.29.33,0,.74-.07.82.07-.1,0-.12.08-.12.15.27,0,0-.12.2-.12s.27,0,.28,0c-.16-.08-.3.07-.37-.06.25,0,.27-.06.5-.06,0,.11.18.11.18.21-.22,0-.06.14,0,.15s.51-.05.2-.12c0,0-.12.05-.15,0,.12,0,0-.1.13-.12s.3,0,.38.09-.2,0-.21.08c.2.12.62-.29.74,0-.1,0-.38,0-.36.05.26.1.51,0,.82.07,0-.08,0-.13.13-.15s.31.13.45.05c.17.07,0,.12.1.18,0-.1.42-.1.42-.13s-.17,0-.16-.06.19,0,.44,0c0-.14-.32-.05-.39-.13.43,0,.05-.11.05-.11.15-.14.42,0,.47.13-.11-.14.17-.26-.13-.28-.07.15-.28-.06-.49.09,0-.08,0-.13-.18-.14s.15.15-.11.19c-.61,0-.24-.36.24-.34-.2-.06-.17,0-.45,0,.22-.13-.15-.08-.24-.13.17-.09.74,0,.78-.15a7.07,7.07,0,0,1-1.1,0,.59.59,0,0,1,.28-.11v0l2.27.06-.05,0c.09,0,.17,0,.16.06.17,0,.36-.09.38.05-.36,0,.11,0,0,.18.11,0,.27,0,.28-.05-.44,0,.4-.09.05-.14,0,.09-.28,0-.23-.06.38,0,.5.13.83.14,0-.07.06-.11.15-.13l1.32.09s.06,0,.08,0l2,.16c-.09,0-.22.05-.19.13a1.45,1.45,0,0,0,.38-.11l.69.07,1.11-.14a.18.18,0,0,0,.1.15c.08,0,.21,0,.21-.05s-.19-.07-.28-.11c.53-.07,1-.15,1.36-.23h0s0,0,0,0l.2-.05h.06c.84-.22,1.28-.45,1.41-.71h.22c0-.05.1-.07.12-.11l-.3,0c.08-.27-.17-.55-.64-.82.63,0,1.3-.06,1.83,0,0,.08.16.1,0,.17a1.61,1.61,0,0,1,.95-.07c0-.1.16-.11.34-.13,0,0-.08.06,0,.11a.52.52,0,0,0,.21,0s0,0-.06.07c.2-.06.39.08.44,0a.7.7,0,0,1-.23-.06c.14,0,.15,0,.28-.05-.08.14.22.06.18.18a1,1,0,0,1,.73-.07c0-.08,0-.14.12-.15-.18.17.53.12.67,0s0,.08-.06.11a4.14,4.14,0,0,1,1.33.05c-.07-.16.45-.12.65-.1a.29.29,0,0,1-.13.11c.1-.1-.33-.08-.3,0,.41,0,.29.11.4.16.19-.2.26-.12.08-.36-.21,0-.84.1-.74,0,.06.1.1-.06.21,0a5.66,5.66,0,0,1,.59,0c0-.07.09-.08.13-.11-.14,0-.07-.12-.24-.1,0,.21-.67,0-1,.15,0,.18-1.07.22-1.38.09a5.14,5.14,0,0,0,.65-.06c-.12,0-.06-.1-.17-.1s-.49,0-.41.13c-.16-.1-.38,0-.53,0,.11.1-.21.19-.27.12s.14,0,.14,0c-.8-.21-1.67.15-2.38-.12-.17.06.1.18,0,.19-.37-.19-1,.09-1.56-.12,0,.05,0,.11-.06.11a1.09,1.09,0,0,0-.51,0l-.4-.21c.25,0,.5.13.66,0-.05-.1-.5-.12-.7,0a33.52,33.52,0,0,0-8-2,.66.66,0,0,1,.14-.15l.35.05c0-.11-.23-.06-.3-.11l.07-.06.34,0c0,.08,0,.14.17.14-.12-.34,1.28-.09,1.63-.36,0,.06-.09.1-.12.15.14,0,.15,0,.23.06s-.15-.1.05-.14.18,0,.09.06c.3,0,.1-.17.41-.16,0,.23.39,0,.46.12.16-.15.36,0,.66,0,.09-.16-.38,0-.38-.09s0-.07.13-.08c-.1-.09-.16-.2-.34-.24,0,.24-.23,0-.42.09.05,0,0-.06,0-.08,1.43-.05,2.74-.05,2.51-.84a.19.19,0,0,0,0-.07.79.79,0,0,1,.22.05c0-.09-.14-.06,0-.14l-.22,0-.05-.17c.12,0,.22-.05.22-.12l-.25.05a2.93,2.93,0,0,0-.38-.82l.14.08c.12,0,.3,0,.35-.09-.25,0-.29-.13-.57-.11a2.13,2.13,0,0,0-.34-.33,12.37,12.37,0,0,1,2,0c-.15,0-.05-.16-.18-.18a1,1,0,0,1-.88,0,11.14,11.14,0,0,1-1.74.14c-.06-.19-.73-.21-.65-.36-.2,0-.57.07-.67,0,.21,0,.19-.12.34-.15a2.06,2.06,0,0,0-.59-.05c0-.09.12-.12-.1-.14a5.73,5.73,0,0,1-1.84-.07l.31-.16a2.78,2.78,0,0,0,.45,0c-.29-.06.35,0,.28-.09s-.21-.21,0-.24.27.07.25.2c.19,0,.38,0,.35-.12-.41.08-.11-.19-.25-.17a.29.29,0,0,1-.2.11c0-.06-.07-.08-.14-.08a.93.93,0,0,0,.26-.27,1.76,1.76,0,0,1,.52-.14.15.15,0,0,0-.09-.14c.65-.08,1.33-.3,1.67-.11.24,0,.69,0,.8-.07-.26,0-.3-.19-.47-.15a1.82,1.82,0,0,0,.54-.24c.1.1.53,0,.68.07s-.35,0-.28.09c.8.21,2.11,0,2.9.16-.15.11-.66-.08-.72.1.29.07.66,0,1.05.1.07.13-.09.16-.34.16,0-.21-1-.07-.72-.33a1.72,1.72,0,0,1-1,0c-.14,0,0,.14-.27.12,0-.07.08-.08.12-.12-.36.18-1.74.09-2.23.28a.19.19,0,0,0-.17-.13c0,.08-.22.1-.26.19.27,0,.25.06.38.09s.36-.14.44-.06-.21.05-.2.12.14,0,.15,0-.15,0-.14,0c.33,0,.7-.25.94-.08-.28,0-.12.13-.27.16a2.5,2.5,0,0,0-1,.11c.45,0,.4.18.7.22-.27.06-.16-.09-.38-.05,0,.21.21.27.43.34-.2,0-.13.07-.2.11.2.05.6,0,.39.16.23,0,.56-.06.6.05-.13.08-.61,0-.56.17,1.21-.48,1.86.46,3,.11-.07.17.19.15.33.2a1.38,1.38,0,0,1-.46.34c-.15-.06-.18,0-.36,0s0-.14-.24-.13a.15.15,0,0,0,.09.14,8.9,8.9,0,0,1-1,0c-.1.12-.3.13-.17.25.49-.06.7.07,1.15-.12-.16.08.28.37.4.16-.11,0-.27,0-.3,0s0-.13.05-.14c.3,0,.49-.13.52,0-.1,0-.28,0-.28.05.26,0,0,.07.23.1a1.54,1.54,0,0,1,.95,0,.36.36,0,0,1,0,.1c-.34-.06-.48.26-.35.09a.74.74,0,0,0,.82-.36c.2,0,.09.13.24.14,0-.17.37-.18.54-.28-.11,0-.26-.12-.09-.14a15.15,15.15,0,0,1,1.7.07c-.05.07-.22.12,0,.14,0-.24.63.05.79-.07s-.3,0-.25-.16c.37,0,.23-.17.48-.2a4,4,0,0,0,1.54,0c-.14-.11-.4.06-.53-.08.11-.07,0-.22.17-.29a1.48,1.48,0,0,0,.65-.1c-.29,0-.39-.07-.1-.14-.62,0-1,.1-1.61.07a.15.15,0,0,1-.12.15c-.06-.06-.35,0-.38-.06s.44-.06.41-.19c-.22,0-.86.15-.82,0l-.36,0c.07.24-.91.15-.67-.05-.35,0-.88.07-.91-.13a2.56,2.56,0,0,0,1.16-.09c-.14,0-.15-.1-.38-.06.07.1-.13.08-.2.12s-.32,0-.38-.09-.14-.11-.18-.17a2.79,2.79,0,0,1,1,0c0-.13-.43,0-.47-.12s.2,0,.21-.08-.52,0-.6,0c.17-.06.49-.05.49-.17a4.4,4.4,0,0,1,.69.15c-.17-.12.34-.16.37-.37-.33.14-.81.33-1.16.08a2.58,2.58,0,0,1-1.18,0,.75.75,0,0,0,.41-.19c-.18-.15-.56.12-.81,0,.09,0,.17,0,.14-.08-.22,0-.24.08-.35.13s-.39-.16-.19-.25c.93.11,1.71,0,2.67.14-.56.09-1.22-.16-1.45.1.33-.11.49.09.65-.07.32.05.39.21.68.12-.25,0-.09-.09,0-.11l.53,0c0-.19.68-.12.68-.32a4.09,4.09,0,0,1-2.09-.12c-.19.06.16.14,0,.18a.48.48,0,0,1-.24-.1c.19-.18-.06-.13-.27-.31.4-.07.27.16.54.16s.44-.19.57-.13-.12,0-.14.07.2.05.31.06c0-.08,0-.13.12-.15.08.18.26.3.64.3,0-.06-.12-.09,0-.11.26.07.68.05.91.14.12-.12.33,0,.57-.1,0,.17.65,0,.68.12,0,0,.06-.05.14,0,0-.36-1-.08-1.22-.27.41,0,.26-.09,0-.11.55-.2,1.23.24,1.26,0,.18,0,.69.18.6.09-.35-.05-.07,0-.11-.18s-.44.1-.59,0c0,0,.53,0,.28-.08s-.3,0-.5.09-.13-.13-.25-.17.05.18-.19.15c-.17-.37-1.09-.12-1.52-.29a24.57,24.57,0,0,1,2.7-.11c-.08,0-.1-.06,0-.08h.22a.17.17,0,0,0,.1.18c.27-.09.33.07.6.08A10.39,10.39,0,0,1,193,18a6,6,0,0,1,2,.13c0-.06,0-.13.05-.15.37.05,1.49.12,1.49.12s-.08-.14,0-.15.19.13.32.17c.34-.24.86.11,1.32-.06-.12-.17-.34,0-.3,0a1,1,0,0,1-.37-.05c.31,0,0-.06,0-.11a.33.33,0,0,1,.29,0c0-.28-.78,0-1.1,0s-.23-.26-.63-.22c0,.07.11.06.16.1a1.61,1.61,0,0,1-1,0c.25,0,0-.15-.17-.13s-.26,0-.49.13c.17-.18-.45,0-.19-.21-.38,0-.11.11-.34.16-.21-.14,0,0-.28.05-.06-.08-.24-.06-.1-.14a6.5,6.5,0,0,1-.95,0c-.07,0-.1.11-.2.15a4.77,4.77,0,0,0-1,0c0-.27-1.1-.21-1.47-.4,0,.05,0,.1,0,.11s-.2-.2-.39-.09c0,.13.31,0,.25.17a5.77,5.77,0,0,1-1.45.1c.25,0,.39-.14.27-.16a1.32,1.32,0,0,1-.56.17c.06-.05,0-.13.11-.18-.4,0-.8.08-1.09,0,0,0,.07-.06.13-.08.51-.06,1.35.08,1.6-.11-.52.08-1.19-.08-1.83.05,0-.2-1,.1-1.2-.13a7.37,7.37,0,0,1-2.66,0c.06,0,.08,0,.06-.07a1,1,0,0,0-.42.09c.09,0,.17,0,.16.06-.51,0-.66,0-1,0,0-.05.09-.09.12-.15-.43.07-.46-.1-.89,0,.06.1.26.09,0,.18,0-.1-.22-.08-.31-.13s.15.14-.12.18a7.45,7.45,0,0,0-.94.08c0-.14-.46-.11-.26-.24-.46,0-.58-.08-.8.07.09-.11-.18-.13,0-.25-.14,0-.16.05-.29.05.05.08.2.18,0,.21a7.13,7.13,0,0,0-2.35.07.12.12,0,0,1,.05-.14H176c.06.09,0,.13-.2.12.15-.16-.17-.06-.19-.21a2.92,2.92,0,0,1,1,.06c.14-.21,1.11-.16,1.25-.05a3.46,3.46,0,0,0-1.71-.11,8.31,8.31,0,0,0-1.44-.18c.07.09-.14.07-.2.11s.15.1.11.21c.29,0,.13-.1.36-.08-.08.17.32.07.26.23-.35,0-.86-.15-.95.05h-.36c.06-.05,0-.13.11-.18-.42,0,.1.18-.33.19-.15-.06-.18-.14-.3,0-.25-.11.12-.2-.05-.25,0,.06-.49.08-.51,0s0-.13.12-.15c-.08.19.44,0,.66,0s.12.14.25.16c0-.17.4,0,.51,0-.1-.23-.51-.16-.69-.18,0-.11.25,0,.34-.16-.3,0-.59.15-.74,0,0,.09-.52,0-.34.15s.35-.11.44,0c-.26.17-.47,0-.74,0-.07.11.24,0,.17.13s-.08,0-.14,0a1.48,1.48,0,0,1-.76-.14c-.21,0,.12.05.09.1a.38.38,0,0,0-.21.05c-.12,0-.25-.05-.25-.14s.28,0,.19-.15a1.06,1.06,0,0,1-.59,0c-.14,0-.1.16-.34.16s-.16-.09-.31-.09a1.78,1.78,0,0,1-.87,0c-.07.08-.23.11-.34.16.36,0,.51-.06.67,0a.69.69,0,0,0-.21.09,2,2,0,0,0,.35-.09c0,.22.46,0,.53.08s-.09.07,0,.15a2,2,0,0,1,1.33,0c-.11-.21.77-.08.46.09.38,0,.11-.11.34-.16,0,.07.17.08.18.17a2.78,2.78,0,0,1-1.71-.07c-.45.12-.65.05-.93.12l0-.11c0,.1-.81.06-.56.17a.8.8,0,0,1,.67,0c-.46,0-.72,0-1.18,0,.09-.12,0-.1-.17-.17,0,.11-.1.15-.21.14a2.32,2.32,0,0,0-2.2-1.72c-2.22.12-2.77.8-2.87,1.57a3.24,3.24,0,0,1-.92,0,6.42,6.42,0,0,1-1.2.12c-2.82-1.67-8.38-3.05-13.21-3.4a36.27,36.27,0,0,1-8.45-.37c.2,0,.5-.12.57-.3s.46-.25.82-.23a4.43,4.43,0,0,1,.51.06c.8.12,1,.14,1.18-.17s.68-.18,1-.25c.53-.11,1.48-.12,1.33-.7,0-.1.23-.24.39-.34s.18-.28,0-.39c-.45-.29-.91-.58-1.41-.84a2,2,0,0,0-.69-.17c-.52,0-1-.06-1.57-.09-.38-.38-1.14.11-1.56-.2a9,9,0,0,1-2.66-.2,10.88,10.88,0,0,0-1.44-.27c-.52,0-1.06-.08-1.57,0s-.87-.31-1.4-.2c-.23,0-.44.14-.55-.06s.19-.33.61-.33c.62,0,1.23,0,1.85,0a1.15,1.15,0,0,0,.48-.06c.21-.14-.14-.22-.19-.33s-.08-.48-.27-.67-.4-.43,0-.63.21-.49.72-.53a2,2,0,0,1,.94.09c.18.14-.22.14-.43.18a1.28,1.28,0,0,0-.28.16,12.1,12.1,0,0,0,1.6.41c.67.09,1.39.07,2.09.1a.88.88,0,0,1,.2.09c-.1,0-.19.15-.3.15-.52,0-1.05,0-1.57,0-.31,0-.55.06-.61.19s-.2.47.12.52c.58.11.9.48,1.56.44a7.43,7.43,0,0,1,1.95.32,7.27,7.27,0,0,1,2.25.27.3.3,0,0,0,.17-.05c.06-.09.16-.2.11-.26a1.21,1.21,0,0,0-.49-.33,14.71,14.71,0,0,0-2.81-.28c-.09,0-.2-.1-.27-.17a.12.12,0,0,1,0-.14l.61-.6c.13-.12.32-.13.36,0,.11.33.4.5,1,.46.94,0,1.7.06,1.94.64a13.07,13.07,0,0,0,3.12.89,1.08,1.08,0,0,0,.48-.05.3.3,0,0,0,.19-.23.28.28,0,0,0-.18-.25c-.39-.18-.81-.33-1.22-.49,0-.41-.67-.37-1-.54a8.27,8.27,0,0,1-1-.41c-.19-.14-.17-.39-.63-.2s-1.21,0-1.74.25c-.25.12-.3-.11-.36-.23s0-.11-.09-.12c-.4-.08-.82-.13-1.2-.23s-.12-.48-.74-.5a6.31,6.31,0,0,1-.76-.08.88.88,0,0,1-.2-.09,1,1,0,0,1,.21-.09,9.22,9.22,0,0,1,2.79.14A5.63,5.63,0,0,0,143.2,7a12.81,12.81,0,0,1,3,.31,7.17,7.17,0,0,0,1.81,0,.35.35,0,0,0,.25-.21c0-.08-.08-.24-.14-.24a7,7,0,0,1-1.84-.37c-.09.17-.3.26-.66.2s-.39-.13-.38-.29a1,1,0,0,0,0-.24l-1,0s0-.1-.06-.11a2.16,2.16,0,0,0-2.08.15c-.14.09-.24.16-.36.09a4.14,4.14,0,0,0-2-.57.8.8,0,0,1-.53-.3c-.22-.44-.76-.56-1.53-.55s-1.4,0-2.1-.06a1,1,0,0,0-.78.27c-.49.47-.53.4-1.72.29a13.63,13.63,0,0,1-2-.53,1.33,1.33,0,0,0-.92,0,.62.62,0,0,1-.63,0,1.78,1.78,0,0,0-1-.41c-.08.22.05.5-.59.55-.07.06-.12.18-.21.18-.27,0-.29-.09-.33-.19-.28,0-.46.07-.52.22s.09.29.34.32c.42,0,.87,0,1.3.06.11,0,.2.11.29.17a.5.5,0,0,1-.2.08c-1,0-1.92,0-2.87-.06a8.76,8.76,0,0,0-3,.3c-.2.06-.38.23-.67.07a1.52,1.52,0,0,0-1.38.05,3.72,3.72,0,0,0-1.7-.27l-3.41-.1a4.39,4.39,0,0,1-1.25-.12,5,5,0,0,0-1.74-.21L103,5.17c-.65,0-.65,0-.81-.54a.79.79,0,0,0-.17-.25,2,2,0,0,0-.35.12,2.46,2.46,0,0,1-1.93.22.06.06,0,0,1,0-.09.54.54,0,0,1,.21-.08c.81,0,1.35,0,1.29-.6,0-.19.35-.4.55-.61s.42-.09.59,0,.32.09.39,0a1.78,1.78,0,0,0,.07-.39,10.75,10.75,0,0,0-3.71.17A2.4,2.4,0,0,1,97.84,3a10.06,10.06,0,0,0-1.65-.34c-.1,0-.14-.12-.2-.2-.32,0-.68-.1-1,.06s-1,.39-1.2.73a2,2,0,0,1-.26.23,3.49,3.49,0,0,0-.32-.35A.83.83,0,0,0,92.37,3a1.18,1.18,0,0,1-.43.11c-.42-.14-1-.27-1.17-.48s-.35-.31-.81-.12-.2.57-.87.6a.26.26,0,0,1-.07.11c-.54.44-1.19-.35-1.74.05A2.32,2.32,0,0,1,87,3.15c-.09-.08-.1-.24-.19-.25-1.08-.14-2-.5-3-.71a.53.53,0,0,0-.24,0c-.15,0-.1.11.05.21a.22.22,0,0,1,.06.21,7,7,0,0,1-2.28,0c-.33-.06-.12,0,0-.09.34-.3.23-.39-.37-.4a7.25,7.25,0,0,0-1,0c-.39,0-.77.4-1.13.18-.55-.33-.91.06-1.35,0s-.66-.1-1-.15a1.4,1.4,0,0,0-.41,0A1.49,1.49,0,0,1,74.73,2a1.85,1.85,0,0,0-.73-.1C73,2,71.91,1.7,71,2.1a1.08,1.08,0,0,1-.5,0,5.91,5.91,0,0,1-.9-.26,3.92,3.92,0,0,0-2.67-.16,1.4,1.4,0,0,1-.49.08A23.18,23.18,0,0,0,62.56,2a3.29,3.29,0,0,0-1.91.49,3.94,3.94,0,0,1-1.25-.08c-.47-.24-1,.06-1.35-.11a3.3,3.3,0,0,0-1.5-.15c-.7,0-1.08-.27-1.66-.34a2.26,2.26,0,0,0-.52,0c-.46.05-.9.3-1.36,0-.47.27-1.17.12-1.72.26a8,8,0,0,0-2.51.65c-.09.07-.41-.25-.82-.08s-.49.47-1,.25S46.21,3,45.81,3c-.15,0-.36-.06-.41-.13a.18.18,0,0,1,0-.26,1.36,1.36,0,0,1,.43-.14l.45-.13A1.09,1.09,0,0,0,46,2.15c-.43,0-.87,0-1.31,0a13.7,13.7,0,0,0-1.57,0,8.13,8.13,0,0,1-1.21.23c-.52,0-1,0-1.56,0a1.13,1.13,0,0,0-.41.16,1.07,1.07,0,0,0-.25.21.82.82,0,0,0,.21.08,16.93,16.93,0,0,0,3.57-.19c.28,0,.46-.33.83-.07.16.11-.23.25-.8.43A3.76,3.76,0,0,1,42,3.18a16.76,16.76,0,0,0-3.28.27.36.36,0,0,0-.25.21c0,.08.09.17.17.24a1.09,1.09,0,0,0,.23.06l.43.14a1.55,1.55,0,0,1-.36.13c-.35,0-.71,0-1.05,0A3.5,3.5,0,0,1,36,3.9a2.25,2.25,0,0,0-1.11-.32,18,18,0,0,0-3.25.33,17.45,17.45,0,0,1-3.5.37,6.92,6.92,0,0,0-3.37.53,1.68,1.68,0,0,1-.92.22,2,2,0,0,1-.68-.12c0-.16.28-.15.5-.18s.15-.1.23-.16L22,4.27l-.52.31.45.13.43.14-.34.22a2.27,2.27,0,0,1-1.21.17,14,14,0,0,0-3.09.66c-.26.49-1.12.71-1.71,1s-.74.52-.68.87,0,.77-1.06.73a18.26,18.26,0,0,0-3,1.05.2.2,0,0,0-.09.22s.12.07.2.07c.43,0,.9,0,1.3.06a1.23,1.23,0,0,1,.88.49c.08.14-.33.44-.71.56a1.25,1.25,0,0,1-.93-.11,1,1,0,0,0-.92,0,2.88,2.88,0,0,1-.81.35c-.88.07-.73.29-.5.62.08.11-.45.39-.36.46.56.39.27.82.31,1.23a1,1,0,0,0,.25.68c.37.37.4.73-.62.84a.39.39,0,0,0-.27.22,6,6,0,0,0-.09.71c0,.28.19.43.71.49.26,0,.24.09.09.19s-.38.3-.3.36c.4.31,0,.57-.08.85s-.4.44-.44.63.28.5.52.73.24.64.19,1c0,0-.28.14-.3.13-.48-.23-.68-.16-.75.17s.15,1-.44,1.38c-.15.11.34.67.75.77.77.18.56.39.23.64,0,0-.15.1-.13.11a.81.81,0,0,1,.43.7,1.11,1.11,0,0,1-.62-.16,2.2,2.2,0,0,0-.71-.37c-.5-.08-.47.46-.65.77a10.61,10.61,0,0,1-.9,1.13c-.35.43-.69.36-1.19.15-.73-.31-1.44.51-2.24.3-.12,0-.31.16-.44.28a.33.33,0,0,0,0,.28c.05.17.12.46.22.48.88.15,1.79.43,2.6-.28.35-.31.64-.11,1,.11s.65.3.73.21a1.19,1.19,0,0,1,1-.45.41.41,0,0,0,.27.42c.78.39.84.86.62,1.32-.66,0-1.32,0-2,0-.41,0-.64.32-.91.59s-.2.35,0,.5a2.91,2.91,0,0,0,.86.66A3.62,3.62,0,0,0,8,30a1.51,1.51,0,0,1,.8.08c.3.2.68.51.72.83s-.4.73-.68.78a15.47,15.47,0,0,1-2.16.11c-.51,0-.74.26-.9.85s-1,1.07-1.17,1.95c-.11.61-.14,1,.41,1.29s.83.29,1.24.44c.07,1.06.79.83,1.41.89s.81-.33,1.21-.53.79.37,1.22.46a.67.67,0,0,0,.51-.12,1.9,1.9,0,0,1,1.27-.41c1.88,0,3.79.23,5.63-.51a.57.57,0,0,1,.26,0,.78.78,0,0,1-.28.2l-.12.08a12,12,0,0,0-2.16.43l-.06,0a1.82,1.82,0,0,0-.45.1l.11,0a8.7,8.7,0,0,0-1.33.59,3.15,3.15,0,0,0,.55,1.18,10.54,10.54,0,0,0-3.16,1l-.21,0c-.34.1-.64.33-1,.45S9,39.53,8.51,40s-.59-.29-.92-.31a5.47,5.47,0,0,0-.81,0c-.08,0-.15.11-.22.17A4.64,4.64,0,0,1,5,41c-.16,0-.1.28.13.39s.59,0,.53.4a1.2,1.2,0,0,1-.52.62c-.62-.41-1.28.4-1.67.11-.83-.62-1.2-.12-1.39.54s-.46.77-1,.75a3.13,3.13,0,0,0-.81,0c-.12,0-.23.21-.31.35s.07.19.14.24c.38.25.79.45,1.15.73.71.52,1.73.68,1.9,1.9,0,.16.42.27.66.37s.64.08.72.26a2,2,0,0,1,.14,1.11,4,4,0,0,1-.44,1c.53.14.76.74,1.2,1s1.24.13,1.77.65c.28.26.71.13.8-.4a.68.68,0,0,1,.77-.64c.82,0,1.4-.88,2.27-.72a.79.79,0,0,0,.2-.47.69.69,0,0,0-.21-.49c-.29-.22-.64-.35-.93-.57a1.3,1.3,0,0,1-.46-1c0-.42.18-.91.47-.92.54,0,1.09,0,1.63,0s.72.4.49,1c-.32.86-.32.85.41,1.41a4.32,4.32,0,0,1,.61.6c.26.29.43.45.87.19a2.23,2.23,0,0,1,2.34-.1c.94.66,2,.14,2.86.69s2,.19,2.93.34c.27,0,.55,0,.82,0s.59.08.75.27a2.48,2.48,0,0,0,2.44.95,2.66,2.66,0,0,0,3.3.2c.1-.06.43.23.61.41s.12.47-.17.57c-.53.17-1.05.75-1.62.06a.24.24,0,0,0-.26,0c-.45.52-.88.47-1.36,0-.07-.07-.33.07-.49.13s0,.14,0,.21c.42,1.42.7,1.59,1.93,1.13a5.63,5.63,0,0,1,3.94,0c.43.14.77-.51,1.17,0,.24.32.45-.12.67-.2s.52-.17.76.07a.79.79,0,0,0,1.21.06,1.35,1.35,0,0,1,1.3-.26c1,.27,2,1.05,3,0,.09-.09.5.12.71.28a1.46,1.46,0,0,0,1.56.16c1-.68,2.1-.44,3.17-.47,1.82,0,3.64-.07,5.47-.06a2.61,2.61,0,0,0,1.53-.42c.6.59,1.15.36,1.69-.12,1.14.35,2-.74,3.14-.65.63,0,1.29-.09,1.91,0,.79.12,1.32-.63,2.06-.6A2.38,2.38,0,0,0,62.83,52a2.68,2.68,0,0,1,2.6-.1A1.78,1.78,0,0,0,67.2,52c.83-.36,1.7-1.05,2.69-.36.09.06.34-.07.47-.18a1.24,1.24,0,0,1,1.75-.05,1.05,1.05,0,0,0,1.26.23,3.37,3.37,0,0,1,2.34-.55,5,5,0,0,0,2.09-.39,2.76,2.76,0,0,1,2.62.13,1.88,1.88,0,0,0,2.06,0,2.67,2.67,0,0,1,1-.3c.46-.08.68.74,1.19.31a2.13,2.13,0,0,1,1.57-.29c1.64,0,3.29,0,4.93,0l17.5,0a2.89,2.89,0,0,0,1.57-.2c.56-.4,1.21.52,1.63-.28l1.91,0,4.37,0c.45,0,1,.09,1.33-.14a3.26,3.26,0,0,1,2.1-.4,3.05,3.05,0,0,0,1.61-.17,4.31,4.31,0,0,1,2.64-.44h2.86a11.14,11.14,0,0,1,2.65,1.21l-.85-.53c-.12-.31.55-.41,1.08-.53l-.23-.17c2,0,4,0,6,0a5.84,5.84,0,0,0,2.38-.39,7.7,7.7,0,0,1,2.68-.09c1.54,1,3.2.35,4.81.45,1-.81,2.08-.46,3.15-.5a6.22,6.22,0,0,0,2.42-.19,4.89,4.89,0,0,1,.48-.2,35.35,35.35,0,0,0,5.06.91c4.62-.65,10.12-1.57,15.58-1.22,2,.11,3.77,1.09,3.44,1.54,2.38-.14,5.78-.1,8.24,0C196.1,47,184.27,45.14,180.32,44.91Zm-5.75-14.27c0-.09.25,0,.29,0s-.19.07-.06.08c-.06.06-.3.05-.42.09C174.21,30.66,174.8,30.68,174.57,30.64Zm-1.8-.21.44,0a1.08,1.08,0,0,1-.4.23C172.55,30.63,172.74,30.51,172.77,30.43Zm-.81,0c-.1.11.21,0,.44,0s-.07.1.1.11-.41,0-.36.08c-.19,0-.16-.06-.3-.05s.1.05-.06.11a.47.47,0,0,0-.22,0,.12.12,0,0,0,.05-.14c-.28.09-.09.13-.51.05,0-.09.23-.08.43-.09a.7.7,0,0,0-.23-.06C171.47,30.3,171.63,30.51,172,30.43Zm-1.12-.06a1.28,1.28,0,0,1,.3,0s-.12,0-.21.05,0,.16-.27.12a.43.43,0,0,1,0-.11C170.79,30.46,170.87,30.43,170.84,30.37Zm1.3-1.38c.2.15.48,0,.69.15a3.3,3.3,0,0,1-.8,0C172.05,29.11,172.23,29.1,172.14,29Zm7.4-9.29c-.29-.06.34,0,.07,0,.1-.05.35,0,.52,0,0,0-.13,0-.22,0s0,.07-.13.07S179.79,19.69,179.54,19.7Zm.36.34s0,.06.08.07c-.39.11,0-.24.28-.12C180.28,20.06,180,20,179.9,20Zm.69.15c-.1,0-.08.11,0,.1-.34.07-.12-.05-.33-.16.1,0,.35,0,.45.05S180.59,20.22,180.59,20.19Zm.28-.48c0-.15.3,0,.58-.06C181.52,19.78,181,19.74,180.87,19.71Zm.2-.12a2.56,2.56,0,0,1-.62-.15c0-.12.31-.05.37,0,.33-.2.83-.05,1.23-.12.09.15.27,0,.47.12C182.23,19.58,181.41,19.4,181.07,19.59Zm1.67-.14c0-.09.08-.14.26-.15a.16.16,0,0,1,.11.17A.83.83,0,0,1,182.74,19.45Zm5-1.08c.18.07,0,.14,0,.25a1.9,1.9,0,0,0-.59,0c-.13-.12.25,0,.2-.11s-.47.06-.38-.1A2.46,2.46,0,0,0,187.77,18.37Zm5.84-.65c0,.09-.26.09-.42.13C193.13,17.69,193.44,17.71,193.61,17.72Zm-2.8,0c-.22.09-.36,0-.59,0a.78.78,0,0,0,0-.14A1.07,1.07,0,0,1,190.81,17.67Zm-4,.85a1.24,1.24,0,0,0-.45,0C186.4,18.38,186.89,18.32,186.84,18.52Zm-.64-.69c.09.11-.46.12-.42.09S186.05,17.86,186.2,17.83ZM185,17.57c-.09.11-.51.06-.67,0S184.86,17.5,185,17.57Zm.11,1.88a.74.74,0,0,1-.61-.11C184.71,19.44,185,19.27,185.09,19.45Zm-.6,1.57c-.16.09-.09.12,0,.25-.39,0-.47-.11-.65.06-.32,0-.68-.39-.15-.42C183.59,21.09,184.28,20.91,184.49,21Zm-.43-.34c0,.08-.34,0-.2.11a1.08,1.08,0,0,0-.37,0C183.37,20.56,183.91,20.62,184.06,20.68Zm-.23-1.28c0,.08-.36,0-.5.06C183.31,19.31,183.71,19.33,183.83,19.4Zm-2.15-.9,1-.05c0,.19.2.11.45.09s-.42,0-.12.15c-.26,0-.36-.12-.6-.05,0,0,0-.07,0-.11a1.78,1.78,0,0,1-.66,0c-.07,0-.05.05-.06.08C181.49,18.62,181.76,18.56,181.68,18.5Zm-.43.05c.1-.14.14.07.23.06s-.35.1-.56.13C180.76,18.59,181.52,18.64,181.25,18.55Zm-1.78-.07c.08.13-.05.16-.11.22-.22,0-.38-.06-.4-.19Zm-.65,0c-.18.17.25.08.19.28a7.43,7.43,0,0,0-1.58-.22C177.83,18.43,178.45,18.63,178.82,18.51ZM143.52,6.15a5.14,5.14,0,0,1,.68,0s0,0,0,0l0,0h-.06a.24.24,0,0,1-.06.11c-.1.12-.31.15-.59.13-.07,0-.19-.06-.18-.08S143.45,6.15,143.52,6.15Zm-5.83.31-.72.08c-.6,0-.95,0-1.15-.21a.09.09,0,0,1,0-.13.61.61,0,0,1,.25-.17c.23.06.43.15.65.22S137.56,6.13,137.69,6.46Zm-2.22-1a.89.89,0,0,1,.34-.08l0,0,0,0,0,0h.06c.05-.07.08-.15.18-.18s.29,0,.19.1a1.07,1.07,0,0,1-.37.08l0,0h-.06l-.06.09a.24.24,0,0,1-.11.09C135.49,5.62,135.37,5.54,135.47,5.47ZM8.87,47.38s-.12-.12-.15-.2a.16.16,0,0,1,0-.08l.06-.1H8.9S9,47,9,47,9.07,47.27,8.87,47.38ZM166.66,31.27c.08,0,.08,0,.11.07l-.23,0c-1.91.24-2.55.82-2.71,1.49a4.68,4.68,0,0,1-1.18-.12c-.29.07-.65.24-.8,0-.24,0-.18.1-.35.12s0-.2-.18-.21c0,.1-.22.06-.34.16-.15-.12-.53-.11-.64-.26.21,0,.74-.13.47-.27a1.33,1.33,0,0,1-1.11.27l-.55-.17-.11-.09c-.09,0-.09,0-.07,0l-.36-.11a.13.13,0,0,1,0-.09h.29c0-.29-.34-.28-.72-.28a1.06,1.06,0,0,0,.2-.17c.29,0,.68,0,1.11,0,.1-.13,0-.11-.17-.17a1.37,1.37,0,0,1,.65-.05,1.8,1.8,0,0,0-.08.21l-.32,0a.19.19,0,0,0,.09.11h.15c0-.07,0-.1.07-.1a2.76,2.76,0,0,0-.08.27s-.1,0-.12-.06c-.29,0-.43.14-.65.07s.1.12-.11.18c.29,0,.53,0,.27-.12.17,0,.38,0,.59,0h0s.21.14.33.21l.07-.21a1.69,1.69,0,0,0,.68-.12c-.13,0-.16,0-.29,0a.79.79,0,0,1-.37.08l.09-.24,0,0h.11s-.09,0-.08,0,.21,0,.22,0a1,1,0,0,0-.3,0l-.1-.17a1.33,1.33,0,0,0,.86-.11,4.77,4.77,0,0,1-.67-.07c1.3,0,1.93,0,3.23,0,0,0-.11.07-.13.12.31,0,.38-.16.71-.18,0,0,0,.1.09.1s.15,0,.22,0c0-.12-.25,0-.25-.14.43-.17,1,0,1.59-.17.14.1.49.08.69.14.07-.16-.11-.21.17-.29C166.75,31,167.11,31.14,166.66,31.27Zm4.73-3.6c0,.11-.25,0-.29,0a.9.9,0,0,1,.35-.08s-.09,0-.14,0S171.34,27.66,171.39,27.67Zm-.18-.21c-.27-.19-.81.06-1,.11a1.66,1.66,0,0,0-.48-.19c0,.06.13.09,0,.11a1.09,1.09,0,0,1-.46-.13c0,.11-.06.12-.16.13a2.42,2.42,0,0,0-.76-.74,3.47,3.47,0,0,1,1,0c.2,0-.11-.07,0-.1a6.57,6.57,0,0,1,2,.74A.34.34,0,0,1,171.21,27.46Zm-10-.49h.16l-.19,0Zm.82,1.32c.21,0,.3,0,.41,0a.25.25,0,0,1,0,.09C162.23,28.39,162,28.42,162,28.29Zm3.47.11h0ZM167.14,31c-.19,0-.13-.13-.32-.13C166.94,30.79,167.34,31,167.14,31Zm1.05-.29c.05.11-.11.13,0,.25-.24,0-.61,0-.68-.08C168.1,30.94,167.9,30.79,168.19,30.74Zm2.47-1.83c-.19,0-.29.12-.37,0s.24,0,.21-.12c-.23,0-.23-.1-.53,0-.1.2-1.17.28-1,0-.31.08-.5.07-.19.19-.28-.07-.74,0-.64.1,0-.07-.25,0-.24-.1s.44,0,.34-.12-.49.05-.52-.05c.19,0,0-.14.27-.12-.15.11.13.11.31.06-.13.06,0,.12.24.09-.22-.11-.15-.15.1-.22-.43,0-.87,0-1.25,0,.15,0-.23.08-.19.15-.55.07-.71-.09-1.26,0,.11,0,.05-.07,0-.11a.28.28,0,0,0,.13,0,1.49,1.49,0,0,0,.5,0c-.09,0-.05,0,0-.07a1.21,1.21,0,0,1-.42,0,1.09,1.09,0,0,0,.15-.25h.08a.14.14,0,0,0,.1.14c.14,0,.51,0,.42-.09-.5.08-.28-.12-.54-.23a.11.11,0,0,0,0-.06.3.3,0,0,1,.07-.1l.53,0c-.07,0-.11,0,0-.06a1,1,0,0,1,.46.09c0-.14,0-.08.21-.08,0-.07-.1-.08-.1-.14.27,0,.5-.05.69-.06a1.23,1.23,0,0,1,.31.26s.06.06.09.09c-.47.08-1.1-.06-1.41,0,.15.08.5,0,.62.15-.54,0-.73-.17-1.06-.17.06.19.39.22.64.3s-.61.07-.76.28a3.06,3.06,0,0,0,1.06-.26,2.3,2.3,0,0,0,1,.17c-.19-.14-.18,0-.11-.21-.17,0-.25.1-.29,0s.36-.07.41-.16a.62.62,0,0,0,.45,0s0,0,0,0l.1,0s0,0,0,0a.2.2,0,0,1,.17.14l-.59,0c.14.12,0,.2.27.24,0-.09-.15-.07-.11-.17.23,0,.65,0,.61.11,0-.11.84.06.49-.13a.6.6,0,0,1,.31.06c.06.11,0,.17,0,.25a2.88,2.88,0,0,1,.46.09C170.67,28.81,170.76,28.9,170.66,28.91Zm0-.17c.11-.13.3,0,.26-.16a4.72,4.72,0,0,0,.59,0C171.45,28.76,171,28.74,170.63,28.74Zm.53.08c.44.05-.08.12-.28.08a.56.56,0,0,1,.27-.15,4.17,4.17,0,0,1,.52.05C171.58,29,171.42,28.78,171.16,28.82Zm-.49-.66c0,.06.13.09,0,.11s-.37,0-.66,0c0-.07-.05-.15-.25-.13.13.17-.32.12-.36.05s0,.07-.06.07.33-.14.12-.18c0,.05-.13.05-.21.06a.32.32,0,0,0,.15-.19c.15,0,0,.11.28.12-.06-.11.34-.21.49-.13,0,.07-.21,0-.05.11.18-.16.51,0,.48-.2.33.11.42-.05.81,0,.08-.09-.06-.11,0-.15a.37.37,0,0,0,.31,0,1,1,0,0,1,.34.4A3,3,0,0,1,170.67,28.16ZM176.19,24c0-.23.37-.09.78-.14C176.88,24,176.38,23.92,176.19,24Zm2.25-.17a.63.63,0,0,1,.28-.05c0,.06-.06.07-.05.11s.09,0,.15,0-.47,0-.38-.09a5.27,5.27,0,0,1-1.53-.08,12.81,12.81,0,0,1,1.4-.1s-.19,0-.18.09S178.44,23.73,178.44,23.82Zm1-2.72h.41l-.46.11S179.35,21.11,179.42,21.1Zm-.11.12-.34.08a.58.58,0,0,1-.19-.07A1.34,1.34,0,0,1,179.31,21.22Zm-3.05-.52c.15.07.28.08.14,0,.3.07.86,0,1,.13,0,.08-.1.11,0,.22a9,9,0,0,1-1.53.1.2.2,0,0,0,.17.13c0-.07,0-.11.2-.11s.09.09,0,.17c.18,0,.35,0,.37.06h-.29c0,.18.59.23.77.18a.38.38,0,0,1-.24-.09c.1,0,.11-.07.21-.08.29,0,.11.12.25.16s.08.08.16.07a.28.28,0,0,1,.27-.12s0,.05,0,.08l-.49.11s0-.09-.17-.06c0,0,0,0,0,.05a10.61,10.61,0,0,1-1.69-.4,3.82,3.82,0,0,1,.42-.09c-.3,0-.63-.14-.93-.19a.19.19,0,0,1,0-.22l.07,0c0,.05-.09.06-.05.11.58,0,.29.24.92.21.11-.06.16-.15.33-.19C176,20.86,176.18,20.71,176.26,20.7Zm.75-1.52v-.07a1.17,1.17,0,0,1,.29,0C177.32,19.15,177.15,19.18,177,19.18Zm.29-.49c-.25,0-.13-.07-.44,0C176.8,18.53,177.35,18.58,177.3,18.69Zm-4.43-1.31c.09-.1.41,0,.39.09C173,17.53,173.06,17.37,172.87,17.38Zm-9.21,2.1a.9.9,0,0,1-.22.26,1,1,0,0,0,0-.24l.05,0Zm-51.44-8.66h0c0,.15-.16.27-.41.27a14.71,14.71,0,0,1-1.49-.11c-.08,0-.11-.13-.16-.21h0l0,0a1,1,0,0,1-.3-.09c-.09-.08,0-.14.17-.09s.1.11.13.18h.07a1.4,1.4,0,0,0,.39-.09,1.35,1.35,0,0,1,1.28,0,1.82,1.82,0,0,0,.39.11h0l.07-.09a.2.2,0,0,1,.11-.09c.15,0,.27,0,.17.1a1,1,0,0,1-.35.08l0,0ZM109.58,8.1l-.19,0a1.59,1.59,0,0,1-.37-.17.41.41,0,0,1-.12-.21l.44-.07c.29,0,.46.1.42.26S109.65,8,109.58,8.1Zm30.32,5.63-.57-.07a.61.61,0,0,0,0-.12.74.74,0,0,1,.39.16A.25.25,0,0,0,139.9,13.73ZM133.23,5.9c.69-.11,1.05.29,1.67.32.06,0,.12.11.18.18l-.48.08a.52.52,0,0,0-.44.26h0v0l.67,0a.6.6,0,0,1,.17.07c-.05.06-.11.14-.19.15s-.45,0-.67,0v0h0c.11.12.22.23.32.35s.17.2.12.26a2.67,2.67,0,0,1-1.67.76,1,1,0,0,1-.35-.13c.34-.22.68-.42.2-.72a2.59,2.59,0,0,0-1.36-.33.41.41,0,0,1-.21-.1l-.08,0,.11,0a.13.13,0,0,1,.1,0l2.82,0,0,0h0c0-.08,0-.17,0-.25h-.05l0,0c-.66-.07-.87-.42-1.29-.63-.06,0-.08-.08-.12-.12C132.91,6,133.07,5.92,133.23,5.9Zm-3.72-.19s.11-.07.19-.09a.21.21,0,0,1,.16,0,3.89,3.89,0,0,0,.64.57c.42.24.48,0,.58-.16s.19-.1.3-.15.17.16.16.24c0,.54-.1.57-1.29.52-.63,0-.77-.08-.78-.39A2.64,2.64,0,0,1,129.51,5.71Zm-4,.34a.25.25,0,0,1,.14,0s0,.06,0,.08a.21.21,0,0,1-.29-.06S125.43,6.06,125.49,6.05Zm-.9,1.57a.68.68,0,0,1,.58-.21,4.33,4.33,0,0,1,1,0,9.78,9.78,0,0,0,2.73.36.46.46,0,0,1,.31.19c.07.14,0,.29-.32.33s-.66.06-.69.3a2.32,2.32,0,0,0,1.8.13,4.74,4.74,0,0,1,1.52,0c.1,0,.21.13.25.22s-.12.3-.37.29c-1.92,0-3.84-.08-5.77-.13-.39,0-.6-.1-.66-.33s-.25-.24-.41-.35-.49-.23-.46-.33S124.45,7.79,124.59,7.62Zm-17-1.46c.32.06.62.16.94.23a2.48,2.48,0,0,0,1.24,0,1.5,1.5,0,0,1,.43-.1c1.17.47,2.54.16,3.8.3a11.9,11.9,0,0,1,2.51.27,9.56,9.56,0,0,0,2.06.11,14.09,14.09,0,0,1,4,.37c.39.13,1-.1,1.32.22a4.29,4.29,0,0,1-1.52.07l-1.3,0h0l-2.1,0a4.17,4.17,0,0,0-1.5.16,1.6,1.6,0,0,1-1.2,0c-.41-.26-.75,0-1.08,0a5.9,5.9,0,0,1-1.1-.34,4.57,4.57,0,0,0-1.23-.18c-.54-.09-1,.27-1.41.11a6.47,6.47,0,0,0-1.76-.19c-.52,0-1,0-1.57,0a1.78,1.78,0,0,1-1.12-.29.65.65,0,0,1-.26-.37C106.77,6.21,107.27,6.09,107.63,6.16ZM98.7,3.73c.28-.12.46-.44,1-.18.3.16.43-.06.65,0a.63.63,0,0,1,.32.11c-.07.12-.13.28-.3.33a3.14,3.14,0,0,1-.69,0c-.3,0-.55,0-.79-.06S98.55,3.79,98.7,3.73ZM96,4.52h.16c.13,0,.1.11-.1.15a.22.22,0,0,1-.13-.09S96,4.55,96,4.52Zm-1.42-.93s.16.07.15.1-.15.1-.18.09C94.32,3.71,94.33,3.64,94.58,3.59Zm-1.65.82s.16.07.15.1-.15.1-.17.09C92.68,4.53,92.69,4.46,92.93,4.41Zm-.43-.56s.14.06.13.09-.1.06-.16.08l-.14,0Zm-2.72.8.15.09-.17.07-.14,0ZM79.18,3.6a5.23,5.23,0,0,1,.69-.14l.65.19a3.06,3.06,0,0,1-.43.13l-.46.1-.23.06c-.16.06-.32,0-.35-.09A.21.21,0,0,1,79.18,3.6ZM76.94,5.24a.16.16,0,0,1,.09,0,.31.31,0,0,1,.15,0l0,.08-.3-.06Zm-3.3-3,.15.09-.18.08-.15,0ZM71.42,3.34s.09.07.15.11a1,1,0,0,1-.19.09C71.15,3.46,71.17,3.39,71.42,3.34Zm-4.07.45s0,0,0,0h.07c0-.2.3-.26.64-.24a.41.41,0,0,1,.19.08c.11.06.06.14-.15.16a5.14,5.14,0,0,1-.68,0s0,0,0,0h-.08c-.06.06-.11.13-.17.18A.42.42,0,0,1,67,4C67,3.81,67.16,3.79,67.35,3.79ZM60.67,2.46s0,0,0,0a5.3,5.3,0,0,0,1.44-.1c.5-.19.84.23,1.33,0a12.1,12.1,0,0,1,1.44-.23,4.88,4.88,0,0,1,1.52-.08c.29,0,.48.08.52.24s-.15.28-.41.3c-.43,0-.87,0-1.3,0-.07,0-.15.11-.18.17s.11.08.18.08l.78,0a.49.49,0,0,1,.21.08c.1.06,0,.15-.2.16a7.66,7.66,0,0,0-2,.2,3,3,0,0,1-1.48,0c-.64-.25-1.72-.27-1.83-.84h-.06Zm-51,13.31a.39.39,0,0,1-.16-.1l.2-.08.16.11A1,1,0,0,1,9.71,15.77ZM9.09,21a.27.27,0,0,1,.19-.23,1,1,0,0,1,.45-.05l.15.1s.09.06.08.07c-.22.12-.47.23-.71.34C9.19,21.11,9.09,21,9.09,21ZM7.58,25.59a3,3,0,0,1,.33-.44,1.93,1.93,0,0,1,.63-.45.39.39,0,0,1,.48.17,2.12,2.12,0,0,0-.38.63.91.91,0,0,1-.29.34H8Zm5.66,8.53c-.07,0-.12-.11-.19-.18s.14-.17.21-.17.14.12.2.19S13.31,34.13,13.24,34.12Zm3,8.47h0l-.43-.25c.15-.08.31-.22.46-.22s.3.16.45.24ZM17.6,42l-.12-.14.3-.06h0C17.78,41.84,17.66,41.9,17.6,42Zm14.25,8.42s-.12-.11-.14-.18,0-.11.06-.16.14,0,.18,0S32.05,50.29,31.85,50.39Zm1.23,2.26c-.1.14-.23.11-.32-.11,0,0,.1-.12.17-.15s.11,0,.16.08S33.11,52.61,33.08,52.65Zm2.38-13.09a.51.51,0,0,1-.4-.16,4.49,4.49,0,0,0,.64.1A.61.61,0,0,1,35.46,39.56Zm.87,13.72-.25-.18.17-.18.16.19Zm4.28-11.35-.16-.19c.06-.06.13-.17.18-.16s.12.12.18.18Zm6.12-.08c-.07,0-.14.14-.22.16a1.32,1.32,0,0,1-1.6-.73.33.33,0,0,1,0-.21c0-.08.17-.18.22-.16l1.08.49a1.13,1.13,0,0,1,.1.37c.14-.06.26-.09.4-.14l.09,0A.59.59,0,0,1,46.73,41.85Zm1.55.08s-.12-.1-.15-.17,0-.11.08-.17.13,0,.17,0S48.49,41.85,48.28,41.93Zm114.84-7.62a1.85,1.85,0,0,1-.14-.14c0-.13,0-.28,0-.41a5.28,5.28,0,0,1,.81,0l0,0,0,.19A7.34,7.34,0,0,0,163.12,34.31Z"/><path class="cls-3" d="M203.33,40.25c1-1.36-4.17-2.43-7.53-3l-2.52.55c1.84,1.23.3,3.16,5.3,4C200.69,42,203,40.48,203.33,40.25Z"/><path class="cls-3" d="M204.26,35.8l.33-1.75-1.34,1.61C203.71,35.63,203.79,35.83,204.26,35.8Z"/><path class="cls-3" d="M187.2,38.67l2.36-.19c-.77-2.08-.7-.58-4.31-1.15l2.66.64C188,38.18,186.65,38.5,187.2,38.67Z"/><path class="cls-3" d="M8.4,37.79a5.3,5.3,0,0,0-1.81.36c-.47.43.77.8,1.35,1.13C8.6,39.32,10.32,38.2,8.4,37.79Z"/><path class="cls-3" d="M195.45,24.42l-2.57.29c1.49,1.21.46,2.68,3.23,3.94H196c.11.09-.18.16,0,.18a.6.6,0,0,1,.36-.06,12.36,12.36,0,0,0,1.43.49,8.05,8.05,0,0,0,4.87-1C203.79,27,198.75,25.38,195.45,24.42Z"/><path class="cls-3" d="M203.7,23c-.09,0-.19,0-.23,0l.17,0-.2.2a.11.11,0,0,0-.08,0h0l-.38.37a1.12,1.12,0,0,1,.51.12l-.07,0h.14a1.33,1.33,0,0,0,.43.09l0-.11c.13,0,.24,0,.26-.09h-.24l.08-.28a12.3,12.3,0,0,0,1.4.23c-.11-.05-.41,0-.39-.13.31,0,.2,0,.13-.11.17,0,.16.12.38.09-.08-.14,0-.28.27-.19-.08-.12-.23-.11,0-.21-.15,0-.35,0-.39-.13s.08,0,0,0-.13.12-.27.15-.65-.06-1-.1l.09-.33a5.85,5.85,0,0,1,.86,0c0-.07.3-.16,0-.21-.09.14-.52.16-.87.13l.11-.39-.36.36-.2-.05c0,.13-.25-.06-.21.05a1.16,1.16,0,0,0,.32.08Zm.58.06h0Z"/><path class="cls-3" d="M158.45,14.2a18.41,18.41,0,0,1,3.48-.26.41.41,0,0,1-.27,0c0,.09.13.11.32.09a.08.08,0,0,1,0-.08h.19c.4-.21.52-.46.47-.72a8.54,8.54,0,0,0,1.44,0c-.45,0-.94-.06-1.45-.06a2.49,2.49,0,0,0-2-1.12C159.9,12.69,156.7,13.13,158.45,14.2Z"/><path class="cls-3" d="M7.2,22c.67,0,2.33-1.21.39-1.51a5.31,5.31,0,0,0-1.8.45C5.34,21.42,6.61,21.73,7.2,22Z"/><path class="cls-3" d="M14.63,6.56c.19-.08.34-.23,0-.29s-.6-.11-.66-.3c-.46.11-.92.2-1.37.32,0,0,0,.16.06.21A1.85,1.85,0,0,0,14.63,6.56Z"/><path class="cls-3" d="M146.3,6.45c.15-.32.64-.24,1-.25,0-.3-.44-.45-.87-.54a2.3,2.3,0,0,0-.94,0c-.32.09-.22.3-.24.47Z"/><path class="cls-3" d="M8.26,15.3A2.82,2.82,0,0,0,7.72,15a1.07,1.07,0,0,0-.47-.06c-.39.08-.11.2,0,.32a3.39,3.39,0,0,1,.17.51,3.93,3.93,0,0,0,.48,0C8.39,15.74,8.57,15.51,8.26,15.3Z"/><path class="cls-3" d="M7.37,15.76h0v0h0Z"/><path class="cls-3" d="M127.45,4.88l.52,0,0-.56-.47,0c-.54,0-.54,0-.26.33C127.34,4.72,127.39,4.81,127.45,4.88Z"/><path class="cls-3" d="M9.23,9.45a.84.84,0,0,0,.19-.24c-.08-.06-.21-.16-.25-.15a1.61,1.61,0,0,0-.4.17.4.4,0,0,0-.2.21C8.54,9.53,9.06,9.55,9.23,9.45Z"/><path class="cls-3" d="M7.45,17.12s.14,0,.15,0a1.35,1.35,0,0,0,.2-.37c0-.19-.08-.34-.47-.37,0,.22,0,.44,0,.65C7.3,17.05,7.38,17.09,7.45,17.12Z"/><path class="cls-3" d="M7.33,16.36v0h0v0Z"/><path class="cls-3" d="M7.37,18.67c-.07.08-.2.15-.2.23s.27.32.66.27l.22-.08-.47-.33A1,1,0,0,0,7.37,18.67Z"/><path class="cls-3" d="M113.7,3c-.14-.18-.39-.12-.6-.08a.64.64,0,0,0-.19.08c.2,0,.4.1.6.13C113.56,3.12,113.65,3,113.7,3Z"/><path class="cls-3" d="M88.93,2.65c-.11,0-.29.07-.31.12s0,.33.44.35a2.36,2.36,0,0,0,0-.38S89,2.64,88.93,2.65Z"/><path class="cls-3" d="M89.06,3.12v0h0v0Z"/><path class="cls-3" d="M128.52,4c0-.05-.18-.08-.28-.11s-.13.06-.14.1,0,.24-.06.36h.49A1.45,1.45,0,0,0,128.52,4Z"/><path class="cls-3" d="M148.06,6.5c.06,0,.19,0,.18-.07s-.06-.17-.13-.18c-.22,0-.45,0-.69,0C147.46,6.43,147.7,6.5,148.06,6.5Z"/><path class="cls-3" d="M147.42,6.23s0,0,0,0h-.06s0,0,0,0Z"/><path class="cls-3" d="M156.58,13.22a2.86,2.86,0,0,0,.29-.33s-.21-.08-.31-.12c-.31.09-.2.22-.12.34S156.53,13.18,156.58,13.22Z"/><path class="cls-3" d="M7.29,16.32c0-.17,0-.35,0-.53-.23,0-.42.06-.47.19S6.93,16.3,7.29,16.32Z"/><path class="cls-3" d="M62.33.11,62.17,0c-.06,0-.17.06-.18.09s.09.07.15.1Z"/><path class="cls-3" d="M64.41.13,64.27,0l-.16.07.21.09Z"/><path class="cls-3" d="M60.23.34A.5.5,0,0,0,60,.24s-.12.06-.18.08l.17.1Z"/><path class="cls-3" d="M66,.74s-.1-.09-.15-.09-.12,0-.18.07l.24.1Z"/><path class="cls-3" d="M67.46.72h-.15s-.09.06-.08.08a.31.31,0,0,0,.12.09C67.54.84,67.58.78,67.46.72Z"/><path class="cls-3" d="M64.83,1s-.11,0-.15,0a1.15,1.15,0,0,0-.17.06l.31.06Z"/><path class="cls-3" d="M96.37,2.26a.37.37,0,0,0-.15,0,1.41,1.41,0,0,0-.17.18C96.24,2.43,96.4,2.41,96.37,2.26Z"/><path class="cls-3" d="M96.05,2.43H96l0,0s0,0,0,0Z"/><path class="cls-3" d="M108.53,2.6s-.09-.07-.14-.1-.18.06-.17.08S108.41,2.73,108.53,2.6Z"/><path class="cls-3" d="M102.86,2.88h-.07v0h0Z"/><path class="cls-3" d="M103.2,2.7a.42.42,0,0,0-.16,0,1.62,1.62,0,0,0-.18.19C103.06,2.88,103.24,2.86,103.2,2.7Z"/><path class="cls-3" d="M105.69,2.91c.07,0,.18-.05.19-.09s-.09-.07-.15-.11-.17.06-.18.09S105.64,2.88,105.69,2.91Z"/><path class="cls-3" d="M112.16,3s0-.06,0-.09-.11,0-.14,0-.18.06-.17.07A.21.21,0,0,0,112.16,3Z"/><path class="cls-3" d="M115.86,3.63c-.06,0-.1-.09-.17-.1s-.17,0-.17.08.08.06.14.1Z"/><path class="cls-3" d="M117.43,3.67l-.15-.11c-.06,0-.17.06-.17.09s.08.07.13.11Z"/><path class="cls-3" d="M123,4.17s.11-.06.18-.09-.12-.1-.15-.1C122.8,4,122.79,4.1,123,4.17Z"/><path class="cls-3" d="M116.76,5.34l-.15-.1-.17.09.23.09Z"/><path class="cls-3" d="M156.25,6.56l-.17-.1c-.06,0-.16,0-.17.09s.09.06.14.1Z"/><path class="cls-3" d="M157.75,6.64s0-.06,0-.09l-.13,0-.17.07A.2.2,0,0,0,157.75,6.64Z"/><path class="cls-3" d="M164.35,8.54s.12,0,.2-.08-.13-.09-.17-.08C164.12,8.41,164.11,8.48,164.35,8.54Z"/><path class="cls-3" d="M14,5.93h-.08l0,0h0Z"/><path class="cls-3" d="M14.33,5.76a1,1,0,0,0-.17,0L14,5.93C14.18,5.92,14.36,5.92,14.33,5.76Z"/><path class="cls-3" d="M137.45,9.33l.09-.08s-.09-.08-.14-.08-.12,0-.17.06Z"/><path class="cls-3" d="M150,11.22a.41.41,0,0,0-.16,0l-.16.18C149.85,11.37,150,11.37,150,11.22Z"/><path class="cls-3" d="M149.67,11.38h-.08l0,0h.08Z"/><path class="cls-3" d="M10,8.29l-.15-.11c-.06,0-.16.06-.17.1s.09.07.14.1Z"/><path class="cls-3" d="M149.41,11.59c.06-.06.1-.12.15-.18-.18,0-.35,0-.32.16A.5.5,0,0,0,149.41,11.59Z"/><path class="cls-3" d="M151.63,11.59l-.14-.09-.18.12.15,0Z"/><path class="cls-3" d="M152,12.41a.37.37,0,0,0-.14,0,.67.67,0,0,0-.18.07l.32.05Z"/><path class="cls-3" d="M9.66,10.07s.12-.05.18-.08-.11-.1-.14-.09C9.44,9.94,9.43,10,9.66,10.07Z"/><path class="cls-3" d="M126.53,8.12a.31.31,0,0,0-.15,0,.64.64,0,0,0-.18.06l.31.06Z"/><path class="cls-3" d="M127.34,8.39s0,.09,0,.09l.33.09C127.64,8.47,127.63,8.37,127.34,8.39Z"/><path class="cls-3" d="M128,8.81c.07,0,.1-.11.15-.18h-.46C127.73,8.72,127.74,8.84,128,8.81Z"/><path class="cls-3" d="M127.71,8.62v0l-.07,0a.09.09,0,0,1,0,0Z"/><path class="cls-3" d="M128.19,8.6l0,0h.06Z"/><path class="cls-3" d="M63,3,63.18,3,63,2.88,62.85,3h0Z"/><path class="cls-3" d="M259.41,24.39c.14,0,.54.07.59,0C259.86,24.38,259.46,24.32,259.41,24.39Z"/><path class="cls-3" d="M256.27,24.1c0,.11.31,0,.39.12s0-.08,0-.11A2.07,2.07,0,0,0,256.27,24.1Z"/><path class="cls-3" d="M255,24c.26,0,.64.12.82,0C255.62,24.05,255.23,23.93,255,24Z"/><path class="cls-3" d="M254.49,24c.2,0,.16.06.31.06S254.51,23.88,254.49,24Z"/><path class="cls-3" d="M252.78,23.93a8.47,8.47,0,0,0,1.55,0A8.13,8.13,0,0,0,252.78,23.93Z"/><path class="cls-3" d="M245.08,27.37c.25,0,.7,0,.72-.1C245.53,27.36,245.19,27.22,245.08,27.37Z"/><path class="cls-3" d="M245.62,26.71a3.68,3.68,0,0,0-.8,0C245.28,26.72,245.39,26.86,245.62,26.71Z"/><path class="cls-3" d="M244.85,27.35a4.45,4.45,0,0,0-1.15.12C244,27.44,244.78,27.51,244.85,27.35Z"/><path class="cls-3" d="M241.49,26.64c.35-.06,1.23.08,1.62,0C242.6,26.67,241.76,26.36,241.49,26.64Z"/><path class="cls-3" d="M238.79,14.39c-.18,0-.18-.13-.45-.09C238.37,14.38,238.74,14.46,238.79,14.39Z"/><path class="cls-3" d="M238.15,14.06c0,.26-.45,0-.67,0,0,.25.64.08.71.26C238.14,14.23,238.48,14.13,238.15,14.06Z"/><path class="cls-3" d="M238.63,27.94c.13.09.73,0,.66,0A2.56,2.56,0,0,0,238.63,27.94Z"/><path class="cls-3" d="M235.79,27.28a3.86,3.86,0,0,1-.95,0c0,.15,0,.17.19.24.2-.16.93-.07,1.29-.2C236.05,27.39,235.82,27.39,235.79,27.28Z"/><path class="cls-3" d="M234.32,22.77c.05.1.19.15.4.16C234.71,22.81,234.44,22.83,234.32,22.77Z"/><path class="cls-3" d="M232.48,27.32c0,.09.25.09.33.16s.09-.07.05-.14A.88.88,0,0,0,232.48,27.32Z"/><path class="cls-3" d="M231.63,27.46c.3,0,.8,0,.78-.14C232.19,27.34,231.72,27.25,231.63,27.46Z"/><path class="cls-3" d="M229.83,22.71a2.58,2.58,0,0,0,1-.15C230.43,22.64,229.77,22.43,229.83,22.71Z"/><path class="cls-3" d="M229.33,21.59c.23-.05.47.09.59,0A1.06,1.06,0,0,0,229.33,21.59Z"/><path class="cls-3" d="M228,28.3c-.1.16.41.11.37,0A1,1,0,0,1,228,28.3Z"/><path class="cls-3" d="M226.71,27.53a.75.75,0,0,0,.5-.05C227.07,27.5,226.73,27.45,226.71,27.53Z"/><path class="cls-3" d="M219.53,14.48c1.4-.1,2.51.06,4-.06.12.05.85.1.81,0a2.52,2.52,0,0,0-.69-.15c-1.06.08-3,0-4.18.07C219.44,14.4,219.62,14.4,219.53,14.48Z"/><path class="cls-3" d="M224.76,22.79a.78.78,0,0,0,.42-.16q-.09,0-.09-.06c-.11,0-.27,0-.29,0C225.32,22.6,224.66,22.68,224.76,22.79Z"/><path class="cls-3" d="M225.38,28.31s-.11,0-.22,0,.21.11.39.13.31-.05.35-.13c-.24,0-.22.07-.35.09S225.51,28.31,225.38,28.31Z"/><path class="cls-3" d="M222.52,28.36c-.41,0-.85.11-1,0a.86.86,0,0,0,.3,0c-.1-.23-.55,0-.68-.08.25,0,.08-.1.36-.05,0-.1-.17-.09-.31-.1a1.06,1.06,0,0,1-.66,0c-.11.08,0,.05,0,.14.21,0,.73,0,.46.09-.16-.17-.63,0-.83-.07.1,0,.13-.08.12-.15-.27,0-.22,0-.34.12s.12-.16-.17-.13.07.11-.36.09c.12-.11-.75-.09-.79.07.33,0,.44,0,.65-.07a11.39,11.39,0,0,0,3.85.12,2.8,2.8,0,0,0,.46.12c.43-.11,1.44.1,1.45-.13C224.41,28.43,223.36,28.34,222.52,28.36Z"/><path class="cls-3" d="M220.19,22.74c.1,0,.11-.15.26-.19-.11.2.63,0,.33.2a2.15,2.15,0,0,0,.87-.07c-.36,0-.16-.09-.1-.14a.9.9,0,0,1-.3,0c-.16.06,0,.15-.11.18-.28,0-.24-.11-.48-.23-.25.08-.33,0-.59,0,0,.21-.54,0-.71.14s-.11,0-.1-.1a1.8,1.8,0,0,1-.73,0,.3.3,0,0,1-.13.12c-.88-.16-1.7,0-2.31-.15,0,0,0,.05,0,.07s0,.07.08.07C217.56,22.67,218.46,22.78,220.19,22.74Z"/><path class="cls-3" d="M219,14.5c.12,0,.3,0,.35-.08C219.21,14.34,219,14.36,219,14.5Z"/><path class="cls-3" d="M220.32,22.2c0,.09.13.14.31.13,0-.07.05-.08.14,0a.43.43,0,0,0,0-.11A1,1,0,0,1,220.32,22.2Z"/><path class="cls-3" d="M219.17,22.36c.05-.16-.61-.12-.6,0A5.8,5.8,0,0,1,219.17,22.36Z"/><path class="cls-3" d="M216,22.57a.74.74,0,0,1-.55-.15C215.19,22.55,216,22.7,216,22.57Z"/><path class="cls-3" d="M215.43,23.67c.27,0,.54.12.73,0C215.93,23.68,215.59,23.56,215.43,23.67Z"/><path class="cls-3" d="M214.18,15c0,.11-.16,0-.29,0S214.45,15.1,214.18,15Z"/><path class="cls-3" d="M216.8,31.79a1.39,1.39,0,0,0,.45.05s0-.07,0-.1C217.06,31.73,216.82,31.67,216.8,31.79Z"/><path class="cls-3" d="M214.63,22.92c.21,0,.37,0,.42-.09C214.91,22.85,214.54,22.79,214.63,22.92Z"/><path class="cls-3" d="M212.2,22.52c.15.2.5,0,.83.11C213,22.37,212.53,22.61,212.2,22.52Z"/><path class="cls-3" d="M212.6,21.47c-.06,0-.47-.06-.51,0S212.57,21.55,212.6,21.47Z"/><path class="cls-3" d="M211.4,22.16s0-.07.06-.07.07,0,.16,0-.17-.09-.32-.1C211.31,22.11,211.19,22.14,211.4,22.16Z"/><path class="cls-3" d="M211.17,22.5c-.16.17-.62-.13-1.11,0,.08.16.85,0,.63.22a2.46,2.46,0,0,1,1,0C211.72,22.49,211.36,22.54,211.17,22.5Z"/><path class="cls-3" d="M210.36,23.32c.23,0,.43-.05.41-.16C210.55,23.25,210.39,23.16,210.36,23.32Z"/><path class="cls-3" d="M210.6,22.63c-.21,0-.45-.11-.58,0C210.21,22.62,210.49,22.74,210.6,22.63Z"/><path class="cls-3" d="M209.23,21.51c.1,0,.38,0,.36-.05S209.19,21.35,209.23,21.51Z"/><path class="cls-3" d="M207.85,16.24c.19,0,.59,0,.65-.06C208.24,16.21,207.91,16.09,207.85,16.24Z"/><path class="cls-3" d="M208.94,22.38c.12,0,.36,0,.42-.09C209.24,22.24,208.85,22.25,208.94,22.38Z"/><path class="cls-3" d="M207.76,16.18c-.27.06-.16-.1-.38-.06S207.8,16.34,207.76,16.18Z"/><path class="cls-3" d="M204.75,16.2c.29,0,.9.07,1.41.08.26,0,.76,0,.79-.1s-.17,0-.16-.07c-.23,0-.06.13-.35.09,0,0,.12-.09,0-.11A11.89,11.89,0,0,1,204.75,16.2Z"/><path class="cls-3" d="M207.85,21.6a1.89,1.89,0,0,0-.46-.05C207.38,21.64,207.8,21.68,207.85,21.6Z"/><path class="cls-3" d="M207.73,25.9c.06.08,0,.22.24.13-.19-.05.42-.05.42-.13C208.09,26,208,25.87,207.73,25.9Z"/><path class="cls-3" d="M207,21.64c.14,0,.24,0,.28-.08a1.08,1.08,0,0,0-.44,0A.27.27,0,0,1,207,21.64Z"/><path class="cls-3" d="M205.67,14.37a5.72,5.72,0,0,0-1.75,0A17.14,17.14,0,0,0,205.67,14.37Z"/><path class="cls-3" d="M206.5,23.13c-.14.09.2.14.26.24a.13.13,0,0,1,0-.18C206.58,23.24,206.62,23.14,206.5,23.13Z"/><path class="cls-3" d="M206.18,21.75c-.26,0-.43,0-.27.12S206.12,21.8,206.18,21.75Z"/><path class="cls-3" d="M206.07,23.18c.21,0-.11.06-.06.11a.81.81,0,0,1,.31.1c0-.09,0-.17,0-.22C206.23,23.21,206.09,23.07,206.07,23.18Z"/><path class="cls-3" d="M206,23.87a.12.12,0,0,1-.05.14.92.92,0,0,0,.43-.09C206.12,24,206.11,23.87,206,23.87Z"/><path class="cls-3" d="M204.74,24c-.22-.06,0-.16-.19-.25,0,.08-.49.08-.27.12S204.5,24.19,204.74,24Z"/><path class="cls-3" d="M204.29,23.55c.09.06.13.15.32.16C204.61,23.59,204.5,23.54,204.29,23.55Z"/><path class="cls-3" d="M203.41,18.19c0-.1-.2-.1-.38-.09C203,18.21,203.2,18.2,203.41,18.19Z"/><path class="cls-3" d="M203.84,22.67c-.25.06-.48-.08-.58,0C203.5,22.71,203.8,22.87,203.84,22.67Z"/><path class="cls-3" d="M202,14.53c.62,0-.25-.1-.29,0C201.91,14.61,201.86,14.54,202,14.53Z"/><path class="cls-3" d="M201.09,22.54s0-.07,0-.1c-.23,0-.32-.07-.36,0C200.94,22.45,200.88,22.58,201.09,22.54Z"/><path class="cls-3" d="M199.76,22.89c0,.06.09.07.1.14.26-.14,1,0,1.08-.12-.72,0-.78,0-1.56-.08C199.42,23,199.51,23,199.76,22.89Z"/><path class="cls-3" d="M199.33,22.94c-.06-.16-.47-.12-.77-.14C198.68,22.93,199.06,22.9,199.33,22.94Z"/><path class="cls-3" d="M199.33,29.59c-.05.14.94,0,.74,0A6,6,0,0,1,199.33,29.59Z"/><path class="cls-3" d="M197.11,22.07c.09,0,.09.06.09.11.22-.14.59-.06.71-.18C197.67,22,197.22,22,197.11,22.07Z"/><path class="cls-3" d="M197.63,24.16c.36,0,.3-.25,0-.25,0,.1.12.09.1.17S197.59,24.1,197.63,24.16Z"/><path class="cls-3" d="M196.86,19.83c-.17,0-.54,0-.58.06C196.41,19.89,196.9,20,196.86,19.83Z"/><path class="cls-3" d="M196.83,22.55c0-.11.33-.08.41-.16-.25,0-.47-.14-.66,0C196.87,22.31,196.62,22.57,196.83,22.55Z"/><path class="cls-3" d="M195.82,20.16c-.14.14-.4.07-.49.17a3.81,3.81,0,0,0,.86-.15C196,20.22,196,20.14,195.82,20.16Z"/><path class="cls-3" d="M196.55,22.21a1.68,1.68,0,0,0-.73,0A2,2,0,0,0,196.55,22.21Z"/><path class="cls-3" d="M196.44,22.46c-.31-.09-.38,0-.73,0,0,0,0-.07-.08-.07s0,.12,0,.15c.31,0,.33-.08.57-.1,0,.05-.11.07-.12.12h.14s0,0,.08,0S196.48,22.55,196.44,22.46Z"/><path class="cls-3" d="M196.5,22.78a3,3,0,0,0-.95,0A2.24,2.24,0,0,0,196.5,22.78Z"/><path class="cls-3" d="M194.38,18.73c-.23,0-.06-.18-.32-.13,0,.08,0,.13.11.17S194.38,18.77,194.38,18.73Z"/><path class="cls-3" d="M195.08,23.91c-.18.09.14.18,0,.25C195.39,24.18,195.17,24,195.08,23.91Z"/><path class="cls-3" d="M194,22.28c.11,0,.28,0,.29-.05-.39-.1.2-.05.19-.15C194.14,22.08,193.92,22.13,194,22.28Z"/><path class="cls-3" d="M195.3,33.8l1.26.05A3.09,3.09,0,0,0,195.3,33.8Z"/><path class="cls-3" d="M192.35,13.53c.13,0,.18,0,.21-.08-.25,0-.12-.14-.39-.1C192.14,13.47,192.39,13.41,192.35,13.53Z"/><path class="cls-3" d="M194,24.14c-.15-.11-.5-.1-.7-.18-.21.12.23.07.32.13-.07,0-.08,0-.14,0s-.27-.13-.54-.12A1.49,1.49,0,0,0,194,24.14Z"/><path class="cls-3" d="M192.9,19.9a.88.88,0,0,1-.3,0,1.79,1.79,0,0,0,.48.23C193.1,20,192.84,20,192.9,19.9Z"/><path class="cls-3" d="M193.53,23.87h-.22c.07-.07-.14-.16-.16-.06s.09,0,.08,0-.18,0-.2.08C193.17,23.9,193.51,24,193.53,23.87Z"/><path class="cls-3" d="M194,28.75c-.2,0-.53-.08-.66,0C193.6,28.77,194,28.88,194,28.75Z"/><path class="cls-3" d="M192,24.12c.08,0,.09.05.09.1.39,0,.38-.1.56-.16A1.88,1.88,0,0,0,192,24.12Z"/><path class="cls-3" d="M190.35,15.9s.08-.05.05-.11-.15,0-.23-.06S190.2,15.88,190.35,15.9Z"/><path class="cls-3" d="M191.57,27.71c.1.05.34,0,.45.05C192,27.64,191.59,27.58,191.57,27.71Z"/><path class="cls-3" d="M190.28,21.3c.14,0,.48.15.51,0s-.09,0-.08-.06C190.5,21.38,190.5,21.2,190.28,21.3Z"/><path class="cls-3" d="M190.24,24c.06.15.8.28.91.14-.19,0-.27,0-.24-.1C190.63,24.16,190.46,23.86,190.24,24Z"/><path class="cls-3" d="M189.59,17.47c-.14-.09-.55-.07-.57.06C189.2,17.49,189.49,17.56,189.59,17.47Z"/><path class="cls-3" d="M189.28,18.59v.07s0,0,.08,0,.37.09.28-.09C189.45,18.65,189.45,18.57,189.28,18.59Z"/><path class="cls-3" d="M190.19,23.73c-.12,0-.83,0-.64.1,0-.08.32,0,.3,0a1,1,0,0,0-.27.12c.13,0,.51.05.57-.07C189.71,23.88,190.37,23.86,190.19,23.73Z"/><path class="cls-3" d="M189.3,23.27c.3,0,.58,0,.58-.09-.28,0-.53,0-.4-.13C189.05,23.09,189.61,23.18,189.3,23.27Z"/><path class="cls-3" d="M188.89,18.86c-.27.06-.3-.21-.53-.05.16,0,.24,0,.24.1S189.13,18.89,188.89,18.86Z"/><path class="cls-3" d="M188.91,19.43c0-.05.13,0,.14-.08-.16,0-.48-.11-.51,0A.43.43,0,0,1,188.91,19.43Z"/><path class="cls-3" d="M188.27,22.85a2.36,2.36,0,0,1,.74,0s0-.1-.09-.1-.25-.08-.45-.05C188.61,22.86,188.23,22.77,188.27,22.85Z"/><path class="cls-3" d="M188.27,19.92l-.37,0c.08.11-.18.08-.19.15s.15.1.37.06.07-.1,0-.15C188.17,20,188.31,20,188.27,19.92Z"/><path class="cls-3" d="M187.17,28.26c0,.07-.06.08,0,.15a4.07,4.07,0,0,1,1.32,0c.18-.11.78-.06.93-.18a5.82,5.82,0,0,0-1.17.05c-.19,0,.15-.16-.17-.14,0,.08-.36.19-.21.05-.27-.05,0,.12-.2.11S187.32,28.4,187.17,28.26Z"/><path class="cls-3" d="M188,25.22c-.07,0-.48,0-.51,0,.27,0,.25.07.38.09C187.87,25.27,188,25.26,188,25.22Z"/><path class="cls-3" d="M188.33,27.32c-.12.1-.66,0-.7.17C187.88,27.46,188.24,27.48,188.33,27.32Z"/><path class="cls-3" d="M187.42,25.93c.18-.05.37.09.44,0-.23,0-.21-.09-.38-.09C187.49,25.87,187.46,25.9,187.42,25.93Z"/><path class="cls-3" d="M187.05,23.41c.14,0,.08.13.31.09C187.43,23.39,187.11,23.31,187.05,23.41Z"/><path class="cls-3" d="M188.32,28.93c-.18,0-.36-.1-.44,0s.1,0,.09.06A.54.54,0,0,0,188.32,28.93Z"/><path class="cls-3" d="M188.17,28.5c-.22,0-.36.05-.41.13.13,0,.07.11.23.1S188.19,28.61,188.17,28.5Z"/><path class="cls-3" d="M186.34,18.61l-.29,0c0,.06,0,.15.24.13,0-.06-.12-.09,0-.11S186.36,18.64,186.34,18.61Z"/><path class="cls-3" d="M187.17,25.72s.19,0,.2-.08c-.23.07-.25-.19-.38-.05C187.19,25.56,187,25.76,187.17,25.72Z"/><path class="cls-3" d="M186,27.53c.23.1.45-.09.73-.07,0,0,0,.1.09.1s.57,0,.64-.13A3.14,3.14,0,0,0,186,27.53Z"/><path class="cls-3" d="M186,23.2c.15,0,.52,0,.43-.09C186.13,23.11,186.06,23.08,186,23.2Z"/><path class="cls-3" d="M187,26.38a1.44,1.44,0,0,0-.45-.06C186.6,26.4,187,26.5,187,26.38Z"/><path class="cls-3" d="M187,28.09c-.23,0-.46,0-.5.09A1,1,0,0,0,187,28.09Z"/><path class="cls-3" d="M184.33,15.2c-.24,0-.34.06-.34.16C184.17,15.33,184.36,15.31,184.33,15.2Z"/><path class="cls-3" d="M185.1,23.24a5.55,5.55,0,0,0-.59,0C184.46,23.36,185.08,23.29,185.1,23.24Z"/><path class="cls-3" d="M185.81,28.43c-.08-.1.08-.1,0-.18C185.57,28.23,185.59,28.43,185.81,28.43Z"/><path class="cls-3" d="M186.25,33.41c-.26.05-.22-.08-.45,0C185.78,33.52,186.2,33.5,186.25,33.41Z"/><path class="cls-3" d="M184.45,28.67a1.9,1.9,0,0,0,.42-.13C184.65,28.55,184.38,28.54,184.45,28.67Z"/><path class="cls-3" d="M183.59,22.16c-.27,0-.35-.08-.54-.12C183,22.2,183.43,22.27,183.59,22.16Z"/><path class="cls-3" d="M183.56,28.21c0,.08-.21.08-.27.15.36,0,.79-.05.85-.22C183.81,28.13,183.75,28.35,183.56,28.21Z"/><path class="cls-3" d="M184.25,33.32c-.09.14.58.14.52,0A1.75,1.75,0,0,1,184.25,33.32Z"/><path class="cls-3" d="M182.87,28.88c.35-.08.56,0,.78-.14-.19-.09-.45.09-.66,0C183.06,28.82,182.86,28.81,182.87,28.88Z"/><path class="cls-3" d="M181.44,21.26c0-.08.34,0,.13-.11.05,0,.14,0,.14,0C181.49,21.08,181.25,21.22,181.44,21.26Z"/><path class="cls-3" d="M181.07,21.67c0,.09.53.13.6.08A3.36,3.36,0,0,0,181.07,21.67Z"/><path class="cls-3" d="M181.57,24.08c-.07.11.63.08.51,0S181.74,24.15,181.57,24.08Z"/><path class="cls-3" d="M180.26,17.09c.06.15-.21,0-.2.12a1.67,1.67,0,0,0,.57-.1C180.45,17.13,180.46,17.05,180.26,17.09Z"/><path class="cls-3" d="M180.13,20.92a1.93,1.93,0,0,0,.49-.13C180.46,20.74,180,20.77,180.13,20.92Z"/><path class="cls-3" d="M179.9,18.82c.11,0,.19.13.11.18C180.45,19,180,18.71,179.9,18.82Z"/><path class="cls-3" d="M179.77,20.54c-.22,0-.44.07-.49.17C179.51,20.68,179.72,20.65,179.77,20.54Z"/><path class="cls-3" d="M179.56,24.77l-.18.22C179.61,25,179.69,24.79,179.56,24.77Z"/><path class="cls-3" d="M177.22,13.26c-.15,0-.49,0-.51.06C176.88,13.33,177.2,13.38,177.22,13.26Z"/><path class="cls-3" d="M179.83,30.8c.19,0,.24.09.45.09C180.26,30.8,179.93,30.71,179.83,30.8Z"/><path class="cls-3" d="M177.09,15.44a3.49,3.49,0,0,0-.57.1C176.67,15.59,177.11,15.56,177.09,15.44Z"/><path class="cls-3" d="M179,30.87c.3,0,.31-.08.44,0s0-.05.07,0,0-.05,0-.07C179.25,30.8,179.05,30.71,179,30.87Z"/><path class="cls-3" d="M176.6,15.57a4,4,0,0,0-2.08-.08c-.25-.06.25-.1,0-.15-.34.13-1.13,0-1.16.13A16.43,16.43,0,0,0,176.6,15.57Z"/><path class="cls-3" d="M178.66,30.89c.39,0,.26-.2,0-.26,0,.11-.27.14-.56.14,0,.12.36,0,.39.12.07-.05,0-.16.26-.15C178.85,30.83,178.65,30.81,178.66,30.89Z"/><path class="cls-3" d="M177.71,28.82c.1.05.35.21.53.08C178,29,177.85,28.71,177.71,28.82Z"/><path class="cls-3" d="M175.22,16.06l-.37,0C174.82,16.23,175.26,16.18,175.22,16.06Z"/><path class="cls-3" d="M176.59,24.19a.53.53,0,0,0-.42.12A.39.39,0,0,0,176.59,24.19Z"/><path class="cls-3" d="M177.14,29.34c-.25.06-.37-.14-.52,0,.14,0,.16,0,.09.07C176.83,29.37,177.14,29.42,177.14,29.34Z"/><path class="cls-3" d="M177.23,30.27a1.52,1.52,0,0,0-.65.1C176.92,30.32,177.05,30.38,177.23,30.27Z"/><path class="cls-3" d="M177.25,30.41c-.31,0-.5.14-.33.19C176.92,30.49,177.16,30.48,177.25,30.41Z"/><path class="cls-3" d="M174.42,17s0-.08,0-.11h-.29C174.1,17,174.28,17,174.42,17Z"/><path class="cls-3" d="M175.31,30.67c0-.16.56-.1.7-.21-.32,0,.17-.15.29,0,0-.05,0-.08,0-.11-.13-.06-.24,0-.51,0,0,.17-.48.11-.62.21C175.24,30.59,175.21,30.67,175.31,30.67Z"/><path class="cls-3" d="M175.53,31.06c.29-.06.82,0,.85-.18C176.08,31,175.72,30.86,175.53,31.06Z"/><path class="cls-3" d="M175.44,28.88c.06.13-.21.12-.18.22.21-.11.63-.06.7-.17C175.66,29,175.63,28.89,175.44,28.88Z"/><path class="cls-3" d="M175.38,29.39c.26,0,.21-.14.33-.2A.38.38,0,0,0,175.38,29.39Z"/><path class="cls-3" d="M174.43,29.43c0,.1.19.12.32.16C174.75,29.47,174.64,29.42,174.43,29.43Z"/><path class="cls-3" d="M173.86,31.2c.3-.09.67,0,.79-.1C174.3,31.15,173.9,31,173.86,31.2Z"/><path class="cls-3" d="M172.87,28.53a4.86,4.86,0,0,1,.67,0C173.47,28.35,173,28.42,172.87,28.53Z"/><path class="cls-3" d="M172.52,29.83c.29-.06.91.05.87-.07C173,29.81,172.67,29.68,172.52,29.83Z"/><path class="cls-3" d="M169.57,13.31a1.36,1.36,0,0,1-.51,0C169.09,13.44,169.47,13.38,169.57,13.31Z"/><path class="cls-3" d="M172.34,29.66a1.87,1.87,0,0,0-.5.09C171.93,29.79,172.3,29.75,172.34,29.66Z"/><path class="cls-3" d="M169.26,17.36c.11,0,.39,0,.36-.05-.22,0-.36,0-.24-.1-.1,0-.38,0-.35.05S169.26,17.28,169.26,17.36Z"/><path class="cls-3" d="M169.31,27.11c.21,0,.55-.1.34-.15C169.71,27.08,169.21,27,169.31,27.11Z"/><path class="cls-3" d="M169.8,29.45c.18,0,.35,0,.35-.09a1.19,1.19,0,0,1-.45-.05A.18.18,0,0,0,169.8,29.45Z"/><path class="cls-3" d="M170.2,31.29c-.17,0-.37-.13-.36.05C169.94,31.32,170.23,31.37,170.2,31.29Z"/><path class="cls-3" d="M170.3,33.07s0-.08,0-.11c-.24.06-.74,0-.56.14C169.85,33,170.17,33.08,170.3,33.07Z"/><path class="cls-3" d="M169.32,29.26c.23,0,.32-.05.27-.16C169.29,29.07,169.42,29.21,169.32,29.26Z"/><path class="cls-3" d="M169.08,28.73c0-.07.35,0,.13-.11.08,0,.21,0,.21-.05C169.24,28.48,168.92,28.7,169.08,28.73Z"/><path class="cls-3" d="M165.84,13.44c.37,0,.57,0,.65-.1A1.38,1.38,0,0,0,165.84,13.44Z"/><path class="cls-3" d="M167.77,28s0,0,.08,0,.44,0,.58,0c-.06-.12-.38-.09-.54-.15.06.13.14.08-.13.08Z"/><path class="cls-3" d="M163.48,13.4c.26,0,.32,0,.66,0A1.14,1.14,0,0,0,163.48,13.4Z"/><path class="cls-3" d="M164.51,31.18c0,.11.38.18.38.06C164.67,31.27,164.73,31.15,164.51,31.18Z"/><path class="cls-3" d="M163,32c-.23,0-.44,0-.49.09C162.58,32.17,163,32.14,163,32Z"/><path class="cls-3" d="M161.92,32.33a.52.52,0,0,0,.21,0,.69.69,0,0,0,.17.1.18.18,0,0,0-.1-.14C162.07,32.26,161.83,32.23,161.92,32.33Z"/><path class="cls-3" d="M160.92,32.09a.47.47,0,0,0-.35.09C160.68,32.23,161,32.19,160.92,32.09Z"/><path class="cls-3" d="M156.85,10.43a.18.18,0,0,0-.11-.17c-.24,0-.34.06-.34.16C156.62,10.38,156.63,10.47,156.85,10.43Z"/><path class="cls-3" d="M145.11,13.52c-.27-.06-.75,0-.91-.1,0,.06-.06.08,0,.14C144.53,13.43,145,13.69,145.11,13.52Z"/><path class="cls-3" d="M249.8,28.27c.09,0,.09.06.09.11-.34-.05-.37,0-.13.07a5.47,5.47,0,0,0-1,.33c1-.11,1.14-.54,2-.48A2.88,2.88,0,0,0,249.8,28.27Z"/><path class="cls-3" d="M235,23s0,.07-.06.08-.19,0-.21,0a4.47,4.47,0,0,1,.58,0C235.14,23.07,235.25,22.91,235,23Z"/><path class="cls-3" d="M233.34,27.56c.08-.06.71-.08.48-.16S233.45,27.44,233.34,27.56Z"/><path class="cls-3" d="M229.47,22.77c0-.06-.12-.09-.16,0s.37.12.45,0c-.1,0-.08-.06-.16-.06S229.53,22.75,229.47,22.77Z"/><path class="cls-3" d="M223.49,22.67c0,.11.25.06.38.09-.1-.13.14-.12.19-.19A3,3,0,0,1,223.49,22.67Z"/><path class="cls-3" d="M214.65,22.63c.14,0,.15,0,.23.06s.06-.19-.1-.17-.56,0-.64.13c.21,0,.5,0,.52.05a.44.44,0,0,0-.28.08C214.63,22.79,214.8,22.69,214.65,22.63Z"/><path class="cls-3" d="M212.71,28.65s0,.07-.07.07-.09,0-.15,0,.38,0,.45,0C212.82,28.71,212.86,28.62,212.71,28.65Z"/><path class="cls-3" d="M208.13,23.63c.36,0-.07.23.27.24C208.44,23.73,208.25,23.54,208.13,23.63Z"/><path class="cls-3" d="M207.53,26.05c0-.07.19-.05.12-.15-.19.1-1-.09-.93.11A2.75,2.75,0,0,1,207.53,26.05Z"/><path class="cls-3" d="M204.66,21.92c.17-.2.81-.2.88-.43-.17.05-.32-.09-.36,0C205.6,21.61,204.41,21.78,204.66,21.92Z"/><path class="cls-3" d="M203,18.17c-.1,0-.28,0-.31-.09.18,0,.24.05.28,0a.57.57,0,0,0-.49.13C202.76,18.1,202.93,18.28,203,18.17Z"/><path class="cls-3" d="M203.28,22.41c0,.23.6,0,.36-.05C203.66,22.44,203.38,22.39,203.28,22.41Z"/><path class="cls-3" d="M201.41,23.06a2.12,2.12,0,0,1,1.34.12q0-.13.27-.15a.18.18,0,0,0,.1.14c.19,0,.27-.07.27-.16-.71-.07-1.29,0-2-.09C201.57,23,201.27,23,201.41,23.06Z"/><path class="cls-3" d="M197.77,18.72c0-.08-.22,0-.24-.1s.33-.06.42-.12c-.12,0-.07-.08,0-.11a10.48,10.48,0,0,0-1.8.22c.08,0,.2,0,.22,0a1.16,1.16,0,0,1-.45-.05c0-.11.2-.29.09-.33a.66.66,0,0,1-.78.18c-.07.12.24,0,.17.13a1.19,1.19,0,0,0-.29,0c0-.05.07-.06,0-.1s-.19-.05-.31-.06c0,.21.52.09.43.34.74.18,1.8-.1,2.66.06.17-.06,0-.07.13-.11s.27,0,.52,0c0-.08.1-.11.2-.15s.2,0,.17.14-.35,0-.36.09c.16,0,.42.09.45,0-.12-.08-.1-.2,0-.25a2.35,2.35,0,0,0-1.23.13S197.85,18.71,197.77,18.72Z"/><path class="cls-3" d="M198,22.75c0,.11.5.07.45.05A.81.81,0,0,0,198,22.75Z"/><path class="cls-3" d="M198.56,24h-.29c0,.09.14.08.1.18s-.37,0-.28.08a1,1,0,0,0,.42-.12C198.28,24.13,198.58,24.06,198.56,24Z"/><path class="cls-3" d="M196.22,19.11c.09.11.78.14.91.18v-.08C196.68,19.12,196.55,19.18,196.22,19.11Z"/><path class="cls-3" d="M197.14,19.32s0,0,0,0Z"/><path class="cls-3" d="M193.08,13.49c.23,0,.12-.1.35-.08.08.17.42.06.55.15-.19-.15.21,0,.44,0a6.31,6.31,0,0,0-1.73-.17C192.7,13.56,193,13.34,193.08,13.49Z"/><path class="cls-3" d="M194.44,18.65c.11.06.4.21.54.12C194.67,18.81,194.8,18.59,194.44,18.65Z"/><path class="cls-3" d="M194.92,22.6a.75.75,0,0,0-.44,0c.13.06.61,0,.4.16.22,0,.18.1.45.05.07-.15-.3-.06-.26-.2s.34,0,.43-.05c-.25,0-.31-.24-.4-.16C195.17,22.5,195.07,22.56,194.92,22.6Z"/><path class="cls-3" d="M195.81,28.81a.2.2,0,0,1-.17-.13c-.11,0-.48.11-.35.12S195.9,28.91,195.81,28.81Z"/><path class="cls-3" d="M191.77,22.66c-.16.06-.4.12-.11.19a1.7,1.7,0,0,1,.81,0c.2,0-.07-.11,0-.18a1,1,0,0,0,.42-.16,2.29,2.29,0,0,1,.31.09c-.11.07-.32.1-.41.16.25-.07.4.06.65,0,.09-.09-.21-.13,0-.15.35,0,.42.1.67.05l0-.15c-.36,0-.47,0-.73,0,0,0,0-.13-.1-.14s-.78.15-.83-.07c.37-.05.55,0,1,0,.06-.08.23-.2-.11-.18,0,0-.07.13-.34.16a3.69,3.69,0,0,0-1.25,0c.15.06.09,0,.29,0a.15.15,0,0,0,.09.1c-.25.08-.64.11-1,.23s-.21-.19-.69-.19c0,.22-.43.18-.85.18l0-.1c-.28.1-.45,0-.79.14,0-.05,0-.08-.09-.11.15-.1,1.32-.19,1.17,0a3,3,0,0,1,1.45-.14c-.08-.06.2-.12,0-.14a2.08,2.08,0,0,1-1,0c-.11.19-.78.13-.95,0,.18,0,.35,0,.35-.08a1.12,1.12,0,0,0-1,0c.25,0,.48-.13.66,0a.34.34,0,0,1-.2.12c-.19-.08-.25-.05-.52,0,0-.15-.3-.08-.4-.16-.16.08.15.15-.11.18s-.52.11-.82,0c.1-.06.3-.08.34-.16-.26,0-.15.13-.42.13,0-.1-.17-.09-.31-.1-.34.14-1,.06-1.28.24-.09-.07-.35,0-.46-.09.17,0,.28,0,.28-.08-.39.14-1.08,0-1,.22-.3,0-.52-.19-.75-.08.06,0,.15,0,.15,0s-.15.05-.28.05-.73.07-1-.1c.12.15-.29.08-.34.16.47.07,1,.1,1.5.15a9,9,0,0,1-1.31.09c0-.06.39-.16,0-.14-.21.23-.77,0-1.07.15.33,0,.81,0,.84.18,0-.18.25,0,.37,0,0-.21.62-.06,1-.15,0,.15.21.06.52,0,0,.17.32.1.4.2.38-.4,1.37-.06,1.62,0-.13,0,.11-.11.12-.15.18,0,.29.25.47.12-.08,0-.28,0-.24-.1.25,0,.52,0,.59,0a.32.32,0,0,1,.28-.12c.24,0,.38.07.39.13s.54,0,.28-.05c-.84-.22,1.58-.23,1.41,0,.2,0,.16-.15.41-.16s.47.07.55.19c.42,0,.63-.13.88,0,.13-.07-.05-.1-.1-.17C191.44,22.64,191.64,22.56,191.77,22.66Zm-8-.18c-.1-.21.38-.08.57-.1C184.24,22.5,184,22.39,183.79,22.48Zm.67,0c.15-.09.37,0,.52,0S184.4,22.67,184.46,22.52Zm1-.08a3.22,3.22,0,0,1,1,0A1.54,1.54,0,0,1,185.48,22.44Zm2.38.18c-.22,0-.11-.12-.38-.05.05-.2.48-.16.7-.21C188.27,22.52,187.7,22.43,187.86,22.62Zm2.74.1c0-.13.51-.2.57-.1S190.78,22.73,190.6,22.72Z"/><path class="cls-3" d="M192.52,19.42c0,.08-.4,0-.35.12l.37,0C192.5,19.46,192.63,19.43,192.52,19.42Z"/><path class="cls-3" d="M193.07,26.68c-.06-.14.42-.07.41-.2-.35.15-.94,0-1.12.3-.27,0-.44-.16-.6,0,.09,0,.09.05.09.1.34,0,.09.05.23.06a.36.36,0,0,1,.13-.11c0,.09.38.08.52,0q-.28,0-.24-.09A4,4,0,0,1,193.07,26.68Z"/><path class="cls-3" d="M190,18.24c0,.12.16.1,0,.18.3-.05.21.11.39.12h-.21a.77.77,0,0,0,0,.15c.36-.07.69.09.82,0-.11-.1-.52,0-.69-.11a1.16,1.16,0,0,1,1.17-.05c-.2,0-.2,0-.37,0,.08.12.89.13.88,0a2.25,2.25,0,0,1-1-.24s0,.1-.06.11c0-.18-.26,0-.39-.13.19.05.2-.13.06-.11s-.21.09-.27.16c.19,0,.16.06.24.09-.15,0-.14.06-.21.08S190.22,18.29,190,18.24Z"/><path class="cls-3" d="M191.82,18.41a1.72,1.72,0,0,0-.47-.16C191.3,18.4,191.77,18.45,191.82,18.41Z"/><path class="cls-3" d="M190.1,13.3c-.63,0-.21,0,.11.18C190.22,13.39,190.06,13.41,190.1,13.3Z"/><path class="cls-3" d="M191.16,22.12c.12,0,.44,0,.43-.06-.3-.25-.92,0-1.25,0,.26.17.67-.13,1,0C191.36,22.16,191.07,22,191.16,22.12Z"/><path class="cls-3" d="M191.85,23.52c-.73,0-.18,0,0,.14A.68.68,0,0,0,191.85,23.52Z"/><path class="cls-3" d="M191.3,21.68c-.13.08-.47-.06-.74,0C190.56,21.69,191.43,21.82,191.3,21.68Z"/><path class="cls-3" d="M190.84,20.74a2.9,2.9,0,0,0-1.17.05C190,20.78,191.23,21,190.84,20.74Z"/><path class="cls-3" d="M189.69,20.9c-.27,0-.26.13-.41.19S189.76,21,189.69,20.9Z"/><path class="cls-3" d="M190.05,24.17c0-.05.22-.14,0-.15a1.57,1.57,0,0,1-1-.06c0,.09.15.07.11.17a.5.5,0,0,0-.46,0c-.18-.31-.39-.35-.78-.35,0,0,.17-.06.13-.09s-.18,0-.2.09h-.26c-.09,0-.18-.07-.26,0h.06a10.47,10.47,0,0,1-1.14-.06s0,0,0,0,.23.05.29-.05c-.25,0-.52,0-.75,0l-.44-.08s0,0,0,0h-.06l-.43-.1.33.11-.13,0c.14.19.29.18.28.34.35,0,.41-.08.59,0,0,0,.05-.07.1-.09l.19.06h-.15c0,.06.21.1.36.09l.28.09s-.07,0-.08,0a.92.92,0,0,0,.23,0l.61.21c.06.22-1.3.41-.77.63l2.37,0a4.07,4.07,0,0,0-.31-.87A5.84,5.84,0,0,1,190.05,24.17Zm-4.57-.47.11,0-.1,0S185.5,23.71,185.48,23.7Zm.18.2c-.12,0,0-.09.11-.11l.13.05A.29.29,0,0,0,185.66,23.9Z"/><path class="cls-3" d="M188.23,18.89c-.06-.2-.74,0-.87.07.13,0,.61.16.46.09s-.28-.05-.32-.13C187.86,19,187.89,18.83,188.23,18.89Z"/><path class="cls-3" d="M188.09,27.61c.14,0,.15.05.23.07.1-.2.74,0,.94-.12a1.77,1.77,0,0,1-.82-.07C188.41,27.7,188.19,27.44,188.09,27.61Z"/><path class="cls-3" d="M188.66,27.52a2.84,2.84,0,0,1,.43-.06s0-.09,0-.14c-.21,0-.51,0-.5.09C188.83,27.41,188.43,27.54,188.66,27.52Z"/><path class="cls-3" d="M186.76,19.7h-.22c.06.1.28.1.39.16C187,19.76,186.72,19.81,186.76,19.7Z"/><path class="cls-3" d="M182.91,15.87s0,.1.09.1c-.05-.15.28,0,.3,0a8.28,8.28,0,0,1,1.4,0c-.11-.09.13-.18,0-.18,0,.05-.16.05-.21.08,0-.22-.25-.16-.28-.31,0,.16-.82,0-.71.14-.13,0-.06-.12-.17-.14a7.11,7.11,0,0,1-1.83.05c.13.12.17,0-.05.14C181.86,15.73,182.48,16.07,182.91,15.87Z"/><path class="cls-3" d="M185.25,27.38c.12.15-.44,0-.5.09a2.22,2.22,0,0,0,1.09-.08A5.66,5.66,0,0,1,185.25,27.38Z"/><path class="cls-3" d="M185.1,24.06c-.09-.07-.55.06-.46-.12a.7.7,0,0,0,.3,0c0-.15-.08-.17.09-.29-.32,0-.22.13-.49.13,0-.12.22-.19-.11-.21,0,.14-.11.22-.4.23.15-.17-.52,0-.68-.07,0-.09.12-.12-.1-.14.05.09-.41,0-.27.12s.23-.12.29,0a2.76,2.76,0,0,1-1.08.08c-.18.23.82.11,1.12.09a.15.15,0,0,0,0,.07c-.24,0-.22.07-.35.09s-.2-.07-.38-.05c0,.12.32,0,.46.08a1.18,1.18,0,0,1,.41-.12c.19.14.46,0,.76.11,0-.08,0-.12.2-.12s.07,0,.09.07-.19,0-.21.08a.82.82,0,0,1,.6.08C184.77,24.06,185.15,24.15,185.1,24.06Z"/><path class="cls-3" d="M184.18,28.79c-.13-.13.19-.08.11-.19s-.52,0-.2.08c-.15,0-.5-.16-.52,0,.34-.05.6.05.32.13.11.1.68-.08.68.08a1.64,1.64,0,0,1,.56-.13C184.88,28.67,184.44,28.9,184.18,28.79Z"/><path class="cls-3" d="M182.62,25c.18.05.09.23.18.18s.6-.09.48-.2A2.6,2.6,0,0,1,182.62,25Z"/><path class="cls-3" d="M184,34.12c-.66.11-1-.15-1.48,0A2.87,2.87,0,0,0,184,34.12Z"/><path class="cls-3" d="M183,29a.73.73,0,0,1-.68-.11c.12.13,0,.37.15.46C182.45,29.15,182.86,29.13,183,29Z"/><path class="cls-3" d="M180.47,24.09c.36.06.78-.07,1,0-.05-.24.27-.13.56-.21,0-.06-.1-.07-.1-.13h-.44c0,.15-.52.07-.58.07s.09-.08,0-.15-.15.07-.36.05.24,0,.17.14-.18.06-.36.05a1.81,1.81,0,0,0-1.19-.09C179.4,24.09,180.94,23.9,180.47,24.09Z"/><path class="cls-3" d="M180,23.75a2.2,2.2,0,0,0-.91-.14c.25,0-.06.07,0,.11s.09,0,.09.07c.3,0,.07-.14.19-.15S179.79,23.73,180,23.75Z"/><path class="cls-3" d="M182.88,29.34c-.26.07-.43,0-.5.1C182.59,29.53,183,29.31,182.88,29.34Z"/><path class="cls-3" d="M181.71,25.68c.23,0,.56-.18.27-.16C182.12,25.67,181.57,25.53,181.71,25.68Z"/><path class="cls-3" d="M182.19,25.91c0-.11-.21-.06-.17-.17-.11,0-.39,0-.36.05C182,25.73,182,25.9,182.19,25.91Z"/><path class="cls-3" d="M182.41,28.76c-.26,0,.16-.14-.1-.14,0,0,0,0,0,.07s-.27,0-.29,0S182.6,28.82,182.41,28.76Z"/><path class="cls-3" d="M183.22,33.33a.7.7,0,0,1-.23-.06l-.51,0C182.36,33.32,183.42,33.38,183.22,33.33Z"/><path class="cls-3" d="M178.6,19.35c-.38-.21-.88.1,0,0Z"/><path class="cls-3" d="M179.1,29.19c.3-.1.75-.14.9-.29C179.73,29.05,179.14,29,179.1,29.19Z"/><path class="cls-3" d="M178,19.84c-.2.1-.78.05-.92.18C177.52,20,178,19.94,178,19.84Z"/><path class="cls-3" d="M178.81,29.2c0-.05,0-.08.05-.11-.28,0-.45,0-.49.13C178.57,29.16,178.6,29.11,178.81,29.2Z"/><path class="cls-3" d="M178.76,29.38c-.1,0-.27,0-.37-.06s-.09.08-.13.12c.14.06.21,0,.36-.05s.22.2.31.09C178.83,29.47,178.77,29.44,178.76,29.38Z"/><path class="cls-3" d="M176.6,20.93c.19-.09.45,0,.58-.06a1,1,0,0,0-.6,0C176.67,20.87,176.64,20.9,176.6,20.93Z"/><path class="cls-3" d="M178,29.05c0,.07-.11.09-.28.09,0-.05,0-.08.06-.11-.31,0-.16.09,0,.14S178.26,29.09,178,29.05Z"/><path class="cls-3" d="M175.36,16.45a1.93,1.93,0,0,0-.49.13c.25,0-.39.12-.05.18,0-.1.45-.3.28-.09C175.35,16.67,175.22,16.5,175.36,16.45Z"/><path class="cls-3" d="M177.76,30.75a4,4,0,0,0-1.09.12,3,3,0,0,1,.89,0C177.42,30.74,177.8,30.83,177.76,30.75Z"/><path class="cls-3" d="M175.81,29.29c.61-.12,1.15,0,1.44-.13-.14,0,0-.13,0-.18-.38,0-.55-.15-.81,0-.07-.13-.31-.26,0-.32,0,0,0,.07.09.06s0-.13-.1-.13-.11.08-.28.08c-.05.23-.18.23-.22.44.06,0,.28,0,.31.06S175.79,29.12,175.81,29.29Z"/><path class="cls-3" d="M176,30.57c.35,0,.58.12.73-.07A5.64,5.64,0,0,0,176,30.57Z"/><path class="cls-3" d="M176,30.65a.7.7,0,0,1,.23.06s-.11.08,0,.1.21-.09.27-.15C176.21,30.74,176.12,30.51,176,30.65Z"/><path class="cls-3" d="M175.15,28.89c.26,0,.51-.22.46-.27s-.11.05-.21.05C175.5,28.82,175.13,28.78,175.15,28.89Z"/><path class="cls-3" d="M175.2,30c.3,0,.25-.17.48-.2C175.37,29.84,175.33,30,175.2,30Z"/><path class="cls-3" d="M175.27,30.43c.15-.05.47,0,.49-.13-.84,0-1.2-.08-1.91,0,0,.05,0,.09-.14.08a5.69,5.69,0,0,0,1,0c-.08,0-.18-.05-.08-.07C174.85,30.33,175,30.4,175.27,30.43Z"/><path class="cls-3" d="M175.34,32c.81.06.59-.12,0,0Z"/><path class="cls-3" d="M174.89,29.51a.8.8,0,0,0,.58-.06C175.16,29.56,175,29.37,174.89,29.51Z"/><path class="cls-3" d="M174,29c.15.05.51,0,.47.15a1.34,1.34,0,0,0-.37,0,.74.74,0,0,0,.69.19c0,.1-.11.08,0,.14h.14s0,0,.07,0-.24,0-.17-.14.42,0,.5-.09c-.23.05-.19-.05-.31-.06,0,.08-.26,0-.36.05.06-.1.05-.15,0-.25C174.39,29,173.91,28.88,174,29Z"/><path class="cls-3" d="M174.68,28.74c-.17,0-.42.07-.65.1A1.16,1.16,0,0,0,174.68,28.74Z"/><path class="cls-3" d="M174,29.19c-.06-.14-.3-.07-.44,0,.11.08-.19.15,0,.18C173.64,29.23,173.77,29.15,174,29.19Z"/><path class="cls-3" d="M169.06,17.05a1.44,1.44,0,0,0,.48-.2c-.15,0-.47,0-.49.13S169.1,17,169.06,17.05Z"/><path class="cls-3" d="M171.49,29.84c-.06,0-.42-.06-.44,0s.28.24.33.2C171,29.9,171.59,29.84,171.49,29.84Z"/><path class="cls-3" d="M169,17c-.15,0,.08-.18-.08-.06,0,0,0,0-.07,0s-.08-.06-.16-.07S168.9,17.12,169,17Z"/><path class="cls-3" d="M170.56,27.13c0,.06-.27,0-.3,0,.16,0,.34-.07.14-.08s-.1.12-.26.23C170.34,27.26,170.79,27.19,170.56,27.13Z"/><path class="cls-3" d="M171.07,29.54c0-.23-.46-.16-.7-.19,0,.09-.27.09-.18.23.14-.19.59,0,.27-.16A.9.9,0,0,1,171.07,29.54Z"/><path class="cls-3" d="M170.54,31.13c-.17.08-.34,0-.43.06.26,0,.48.21.75.07C170.62,31.28,170.37,31.23,170.54,31.13Z"/><path class="cls-3" d="M170.48,32.42c.43,0,.31-.49.28-.44S170.7,32.33,170.48,32.42Z"/><path class="cls-3" d="M169.33,32.19c0-.15.43-.11.47-.24C169.59,32,169.13,32.09,169.33,32.19Z"/><path class="cls-3" d="M162.31,17.13a5.25,5.25,0,0,0,1,0c-.25-.11-.43,0-.69-.18C162.94,17.2,162.26,16.86,162.31,17.13Z"/><path class="cls-3" d="M161.85,17.08c0-.06,0-.14-.09-.14s-.55-.09-.58.06c0-.06-.12-.09-.15,0s.15,0,.16.1a2.34,2.34,0,0,1,.43-.06c.06.11.14,0,.25.14-.05-.1.29.07.28,0s-.07-.12-.23-.1S161.93,17.07,161.85,17.08Z"/><path class="cls-3" d="M161.66,32.52a3.18,3.18,0,0,0-.32-.16c0,.09-.27,0-.28.12a3.07,3.07,0,0,1,.76.11c.09-.05,0-.14-.1-.18S161.75,32.51,161.66,32.52Z"/><path class="cls-3" d="M213.65,22.35c0,.11.21.06.17.17-.25,0-.29,0-.51,0s-.26.15-.05.18c.1-.12.46,0,.66,0,0-.07.09-.07.13-.11C213.76,22.55,214.14,22.29,213.65,22.35Z"/><path class="cls-3" d="M187.93,13.9c0,.14.4.31.54.15a3.31,3.31,0,0,0,2,.27,3.28,3.28,0,0,0,1.49.12c.07.12.56,0,.75.07,0,0,0-.09.13-.08,1,.19,2.05,0,3.12.19,0-.19.52,0,.64-.14a4.66,4.66,0,0,1-.69-.15c0,.05,0,.1,0,.11s-.24,0-.24-.13.36,0,.26-.15c-1.23.34-2.19-.44-3.33-.14,0-.06-.08-.09-.17-.1-.23.2-.76-.12-.94.07,0-.18-.57-.07-.74,0-.51-.22-1.25,0-1.87-.16-.07.05-.24.05-.28.12,0-.16-.24-.11-.07,0a.69.69,0,0,0-.29.05c-.06-.11.12-.12,0-.18s-.16.18-.22,0c-.2,0-.41.12-.26.19S187.86,13.92,187.93,13.9Z"/><path class="cls-3" d="M187.14,28.48c-.08-.1-.09-.11,0-.22l-.36,0c-.11.1.1.12-.05.18s-.17-.05-.17-.13c-.21,0-.52.05-.56.16A6.66,6.66,0,0,0,187.14,28.48Z"/><path class="cls-3" d="M184.84,26.29c-.49,0-.33-.1-.69-.15-.05.16.12.2.19.28s.39,0,.36-.05-.08,0,0,0S184.84,26.33,184.84,26.29Z"/></g></g></g></g></svg>