<svg xmlns="http://www.w3.org/2000/svg" viewBox="0 0 2000 300.32"><defs><style>.cls-1{fill:#023436;}</style></defs><g id="Layer_2" data-name="Layer 2"><g id="Layer_1-2" data-name="Layer 1"><g id="Layer_2-2" data-name="Layer 2"><g id="svg2"><path id="path2987" class="cls-1" d="M521.72,298.41c0-.88-.48-1.42-1.07-1.22s-1.81-.61-2.71-1.82a5.1,5.1,0,0,0-3.47-2.19c-1.47,0-1.58-.18-.57-.87s1-.93-.14-1.14-1.07-.51.23-1.4,1.33-1.19.28-1.39c-.76-.14-1.38-.53-1.38-.86s.49-.44,1.09-.23.83,0,.43-.58-.08-1,.61-1c.92,0,.94-.34.07-1.24s-.83-1.24.56-1.24,1.48-.16.36-.83c-1.43-.86-4.17-.09-3.84,1.06.09.3-.42.67-1.13.81s-1.07-.2-.65-1.1.19-1.22-.36-1a8.27,8.27,0,0,1-3.21-.13c-1.76-.36-1.24-.55,2.5-.9,2.92-.28,4.69-.78,4.69-1.33s1-.87,2.14-.87a6.77,6.77,0,0,0,3.66-1.21c1.49-1.19,7.12-2.82,8.94-2.59a65.72,65.72,0,0,0,7.18-.76c3.43-.48,9.34-1.08,13.14-1.32s7.18-.69,7.5-1a6.67,6.67,0,0,1,3-.57,53.61,53.61,0,0,0,9-1.84,56.66,56.66,0,0,1,8.49-1.85,4.65,4.65,0,0,0,2.55-.63c.37-.34.11-.62-.57-.62-1.53,0-1-2.77.57-2.83.6,0,3.27-.39,5.94-.82a33,33,0,0,1,7.5-.4,24.29,24.29,0,0,0,6.2-.22c1.93-.34,6.28-.91,9.67-1.29,9.31-1,14.31-1.87,14.31-2.45s-56.67-.18-70.67.52c-7.39.37-10.21.27-13.25-.47-2.13-.52-4.11-1-4.42-1s-2-.43-3.78-.84a15,15,0,0,0-5-.37c-1,.21-15.66.49-32.66.61s-33.16.5-35.89.84-10.92.94-18.2,1.33-14.17,1-15.34,1.36a31.44,31.44,0,0,1-7.5.34c-3-.16-5.67,0-6,.25a1.79,1.79,0,0,1-1.63.18c-.57-.19-1-.06-1,.3s-.38.6-.84.53c-1.83-.27-11.31.86-11.31,1.35s-8.34,1.61-11.5,1.38a8.57,8.57,0,0,0-4.16,1.1,10.13,10.13,0,0,1-4,1.32c-1,0-4.87.14-8.51.21a98.46,98.46,0,0,0-11,.85c-2.43.39-6.3.87-8.59,1.06s-3.9.6-3.58.89c1,.94-1.42,1.18-20.61,2.06-1,0-1.76.34-1.66.67s-.8.75-2,.95a31.31,31.31,0,0,0-5,1.43c-2,.76-6.19,1.17-14.91,1.46-6.67.22-13.27.37-14.68.33a24.58,24.58,0,0,0-5.94.92c-1.92.56-3.68.74-4.07.42-.95-.8-4.84-1.56-4-.78s-.17.77-3.11-.13c-5.94-1.8-34-.43-37,1.81-.9.69-1,1.16-.28,1.29s1.14.46,1.14.77-.69.39-1.54.21a3,3,0,0,0-2.27.33c-1.07,1,5.55.83,9.11-.19a55.37,55.37,0,0,1,7.95-1.31l6.91-.66c1.06-.11,1.93.16,1.93.61s1.37.75,4.7.6c3.62-.16,4.24-.06,2.73.43-1.07.35-1.71.86-1.4,1.14.65.6-5.53,1.19-17.5,1.69-6.67.28-8.9.17-9.64-.49s-1-.64-1-.07c0,1.14-6.66,1-9-.25-1.12-.57-2-.77-2-.44s-3.59.41-9.11.16c-5-.24-12.84-.58-17.4-.77a109.11,109.11,0,0,1-11.9-1.06,26.06,26.06,0,0,0-6.29-.42,6.34,6.34,0,0,1-3.44-.33c-.38-.33-.14-.44.75-.13s1.18.25.73-.15c-.83-.75-6.09-1.44-12.32-1.6-3.68-.09-4.44-.34-4.54-1.44s.65-1.38,7.18-1.81c4-.26,8.53-.41,10-.34l2.77.14-2.94-.9c-5.08-1.55-10-2.2-19.71-2.6-5.15-.21-12.6-.84-16.55-1.39-9.09-1.28-40.59-1.38-42-.13a2.43,2.43,0,0,1-2.16.33c-1.84-.64-22.16-.86-21.48-.23s.48.59-14,.84c-10.19.17-14.5.39-29.77,1.46-7,.5-11,.21-15-1-1.66-.53-1.3-.83,2.71-2.25,3.24-1.14,7.19-1.82,13.16-2.24,10.19-.72,19.9-1.63,26.9-2.52,4.17-.53,5-.85,4.59-1.8a1.8,1.8,0,0,0-2.09-.81c-.83.18-1.55,0-1.55-.36s.84-.69,1.94-.69c1.66,0,1.66-.1.27-.61-1-.38-1.16-.6-.31-.61s1.06-.43.71-.94.66-1.26,3.63-2l4.25-1.06-10.78-.37c-5.93-.21-13.77-.35-17.39-.31s-6.61,0-6.61,0,1-.72,2.21-1.5,2.21-1.24,2.21-1,1.12,0,2.5-.5a64.47,64.47,0,0,1,10.66-1.62c4.51-.39,10.16-1.1,12.57-1.58a53.17,53.17,0,0,1,8.33-.89c6.16,0,21.67-2.29,17.17-2.5-.56,0-2-.18-3.22-.33l-3.56-.45c-2.5-.31-2.68-.92-.35-1.33a22.41,22.41,0,0,0,5.21-1.92,14.4,14.4,0,0,1,5.35-1.5,7.89,7.89,0,0,0,3.72-.85c1-.7.13-.92-5.11-1.25-3.5-.23-7.85-.55-9.68-.71-4.33-.39-21.58-.34-22.77.07-1.6.56-14.22.82-14.22.3,0-.28.75-.85,1.66-1.27s1.67-1.06,1.67-1.42-.32-.46-.72-.24a3,3,0,0,1-2.21-.28c-.84-.38-1.49-.43-1.49-.1s-.74.59-1.66.59c-2.65,0-1.93-.66,1.72-1.56,4.09-1,3.51-1.45-3.1-2.25-6-.74-7.17-1.89-2.85-2.87s25.48-2.32,37.5-2.34c5.63,0,11.55-.2,13.16-.43l2.94-.41-3.15-1.45a16.37,16.37,0,0,0-5-1.46c-2.62,0-3.42-1-2-2.49s11.08-4.34,14.94-4.34c1.67,0,2.57-.27,2.18-.62A5.1,5.1,0,0,0,95.6,214c-1.87,0-3.95-1.55-3.54-2.64s-17.1.14-18.57,1.31c-1.12.9-29.31,3.25-32.09,2.68l-2.63-.55,2.57-.77c1.4-.42,10.58-1.52,20.38-2.44,17.93-1.67,22.3-2.86,10.55-2.86-3.62,0-6.93-.35-8-.85-1.53-.71-3.66-.73-12.6-.12-16.45,1.13-26,1.9-28.25,2.29-1.49.26-1.93.07-1.67-.68.4-1.1,3.82-2.39,9.17-3.46,4.61-.92,1.74-1.74-4.17-1.18-2.55.25-6.88.64-9.61.88l-5,.44,4.16-2.23a28.79,28.79,0,0,0,4.17-2.45,56.13,56.13,0,0,0-6.84-.65c-8.91-.57-13.67-2-13.61-4,0-1.07,7.18-2.51,13.83-2.78,2.73-.12,9-.65,13.8-1.19s12.31-1.11,16.56-1.26,10.72-.58,14.36-.93c22.63-2.23,27.72-2.78,28.7-3.09.6-.2-1.15-.66-3.87-1s-4.95-1-4.95-1.49c0-1,11.12-3.31,21.22-4.32,4.92-.49,8.55-1.22,9.75-2s4.75-1.49,8.41-1.9c8.34-.91,8.08-1.78-.94-3.65-1.93-.4-3.33-1-3-1.44.63-.9,5.75-2.27,8.48-2.27,1.13,0,1.74-.28,1.37-.62s-4.38-.62-8.9-.62c-7.45,0-10.44-.63-6.84-1.44,3.22-.73-12.9-.34-20.83.51-9.91,1.05-15.3.61-15.3-1.25,0-.86,2.88-2,10.83-4.23,7.5-2.12,10.39-3.22,9.39-3.59-1.9-.69,0-1.4,7.38-2.77,10.46-1.93,18.75-5.18,17.66-6.91-.74-1.18,3.33-1.82,20.17-3.19,8.33-.67,16.74-1.66,18.61-2.18a55.08,55.08,0,0,1,8.82-1.32c8.21-.55,23.9-2.78,26.36-3.74a19,19,0,0,1,5.52-.89,31.39,31.39,0,0,0,5.55-.58c1.76-.42,1.31-.55-2.2-.62-9.42-.2-14.41-.72-15.66-1.63a5.19,5.19,0,0,0-3.86-.56c-2.21.34-2.3.3-.62-.29a10.87,10.87,0,0,1,3.87-.51,9.5,9.5,0,0,0,3.39-.35,8,8,0,0,1,4.21.3,6.63,6.63,0,0,0,4.82.08c1.32-.46,2.33-.51,2.75-.12s3.5.62,7,.63a40.58,40.58,0,0,1,9,.9c3.33,1.06,4.41,1.14,4.41.31,0-.34-.77-.62-1.71-.62s-1.45-.24-1.12-.54-.43-.71-1.71-.89-2.1-.71-1.83-1.16c.48-.82,5.43-1.31,20.73-2,13.83-.65,17.67-1,17.67-1.61,0-.32-.75-.58-1.67-.58s-1.66-.55-1.66-1.24c0-.9.74-1.23,2.76-1.23,3.18,0,3.72-1,.79-1.39-1.09-.16-6.67-.14-12.43,0-16.73.53-23.42.36-26.92-.71a12.21,12.21,0,0,0-3.95-.73c-.39.13-.51-.54-.25-1.5.54-2.09-1-2.42-12.35-2.59-6.78-.11-7.31-.2-5-.89,3.89-1.12,18.11-2.74,26.6-3,4.34-.14,8.44-.65,9.9-1.23,3.15-1.23,5-1.25,7.15-.06,1,.54,3.62.92,6.27.92,8.19,0,38.73-1.77,42.87-2.45,3.87-.63,4-.74,3.17-2.77-.51-1.28-.4-2.36.3-2.75s.75-.9-.11-1.48c-2.64-1.79.71-2.16,16.83-1.85,12.5.23,16.43.1,19-.63s14.81-1.82,23.08-2c1.2,0,4.69-.3,7.72-.61l5.53-.55-5-.45c-2.74-.25-10.93-.31-18.22-.14s-17.72.28-23.19.24-16.15.37-23.74.92c-15,1.1-30.51,1.87-37.18,1.84-2.33,0-4.54.23-4.92.53a11.21,11.21,0,0,1-4.17.62c-1.89,0-3.45.31-3.45.59s-1.11.34-2.5.12c-1.94-.3-2.12-.25-.83.26s1.39.65-.28.66c-1.06,0-1.93.32-1.93.7s-1.05.31-2.72-.31c-3-1.11-4.35-1.28-3.43-.45.33.3-.38.69-1.59.87s-2.2,0-2.2-.39-1.74-.72-4.17-.72c-2.62,0-4,.27-3.87.75s-1,.65-3.82.45c-4.6-.33-9.17-1.77-9.17-2.92,0-.48-.4-.42-1.09.17s-1.07.54-1.08-.81A4.11,4.11,0,0,1,204.31,97c.92,0,1.37-.28,1-.62s.21-.64,1.31-.67A24.23,24.23,0,0,0,215,94.34c2.21-.81,7.4-.5,7.4.44,0,.17-.67.17-1.49,0a4.67,4.67,0,0,0-3,.76c-1.34.93-1.34,1,0,.55s1.39-.27.79.6c-.46.68-.21,1.34.64,1.64,2.12.76,3.89.61,2-.15-1.25-.5-.61-.58,2.58-.33a20,20,0,0,0,6.26-.38,4.2,4.2,0,0,1,3.63,0c1.31.6,1.79.54,2.5-.35a2.57,2.57,0,0,0,.69-1.56c-.1-.25.52-.47,1.38-.47a2.55,2.55,0,0,0,2-.71c.24-.39,1.89-.79,3.67-.9a10.43,10.43,0,0,0,4.47-1.14,2.35,2.35,0,0,1,2.13-.49c.49.25.58,0,.2-.63-.83-1.33,1.26-1.46,2.17-.13.58.85.89.84,2.72-.09s2.08-1,2.09.13.2,1,1.1.25c1.59-1.39,1.36-1.69-1.6-2.11-1.87-.26-2.64-.77-2.5-1.68.2-1.45,4-2.53,8.48-2.38,4.12.14,7.77-.66,7.77-1.7,0-.67,1.1-.87,4.17-.74,4.45.18,11.93-.52,14.63-1.36,1.34-.42,1.23-.53-.55-.57-1.21,0-4.7-.18-7.73-.34-9.39-.49-21.88-.48-26.38,0-3.1.35-4.09.29-3.54-.21s.18-.57-.78-.36a4.82,4.82,0,0,1-3.53-1.37c-1.43-1.22-1.62-1.77-.66-2s.67-.54-.66-1.13c-1.82-.8-1.67-.84,1.32-.55,1.82.18,2.69.16,1.93,0-2.79-.74-1.26-1.5,3-1.5,2.79,0,4.42.28,4.44.77s.26.55.95-.06a1.2,1.2,0,0,1,1.67-.21c.74.67,2.14.62,5.59-.21a32.26,32.26,0,0,1,5.79-.56c4.57,0,6.06-1.59,1.54-1.59-1.79,0-3.44-.4-3.8-.93s.06-.93,1.48-.93a5.45,5.45,0,0,0,3-.77c1.27-1.11,5.77-2.43,6.93-2a1.85,1.85,0,0,0,1.66-.29,8.23,8.23,0,0,1,3.74-.63,74.54,74.54,0,0,0,9-1c5.21-.87,5.67-1.07,3.55-1.52-1.35-.28-10.57-.48-20.49-.43s-18.69-.14-19.48-.42a2.45,2.45,0,0,0-2.2.19c-.88.8-35.21,1.41-36.07.64a3.32,3.32,0,0,0-2.26-.13c-1.16.25-1.31.51-.46.8.67.24-.28.43-2.12.43s-3.33-.26-3.33-.59-.76-.24-1.67.19a3.42,3.42,0,0,1-2.5.34c-.44-.24.45-1,2-1.61L212,61.69l-2.76.3c-2.42.26-2.5.22-.55-.29a24.75,24.75,0,0,1,11.48.19c3,.93,6.74.62,6.74-.55,0-.54,2.18-.78,7.17-.8,4.51,0,7.19.23,7.19.66s.61.22,1.37-.34c1-.73,4-1.12,10.77-1.41,5.16-.22,12.5-.79,16.36-1.27s8.55-.9,10.48-.93a83.31,83.31,0,0,0,9-.91c5.18-.79,4.59-.82-9.38-.5-8.2.18-15.65.34-16.56.34S251,56.85,238,57.65s-27.29,1.53-31.67,1.64-7.67.39-7.38.65-1.67.46-4.26.47-9.23.4-14.69.9c-9.38.84-31.43,1.71-28.43,1.12.76-.15,1.1-.53.76-.84s.77-.58,2.5-.6a30.3,30.3,0,0,0,7-1.2c2.12-.65,4.86-1.44,6.06-1.75,4-1,69.12-7.09,84.48-7.84,4.55-.22,17.72-1,29.26-1.63S308.3,47,315.4,46.68s15.25-1,18.18-1.5c3.84-.65,5.52-.7,6.07-.2.7.63,12.32.46,26.38-.4,2.13-.13,8.83-.41,14.91-.62,10.89-.38,27.5-1.66,36.79-2.84a23.32,23.32,0,0,1,5.84-.25c.57.19,8.26-.26,17.1-1,13.06-1.11,16.53-1.22,18.58-.6s4.72.51,14.58-.58l48.48-5.34c4.86-.53,11.92-1.36,15.69-1.84s8.49-.88,10.49-.88a57.92,57.92,0,0,0,8.6-.89c4.61-.82,14-1.74,39.17-3.81,12.89-1.07,15.53-1.32,28.72-2.72,6.08-.64,16-1.63,22.09-2.19l14.36-1.33c12.89-1.19,15.34-1.17,17.9.16,1.39.72,2.5,1.63,2.5,2a.72.72,0,0,0,.84.63c.46,0,2,0,3.33,0,2.12.06,2.35.26,1.43,1.23-1.35,1.41-.28,2.18,1.75,1.24,2.27-1.06,1.75-.11-.84,1.58a17.15,17.15,0,0,1-6.66,1.92c-3.71.35-4.17.55-2.95,1.35,1.79,1.2.28,1.28,71-3.53,4.86-.32,13.55-.73,19.32-.89s16.21-.59,23.19-.95,16.18-.76,20.43-.9,9.69-.53,12.1-.88S836.73,22,846,22s17.5-.17,18.27-.32c2-.37,27.87-1.13,34-1a21.91,21.91,0,0,1,6.66,1c2.09,1.05,7.39,1.16,32,.64,11.33-.24,21.73-.79,25.15-1.32,4.46-.7,11.85-.89,31.48-.81,14.1.05,37.57-.11,52.14-.37,29.54-.52,28-.53,58.52.22,19.79.48,31.2.5,48.59.08,3-.07,4.65-.26,3.59-.41s-1.94-.58-1.94-.93,3.1-.53,9.11-.29c5,.2,20,.64,33.4,1s30.5.91,38.1,1.26c30.5,1.4,42.13,1.9,58,2.47,39.61,1.41,60.5,2,82.27,2.22,10,.11,22.44.4,27.6.63s12.86.39,17.11.36,12.7.22,18.77.56,25.74.73,43.71.88,34.86.54,37.5.88,8.79.75,13.55.93,10.25.48,12.15.66c6.53.6,16.72,1,31.67,1.26,13.13.23,25.89.77,44.72,1.91,3,.18,7.27.41,9.39.51l12.14.57,17.12.77c4.86.21,9.08.47,9.38.57s3.38.36,6.84.57,7,.53,7.89.72,6,.43,11.39.53C1711,38,1711,38,1711,39a1.08,1.08,0,0,0,1.17.93c.64,0,.83-.33.37-.73s-.19-.59,1.13-.31a24.58,24.58,0,0,0,4.36.42c1.67,0,2.5.4,2.61,1.24.19,1.48-.4,1.55-2.62.31s-4.9-1.2-4.12.15c.38.67.26.82-.31.39s-3.74-.56-9.77-.27c-10.36.48-18.18.35-32.57-.56-5.77-.36-13.22-.81-16.56-1s-6.67-.44-7.36-.57a2.09,2.09,0,0,0-1.94.71c-.47.69-1.52.83-4,.52-4-.49-6.5-.67-17-1.24-4.25-.23-8-.52-8.39-.65-.77-.26-15.54-.31-35.78-.1-12.83.13-21.88-.23-28.64-1.13-3.81-.5-30.43-.72-30.43-.25,0,.25,3.33.65,7.45.9s8.45.55,9.66.69c8.53.94,31.34,2,49.69,2.3a63.2,63.2,0,0,1,8.9.54c1.07.39,34.88,1.87,36.66,1.61.43-.06,4.51.08,9.07.32,7,.37,25,1.11,29.53,1.22,1.67,0,1.83.84.33,1.35-1.08.38-9.4.46-16.93.18-2.3-.09-4.59-.52-5.08-1-.67-.61-2.57-.71-7.41-.4-3.58.23-6.85.53-7.26.67a4.23,4.23,0,0,1-2.41-.7c-.92-.51-1.94-.7-2.26-.4-.62.56-22.91.32-29.37-.32-2.12-.21-5.83-.44-8.33-.51a34.19,34.19,0,0,1-6.9-.86c-2-.59-2.45-.57-2.45.09,0,.49-1.47.89-3.59,1-8.72.39-21,.36-30.63-.09-7-.33-10-.29-8.87.12,4.35,1.63-3.82,2.44-16.53,1.63-11.28-.72-13.34-.76-18.16-.34a41.92,41.92,0,0,1-7.84-.1c-4.73-.71-29.3-2-40.25-2.06-5.16-.05-12.62-.27-16.56-.51s-11.9-.56-17.67-.74-19.44-.73-30.37-1.23-27.19-1.09-36.13-1.32c-14.57-.38-16.33-.31-17,.61s-2.5,1-13,1c-6.76,0-14.54.2-17.27.47l-5,.51,8.28.69c4.55.38,10,.68,12.15.67s10.83.41,19.32.94,24.65,1.27,35.89,1.65,21.53.83,22.88,1,12.5.57,24.84.9c22.14.6,37.65,1.08,49.45,1.55,3.33.13,14.8.52,25.47.87s20.1.75,21,.9,2.58.49,3.8.74a48.25,48.25,0,0,0,6.45.64c2.33.1,4.83.62,5.53,1.16,1,.78,3.89,1,14,1.14,7,.09,13.19.33,13.8.54a82.53,82.53,0,0,0,9.39.75c21.77,1,43.54,1.73,53.55,1.9,6.07.11,19,.69,28.71,1.28s22.14,1.18,27.61,1.29c37.82.78,68,1.77,83.92,2.74,5.46.33,15,.78,21.28,1s11.62.64,11.94.93-1.06.55-3.07.58-5.06.11-6.77.18a9.16,9.16,0,0,1-3.6-.31c-.27-.24-2.32-.15-4.56.19a67.82,67.82,0,0,1-11.31.23c-4-.23-25.11-.52-47-.66s-47.94-.42-58-.64c-17.86-.39-22.93-.15-11.21.53a45.18,45.18,0,0,1,6.45.65c.78.44-3.25,1.53-6.6,1.78-3.91.3-5.13,1.08-1.8,1.15,1.47,0,9.17.31,17,.63s23.41.74,34.5.94c18.22.33,20.16.47,20.16,1.45,0,1.36,4.44,1.69,31.23,2.27,10.84.23,19.9.66,20.22.94s2.75.53,5.41.53c9.07,0,6.53,1.71-4.61,3.1a77.76,77.76,0,0,1-9.39.6c-13.45-.42-9.92.8,5.16,1.79,6.08.39,14.53.85,18.78,1s11.95.57,17.12.91,15.59.8,23.18,1c9.35.28,14.17.67,14.91,1.22s4.55,1,8.83,1.21,8.23.75,8.84,1.16,4.73,1,9.16,1.18,9.17.82,10.55,1.32c1.55.58,6.33,1,12.91,1.19,14.16.37,25.3,1.06,25.92,1.62s-9,1.43-10.51.91c-.61-.21-1.11-.12-1.11.21s1.75.77,3.87,1c4.17.44,5,1.21,1.93,1.88-3.6.78,1.45,2,12.8,3.15,9.53.94,15.56,2.1,11.16,2.15-4.12,0,2.25,1.14,8.88,1.52a47.48,47.48,0,0,1,8.45,1,48.42,48.42,0,0,0,8.27,1.23q16,1.5-.34,2.22c-4.06.18-7.78.71-8.91,1.27-1.56.79-3.48.88-10.48.51-14.24-.74-17.06-.6-19.17,1-1,.78-1.66,1.61-1.41,1.85s3.82.63,7.91.87a54.79,54.79,0,0,1,8.55.92,36.83,36.83,0,0,0,6.35.92c7.91.66,6.29,1.53-2.85,1.53-4.46,0-8.48.21-8.94.47s-5.09.46-10.29.46c-6.58,0-9.6.24-9.93.78s.83.77,3.75.78a64.6,64.6,0,0,1,8.1.57c2.13.31,8.08.74,13.21,1s9.91.65,10.6,1a2.59,2.59,0,0,0,1.89.22,7.57,7.57,0,0,1,3.21.15c2,.4.83.6-5.16.91a146.4,146.4,0,0,0-19.33,2.17c-2.7.58,1.5,1.22,14.08,2.14,6.22.45,11.32,1,11.32,1.19s3.23.25,7.18.11c5.76-.2,7.17-.08,7.17.65,0,1.12-3.49,3-5.61,3-1.3,0-1.28-.12.09-.61s1.36-.61-.31-.61a3.54,3.54,0,0,0-2.63.95c-.55.82-2.55.91-13.49.64-13.7-.35-17.06.06-14.54,1.77,4.23,2.85,21.47,5.92,33.34,5.92,7.16,0,10.9.75,10.9,2.19,0,.72-1.77.9-8.55.89a116,116,0,0,1-13-.67c-2.43-.36-13.88-.78-25.43-.93-20.45-.28-21-.25-21.2,1s1.19,2,3.56,2.27c.61.05,5.38.55,10.59,1.1,17.06,1.8,32.22,2.9,47.73,3.46,14.37.52,19.27,1.22,17.78,2.57a1.85,1.85,0,0,1-1.66.2c-.58-.21-.92,0-.75.45s-.55.78-1.62.73-1.67.14-1.39.4-1.15.66-3.22.88c-4.45.47-5.51,1.58-3.22,3.41,1.21,1,1.34,1.55.47,2.14-1.42,1-.49,1.62,2.29,1.62a4.24,4.24,0,0,1,2,.26,5.33,5.33,0,0,0,.73,1.33c.68,1-.06,1-9.1.66-5.41-.23-11.67-.58-14-.78-3.29-.29-4.17-.17-4.17.6,0,.53-.83,1.22-1.77,1.52-2.5.8-1,4.36,2.16,5.08,2.27.51,2.27.54.17.62s-2.21.09,0,.62-.83.74-12.15.89c-4.71.07-8.28.9-8.28,1.94,0,.55-1.14.89-3,.89a44.88,44.88,0,0,0-5.55.39c-2.35.35-2.39.43-.55,1.21a15.54,15.54,0,0,0,5,.85,54.18,54.18,0,0,1,10.3,2.19,51.21,51.21,0,0,0,10.9,2.16c6.66,0,17.12.79,16.61,1.26-.28.25.34.42,1.37.38s2,.39,2.27,1c.51,1.36-6,3.71-9.38,3.38-1.35-.13-2.62.06-2.85.43-.51.88-13.41,1.13-18.56.36-2.19-.33-13.49-.67-25.12-.76-19.66-.16-25.45.16-18.1,1,1.66.19,5.27.62,8,1a89.44,89.44,0,0,0,9.66.66c2.59,0,4.7.3,4.7.64s.77.62,1.72.62a17.63,17.63,0,0,1,4,.68c2.24.68,2.23.69-.35,1.41-4.53,1.27-3.12,2.47,4.48,3.82,3.91.7,7.35,1.67,7.63,2.17a3.22,3.22,0,0,0,1.49,1.26c1.67.62-.33,2.53-2.24,2.12-1-.21-1.46-.21-1.08,0s-.58,1.09-2.11,1.94c-2,1.13-4.09,1.59-7.5,1.67-2.6,0-4.53.28-4.28.51s-4.31.26-10.12.1c-8.45-.25-10.94-.12-12.42.63-2.06,1-12.9,1.47-18.56.74-2.16-.28-3.73-.2-4.17.23a6.57,6.57,0,0,1-3.33.68c-3.33,0-6.1.59-6.1,1.31,0,.3.72.55,1.6.55a4.07,4.07,0,0,1,2.54.94c.58.58,4.89,1.37,11.37,2.07,12.76,1.4,22.15,3.53,21.27,4.82a2.26,2.26,0,0,1-2.19.57c-.84-.19-1.3-.09-1,.22s-.69,1.43-2.28,2.49c-2.13,1.42-3.48,1.83-5.11,1.54-1.23-.22-2-.15-1.6.16s-1.1.6-3.22.63-7.33.54-11.59,1.13l-7.75,1.06,2.5,1.47a10.59,10.59,0,0,0,3.49,1.48,33.42,33.42,0,0,1,4.81,1c3.63,1,3.71,1.07,2.1,2.45-1,.9-1.26,1.58-.56,1.82s.79.67.4,1a1.19,1.19,0,0,1-1.67-.2,1.32,1.32,0,0,0-1.79-.21,17.89,17.89,0,0,1-4.17,1.53l-3.33.89,3.49.22c3.78.22,5.83,1.81,3.07,2.4a4.48,4.48,0,0,1-2.3,0c-.34-.19-2.26.18-4.29.82a48.6,48.6,0,0,1-7.87,1.6,20.4,20.4,0,0,0-5.68,1.27c-1.94,1.09-2.7,1.07-12.95-.41-9.21-1.32-11.81-1.19-15.59.74-2.13,1.09-3,1.15-8.76.55-7.56-.78-21.82-.88-21-.15.31.29,4.17.86,8.62,1.29,11.29,1.08,12.56,1.31,10.71,1.95-3.22,1.12,11.17,3.74,25.23,4.61,3.8.24,7.15.65,7.44.91s-.51,1.23-1.78,2.14c-2.14,1.53-2.18,1.74-.54,2.75a5.35,5.35,0,0,1,1.78,1.45c0,.76-18.7-.34-24.85-1.47-8.83-1.62-26.73-2.8-28.38-1.87-.88.49-.89.91,0,1.48,1.16.78,2.92,1.12,17.65,3.33,4.59.69,6.9,1.35,6.9,2s-1.3.87-8.19.52c-5.24-.27-8.44-.19-8.89.22s-.1.64.64.64,1.1.15.78.32c-.74.42-16.38-1.42-17.93-2.11-1.23-.54-17.35-1.93-20.79-1.79-1.06,0-1.93.42-1.93.85a3.43,3.43,0,0,1-.58,1.61c-.54.79,13,2.39,36.19,4.3a88.64,88.64,0,0,1,10.35,1.46,40,40,0,0,0,7.45.94c5,0,12.18,1.23,11,1.88-.53.3-7.25.63-14.94.73s-13.88.22-13.78.28,2.64.64,5.64,1.3c5.23,1.16,5.35,1.24,3,2-1.87.57-3.87.59-8,.09-6.73-.81-7.61-.82-7.61-.09,0,.31,1.48.75,3.33,1,6,.74,4.73,1.54-2.5,1.54a47.37,47.37,0,0,0-10.54,1,15,15,0,0,1-5.92.53c-3.15-.56-55-.77-54.39-.22,1.29,1.17-13.2,1.16-25.56,0-25-2.37-46.33-3.72-60.06-3.8-7.59-.05-19-.47-25.4-.93s-17.74-1.14-25.24-1.49-14-.75-14.36-.88-4.43-.42-9-.63-10-.52-12.14-.66c-4.42-.3-24.58-.93-39.17-1.23-10.58-.21-26.66-.78-37.54-1.33-3.64-.18-17.81-.45-31.47-.59s-29.82-.5-35.89-.77-22.87-.48-37.32-.45c-21.87.05-26.46.21-27.33,1s-1.2.79-2,.05c-.66-.57-2.08-.74-4.26-.5a9.82,9.82,0,0,1-4.47-.31,15.51,15.51,0,0,0-4.85-.81,57,57,0,0,1-5.83-.49c-6.62-1.1-13.51-1.42-16.29-.76-2.23.53-7.8-.09-7-.79.28-.26-5-.55-11.83-.64-18.27-.24-20.17-.36-22.24-1.32-1.67-.78-1.85-.74-1.52.33.25.81-.16,1.13-1.28,1-.91-.12-2.78-.22-4.17-.23s-2.5-.23-2.5-.49-.83-.65-1.77-.86c-1.3-.27-1.6-.11-1.12.59s.23.82-.71.48c-.75-.27-6.09-.58-11.86-.68-12.13-.23-10.32-.22-67.35-.11-24,0-46.67-.12-50.44-.36A52.53,52.53,0,0,0,1122,264c-1.88.4-38,1.2-49,1.09-8.67-.1-18.5,2.76-13,3.78.84.16.25.59-1.38,1.08a14.66,14.66,0,0,0-3.33,1.33c-1.22,1-10.6,1.62-13.26.82-1.66-.5-6.12-.68-13.11-.53-5.84.13-24.93.38-42.46.56s-33.1.49-34.57.7-7.74.42-13.93.47-12.25.41-13.45.79c-2.18.69-12.42,1.81-14.17,1.55a43.51,43.51,0,0,0-9.61.2,47.59,47.59,0,0,1-6.08.37l-4.41-.22c-1.22-.06-6.93.22-12.7.62s-12.64.72-15.26.71a23.94,23.94,0,0,0-6.08.58,23.6,23.6,0,0,1-4.89,1c-2.93.36-3.58.24-3.58-.61s-.92-1-8-.61c-4.4.24-15.95.5-25.67.58s-20.35.47-23.62.87-6.19.72-6.48.72.08.42.83.93a12.07,12.07,0,0,0,5.11.93,14.16,14.16,0,0,1,3.73.26,4.35,4.35,0,0,0,.67,1.24c.92,1.34-2.19,1.28-4.64-.1-1.39-.78-2.05-.86-2.38-.3a1.29,1.29,0,0,1-1.47.42c-.56-.19-1-.13-1,.15s-1.11.53-2.5.58-8.94.39-16.83.77-23.8.82-35.34.95-22.22.4-23.74.59c-5.14.63-33.42,2.1-48.58,2.52-28.09.78-49.38,3-53.77,5.69a12.8,12.8,0,0,1-5.54,1.53c-14.28.26-34.12,1.1-42.83,1.8-3.65.3-10,.71-14.17.92s-10.07.65-13.12,1-5.73.59-5.94.59-.41-.71-.41-1.58Zm0-5.64c0-.68-.48-.73-2.17-.22-1.29.39-1.91,1-1.52,1.58s1,.78,2.17.23C521,294,521.72,293.25,521.72,292.77Zm186.06-9.21c4.32-.87,4.21-.88-5-.58-21,.69-27.6,1-27.6,1.47,0,.81,27.92.05,32.56-.89Zm-512.91-7.48a3.07,3.07,0,0,0-1.66-.24c-.92,0-1.67.27-1.67.6s.74.44,1.67.24a3.35,3.35,0,0,0,1.66-.6ZM275,274c.38-.35-.53-.62-2.08-.62a7.37,7.37,0,0,0-3.45.62c-.38.35.52.62,2.08.62A7.25,7.25,0,0,0,275,274Zm-52.5-3.18c0-.63-1.33-.69-3.78-.17-2.77.6-2,1.34,1,1C221.24,271.49,222.47,271.12,222.47,270.81Zm624.8-.1c3.76-.58,4.28-.81,2.42-1.06-2.94-.39-38.08.44-56.9,1.34-5.12.25,34.39.85,42.5.65a113.61,113.61,0,0,0,12-.93Zm38.27-1.9c1.22-.16-1-.27-5-.24-9.42.06-13.15.63-7.18,1.09a37.46,37.46,0,0,0,7.18-.11c1.57-.25,3.8-.56,5-.74ZM180.89,269c2.28,0,2.26-.07-.29-.64-3-.68-5.6-.34-5.6.73,0,.38.83.53,1.75.32a27.78,27.78,0,0,1,4.17-.41Zm721.25-.7c.3-.16-1.66-.35-4.36-.4s-5.25.21-5.67.59.77.6,4.37.4A34.83,34.83,0,0,0,902.14,268.29Zm863.47-7.3c.42-.38-1.34-.59-4.63-.55-4.71.07-4.94.13-2,.55C1763.82,261.67,1764.85,261.67,1765.61,261ZM63.69,251.89a3.82,3.82,0,0,0-2.12,0c-.37.2.28.35,1.45.32s1.54-.18.67-.37Zm13-.82c2.22-.4,2.32-.5.55-.51a22,22,0,0,0-4.42.51c-2.81.68.09.68,3.87,0Zm14.82.24c1-.2,1.74-.87,1.74-1.48,0-1-.69-1.07-4.69-.79-5.08.36-8.39,1.41-4.43,1.41a6.15,6.15,0,0,1,3,.62c.78.71,1.86.77,4.33.24Zm1793.86-10.77c0-.34-.83-.61-1.92-.61-1.67,0-1.67.1-.29.61,2.09.76,2.21.76,2.21,0ZM118.9,215.35a3.82,3.82,0,0,0-2.12,0c-.37.21.28.35,1.45.33s1.54-.18.67-.38Zm-9.05-1.81c0-1-3.07-1.12-7.1-.26-4.4.94-3.34,1.6,2.14,1.35C108.22,214.48,109.85,214.13,109.85,213.54Zm20.51.45c-1.1-1-5.05-1.25-5.05-.33,0,.53,1.14.88,2.83.88S130.7,214.29,130.36,214ZM122,213.3c1.23-.45.6-.61-2.5-.61-2.28,0-4.17.27-4.17.61,0,.79,4.46.79,6.64,0Zm1840.71-72.45c0-.34-.49-.62-1.1-.62s-1.11.28-1.11.62.5.62,1.11.62,1.07-.28,1.07-.62Zm8-11.56a7.53,7.53,0,0,0-2.76,0c-.76.17-.14.31,1.38.31s2.14-.14,1.38-.31Zm-16.57-7.46a27.83,27.83,0,0,0-5,0c-1.36.15-.25.27,2.5.27s3.84-.11,2.47-.27Zm-51.07-5c0-.26-4.1-.81-9.11-1.21s-10.3-.93-11.76-1.17c-1.67-.26-2.4-.19-2,.19s5,1,10.4,1.4,10.21.87,10.83,1l1.38.25c.15,0,.27-.17.27-.44ZM292.64,111.12c2-.47,1.88-.53-.77-.57a7.77,7.77,0,0,0-3.65.57c-.85.74,1.31.74,4.38,0Zm1602.75-3.63c0-.29-5-.85-11.09-1.23-13.72-.88-16.19-.9-14.79-.11.59.33,6.54.85,13.2,1.15s12.24.59,12.4.64S1895.39,107.79,1895.39,107.49ZM230.65,100.08c.31-.28-.16-.52-1-.52s-1.61.24-1.61.52.47.52,1,.52A2.81,2.81,0,0,0,230.65,100.08Zm147.73-1.15a3.82,3.82,0,0,0-2.12,0c-.36.21.29.35,1.45.33s1.55-.18.67-.38ZM207,98.12c0-.34-.83-.62-1.93-.61-1.67,0-1.67.1-.27.61,2.08.75,2.2.75,2.2,0Zm4.42-1c0-.15-.5-.27-1.11-.27s-1.1.3-1.1.66.5.48,1.1.27S211.44,97.27,211.44,97.12Zm62.94-4.31c1.52-.24,6.24-.66,10.49-1s9.47-.81,11.59-1.17,3.87-.63,3.87-.6c0,.24,7.57-1.09,11.32-2,5.7-1.35,6.05-2.4.83-2.4-2.7,0-3.87-.28-3.87-.93,0-1,4.94-1.32,13.14-1,3.58.15,13.78-.92,16.11-1.68,1.74-.57-3.83-1.21-11.1-1.28A57.32,57.32,0,0,0,313,82.29a70.53,70.53,0,0,1-9.32,1.56c-1.81,0-1.95.12-.67.57a4.65,4.65,0,0,0,2.5.27c.48-.17.88,0,.88.28,0,.55-2.42.94-10.83,1.76-2,.19-3.95.74-4.28,1.22-.48.71-.91.73-2.32.08s-1.67-.63-1.09.19,0,1-1.72.87a39.43,39.43,0,0,0-6,.46c-2.55.39-4.17.33-5.25-.18-.92-.38-1.59-.38-1.59-.08,0,.68-8.41,2.64-11.36,2.64-1,0-1.89.38-1.89.84,0,.63,1.49.81,5.79.68,3.2-.1,7.05-.37,8.56-.61ZM319.8,70.38a4.55,4.55,0,0,0-2.61.39c-.84.46-.39.54,1.45.27C320.13,70.82,320.63,70.54,319.8,70.38Zm1333.73-2.45c0-.26-1.51-.52-3.33-.6s-3.07.13-2.7.47c.77.7,6,.81,6,.13ZM323,64l2.77-.05-2.58-.58c-2.91-.65-7.91-.15-7.91.8,0,.34,1.11.46,2.5.25A48.55,48.55,0,0,1,323,64Zm1321.72.13c0-.28-.74-.51-1.67-.51s-1.66.23-1.66.51.74.52,1.66.52,1.69-.19,1.69-.48Zm4.62.1a3.79,3.79,0,0,0-2.11,0c-.37.2.29.35,1.45.32s1.55-.18.66-.37ZM342,63a3.82,3.82,0,0,0-2.12,0c-.37.2.28.35,1.45.32s1.54-.17.67-.37Zm-123.88-.82c0-.34-.5-.62-1.11-.62s-1.1.28-1.1.62.5.62,1.1.62,1.11-.25,1.11-.59Zm28.71-1.62c0-.7-2.08-.09-2.67.78s-.43.89,1,.23a5,5,0,0,0,1.69-1Zm11,.07c0-.51-.2-.92-.43-.92a2.09,2.09,0,0,0-1.08.92c-.34.52-.15.93.44.93a1,1,0,0,0,1.07-.9ZM1703.43,39.49a3.82,3.82,0,0,0-2.12,0c-.36.2.29.35,1.45.32s1.55-.18.67-.37ZM686.75,27c.35-.32.18-.74-.37-.93a1.5,1.5,0,0,0-1.66.58c-.69,1,1,1.29,2,.35ZM162.64,292.72c-.64-.43-.73-.79-.19-.8s0-.32-1.11-.69c-2.91-1-.33-1.76,5.38-1.69,3,0,3.7.18,2.21.45-2.11.38-3.67,2-1.93,1.94,3.24,0,5.58-.84,5.07-1.75s-.35-.89,1,.06c1.89,1.28,10.29,1.52,11,.31.36-.62.83-.61,2.18,0,2.15,1,3.42,3.41,1.59,3-.72-.15-1.13-.64-.93-1.1s-.26-.52-1.67.2c-1.67.83-4,1-11.76.91-6.16-.07-10.13-.4-10.83-.89Zm-15.18-1.37c-1.47-.51-.76-1.89,1-1.89,1.26,0,2.37,1.75,1.33,2.11A4.42,4.42,0,0,1,147.46,291.35Zm23.34-5c-1.22-1.1-1.09-1.25,1.12-1.33,1.36-.06,3.24-.14,4.16-.2,2.94-.18,3.5.39,1.56,1.59-2.43,1.58-5.07,1.52-6.8,0Zm668.89-4.61c0-.15.5-.45,1.11-.66s1.1-.08,1.1.28-.49.65-1.1.65-1.07-.1-1.07-.25Zm13-.42a2.68,2.68,0,0,1,2-.43c.35.19-.26.54-1.35.77-1.54.33-1.66.33-.58-.32ZM260,279.61c0-.3.76-.9,1.66-1.33a2.79,2.79,0,0,1,3,0c1,.57.95.87-.33,1.32-2.08.74-4.41.77-4.41.06ZM1506.68,274c0-.34.72-.62,1.59-.62a4.07,4.07,0,0,1,2.28.62c.37.34-.34.62-1.59.62S1506.68,274.32,1506.68,274Zm-18.77-.65c0-.71,3-.78,3.72-.09.3.27-.42.53-1.59.58s-2.13-.18-2.13-.49Zm-1095-1c-1-1.46.52-1.67,4.34-.61,2,.55,3.12,1,2.5,1.09-4.65.38-6.34.26-6.85-.49Zm954.81-1.44a.57.57,0,0,1,.49-.62h0a2.35,2.35,0,0,1,1.17.62c.38.34.16.62-.49.62s-1.18-.29-1.18-.63Zm-15.91-.54c-.48-.43-.57-.95-.2-1.16,1-.55,2.06.27,1.52,1.16C1332.73,271,1332.46,271,1331.77,270.36Zm4,.13c-2.27-.51-1.57-1.36.83-1,1.22.18,2.21.57,2.21.87,0,.57-.88.63-3,.12Zm529.37-3.1c-1.27-.71-.84-1.45.92-1.45.91,0,1.67.42,1.67.93,0,1-1.3,1.23-2.58.52ZM494.81,263.58c-.3-.27.43-.53,1.62-.58s1.86.17,1.51.49A2.63,2.63,0,0,1,494.81,263.58Zm9.95-1.06a3.46,3.46,0,0,1,2.45-1c1,0,4.05-.17,6.78-.33,3.59-.2,4.51-.1,3.34.35-1.37.52-1.39.63-.09.64.83,0,1.25.18.87.39a43.84,43.84,0,0,1-7.32.62C505.24,263.41,504.24,263.29,504.76,262.52ZM54.13,261c-.84-.74,1.26-1.47,2.73-1,1.23.42.43,1.54-1.12,1.54A2.73,2.73,0,0,1,54.13,261Zm10.44-16.1c0-.33.49-.76,1.09-1s.83,0,.43.59c-.72,1.13-1.51,1.33-1.51.44Zm8.1-.32c0-.5.42-.76.94-.58s.65.58.3.9c-.88.84-1.23.75-1.23-.29Zm1924.24-80.84c-.91-.33-1.16-.6-.55-.6a10.26,10.26,0,0,1,2.76.6c.91.33,1.16.6.55.6a9.92,9.92,0,0,1-2.73-.57Zm-1814.24-46c0-.27,1-.49,2.21-.49s2.21.27,2.21.59-1,.53-2.21.48-2.15-.24-2.15-.51Zm46.25-9.09-2.59-1.18,6.6-.49c3.64-.27,9.22-.51,12.4-.53s5.84-.22,5.84-.45c0-.49,6.57.47,7.6,1.11.37.23-.83.25-2.73,0a18.3,18.3,0,0,0-6.62.59,41.63,41.63,0,0,1-9,1c-3.19,0-5.83.28-5.83.56,0,.88-3,.52-5.65-.68Zm-13.93.18a3.73,3.73,0,0,1,2.12,0c.88.2.62.35-.67.38s-1.81-.12-1.45-.33Zm-20-8.48c-.05-.66.2-1,.57-.82s.41.74.09,1.19S195,101.06,195,100.34Zm30.16-5.21c.3-.28-.46-1-1.67-1.59-2.23-1.07-2.15-1.12,4.57-2.9,8.1-2.15,8.84-2.19,8.84-.57,0,.76-.74,1.24-1.93,1.25-1.56,0-1.66.11-.37.56a9.47,9.47,0,0,0,3.59.34c1.11-.12,2,.06,2,.41s-1.61.58-3.59.52-4.58-.08-5.83,0c-1.84.06-1.93.17-.56.67s1.38.61-.27.61c-1.06,0-1.94.29-1.94.63s-.77.62-1.71.62-1.47-.23-1.16-.51Zm14.11-5c-1.11-.39-1.06-.65.21-1.24,1.78-.83,3.21-.11,2,1a2.38,2.38,0,0,1-2.19.25ZM201,64.06c-.38-.34.07-.62,1-.62a4.21,4.21,0,0,1,2.35.62c.37.34-.07.62-1,.62A4.18,4.18,0,0,1,201,64.06Zm22.62-2.77c1.59-1.08,2.22-1.19,2.22-.39,0,.3-.83.73-1.81.94C222.47,62.17,222.4,62.08,223.57,61.29Zm1560.57-10c1.29-.72,8.34-1.29,9.79-.78.84.29,1,.56.39.6C1788.36,51.49,1783.63,51.58,1784.14,51.29Zm-6.71-.76c-.91-.33-.22-.51,1.94-.51,1.85,0,3.33.24,3.33.52,0,.66-3.42.65-5.29,0Zm-28.38-.79c-4.73-.59-16.21-1-37.64-1.4-7.35-.13-14.42-.55-15.72-.94s-6.36-.64-12.32-.54c-5.48.1-10,.11-10,0a45,45,0,0,1,7.19-2c.37,0,.37.28,0,.62s.73.62,2.7.62,3.33-.28,3.33-.62.53-.62,1.17-.62.84.35.35.78-.42.61.75.14a11.74,11.74,0,0,1,3.8-.55c1.22,0,4.85.11,8.08.16s5.62.3,5.35.56,2.5.42,6.28.37a46.42,46.42,0,0,1,8.73.49c1.29.38,1.93.35,1.93-.1s.6-.47,1.34-.22a80.71,80.71,0,0,0,10.76.63c5.19.1,9.44.2,9.44.24s2.5.17,5.51.28,5.65.26,5.84.34a18.8,18.8,0,0,0,3.33.54c.88.11-4.3,1.91-5.24,1.82-.3,0-2.54-.3-5-.6Zm-44.73-3.1c0-.29-1-.54-2.14-.54a5.7,5.7,0,0,0-2.74.54c-.33.3.64.55,2.15.55s2.73-.2,2.73-.55Zm59-1.79a1.92,1.92,0,0,0-1.73-.27c-.56.2-1,.08-1-.26,0-1.2,1.78-1.22,3.1,0,.73.66,1.11,1.2.83,1.2a2.31,2.31,0,0,1-1.19-.63Zm-23.64-2.41a5.07,5.07,0,0,0-2.63-.9,37.55,37.55,0,0,1-5.89.49c-5.12.2-11.47-1.07-9.86-2,1.28-.72,8.92-.55,10.58.24a8.46,8.46,0,0,0,6.2,0c1.18-.66,6.8-.51,7.59.19,1.06,1-.52,3.09-2.29,3.09a9.5,9.5,0,0,1-3.7-1.18Zm11.4.47c-.47-.43-.31-.55.4-.3a2.14,2.14,0,0,0,1.9-.21c1-.94,2.4-.77,2.4.3S1752.26,44,1751.12,42.91ZM460.18,38.3a3.73,3.73,0,0,1,2.12,0c.88.2.62.34-.67.37S459.82,38.5,460.18,38.3ZM682.93,20.71a.58.58,0,0,1,.5-.62,2.32,2.32,0,0,1,1.16.62c.38.34.16.62-.48.62S682.93,21.05,682.93,20.71Zm25.76.07c-1.79-.74-1.36-1.79.6-1.51,1.25.19,2.05-.07,2.17-.68l.37-1.9c.1-.51,1.1-1,2.21-1a22.94,22.94,0,0,0,2.85-.2l4.17-.63c4.06-.61,6.26-1.52,5.45-2.26-.33-.3.38-.55,1.58-.55a4.11,4.11,0,0,1,2.74.78c.39.54.83.57,1.47.11a8.17,8.17,0,0,1,6.79-.74c1.42.65,1.56.63.78-.1s-.48-.78,1-.46a18.79,18.79,0,0,0,3.42.41,2.69,2.69,0,0,1,2.16,1.18c.42.75,1.37,1.07,2.65.88,2.82-.41,2.5-1.94-.32-1.65-2.24.23-2.25.22-.09-.35a31.28,31.28,0,0,1,5.94-.63c2.06,0,6.79-.32,10.49-.65,9.6-.84,33.8-2.4,44.82-2.84,5.16-.21,11.62-.48,14.35-.62,5.76-.28,17.13-.73,32-1.27,5.77-.21,13.72-.53,17.67-.72,9.48-.45,24.41-.49,26.5-.06.91.19,3.76.55,6.35.81s4.69.68,4.69.93a8.44,8.44,0,0,1-2.73,2c-2.23,1.25-3.76,1.52-8.29,1.47-3.33,0-5.41.19-5.18.57s4.17.65,8.87.68c7.35,0,12.24.84,10.56,1.73-.74.39-15.38.78-15.38.41,0-.19-3.33-.25-7.45-.14s-10.31-.06-13.79-.37a41.4,41.4,0,0,0-6.86-.27,29,29,0,0,1-5.26.42,76.9,76.9,0,0,0-7.78.61,9.23,9.23,0,0,1-4.46-.17c-.77-.36-6.2-.72-12.08-.8-7.26-.1-10.45-.36-10-.81s-.13-.28-1.16.19c-1.29.58-3.27.72-6.36.45s-4.26-.19-3.8.23c.78.71.64.72-9.37.87a80.76,80.76,0,0,0-9.66.6c-1.32.27-2.5.26-2.5,0s-1.24-.51-2.77-.51-2.75.21-2.75.47-.78.46-1.72.46-1.47-.24-1.15-.52c.77-.7-10.58.32-11.4,1-1.51,1.29-22.17,2.59-22.17,1.4,0-.36-.52-.66-1.17-.66s-.89.26-.54.58c1,.9-1.54,1.46-3.18.69-1.1-.51-1.62-.48-2,.13s-2.18.76-5.1.67c-2.5-.08-4.55.11-4.55.43,0,1-5.66.35-6.77-.8a2.38,2.38,0,0,0-2.14-.75c-.58.21-.83.6-.5.88s-.15.67-1,.86a3.05,3.05,0,0,1-2.27-.25c-.41-.37-1.83-.24-3.63.32-3.4,1.06-14,2.19-15.3,1.64ZM692.85,18c0-1.08.66-1.24,1.61-.39.35.32.12.76-.49,1s-1.09-.08-1.09-.58ZM697,16.89a4.48,4.48,0,0,1,2.62-.38c.83.15.32.44-1.17.65C696.63,17.43,696.2,17.35,697,16.89Zm380.38-1.57c-1.37-.15-2.5-.48-2.5-.74,0-.76,4.8-.34,5.27.45.24.4.26.69.06.64s-1.48-.2-2.85-.35Zm-22.92-1.42c3-.73,4.79-.73,2.77,0a11.26,11.26,0,0,1-3.34.57c-1.05,0-.86-.22.59-.57Zm6.67.06c-.34-.31.37-.42,1.59-.24,2.58.38,2.9.8.62.8a3.91,3.91,0,0,1-2.17-.53ZM919,12.56c-1.74-1-1-1.05,12.69-1.1,8,0,15.66-.17,17-.31a5.79,5.79,0,0,1,3,.25c.32.29,2.1.46,4,.39,5-.2,5,.71,0,1-2.37.13-4.08,0-3.79-.24.91-.82-.79-.52-2.5.45-1.87,1.06-6.54,1.25-7.57.31-.45-.41-1.41-.4-2.85,0-2.44.73-4.74.23-3.62-.79.49-.44.22-.48-.83-.12a46.68,46.68,0,0,1-7.63.87c-4.78.26-6.46.11-7.92-.71Zm88.53.72a.57.57,0,0,1,.48-.62h0a2.35,2.35,0,0,1,1.17.62c.37.34.16.62-.49.62s-1.13-.28-1.13-.62ZM963.36,12c-1-.36-1.13-.6-.34-.61a3.48,3.48,0,0,1,2,.61c.89.77.51.77-1.62,0Zm431.33,0c.57-.52-3.64-1.13-4.49-.65-1.19.66-6.09.79-6.09.15,0-.39-3.14-.48-8.56-.25-6.66.28-9.42.13-12.42-.65-2.13-.56-3-.88-2-.73a2.92,2.92,0,0,0,2.2-.25,3.45,3.45,0,0,1,2-.74,6,6,0,0,0,2.5-.82c.46-.34.84,0,.84.74,0,1.28.17,1.3,3,.46,2.72-.8,3.19-.78,4.57.19s1.49,1,.83,0c-.51-.83-.06-1.08,2-1.08a6.52,6.52,0,0,1,3.79,1.08c.62.61,1.14.74,1.16.31,0-.81,3.33-1.11,3.33-.31,0,.26,3.76.45,8.33.43s8.6.19,8.9.47a6.27,6.27,0,0,0,2.91.5c1.9,0,2.1.15,1,.77-1.38.78-14.71,1.14-13.88.38Zm18.13,0c0-.28.37-.53.83-.56l4.36-.3c4.37-.32,5.93.74,1.73,1.18S1412.82,12.56,1412.82,12Zm-79.48-2.11c0-.34-1.86-.62-4.16-.62s-4.51.28-5,.62-.84.41-.84,0c0-.78-6.67-1-6.67-.19,0,.31-.45.41-1,.22-1.05-.36-10.76-.95-21.08-1.27-3.33-.1-6.07-.25-6.07-.33,0-.41-14.53-.42-15.46,0-1.67.74-12.7,1.25-12.7.59,0-.31-.75-.57-1.66-.57s-1.67.27-1.67.6-7.77.48-20.7.3c-11.39-.16-21.91-.29-23.33-.29a49.92,49.92,0,0,1-6.35-.56c-2.22-.34-3.69-.35-3.69,0,0,.57-3.86.48-4.91-.11a107,107,0,0,0-11.16-.09c-7.05.15-11.15,0-12.19-.51-1.21-.56-1.56-.53-1.57.13s-.32.61-.84.2-6.77-.68-15.71-.72c-8.2,0-33-.24-55.21-.43s-50.62-.4-63.22-.44-22.92-.26-22.92-.47-2.73-.39-6.07-.39-6.07.21-6.07.47-.53.46-1.17.46-.83-.28-.49-.62-.09-.62-1-.62-1.73-.28-1.73-.62S998.15,4,997.5,4s-.83.28-.49.62-.83.62-3,.61c-2.77,0-3.25-.15-2-.61s1.27-.6.2-.61-1.09-.22.19-.94a9.63,9.63,0,0,1,3.95-.92c1.26,0,2.28-.3,2.28-.67s1-.49,2.35-.24c1.58.28,2.1.19,1.59-.27s-.46-.68-.11-.68a2.76,2.76,0,0,1,1.5,1.27l.83,1.28,2.92-1.29c2-.88,3.15-1.06,3.67-.59a1.09,1.09,0,0,0,1.67-.14c.76-.68,8.33-.84,40.44-.82,21.74,0,48.46.2,59.4.42s29.06.56,40.3.76c40.57.71,51,1,51.92,1.29,2,.7,10.94,1.32,12.28.86a2.51,2.51,0,0,1,2.3.24c.63.55,1.13.51,1.94-.19.6-.51,1.09-.65,1.11-.31s6.84.6,18.51.55c18.44-.08,50,.92,50,1.58,0,.2,3.85.32,8.56.28,8.06-.06,26.67.78,29.93,1.37,1.22.21,1.24.44.12,1.2s-1.1.89.15.66c.83-.15,2.93-.44,4.63-.65,1.89-.23,2.83-.67,2.44-1.13s-.06-.32.65.21c1,.78,2.46.88,7.41.5a33,33,0,0,1,8.07.12,23.56,23.56,0,0,0,5,.66c2.87.08,2.9.11.45.37-2.07.22-2.32.41-1.11.83,1.67.61.28.69-15.27.81-5.43.05-9.11-.17-9.11-.54ZM1012.41,4.31a1.5,1.5,0,0,0-1.61-.59c-1.56.54-1.16,1.51.63,1.51,1,0,1.35-.36,1-.92ZM948,6.42c1.14-1.19,1.07-1.32-.5-1s-1.66.2-.5-1l1.34-1.33,1.1,1.38c1.26,1.58,3.54,1.81,4.47.45.35-.51.24-.93-.25-.93a.89.89,0,0,1-.89-.92h0c0-.76,1-.87,5.34-.54,3.64.27,5.34.17,5.34-.3s1.75-.7,3.93-.7c2.58,0,3.67.23,3.18.68s-.08.48,1.56,0c1.93-.57,2.21-.53,1.67.25a2.27,2.27,0,0,1-1.67.94c-.54,0-1,.28-1,.62,0,1.29,2,.55,3.33-1.24C976,.7,976,.68,978.8,1.51c1.4.42,1.84,1.08,1.45,2.2-.3.88-.1,1.51.43,1.41a1.83,1.83,0,0,1,1.52.43c.32.36-2.3.65-6.43.71-6.38.09-7.08,0-8.18-1.38s-5.27-2.11-5.27-.83c0,.36.49.49,1.09.28s.84,0,.46.54a2.36,2.36,0,0,1-2.38.55c-1.13-.25-1.47-.13-1,.33.88.8-2.79,1.4-7,1.14a18.32,18.32,0,0,0-4.78.38c-1.81.5-1.88.41-.7-.83ZM978.2,4.1c.31-.29-.14-.52-1-.52s-1.3.23-1,.52a1.2,1.2,0,0,0,1.92.07ZM933.12,6.54c-.33-.3.38-.69,1.59-.87,1.47-.22,2-.65,1.53-1.31s-.21-1,.36-1c1.52,0,1.27,2-.36,2.94S933.94,7.28,933.12,6.54Zm6.77-1.72A.91.91,0,0,1,941,4a1,1,0,0,1,.67.8c.31.45-.09.82-.88.82S939.58,5.27,939.89,4.82Zm4.27-1.74a14.19,14.19,0,0,1,4.57-.92c2.63,0,4.31.91,2.66,1.48a1.24,1.24,0,0,1-1.45-.35c-.32-.54-1-.54-2.79,0-3.39,1-5.52.88-3-.2ZM929.48,3a3.79,3.79,0,0,1,2.11,0c.84.2.62.35-.67.38s-1.81-.12-1.44-.33Zm58.22-.25c-1.42-.51-1.38-.6.27-.6,1.07,0,1.93.26,1.93.6,0,.76-.12.76-2.2,0Zm-5.93-.94c-.53-.77-.25-.82,1.53-.29,2.56.77,2.8,1.23.65,1.23a2.87,2.87,0,0,1-2.18-.93Z"/></g></g></g></g></svg>